<?xml version="1.0" encoding="utf-8" standalone="no"?>
<!DOCTYPE svg PUBLIC "-//W3C//DTD SVG 1.1//EN"
  "http://www.w3.org/Graphics/SVG/1.1/DTD/svg11.dtd">
<svg xmlns:xlink="http://www.w3.org/1999/xlink" width="720pt" height="432pt" viewBox="0 0 720 432" xmlns="http://www.w3.org/2000/svg" version="1.1">
 <metadata>
  <rdf:RDF xmlns:dc="http://purl.org/dc/elements/1.1/" xmlns:cc="http://creativecommons.org/ns#" xmlns:rdf="http://www.w3.org/1999/02/22-rdf-syntax-ns#">
   <cc:Work>
    <dc:type rdf:resource="http://purl.org/dc/dcmitype/StillImage"/>
    <dc:date>2025-04-12T17:52:30.314419</dc:date>
    <dc:format>image/svg+xml</dc:format>
    <dc:creator>
     <cc:Agent>
      <dc:title>Matplotlib v3.9.2, https://matplotlib.org/</dc:title>
     </cc:Agent>
    </dc:creator>
   </cc:Work>
  </rdf:RDF>
 </metadata>
 <defs>
  <style type="text/css">*{stroke-linejoin: round; stroke-linecap: butt}</style>
 </defs>
 <g id="figure_1">
  <g id="patch_1">
   <path d="M 0 432 
L 720 432 
L 720 0 
L 0 0 
z
" style="fill: #ffffff"/>
  </g>
  <g id="axes_1">
   <g id="patch_2">
    <path d="M 90 384.48 
L 648 384.48 
L 648 51.84 
L 90 51.84 
z
" style="fill: #ffffff"/>
   </g>
   <g id="matplotlib.axis_1">
    <g id="xtick_1">
     <g id="line2d_1">
      <path d="M 90 384.48 
L 90 51.84 
" clip-path="url(#p2b86672c43)" style="fill: none; stroke: #b0b0b0; stroke-width: 0.8; stroke-linecap: square"/>
     </g>
     <g id="line2d_2">
      <defs>
       <path id="m5b063a5b68" d="M 0 0 
L 0 3.5 
" style="stroke: #000000; stroke-width: 0.8"/>
      </defs>
      <g>
       <use xlink:href="#m5b063a5b68" x="90" y="384.48" style="stroke: #000000; stroke-width: 0.8"/>
      </g>
     </g>
     <g id="text_1">
      <!-- −2.0 -->
      <g transform="translate(77.858594 399.078438) scale(0.1 -0.1)">
       <defs>
        <path id="DejaVuSans-2212" d="M 678 2272 
L 4684 2272 
L 4684 1741 
L 678 1741 
L 678 2272 
z
" transform="scale(0.015625)"/>
        <path id="DejaVuSans-32" d="M 1228 531 
L 3431 531 
L 3431 0 
L 469 0 
L 469 531 
Q 828 903 1448 1529 
Q 2069 2156 2228 2338 
Q 2531 2678 2651 2914 
Q 2772 3150 2772 3378 
Q 2772 3750 2511 3984 
Q 2250 4219 1831 4219 
Q 1534 4219 1204 4116 
Q 875 4013 500 3803 
L 500 4441 
Q 881 4594 1212 4672 
Q 1544 4750 1819 4750 
Q 2544 4750 2975 4387 
Q 3406 4025 3406 3419 
Q 3406 3131 3298 2873 
Q 3191 2616 2906 2266 
Q 2828 2175 2409 1742 
Q 1991 1309 1228 531 
z
" transform="scale(0.015625)"/>
        <path id="DejaVuSans-2e" d="M 684 794 
L 1344 794 
L 1344 0 
L 684 0 
L 684 794 
z
" transform="scale(0.015625)"/>
        <path id="DejaVuSans-30" d="M 2034 4250 
Q 1547 4250 1301 3770 
Q 1056 3291 1056 2328 
Q 1056 1369 1301 889 
Q 1547 409 2034 409 
Q 2525 409 2770 889 
Q 3016 1369 3016 2328 
Q 3016 3291 2770 3770 
Q 2525 4250 2034 4250 
z
M 2034 4750 
Q 2819 4750 3233 4129 
Q 3647 3509 3647 2328 
Q 3647 1150 3233 529 
Q 2819 -91 2034 -91 
Q 1250 -91 836 529 
Q 422 1150 422 2328 
Q 422 3509 836 4129 
Q 1250 4750 2034 4750 
z
" transform="scale(0.015625)"/>
       </defs>
       <use xlink:href="#DejaVuSans-2212"/>
       <use xlink:href="#DejaVuSans-32" x="83.789062"/>
       <use xlink:href="#DejaVuSans-2e" x="147.412109"/>
       <use xlink:href="#DejaVuSans-30" x="179.199219"/>
      </g>
     </g>
    </g>
    <g id="xtick_2">
     <g id="line2d_3">
      <path d="M 159.75 384.48 
L 159.75 51.84 
" clip-path="url(#p2b86672c43)" style="fill: none; stroke: #b0b0b0; stroke-width: 0.8; stroke-linecap: square"/>
     </g>
     <g id="line2d_4">
      <g>
       <use xlink:href="#m5b063a5b68" x="159.75" y="384.48" style="stroke: #000000; stroke-width: 0.8"/>
      </g>
     </g>
     <g id="text_2">
      <!-- −1.5 -->
      <g transform="translate(147.608594 399.078438) scale(0.1 -0.1)">
       <defs>
        <path id="DejaVuSans-31" d="M 794 531 
L 1825 531 
L 1825 4091 
L 703 3866 
L 703 4441 
L 1819 4666 
L 2450 4666 
L 2450 531 
L 3481 531 
L 3481 0 
L 794 0 
L 794 531 
z
" transform="scale(0.015625)"/>
        <path id="DejaVuSans-35" d="M 691 4666 
L 3169 4666 
L 3169 4134 
L 1269 4134 
L 1269 2991 
Q 1406 3038 1543 3061 
Q 1681 3084 1819 3084 
Q 2600 3084 3056 2656 
Q 3513 2228 3513 1497 
Q 3513 744 3044 326 
Q 2575 -91 1722 -91 
Q 1428 -91 1123 -41 
Q 819 9 494 109 
L 494 744 
Q 775 591 1075 516 
Q 1375 441 1709 441 
Q 2250 441 2565 725 
Q 2881 1009 2881 1497 
Q 2881 1984 2565 2268 
Q 2250 2553 1709 2553 
Q 1456 2553 1204 2497 
Q 953 2441 691 2322 
L 691 4666 
z
" transform="scale(0.015625)"/>
       </defs>
       <use xlink:href="#DejaVuSans-2212"/>
       <use xlink:href="#DejaVuSans-31" x="83.789062"/>
       <use xlink:href="#DejaVuSans-2e" x="147.412109"/>
       <use xlink:href="#DejaVuSans-35" x="179.199219"/>
      </g>
     </g>
    </g>
    <g id="xtick_3">
     <g id="line2d_5">
      <path d="M 229.5 384.48 
L 229.5 51.84 
" clip-path="url(#p2b86672c43)" style="fill: none; stroke: #b0b0b0; stroke-width: 0.8; stroke-linecap: square"/>
     </g>
     <g id="line2d_6">
      <g>
       <use xlink:href="#m5b063a5b68" x="229.5" y="384.48" style="stroke: #000000; stroke-width: 0.8"/>
      </g>
     </g>
     <g id="text_3">
      <!-- −1.0 -->
      <g transform="translate(217.358594 399.078438) scale(0.1 -0.1)">
       <use xlink:href="#DejaVuSans-2212"/>
       <use xlink:href="#DejaVuSans-31" x="83.789062"/>
       <use xlink:href="#DejaVuSans-2e" x="147.412109"/>
       <use xlink:href="#DejaVuSans-30" x="179.199219"/>
      </g>
     </g>
    </g>
    <g id="xtick_4">
     <g id="line2d_7">
      <path d="M 299.25 384.48 
L 299.25 51.84 
" clip-path="url(#p2b86672c43)" style="fill: none; stroke: #b0b0b0; stroke-width: 0.8; stroke-linecap: square"/>
     </g>
     <g id="line2d_8">
      <g>
       <use xlink:href="#m5b063a5b68" x="299.25" y="384.48" style="stroke: #000000; stroke-width: 0.8"/>
      </g>
     </g>
     <g id="text_4">
      <!-- −0.5 -->
      <g transform="translate(287.108594 399.078438) scale(0.1 -0.1)">
       <use xlink:href="#DejaVuSans-2212"/>
       <use xlink:href="#DejaVuSans-30" x="83.789062"/>
       <use xlink:href="#DejaVuSans-2e" x="147.412109"/>
       <use xlink:href="#DejaVuSans-35" x="179.199219"/>
      </g>
     </g>
    </g>
    <g id="xtick_5">
     <g id="line2d_9">
      <path d="M 369 384.48 
L 369 51.84 
" clip-path="url(#p2b86672c43)" style="fill: none; stroke: #b0b0b0; stroke-width: 0.8; stroke-linecap: square"/>
     </g>
     <g id="line2d_10">
      <g>
       <use xlink:href="#m5b063a5b68" x="369" y="384.48" style="stroke: #000000; stroke-width: 0.8"/>
      </g>
     </g>
     <g id="text_5">
      <!-- 0.0 -->
      <g transform="translate(361.048437 399.078438) scale(0.1 -0.1)">
       <use xlink:href="#DejaVuSans-30"/>
       <use xlink:href="#DejaVuSans-2e" x="63.623047"/>
       <use xlink:href="#DejaVuSans-30" x="95.410156"/>
      </g>
     </g>
    </g>
    <g id="xtick_6">
     <g id="line2d_11">
      <path d="M 438.75 384.48 
L 438.75 51.84 
" clip-path="url(#p2b86672c43)" style="fill: none; stroke: #b0b0b0; stroke-width: 0.8; stroke-linecap: square"/>
     </g>
     <g id="line2d_12">
      <g>
       <use xlink:href="#m5b063a5b68" x="438.75" y="384.48" style="stroke: #000000; stroke-width: 0.8"/>
      </g>
     </g>
     <g id="text_6">
      <!-- 0.5 -->
      <g transform="translate(430.798437 399.078438) scale(0.1 -0.1)">
       <use xlink:href="#DejaVuSans-30"/>
       <use xlink:href="#DejaVuSans-2e" x="63.623047"/>
       <use xlink:href="#DejaVuSans-35" x="95.410156"/>
      </g>
     </g>
    </g>
    <g id="xtick_7">
     <g id="line2d_13">
      <path d="M 508.5 384.48 
L 508.5 51.84 
" clip-path="url(#p2b86672c43)" style="fill: none; stroke: #b0b0b0; stroke-width: 0.8; stroke-linecap: square"/>
     </g>
     <g id="line2d_14">
      <g>
       <use xlink:href="#m5b063a5b68" x="508.5" y="384.48" style="stroke: #000000; stroke-width: 0.8"/>
      </g>
     </g>
     <g id="text_7">
      <!-- 1.0 -->
      <g transform="translate(500.548437 399.078438) scale(0.1 -0.1)">
       <use xlink:href="#DejaVuSans-31"/>
       <use xlink:href="#DejaVuSans-2e" x="63.623047"/>
       <use xlink:href="#DejaVuSans-30" x="95.410156"/>
      </g>
     </g>
    </g>
    <g id="xtick_8">
     <g id="line2d_15">
      <path d="M 578.25 384.48 
L 578.25 51.84 
" clip-path="url(#p2b86672c43)" style="fill: none; stroke: #b0b0b0; stroke-width: 0.8; stroke-linecap: square"/>
     </g>
     <g id="line2d_16">
      <g>
       <use xlink:href="#m5b063a5b68" x="578.25" y="384.48" style="stroke: #000000; stroke-width: 0.8"/>
      </g>
     </g>
     <g id="text_8">
      <!-- 1.5 -->
      <g transform="translate(570.298437 399.078438) scale(0.1 -0.1)">
       <use xlink:href="#DejaVuSans-31"/>
       <use xlink:href="#DejaVuSans-2e" x="63.623047"/>
       <use xlink:href="#DejaVuSans-35" x="95.410156"/>
      </g>
     </g>
    </g>
    <g id="xtick_9">
     <g id="line2d_17">
      <path d="M 648 384.48 
L 648 51.84 
" clip-path="url(#p2b86672c43)" style="fill: none; stroke: #b0b0b0; stroke-width: 0.8; stroke-linecap: square"/>
     </g>
     <g id="line2d_18">
      <g>
       <use xlink:href="#m5b063a5b68" x="648" y="384.48" style="stroke: #000000; stroke-width: 0.8"/>
      </g>
     </g>
     <g id="text_9">
      <!-- 2.0 -->
      <g transform="translate(640.048437 399.078438) scale(0.1 -0.1)">
       <use xlink:href="#DejaVuSans-32"/>
       <use xlink:href="#DejaVuSans-2e" x="63.623047"/>
       <use xlink:href="#DejaVuSans-30" x="95.410156"/>
      </g>
     </g>
    </g>
    <g id="text_10">
     <!-- $w_1$ -->
     <g transform="translate(362.5 412.756563) scale(0.1 -0.1)">
      <defs>
       <path id="DejaVuSans-Oblique-77" d="M 544 3500 
L 1113 3500 
L 1259 684 
L 2566 3500 
L 3231 3500 
L 3425 684 
L 4666 3500 
L 5241 3500 
L 3641 0 
L 2969 0 
L 2797 2900 
L 1459 0 
L 781 0 
L 544 3500 
z
" transform="scale(0.015625)"/>
      </defs>
      <use xlink:href="#DejaVuSans-Oblique-77" transform="translate(0 0.3125)"/>
      <use xlink:href="#DejaVuSans-31" transform="translate(81.787109 -16.09375) scale(0.7)"/>
     </g>
    </g>
   </g>
   <g id="matplotlib.axis_2">
    <g id="ytick_1">
     <g id="line2d_19">
      <path d="M 90 360.72 
L 648 360.72 
" clip-path="url(#p2b86672c43)" style="fill: none; stroke: #b0b0b0; stroke-width: 0.8; stroke-linecap: square"/>
     </g>
     <g id="line2d_20">
      <defs>
       <path id="m31cab30365" d="M 0 0 
L -3.5 0 
" style="stroke: #000000; stroke-width: 0.8"/>
      </defs>
      <g>
       <use xlink:href="#m31cab30365" x="90" y="360.72" style="stroke: #000000; stroke-width: 0.8"/>
      </g>
     </g>
     <g id="text_11">
      <!-- −0.6 -->
      <g transform="translate(58.717187 364.519219) scale(0.1 -0.1)">
       <defs>
        <path id="DejaVuSans-36" d="M 2113 2584 
Q 1688 2584 1439 2293 
Q 1191 2003 1191 1497 
Q 1191 994 1439 701 
Q 1688 409 2113 409 
Q 2538 409 2786 701 
Q 3034 994 3034 1497 
Q 3034 2003 2786 2293 
Q 2538 2584 2113 2584 
z
M 3366 4563 
L 3366 3988 
Q 3128 4100 2886 4159 
Q 2644 4219 2406 4219 
Q 1781 4219 1451 3797 
Q 1122 3375 1075 2522 
Q 1259 2794 1537 2939 
Q 1816 3084 2150 3084 
Q 2853 3084 3261 2657 
Q 3669 2231 3669 1497 
Q 3669 778 3244 343 
Q 2819 -91 2113 -91 
Q 1303 -91 875 529 
Q 447 1150 447 2328 
Q 447 3434 972 4092 
Q 1497 4750 2381 4750 
Q 2619 4750 2861 4703 
Q 3103 4656 3366 4563 
z
" transform="scale(0.015625)"/>
       </defs>
       <use xlink:href="#DejaVuSans-2212"/>
       <use xlink:href="#DejaVuSans-30" x="83.789062"/>
       <use xlink:href="#DejaVuSans-2e" x="147.412109"/>
       <use xlink:href="#DejaVuSans-36" x="179.199219"/>
      </g>
     </g>
    </g>
    <g id="ytick_2">
     <g id="line2d_21">
      <path d="M 90 313.2 
L 648 313.2 
" clip-path="url(#p2b86672c43)" style="fill: none; stroke: #b0b0b0; stroke-width: 0.8; stroke-linecap: square"/>
     </g>
     <g id="line2d_22">
      <g>
       <use xlink:href="#m31cab30365" x="90" y="313.2" style="stroke: #000000; stroke-width: 0.8"/>
      </g>
     </g>
     <g id="text_12">
      <!-- −0.4 -->
      <g transform="translate(58.717187 316.999219) scale(0.1 -0.1)">
       <defs>
        <path id="DejaVuSans-34" d="M 2419 4116 
L 825 1625 
L 2419 1625 
L 2419 4116 
z
M 2253 4666 
L 3047 4666 
L 3047 1625 
L 3713 1625 
L 3713 1100 
L 3047 1100 
L 3047 0 
L 2419 0 
L 2419 1100 
L 313 1100 
L 313 1709 
L 2253 4666 
z
" transform="scale(0.015625)"/>
       </defs>
       <use xlink:href="#DejaVuSans-2212"/>
       <use xlink:href="#DejaVuSans-30" x="83.789062"/>
       <use xlink:href="#DejaVuSans-2e" x="147.412109"/>
       <use xlink:href="#DejaVuSans-34" x="179.199219"/>
      </g>
     </g>
    </g>
    <g id="ytick_3">
     <g id="line2d_23">
      <path d="M 90 265.68 
L 648 265.68 
" clip-path="url(#p2b86672c43)" style="fill: none; stroke: #b0b0b0; stroke-width: 0.8; stroke-linecap: square"/>
     </g>
     <g id="line2d_24">
      <g>
       <use xlink:href="#m31cab30365" x="90" y="265.68" style="stroke: #000000; stroke-width: 0.8"/>
      </g>
     </g>
     <g id="text_13">
      <!-- −0.2 -->
      <g transform="translate(58.717187 269.479219) scale(0.1 -0.1)">
       <use xlink:href="#DejaVuSans-2212"/>
       <use xlink:href="#DejaVuSans-30" x="83.789062"/>
       <use xlink:href="#DejaVuSans-2e" x="147.412109"/>
       <use xlink:href="#DejaVuSans-32" x="179.199219"/>
      </g>
     </g>
    </g>
    <g id="ytick_4">
     <g id="line2d_25">
      <path d="M 90 218.16 
L 648 218.16 
" clip-path="url(#p2b86672c43)" style="fill: none; stroke: #b0b0b0; stroke-width: 0.8; stroke-linecap: square"/>
     </g>
     <g id="line2d_26">
      <g>
       <use xlink:href="#m31cab30365" x="90" y="218.16" style="stroke: #000000; stroke-width: 0.8"/>
      </g>
     </g>
     <g id="text_14">
      <!-- 0.0 -->
      <g transform="translate(67.096875 221.959219) scale(0.1 -0.1)">
       <use xlink:href="#DejaVuSans-30"/>
       <use xlink:href="#DejaVuSans-2e" x="63.623047"/>
       <use xlink:href="#DejaVuSans-30" x="95.410156"/>
      </g>
     </g>
    </g>
    <g id="ytick_5">
     <g id="line2d_27">
      <path d="M 90 170.64 
L 648 170.64 
" clip-path="url(#p2b86672c43)" style="fill: none; stroke: #b0b0b0; stroke-width: 0.8; stroke-linecap: square"/>
     </g>
     <g id="line2d_28">
      <g>
       <use xlink:href="#m31cab30365" x="90" y="170.64" style="stroke: #000000; stroke-width: 0.8"/>
      </g>
     </g>
     <g id="text_15">
      <!-- 0.2 -->
      <g transform="translate(67.096875 174.439219) scale(0.1 -0.1)">
       <use xlink:href="#DejaVuSans-30"/>
       <use xlink:href="#DejaVuSans-2e" x="63.623047"/>
       <use xlink:href="#DejaVuSans-32" x="95.410156"/>
      </g>
     </g>
    </g>
    <g id="ytick_6">
     <g id="line2d_29">
      <path d="M 90 123.12 
L 648 123.12 
" clip-path="url(#p2b86672c43)" style="fill: none; stroke: #b0b0b0; stroke-width: 0.8; stroke-linecap: square"/>
     </g>
     <g id="line2d_30">
      <g>
       <use xlink:href="#m31cab30365" x="90" y="123.12" style="stroke: #000000; stroke-width: 0.8"/>
      </g>
     </g>
     <g id="text_16">
      <!-- 0.4 -->
      <g transform="translate(67.096875 126.919219) scale(0.1 -0.1)">
       <use xlink:href="#DejaVuSans-30"/>
       <use xlink:href="#DejaVuSans-2e" x="63.623047"/>
       <use xlink:href="#DejaVuSans-34" x="95.410156"/>
      </g>
     </g>
    </g>
    <g id="ytick_7">
     <g id="line2d_31">
      <path d="M 90 75.6 
L 648 75.6 
" clip-path="url(#p2b86672c43)" style="fill: none; stroke: #b0b0b0; stroke-width: 0.8; stroke-linecap: square"/>
     </g>
     <g id="line2d_32">
      <g>
       <use xlink:href="#m31cab30365" x="90" y="75.6" style="stroke: #000000; stroke-width: 0.8"/>
      </g>
     </g>
     <g id="text_17">
      <!-- 0.6 -->
      <g transform="translate(67.096875 79.399219) scale(0.1 -0.1)">
       <use xlink:href="#DejaVuSans-30"/>
       <use xlink:href="#DejaVuSans-2e" x="63.623047"/>
       <use xlink:href="#DejaVuSans-36" x="95.410156"/>
      </g>
     </g>
    </g>
    <g id="text_18">
     <!-- $w_2$ -->
     <g transform="translate(52.6375 224.66) rotate(-90) scale(0.1 -0.1)">
      <use xlink:href="#DejaVuSans-Oblique-77" transform="translate(0 0.3125)"/>
      <use xlink:href="#DejaVuSans-32" transform="translate(81.787109 -16.09375) scale(0.7)"/>
     </g>
    </g>
   </g>
   <g id="QuadContourSet_1">
    <path d="M 275.75859 274.031597 
L 274.871691 273.6 
L 268.48387 270.24 
L 262.835197 266.88 
L 257.814801 263.52 
L 253.332927 260.16 
L 247.818182 255.342078 
L 245.863869 253.44 
L 242.181818 249.433333 
L 240.000025 246.72 
L 237.598444 243.36 
L 235.540743 240 
L 233.814607 236.64 
L 232.37616 233.28 
L 230.909091 228.688571 
L 230.384205 226.56 
L 229.831841 223.2 
L 229.555659 219.84 
L 229.555659 216.48 
L 229.831841 213.12 
L 230.384205 209.76 
L 231.225402 206.4 
L 232.37616 203.04 
L 233.814607 199.68 
L 235.540743 196.32 
L 237.598444 192.96 
L 240.000025 189.6 
L 242.725439 186.24 
L 245.863869 182.88 
L 249.387473 179.52 
L 253.454545 176.064396 
L 259.090909 171.912857 
L 264.727273 168.273714 
L 270.363636 165.050893 
L 276 162.170924 
L 282.170644 159.36 
L 290.683482 156 
L 292.909091 155.201955 
L 300.775047 152.64 
L 304.181818 151.645286 
L 313.339148 149.28 
L 315.454545 148.789796 
L 321.090909 147.614286 
L 330.730601 145.92 
L 332.363636 145.667143 
L 338 144.919091 
L 343.636364 144.295714 
L 349.272727 143.797013 
L 354.909091 143.422987 
L 360.545455 143.173636 
L 366.181818 143.048961 
L 371.818182 143.048961 
L 377.454545 143.173636 
L 383.090909 143.422987 
L 388.727273 143.797013 
L 394.363636 144.295714 
L 400 144.919091 
L 407.269399 145.92 
L 411.272727 146.569388 
L 416.909091 147.614286 
L 424.660852 149.28 
L 428.181818 150.136714 
L 437.224953 152.64 
L 439.454545 153.325263 
L 447.316518 156 
L 450.727273 157.290952 
L 456.363636 159.589412 
L 463.128309 162.72 
L 469.51613 166.08 
L 475.164803 169.44 
L 480.185199 172.8 
L 484.667073 176.16 
L 490.181818 180.977922 
L 492.136131 182.88 
L 495.818182 186.886667 
L 497.999975 189.6 
L 500.401556 192.96 
L 502.459257 196.32 
L 504.185393 199.68 
L 505.62384 203.04 
L 507.090909 207.631429 
L 507.615795 209.76 
L 508.168159 213.12 
L 508.444341 216.48 
L 508.444341 219.84 
L 508.168159 223.2 
L 507.615795 226.56 
L 506.774598 229.92 
L 505.62384 233.28 
L 504.185393 236.64 
L 502.459257 240 
L 500.401556 243.36 
L 497.999975 246.72 
L 495.274561 250.08 
L 492.136131 253.44 
L 488.612527 256.8 
L 484.545455 260.255604 
L 478.909091 264.407143 
L 473.272727 268.046286 
L 467.636364 271.269107 
L 462 274.149076 
L 455.829356 276.96 
L 447.316518 280.32 
L 445.090909 281.118045 
L 437.224953 283.68 
L 433.818182 284.674714 
L 424.660852 287.04 
L 422.545455 287.530204 
L 416.909091 288.705714 
L 407.269399 290.4 
L 405.636364 290.652857 
L 400 291.400909 
L 394.363636 292.024286 
L 388.727273 292.522987 
L 383.090909 292.897013 
L 377.454545 293.146364 
L 371.818182 293.271039 
L 366.181818 293.271039 
L 360.545455 293.146364 
L 354.909091 292.897013 
L 349.272727 292.522987 
L 343.636364 292.024286 
L 338 291.400909 
L 330.730601 290.4 
L 326.727273 289.750612 
L 321.090909 288.705714 
L 313.339148 287.04 
L 309.818182 286.183286 
L 300.775047 283.68 
L 299.121999 283.171937 
L 299.121999 283.171937 
" clip-path="url(#p2b86672c43)" style="fill: none; stroke: #440154; stroke-width: 1.5"/>
    <path d="M 280.810152 302.760348 
L 273.636112 300.48 
L 264.727273 297.294833 
L 259.090909 295.036596 
L 253.454545 292.601117 
L 247.818182 289.963075 
L 242.088746 287.04 
L 236.103988 283.68 
L 230.648738 280.32 
L 225.272727 276.670353 
L 219.636364 272.405107 
L 216.999841 270.24 
L 213.19384 266.88 
L 208.363636 262.075736 
L 206.598912 260.16 
L 202.727273 255.498338 
L 201.176372 253.44 
L 198.874857 250.08 
L 196.812765 246.72 
L 195.030947 243.36 
L 193.471856 240 
L 192.135492 236.64 
L 191.035377 233.28 
L 190.172309 229.92 
L 189.525008 226.56 
L 189.093474 223.2 
L 188.877707 219.84 
L 188.877707 216.48 
L 189.093474 213.12 
L 189.525008 209.76 
L 190.172309 206.4 
L 191.454545 201.734514 
L 192.135492 199.68 
L 193.471856 196.32 
L 195.030947 192.96 
L 197.090909 189.133777 
L 198.874857 186.24 
L 201.176372 182.88 
L 203.741858 179.52 
L 208.363636 174.244264 
L 209.741568 172.8 
L 214 168.707695 
L 219.636364 163.914893 
L 221.147388 162.72 
L 225.677465 159.36 
L 230.909091 155.833293 
L 236.545455 152.3822 
L 242.181818 149.230394 
L 248.71603 145.92 
L 256.074104 142.56 
L 264.273459 139.2 
L 270.363636 136.968024 
L 276 135.05776 
L 284.452745 132.48 
L 292.909091 130.211363 
L 298.545455 128.850307 
L 309.818182 126.513799 
L 315.454545 125.507286 
L 326.727273 123.841979 
L 338 122.56851 
L 343.636364 122.089793 
L 354.909091 121.427724 
L 366.181818 121.14398 
L 377.454545 121.238561 
L 388.727273 121.711468 
L 400 122.56851 
L 411.272727 123.841979 
L 422.545455 125.507286 
L 428.181818 126.513799 
L 439.454545 128.850307 
L 445.090909 130.211363 
L 453.547255 132.48 
L 462 135.05776 
L 467.636364 136.968024 
L 473.726541 139.2 
L 481.925896 142.56 
L 489.28397 145.92 
L 490.181818 146.356925 
L 495.911254 149.28 
L 501.896012 152.64 
L 507.351262 156 
L 512.727273 159.649647 
L 518.363636 163.914893 
L 521.000159 166.08 
L 524.80616 169.44 
L 529.636364 174.244264 
L 531.401088 176.16 
L 535.272727 180.821662 
L 536.823628 182.88 
L 539.125143 186.24 
L 541.187235 189.6 
L 542.969053 192.96 
L 544.528144 196.32 
L 545.864508 199.68 
L 546.964623 203.04 
L 547.827691 206.4 
L 548.474992 209.76 
L 548.906526 213.12 
L 549.122293 216.48 
L 549.122293 219.84 
L 548.906526 223.2 
L 548.474992 226.56 
L 547.827691 229.92 
L 546.545455 234.585486 
L 545.864508 236.64 
L 544.528144 240 
L 542.969053 243.36 
L 540.909091 247.186223 
L 539.125143 250.08 
L 536.823628 253.44 
L 534.258142 256.8 
L 529.636364 262.075736 
L 528.258432 263.52 
L 524 267.612305 
L 518.363636 272.405107 
L 516.852612 273.6 
L 512.322535 276.96 
L 507.090909 280.486707 
L 501.454545 283.9378 
L 495.818182 287.089606 
L 489.28397 290.4 
L 481.925896 293.76 
L 473.726541 297.12 
L 467.636364 299.351976 
L 462 301.26224 
L 453.547255 303.84 
L 445.090909 306.108637 
L 439.454545 307.469693 
L 428.181818 309.806201 
L 422.545455 310.812714 
L 411.272727 312.478021 
L 400 313.75149 
L 394.363636 314.230207 
L 383.090909 314.892276 
L 371.818182 315.17602 
L 360.545455 315.081439 
L 349.272727 314.608532 
L 338 313.75149 
L 326.727273 312.478021 
L 315.454545 310.812714 
L 309.818182 309.806201 
L 305.15283 308.881253 
L 305.15283 308.881253 
" clip-path="url(#p2b86672c43)" style="fill: none; stroke: #440256; stroke-width: 1.5"/>
    <path d="M 321.090909 340.808721 
L 315.454545 340.123249 
L 304.181818 338.523249 
L 292.909091 336.595016 
L 282.589347 334.521115 
M 258.249446 328.372514 
L 253.454545 326.945798 
L 242.181818 323.236216 
L 235.055894 320.64 
L 225.272727 316.721275 
L 218.881165 313.92 
L 211.802292 310.56 
L 205.255348 307.2 
L 199.187139 303.84 
L 193.551337 300.48 
L 188.307403 297.12 
L 183.419713 293.76 
L 178.856834 290.4 
L 174.545455 287.001277 
L 168.909091 282.12345 
L 166.953171 280.32 
L 163.272727 276.724864 
L 160.322373 273.6 
L 157.344512 270.24 
L 154.619033 266.88 
L 152 263.412954 
L 149.771809 260.16 
L 146.363636 254.585179 
L 145.716491 253.44 
L 143.990354 250.08 
L 142.436832 246.72 
L 140.727273 242.446098 
L 139.869082 240 
L 138.858661 236.64 
L 138.016643 233.28 
L 137.343029 229.92 
L 136.837818 226.56 
L 136.501011 223.2 
L 136.332607 219.84 
L 136.332607 216.48 
L 136.501011 213.12 
L 136.837818 209.76 
L 137.343029 206.4 
L 138.016643 203.04 
L 138.858661 199.68 
L 139.869082 196.32 
L 141.055922 192.96 
L 142.436832 189.6 
L 143.990354 186.24 
L 146.363636 181.734821 
L 147.647333 179.52 
L 149.771809 176.16 
L 152.075253 172.8 
L 154.619033 169.44 
L 157.636364 165.742689 
L 160.322373 162.72 
L 163.500899 159.36 
L 168.909091 154.19655 
L 170.64547 152.64 
L 174.592262 149.28 
L 180.181818 144.923514 
L 185.818182 140.885349 
L 191.454545 137.157983 
L 197.090909 133.704121 
L 202.727273 130.492204 
L 208.363636 127.49535 
L 214 124.690516 
L 219.636364 122.057838 
L 226.604567 119.04 
L 236.545455 115.118807 
L 244.393413 112.32 
L 253.454545 109.374202 
L 259.090909 107.699312 
L 270.363636 104.652694 
L 281.636364 101.997637 
L 292.909091 99.724984 
L 304.181818 97.796751 
L 315.454545 96.196751 
L 326.727273 94.918228 
L 338 93.954522 
L 349.272727 93.28734 
L 360.545455 92.916684 
L 371.818182 92.842553 
L 383.090909 93.064947 
L 394.363636 93.583866 
L 405.636364 94.39931 
L 416.982769 95.52 
L 428.181818 96.958655 
L 440.416043 98.88 
L 450.727273 100.822127 
L 462 103.281265 
L 473.272727 106.120092 
L 484.545455 109.374202 
L 495.818182 113.083784 
L 502.944106 115.68 
L 512.727273 119.598725 
L 519.118835 122.4 
L 526.197708 125.76 
L 532.744652 129.12 
L 538.812861 132.48 
L 544.448663 135.84 
L 549.692597 139.2 
L 554.580287 142.56 
L 559.143166 145.92 
L 563.454545 149.318723 
L 569.090909 154.19655 
L 571.046829 156 
L 574.727273 159.595136 
L 577.677627 162.72 
L 580.655488 166.08 
L 583.380967 169.44 
L 586 172.907046 
L 588.228191 176.16 
L 591.636364 181.734821 
L 592.283509 182.88 
L 594.009646 186.24 
L 595.563168 189.6 
L 597.272727 193.873902 
L 598.130918 196.32 
L 599.141339 199.68 
L 599.983357 203.04 
L 600.656971 206.4 
L 601.162182 209.76 
L 601.498989 213.12 
L 601.667393 216.48 
L 601.667393 219.84 
L 601.498989 223.2 
L 601.162182 226.56 
L 600.656971 229.92 
L 599.983357 233.28 
L 599.141339 236.64 
L 598.130918 240 
L 596.944078 243.36 
L 595.563168 246.72 
L 594.009646 250.08 
L 591.636364 254.585179 
L 590.352667 256.8 
L 588.228191 260.16 
L 585.924747 263.52 
L 583.380967 266.88 
L 580.363636 270.577311 
L 577.677627 273.6 
L 574.499101 276.96 
L 569.090909 282.12345 
L 567.35453 283.68 
L 563.407738 287.04 
L 557.818182 291.396486 
L 552.181818 295.434651 
L 546.545455 299.162017 
L 540.909091 302.615879 
L 535.272727 305.827796 
L 529.636364 308.82465 
L 524 311.629484 
L 518.363636 314.262162 
L 511.395433 317.28 
L 501.454545 321.201193 
L 493.606587 324 
L 484.545455 326.945798 
L 478.909091 328.620688 
L 467.636364 331.667306 
L 456.363636 334.322363 
L 445.090909 336.595016 
L 433.818182 338.523249 
L 422.545455 340.123249 
L 411.272727 341.401772 
L 400 342.365478 
L 388.727273 343.03266 
L 377.454545 343.403316 
L 366.181818 343.477447 
L 354.909091 343.255053 
L 343.636364 342.736134 
L 332.363636 341.92069 
L 321.090909 340.808721 
L 321.090909 340.808721 
" clip-path="url(#p2b86672c43)" style="fill: none; stroke: #46075a; stroke-width: 1.5"/>
    <path d="M 648 278.320534 
L 646.490663 280.32 
L 642.363636 285.408481 
L 637.945961 290.4 
L 634.739975 293.76 
L 631.090909 297.377543 
L 625.454545 302.548499 
L 619.818182 307.340039 
L 614.181818 311.765241 
L 608.545455 315.906538 
L 602.909091 319.79232 
L 596.392539 324 
L 590.849224 327.36 
L 584.980783 330.72 
L 578.760853 334.08 
L 569.092334 338.932907 
M 546.070478 348.943534 
L 540.909091 350.938526 
L 529.636364 354.966088 
L 518.363636 358.620637 
L 507.090909 361.928197 
L 495.818182 364.912426 
L 484.151897 367.68 
L 473.272727 369.972023 
L 462 372.082197 
L 450.727273 373.930644 
L 439.454545 375.516314 
L 428.181818 376.858563 
L 416.909091 377.963057 
L 405.636364 378.8202 
L 394.363636 379.448772 
L 383.090909 379.848772 
L 371.818182 380.0202 
L 360.545455 379.963057 
L 349.272727 379.677343 
L 338 379.163057 
L 326.727273 378.4202 
L 315.454545 377.44215 
L 304.181818 376.216618 
L 290.441771 374.4 
L 281.636364 373.036234 
L 270.213801 371.04 
L 259.090909 368.813928 
L 247.818182 366.283855 
L 236.545455 363.459094 
L 225.272727 360.318596 
L 214 356.839259 
L 202.727273 352.995669 
L 196.935726 350.88 
L 185.818182 346.482659 
L 180.181818 344.099102 
L 172.853981 340.8 
L 163.272727 336.15505 
L 157.636364 333.231207 
L 152 330.148863 
L 146.363636 326.893158 
L 140.727273 323.447315 
L 135.090909 319.79232 
L 129.454545 315.906538 
L 123.818182 311.765241 
L 118.009157 307.2 
L 112.545455 302.548499 
L 106.638845 297.12 
L 101.272727 291.693943 
L 97.033301 287.04 
L 94.18661 283.68 
L 90 278.320534 
M 90 157.999466 
L 91.509337 156 
L 95.636364 150.911519 
L 100.054039 145.92 
L 103.260025 142.56 
L 106.909091 138.942457 
L 112.545455 133.771501 
L 118.181818 128.979961 
L 123.818182 124.554759 
L 129.454545 120.413462 
L 135.090909 116.52768 
L 141.607461 112.32 
L 147.150776 108.96 
L 153.019217 105.6 
L 159.239147 102.24 
L 168.907666 97.387093 
M 191.929522 87.376466 
L 197.090909 85.381474 
L 208.363636 81.353912 
L 219.636364 77.699363 
L 230.909091 74.391803 
L 242.181818 71.407574 
L 253.848103 68.64 
L 264.727273 66.347977 
L 276 64.237803 
L 287.272727 62.389356 
L 298.545455 60.803686 
L 309.818182 59.461437 
L 321.090909 58.356943 
L 332.363636 57.4998 
L 343.636364 56.871228 
L 354.909091 56.471228 
L 366.181818 56.2998 
L 377.454545 56.356943 
L 388.727273 56.642657 
L 400 57.156943 
L 411.272727 57.8998 
L 422.545455 58.87785 
L 433.818182 60.103382 
L 447.558229 61.92 
L 456.363636 63.283766 
L 467.786199 65.28 
L 478.909091 67.506072 
L 490.181818 70.036145 
L 501.454545 72.860906 
L 512.727273 76.001404 
L 524 79.480741 
L 535.272727 83.324331 
L 541.064274 85.44 
L 552.181818 89.837341 
L 557.818182 92.220898 
L 565.146019 95.52 
L 574.727273 100.16495 
L 580.363636 103.088793 
L 586 106.171137 
L 591.636364 109.426842 
L 597.272727 112.872685 
L 602.909091 116.52768 
L 608.545455 120.413462 
L 614.181818 124.554759 
L 619.990843 129.12 
L 625.454545 133.771501 
L 631.361155 139.2 
L 636.727273 144.626057 
L 640.966699 149.28 
L 643.81339 152.64 
L 648 157.999466 
L 648 157.999466 
" clip-path="url(#p2b86672c43)" style="fill: none; stroke: #470e61; stroke-width: 1.5"/>
    <path d="M 133.813151 384.48 
L 129.454545 382.661954 
L 125.843817 381.12 
L 123.818182 380.236935 
L 122.491105 379.644949 
M 99.851032 368.79476 
L 97.703458 367.68 
L 95.636364 366.58263 
L 91.461272 364.32 
L 90 363.509668 
M 648 363.509668 
L 646.538728 364.32 
L 642.363636 366.58263 
L 640.296542 367.68 
L 638.148968 368.79476 
M 615.508895 379.644949 
L 614.181818 380.236935 
L 612.156183 381.12 
L 608.545455 382.661954 
L 604.186849 384.48 
M 90 72.810332 
L 91.461272 72 
L 95.636364 69.73737 
L 97.703458 68.64 
L 99.851032 67.52524 
M 122.491105 56.675051 
L 123.818182 56.083065 
L 125.843817 55.2 
L 129.454545 53.658046 
L 133.813151 51.84 
M 604.186849 51.84 
L 608.545455 53.658046 
L 612.156183 55.2 
L 614.181818 56.083065 
L 615.508895 56.675051 
M 638.148968 67.52524 
L 640.296542 68.64 
L 642.363636 69.73737 
L 646.538728 72 
L 648 72.810332 
" clip-path="url(#p2b86672c43)" style="fill: none; stroke: #481a6c; stroke-width: 1.5"/>
    <path clip-path="url(#p2b86672c43)" style="fill: none; stroke: #472a7a; stroke-width: 1.5"/>
    <path clip-path="url(#p2b86672c43)" style="fill: none; stroke: #404688; stroke-width: 1.5"/>
    <path clip-path="url(#p2b86672c43)" style="fill: none; stroke: #2e6d8e; stroke-width: 1.5"/>
    <path clip-path="url(#p2b86672c43)" style="fill: none; stroke: #22a785; stroke-width: 1.5"/>
    <path clip-path="url(#p2b86672c43)" style="fill: none; stroke: #fde725; stroke-width: 1.5"/>
   </g>
   <g id="line2d_33">
    <path d="M 117.9 75.6 
L 168.12 360.72 
L 208.296 75.6 
L 240.4368 360.72 
L 266.14944 75.6 
L 286.719552 360.72 
L 303.175642 75.6 
L 316.340513 360.72 
L 326.872411 75.6 
L 335.297928 360.72 
L 342.038343 75.6 
L 347.430674 360.72 
L 351.744539 75.6 
L 355.195632 360.72 
L 357.956505 75.6 
L 360.165204 360.72 
" clip-path="url(#p2b86672c43)" style="fill: none; stroke: #ff0000; stroke-width: 1.5; stroke-linecap: square"/>
    <defs>
     <path id="m954269eb90" d="M 0 3 
C 0.795609 3 1.55874 2.683901 2.12132 2.12132 
C 2.683901 1.55874 3 0.795609 3 0 
C 3 -0.795609 2.683901 -1.55874 2.12132 -2.12132 
C 1.55874 -2.683901 0.795609 -3 0 -3 
C -0.795609 -3 -1.55874 -2.683901 -2.12132 -2.12132 
C -2.683901 -1.55874 -3 -0.795609 -3 0 
C -3 0.795609 -2.683901 1.55874 -2.12132 2.12132 
C -1.55874 2.683901 -0.795609 3 0 3 
z
" style="stroke: #ff0000"/>
    </defs>
    <g clip-path="url(#p2b86672c43)">
     <use xlink:href="#m954269eb90" x="117.9" y="75.6" style="fill: #ff0000; stroke: #ff0000"/>
     <use xlink:href="#m954269eb90" x="168.12" y="360.72" style="fill: #ff0000; stroke: #ff0000"/>
     <use xlink:href="#m954269eb90" x="208.296" y="75.6" style="fill: #ff0000; stroke: #ff0000"/>
     <use xlink:href="#m954269eb90" x="240.4368" y="360.72" style="fill: #ff0000; stroke: #ff0000"/>
     <use xlink:href="#m954269eb90" x="266.14944" y="75.6" style="fill: #ff0000; stroke: #ff0000"/>
     <use xlink:href="#m954269eb90" x="286.719552" y="360.72" style="fill: #ff0000; stroke: #ff0000"/>
     <use xlink:href="#m954269eb90" x="303.175642" y="75.6" style="fill: #ff0000; stroke: #ff0000"/>
     <use xlink:href="#m954269eb90" x="316.340513" y="360.72" style="fill: #ff0000; stroke: #ff0000"/>
     <use xlink:href="#m954269eb90" x="326.872411" y="75.6" style="fill: #ff0000; stroke: #ff0000"/>
     <use xlink:href="#m954269eb90" x="335.297928" y="360.72" style="fill: #ff0000; stroke: #ff0000"/>
     <use xlink:href="#m954269eb90" x="342.038343" y="75.6" style="fill: #ff0000; stroke: #ff0000"/>
     <use xlink:href="#m954269eb90" x="347.430674" y="360.72" style="fill: #ff0000; stroke: #ff0000"/>
     <use xlink:href="#m954269eb90" x="351.744539" y="75.6" style="fill: #ff0000; stroke: #ff0000"/>
     <use xlink:href="#m954269eb90" x="355.195632" y="360.72" style="fill: #ff0000; stroke: #ff0000"/>
     <use xlink:href="#m954269eb90" x="357.956505" y="75.6" style="fill: #ff0000; stroke: #ff0000"/>
     <use xlink:href="#m954269eb90" x="360.165204" y="360.72" style="fill: #ff0000; stroke: #ff0000"/>
    </g>
   </g>
   <g id="patch_3">
    <path d="M 90 384.48 
L 90 51.84 
" style="fill: none; stroke: #000000; stroke-width: 0.8; stroke-linejoin: miter; stroke-linecap: square"/>
   </g>
   <g id="patch_4">
    <path d="M 648 384.48 
L 648 51.84 
" style="fill: none; stroke: #000000; stroke-width: 0.8; stroke-linejoin: miter; stroke-linecap: square"/>
   </g>
   <g id="patch_5">
    <path d="M 90 384.48 
L 648 384.48 
" style="fill: none; stroke: #000000; stroke-width: 0.8; stroke-linejoin: miter; stroke-linecap: square"/>
   </g>
   <g id="patch_6">
    <path d="M 90 51.84 
L 648 51.84 
" style="fill: none; stroke: #000000; stroke-width: 0.8; stroke-linejoin: miter; stroke-linecap: square"/>
   </g>
   <g id="patch_7">
    <path d="M 90.524067 55.769513 
Q 98.703637 61.422208 106.883207 67.074902 
L 109.867958 62.755903 
Q 113.098306 68.634992 116.328653 74.514081 
Q 109.687161 73.570992 103.045669 72.627902 
L 106.03042 68.308902 
Q 97.850851 62.656207 89.671281 57.003513 
L 90.524067 55.769513 
z
" style="stroke: #000000; stroke-linecap: round"/>
   </g>
   <g id="text_19">
    <!-- Start -->
    <g transform="translate(62.1 51.84) scale(0.1 -0.1)">
     <defs>
      <path id="DejaVuSans-53" d="M 3425 4513 
L 3425 3897 
Q 3066 4069 2747 4153 
Q 2428 4238 2131 4238 
Q 1616 4238 1336 4038 
Q 1056 3838 1056 3469 
Q 1056 3159 1242 3001 
Q 1428 2844 1947 2747 
L 2328 2669 
Q 3034 2534 3370 2195 
Q 3706 1856 3706 1288 
Q 3706 609 3251 259 
Q 2797 -91 1919 -91 
Q 1588 -91 1214 -16 
Q 841 59 441 206 
L 441 856 
Q 825 641 1194 531 
Q 1563 422 1919 422 
Q 2459 422 2753 634 
Q 3047 847 3047 1241 
Q 3047 1584 2836 1778 
Q 2625 1972 2144 2069 
L 1759 2144 
Q 1053 2284 737 2584 
Q 422 2884 422 3419 
Q 422 4038 858 4394 
Q 1294 4750 2059 4750 
Q 2388 4750 2728 4690 
Q 3069 4631 3425 4513 
z
" transform="scale(0.015625)"/>
      <path id="DejaVuSans-74" d="M 1172 4494 
L 1172 3500 
L 2356 3500 
L 2356 3053 
L 1172 3053 
L 1172 1153 
Q 1172 725 1289 603 
Q 1406 481 1766 481 
L 2356 481 
L 2356 0 
L 1766 0 
Q 1100 0 847 248 
Q 594 497 594 1153 
L 594 3053 
L 172 3053 
L 172 3500 
L 594 3500 
L 594 4494 
L 1172 4494 
z
" transform="scale(0.015625)"/>
      <path id="DejaVuSans-61" d="M 2194 1759 
Q 1497 1759 1228 1600 
Q 959 1441 959 1056 
Q 959 750 1161 570 
Q 1363 391 1709 391 
Q 2188 391 2477 730 
Q 2766 1069 2766 1631 
L 2766 1759 
L 2194 1759 
z
M 3341 1997 
L 3341 0 
L 2766 0 
L 2766 531 
Q 2569 213 2275 61 
Q 1981 -91 1556 -91 
Q 1019 -91 701 211 
Q 384 513 384 1019 
Q 384 1609 779 1909 
Q 1175 2209 1959 2209 
L 2766 2209 
L 2766 2266 
Q 2766 2663 2505 2880 
Q 2244 3097 1772 3097 
Q 1472 3097 1187 3025 
Q 903 2953 641 2809 
L 641 3341 
Q 956 3463 1253 3523 
Q 1550 3584 1831 3584 
Q 2591 3584 2966 3190 
Q 3341 2797 3341 1997 
z
" transform="scale(0.015625)"/>
      <path id="DejaVuSans-72" d="M 2631 2963 
Q 2534 3019 2420 3045 
Q 2306 3072 2169 3072 
Q 1681 3072 1420 2755 
Q 1159 2438 1159 1844 
L 1159 0 
L 581 0 
L 581 3500 
L 1159 3500 
L 1159 2956 
Q 1341 3275 1631 3429 
Q 1922 3584 2338 3584 
Q 2397 3584 2469 3576 
Q 2541 3569 2628 3553 
L 2631 2963 
z
" transform="scale(0.015625)"/>
     </defs>
     <use xlink:href="#DejaVuSans-53"/>
     <use xlink:href="#DejaVuSans-74" x="63.476562"/>
     <use xlink:href="#DejaVuSans-61" x="102.685547"/>
     <use xlink:href="#DejaVuSans-72" x="163.964844"/>
     <use xlink:href="#DejaVuSans-74" x="205.078125"/>
    </g>
   </g>
   <g id="patch_8">
    <path d="M 398.265995 341.826624 
Q 385.761548 348.304529 373.257101 354.782434 
L 375.672038 359.444041 
Q 368.965985 359.539435 362.259932 359.63483 
Q 366.206057 354.211884 370.152183 348.788939 
L 372.567119 353.450546 
Q 385.071566 346.972641 397.576013 340.494736 
L 398.265995 341.826624 
z
" style="stroke: #000000; stroke-linecap: round"/>
   </g>
   <g id="text_20">
    <!-- End -->
    <g transform="translate(402.015204 336.96) scale(0.1 -0.1)">
     <defs>
      <path id="DejaVuSans-45" d="M 628 4666 
L 3578 4666 
L 3578 4134 
L 1259 4134 
L 1259 2753 
L 3481 2753 
L 3481 2222 
L 1259 2222 
L 1259 531 
L 3634 531 
L 3634 0 
L 628 0 
L 628 4666 
z
" transform="scale(0.015625)"/>
      <path id="DejaVuSans-6e" d="M 3513 2113 
L 3513 0 
L 2938 0 
L 2938 2094 
Q 2938 2591 2744 2837 
Q 2550 3084 2163 3084 
Q 1697 3084 1428 2787 
Q 1159 2491 1159 1978 
L 1159 0 
L 581 0 
L 581 3500 
L 1159 3500 
L 1159 2956 
Q 1366 3272 1645 3428 
Q 1925 3584 2291 3584 
Q 2894 3584 3203 3211 
Q 3513 2838 3513 2113 
z
" transform="scale(0.015625)"/>
      <path id="DejaVuSans-64" d="M 2906 2969 
L 2906 4863 
L 3481 4863 
L 3481 0 
L 2906 0 
L 2906 525 
Q 2725 213 2448 61 
Q 2172 -91 1784 -91 
Q 1150 -91 751 415 
Q 353 922 353 1747 
Q 353 2572 751 3078 
Q 1150 3584 1784 3584 
Q 2172 3584 2448 3432 
Q 2725 3281 2906 2969 
z
M 947 1747 
Q 947 1113 1208 752 
Q 1469 391 1925 391 
Q 2381 391 2643 752 
Q 2906 1113 2906 1747 
Q 2906 2381 2643 2742 
Q 2381 3103 1925 3103 
Q 1469 3103 1208 2742 
Q 947 2381 947 1747 
z
" transform="scale(0.015625)"/>
     </defs>
     <use xlink:href="#DejaVuSans-45"/>
     <use xlink:href="#DejaVuSans-6e" x="63.183594"/>
     <use xlink:href="#DejaVuSans-64" x="126.5625"/>
    </g>
   </g>
   <g id="text_21">
    <!-- Gradient Descent Optimization -->
    <g transform="translate(276.106875 45.84) scale(0.12 -0.12)">
     <defs>
      <path id="DejaVuSans-47" d="M 3809 666 
L 3809 1919 
L 2778 1919 
L 2778 2438 
L 4434 2438 
L 4434 434 
Q 4069 175 3628 42 
Q 3188 -91 2688 -91 
Q 1594 -91 976 548 
Q 359 1188 359 2328 
Q 359 3472 976 4111 
Q 1594 4750 2688 4750 
Q 3144 4750 3555 4637 
Q 3966 4525 4313 4306 
L 4313 3634 
Q 3963 3931 3569 4081 
Q 3175 4231 2741 4231 
Q 1884 4231 1454 3753 
Q 1025 3275 1025 2328 
Q 1025 1384 1454 906 
Q 1884 428 2741 428 
Q 3075 428 3337 486 
Q 3600 544 3809 666 
z
" transform="scale(0.015625)"/>
      <path id="DejaVuSans-69" d="M 603 3500 
L 1178 3500 
L 1178 0 
L 603 0 
L 603 3500 
z
M 603 4863 
L 1178 4863 
L 1178 4134 
L 603 4134 
L 603 4863 
z
" transform="scale(0.015625)"/>
      <path id="DejaVuSans-65" d="M 3597 1894 
L 3597 1613 
L 953 1613 
Q 991 1019 1311 708 
Q 1631 397 2203 397 
Q 2534 397 2845 478 
Q 3156 559 3463 722 
L 3463 178 
Q 3153 47 2828 -22 
Q 2503 -91 2169 -91 
Q 1331 -91 842 396 
Q 353 884 353 1716 
Q 353 2575 817 3079 
Q 1281 3584 2069 3584 
Q 2775 3584 3186 3129 
Q 3597 2675 3597 1894 
z
M 3022 2063 
Q 3016 2534 2758 2815 
Q 2500 3097 2075 3097 
Q 1594 3097 1305 2825 
Q 1016 2553 972 2059 
L 3022 2063 
z
" transform="scale(0.015625)"/>
      <path id="DejaVuSans-20" transform="scale(0.015625)"/>
      <path id="DejaVuSans-44" d="M 1259 4147 
L 1259 519 
L 2022 519 
Q 2988 519 3436 956 
Q 3884 1394 3884 2338 
Q 3884 3275 3436 3711 
Q 2988 4147 2022 4147 
L 1259 4147 
z
M 628 4666 
L 1925 4666 
Q 3281 4666 3915 4102 
Q 4550 3538 4550 2338 
Q 4550 1131 3912 565 
Q 3275 0 1925 0 
L 628 0 
L 628 4666 
z
" transform="scale(0.015625)"/>
      <path id="DejaVuSans-73" d="M 2834 3397 
L 2834 2853 
Q 2591 2978 2328 3040 
Q 2066 3103 1784 3103 
Q 1356 3103 1142 2972 
Q 928 2841 928 2578 
Q 928 2378 1081 2264 
Q 1234 2150 1697 2047 
L 1894 2003 
Q 2506 1872 2764 1633 
Q 3022 1394 3022 966 
Q 3022 478 2636 193 
Q 2250 -91 1575 -91 
Q 1294 -91 989 -36 
Q 684 19 347 128 
L 347 722 
Q 666 556 975 473 
Q 1284 391 1588 391 
Q 1994 391 2212 530 
Q 2431 669 2431 922 
Q 2431 1156 2273 1281 
Q 2116 1406 1581 1522 
L 1381 1569 
Q 847 1681 609 1914 
Q 372 2147 372 2553 
Q 372 3047 722 3315 
Q 1072 3584 1716 3584 
Q 2034 3584 2315 3537 
Q 2597 3491 2834 3397 
z
" transform="scale(0.015625)"/>
      <path id="DejaVuSans-63" d="M 3122 3366 
L 3122 2828 
Q 2878 2963 2633 3030 
Q 2388 3097 2138 3097 
Q 1578 3097 1268 2742 
Q 959 2388 959 1747 
Q 959 1106 1268 751 
Q 1578 397 2138 397 
Q 2388 397 2633 464 
Q 2878 531 3122 666 
L 3122 134 
Q 2881 22 2623 -34 
Q 2366 -91 2075 -91 
Q 1284 -91 818 406 
Q 353 903 353 1747 
Q 353 2603 823 3093 
Q 1294 3584 2113 3584 
Q 2378 3584 2631 3529 
Q 2884 3475 3122 3366 
z
" transform="scale(0.015625)"/>
      <path id="DejaVuSans-4f" d="M 2522 4238 
Q 1834 4238 1429 3725 
Q 1025 3213 1025 2328 
Q 1025 1447 1429 934 
Q 1834 422 2522 422 
Q 3209 422 3611 934 
Q 4013 1447 4013 2328 
Q 4013 3213 3611 3725 
Q 3209 4238 2522 4238 
z
M 2522 4750 
Q 3503 4750 4090 4092 
Q 4678 3434 4678 2328 
Q 4678 1225 4090 567 
Q 3503 -91 2522 -91 
Q 1538 -91 948 565 
Q 359 1222 359 2328 
Q 359 3434 948 4092 
Q 1538 4750 2522 4750 
z
" transform="scale(0.015625)"/>
      <path id="DejaVuSans-70" d="M 1159 525 
L 1159 -1331 
L 581 -1331 
L 581 3500 
L 1159 3500 
L 1159 2969 
Q 1341 3281 1617 3432 
Q 1894 3584 2278 3584 
Q 2916 3584 3314 3078 
Q 3713 2572 3713 1747 
Q 3713 922 3314 415 
Q 2916 -91 2278 -91 
Q 1894 -91 1617 61 
Q 1341 213 1159 525 
z
M 3116 1747 
Q 3116 2381 2855 2742 
Q 2594 3103 2138 3103 
Q 1681 3103 1420 2742 
Q 1159 2381 1159 1747 
Q 1159 1113 1420 752 
Q 1681 391 2138 391 
Q 2594 391 2855 752 
Q 3116 1113 3116 1747 
z
" transform="scale(0.015625)"/>
      <path id="DejaVuSans-6d" d="M 3328 2828 
Q 3544 3216 3844 3400 
Q 4144 3584 4550 3584 
Q 5097 3584 5394 3201 
Q 5691 2819 5691 2113 
L 5691 0 
L 5113 0 
L 5113 2094 
Q 5113 2597 4934 2840 
Q 4756 3084 4391 3084 
Q 3944 3084 3684 2787 
Q 3425 2491 3425 1978 
L 3425 0 
L 2847 0 
L 2847 2094 
Q 2847 2600 2669 2842 
Q 2491 3084 2119 3084 
Q 1678 3084 1418 2786 
Q 1159 2488 1159 1978 
L 1159 0 
L 581 0 
L 581 3500 
L 1159 3500 
L 1159 2956 
Q 1356 3278 1631 3431 
Q 1906 3584 2284 3584 
Q 2666 3584 2933 3390 
Q 3200 3197 3328 2828 
z
" transform="scale(0.015625)"/>
      <path id="DejaVuSans-7a" d="M 353 3500 
L 3084 3500 
L 3084 2975 
L 922 459 
L 3084 459 
L 3084 0 
L 275 0 
L 275 525 
L 2438 3041 
L 353 3041 
L 353 3500 
z
" transform="scale(0.015625)"/>
      <path id="DejaVuSans-6f" d="M 1959 3097 
Q 1497 3097 1228 2736 
Q 959 2375 959 1747 
Q 959 1119 1226 758 
Q 1494 397 1959 397 
Q 2419 397 2687 759 
Q 2956 1122 2956 1747 
Q 2956 2369 2687 2733 
Q 2419 3097 1959 3097 
z
M 1959 3584 
Q 2709 3584 3137 3096 
Q 3566 2609 3566 1747 
Q 3566 888 3137 398 
Q 2709 -91 1959 -91 
Q 1206 -91 779 398 
Q 353 888 353 1747 
Q 353 2609 779 3096 
Q 1206 3584 1959 3584 
z
" transform="scale(0.015625)"/>
     </defs>
     <use xlink:href="#DejaVuSans-47"/>
     <use xlink:href="#DejaVuSans-72" x="77.490234"/>
     <use xlink:href="#DejaVuSans-61" x="118.603516"/>
     <use xlink:href="#DejaVuSans-64" x="179.882812"/>
     <use xlink:href="#DejaVuSans-69" x="243.359375"/>
     <use xlink:href="#DejaVuSans-65" x="271.142578"/>
     <use xlink:href="#DejaVuSans-6e" x="332.666016"/>
     <use xlink:href="#DejaVuSans-74" x="396.044922"/>
     <use xlink:href="#DejaVuSans-20" x="435.253906"/>
     <use xlink:href="#DejaVuSans-44" x="467.041016"/>
     <use xlink:href="#DejaVuSans-65" x="544.042969"/>
     <use xlink:href="#DejaVuSans-73" x="605.566406"/>
     <use xlink:href="#DejaVuSans-63" x="657.666016"/>
     <use xlink:href="#DejaVuSans-65" x="712.646484"/>
     <use xlink:href="#DejaVuSans-6e" x="774.169922"/>
     <use xlink:href="#DejaVuSans-74" x="837.548828"/>
     <use xlink:href="#DejaVuSans-20" x="876.757812"/>
     <use xlink:href="#DejaVuSans-4f" x="908.544922"/>
     <use xlink:href="#DejaVuSans-70" x="987.255859"/>
     <use xlink:href="#DejaVuSans-74" x="1050.732422"/>
     <use xlink:href="#DejaVuSans-69" x="1089.941406"/>
     <use xlink:href="#DejaVuSans-6d" x="1117.724609"/>
     <use xlink:href="#DejaVuSans-69" x="1215.136719"/>
     <use xlink:href="#DejaVuSans-7a" x="1242.919922"/>
     <use xlink:href="#DejaVuSans-61" x="1295.410156"/>
     <use xlink:href="#DejaVuSans-74" x="1356.689453"/>
     <use xlink:href="#DejaVuSans-69" x="1395.898438"/>
     <use xlink:href="#DejaVuSans-6f" x="1423.681641"/>
     <use xlink:href="#DejaVuSans-6e" x="1484.863281"/>
    </g>
   </g>
   <g id="text_22">
    <g clip-path="url(#p2b86672c43)">
     <!-- 1.00 -->
     <g style="fill: #440154" transform="translate(278.173655 277.845314) rotate(-338.66703) scale(0.08 -0.08)">
      <use xlink:href="#DejaVuSans-31"/>
      <use xlink:href="#DejaVuSans-2e" x="63.623047"/>
      <use xlink:href="#DejaVuSans-30" x="95.410156"/>
      <use xlink:href="#DejaVuSans-30" x="159.033203"/>
     </g>
    </g>
   </g>
   <g id="text_23">
    <g clip-path="url(#p2b86672c43)">
     <!-- 1.67 -->
     <g style="fill: #440256" transform="translate(283.733374 306.084913) rotate(-345.931095) scale(0.08 -0.08)">
      <defs>
       <path id="DejaVuSans-37" d="M 525 4666 
L 3525 4666 
L 3525 4397 
L 1831 0 
L 1172 0 
L 2766 4134 
L 525 4134 
L 525 4666 
z
" transform="scale(0.015625)"/>
      </defs>
      <use xlink:href="#DejaVuSans-31"/>
      <use xlink:href="#DejaVuSans-2e" x="63.623047"/>
      <use xlink:href="#DejaVuSans-36" x="95.410156"/>
      <use xlink:href="#DejaVuSans-37" x="159.033203"/>
     </g>
    </g>
   </g>
   <g id="text_24">
    <g clip-path="url(#p2b86672c43)">
     <!-- 2.78 -->
     <g style="fill: #46075a" transform="translate(261.187984 331.625406) rotate(-345.817597) scale(0.08 -0.08)">
      <defs>
       <path id="DejaVuSans-38" d="M 2034 2216 
Q 1584 2216 1326 1975 
Q 1069 1734 1069 1313 
Q 1069 891 1326 650 
Q 1584 409 2034 409 
Q 2484 409 2743 651 
Q 3003 894 3003 1313 
Q 3003 1734 2745 1975 
Q 2488 2216 2034 2216 
z
M 1403 2484 
Q 997 2584 770 2862 
Q 544 3141 544 3541 
Q 544 4100 942 4425 
Q 1341 4750 2034 4750 
Q 2731 4750 3128 4425 
Q 3525 4100 3525 3541 
Q 3525 3141 3298 2862 
Q 3072 2584 2669 2484 
Q 3125 2378 3379 2068 
Q 3634 1759 3634 1313 
Q 3634 634 3220 271 
Q 2806 -91 2034 -91 
Q 1263 -91 848 271 
Q 434 634 434 1313 
Q 434 1759 690 2068 
Q 947 2378 1403 2484 
z
M 1172 3481 
Q 1172 3119 1398 2916 
Q 1625 2713 2034 2713 
Q 2441 2713 2670 2916 
Q 2900 3119 2900 3481 
Q 2900 3844 2670 4047 
Q 2441 4250 2034 4250 
Q 1625 4250 1398 4047 
Q 1172 3844 1172 3481 
z
" transform="scale(0.015625)"/>
      </defs>
      <use xlink:href="#DejaVuSans-32"/>
      <use xlink:href="#DejaVuSans-2e" x="63.623047"/>
      <use xlink:href="#DejaVuSans-37" x="95.410156"/>
      <use xlink:href="#DejaVuSans-38" x="159.033203"/>
     </g>
    </g>
   </g>
   <g id="text_25">
    <g clip-path="url(#p2b86672c43)">
     <!-- 4.64 -->
     <g style="fill: #470e61" transform="translate(550.390693 349.735965) rotate(-23.501538) scale(0.08 -0.08)">
      <use xlink:href="#DejaVuSans-34"/>
      <use xlink:href="#DejaVuSans-2e" x="63.623047"/>
      <use xlink:href="#DejaVuSans-36" x="95.410156"/>
      <use xlink:href="#DejaVuSans-34" x="159.033203"/>
     </g>
    </g>
   </g>
   <g id="text_26">
    <g clip-path="url(#p2b86672c43)">
     <!-- 4.64 -->
     <g style="fill: #470e61" transform="translate(173.034951 97.735965) rotate(-23.501538) scale(0.08 -0.08)">
      <use xlink:href="#DejaVuSans-34"/>
      <use xlink:href="#DejaVuSans-2e" x="63.623047"/>
      <use xlink:href="#DejaVuSans-36" x="95.410156"/>
      <use xlink:href="#DejaVuSans-34" x="159.033203"/>
     </g>
    </g>
   </g>
   <g id="text_27">
    <g clip-path="url(#p2b86672c43)">
     <!-- 7.74 -->
     <g style="fill: #481a6c" transform="translate(102.099219 372.541276) rotate(-334.391993) scale(0.08 -0.08)">
      <use xlink:href="#DejaVuSans-37"/>
      <use xlink:href="#DejaVuSans-2e" x="63.623047"/>
      <use xlink:href="#DejaVuSans-37" x="95.410156"/>
      <use xlink:href="#DejaVuSans-34" x="159.033203"/>
     </g>
    </g>
   </g>
   <g id="text_28">
    <g clip-path="url(#p2b86672c43)">
     <!-- 7.74 -->
     <g style="fill: #481a6c" transform="translate(619.837965 380.240048) rotate(-25.608007) scale(0.08 -0.08)">
      <use xlink:href="#DejaVuSans-37"/>
      <use xlink:href="#DejaVuSans-2e" x="63.623047"/>
      <use xlink:href="#DejaVuSans-37" x="95.410156"/>
      <use xlink:href="#DejaVuSans-34" x="159.033203"/>
     </g>
    </g>
   </g>
   <g id="text_29">
    <g clip-path="url(#p2b86672c43)">
     <!-- 7.74 -->
     <g style="fill: #481a6c" transform="translate(104.007434 67.760048) rotate(-25.608007) scale(0.08 -0.08)">
      <use xlink:href="#DejaVuSans-37"/>
      <use xlink:href="#DejaVuSans-2e" x="63.623047"/>
      <use xlink:href="#DejaVuSans-37" x="95.410156"/>
      <use xlink:href="#DejaVuSans-34" x="159.033203"/>
     </g>
    </g>
   </g>
   <g id="text_30">
    <g clip-path="url(#p2b86672c43)">
     <!-- 7.74 -->
     <g style="fill: #481a6c" transform="translate(617.92975 60.061276) rotate(-334.391993) scale(0.08 -0.08)">
      <use xlink:href="#DejaVuSans-37"/>
      <use xlink:href="#DejaVuSans-2e" x="63.623047"/>
      <use xlink:href="#DejaVuSans-37" x="95.410156"/>
      <use xlink:href="#DejaVuSans-34" x="159.033203"/>
     </g>
    </g>
   </g>
  </g>
 </g>
 <defs>
  <clipPath id="p2b86672c43">
   <rect x="90" y="51.84" width="558" height="332.64"/>
  </clipPath>
 </defs>
</svg>
