<?xml version="1.0" encoding="utf-8" standalone="no"?>
<!DOCTYPE svg PUBLIC "-//W3C//DTD SVG 1.1//EN"
  "http://www.w3.org/Graphics/SVG/1.1/DTD/svg11.dtd">
<svg xmlns:xlink="http://www.w3.org/1999/xlink" width="460.8pt" height="345.6pt" viewBox="0 0 460.8 345.6" xmlns="http://www.w3.org/2000/svg" version="1.1">
 <metadata>
  <rdf:RDF xmlns:dc="http://purl.org/dc/elements/1.1/" xmlns:cc="http://creativecommons.org/ns#" xmlns:rdf="http://www.w3.org/1999/02/22-rdf-syntax-ns#">
   <cc:Work>
    <dc:type rdf:resource="http://purl.org/dc/dcmitype/StillImage"/>
    <dc:date>2025-04-12T17:26:16.359257</dc:date>
    <dc:format>image/svg+xml</dc:format>
    <dc:creator>
     <cc:Agent>
      <dc:title>Matplotlib v3.9.2, https://matplotlib.org/</dc:title>
     </cc:Agent>
    </dc:creator>
   </cc:Work>
  </rdf:RDF>
 </metadata>
 <defs>
  <style type="text/css">*{stroke-linejoin: round; stroke-linecap: butt}</style>
 </defs>
 <g id="figure_1">
  <g id="patch_1">
   <path d="M 0 345.6 
L 460.8 345.6 
L 460.8 0 
L 0 0 
z
" style="fill: #ffffff"/>
  </g>
  <g id="patch_2">
   <path d="M 103.104 307.584 
L 369.216 307.584 
L 369.216 41.472 
L 103.104 41.472 
z
" style="fill: #ffffff"/>
  </g>
  <g id="pane3d_1">
   <g id="patch_3">
    <path d="M 123.197291 241.969309 
L 211.076164 168.307495 
L 209.854564 62.073991 
L 117.770234 129.272941 
" style="fill: #f2f2f2; opacity: 0.5; stroke: #f2f2f2; stroke-linejoin: miter"/>
   </g>
  </g>
  <g id="pane3d_2">
   <g id="patch_4">
    <path d="M 211.076164 168.307495 
L 352.090401 209.294766 
L 357.122702 99.402171 
L 209.854564 62.073991 
" style="fill: #e6e6e6; opacity: 0.5; stroke: #e6e6e6; stroke-linejoin: miter"/>
   </g>
  </g>
  <g id="pane3d_3">
   <g id="patch_5">
    <path d="M 123.197291 241.969309 
L 272.679269 290.790123 
L 352.090401 209.294766 
L 211.076164 168.307495 
" style="fill: #ececec; opacity: 0.5; stroke: #ececec; stroke-linejoin: miter"/>
   </g>
  </g>
  <g id="grid3d_1">
   <g id="Line3DCollection_1">
    <path d="M 123.197291 241.969309 
L 211.076164 168.307495 
L 209.854564 62.073991 
" style="fill: none; stroke: #b0b0b0; stroke-width: 0.8"/>
    <path d="M 195.967881 265.736184 
L 279.880048 188.306068 
L 281.632185 80.267526 
" style="fill: none; stroke: #b0b0b0; stroke-width: 0.8"/>
    <path d="M 272.679269 290.790123 
L 352.090401 209.294766 
L 357.122702 99.402171 
" style="fill: none; stroke: #b0b0b0; stroke-width: 0.8"/>
   </g>
  </g>
  <g id="grid3d_2">
   <g id="Line3DCollection_2">
    <path d="M 117.770234 129.272941 
L 123.197291 241.969309 
L 272.679269 290.790123 
" style="fill: none; stroke: #b0b0b0; stroke-width: 0.8"/>
    <path d="M 165.860779 94.178651 
L 169.008295 203.569617 
L 314.163547 248.217048 
" style="fill: none; stroke: #b0b0b0; stroke-width: 0.8"/>
    <path d="M 209.854564 62.073991 
L 211.076164 168.307495 
L 352.090401 209.294766 
" style="fill: none; stroke: #b0b0b0; stroke-width: 0.8"/>
   </g>
  </g>
  <g id="grid3d_3">
   <g id="Line3DCollection_3">
    <path d="M 352.090401 209.294766 
L 211.076164 168.307495 
L 123.197291 241.969309 
" style="fill: none; stroke: #b0b0b0; stroke-width: 0.8"/>
    <path d="M 354.551427 155.552235 
L 210.478101 116.298387 
L 120.545497 186.903085 
" style="fill: none; stroke: #b0b0b0; stroke-width: 0.8"/>
    <path d="M 357.122702 99.402171 
L 209.854564 62.073991 
L 117.770234 129.272941 
" style="fill: none; stroke: #b0b0b0; stroke-width: 0.8"/>
   </g>
  </g>
  <g id="axis3d_1">
   <g id="line2d_1">
    <path d="M 123.197291 241.969309 
L 272.679269 290.790123 
" style="fill: none; stroke: #000000; stroke-width: 0.8; stroke-linecap: square"/>
   </g>
   <g id="xtick_1">
    <g id="line2d_2">
     <path d="M 123.962332 241.328036 
L 121.663937 243.254597 
" style="fill: none; stroke: #000000; stroke-width: 0.8; stroke-linecap: square"/>
    </g>
    <g id="text_1">
     <!-- −1 -->
     <g transform="translate(108.288309 265.215952) scale(0.1 -0.1)">
      <defs>
       <path id="DejaVuSans-2212" d="M 678 2272 
L 4684 2272 
L 4684 1741 
L 678 1741 
L 678 2272 
z
" transform="scale(0.015625)"/>
       <path id="DejaVuSans-31" d="M 794 531 
L 1825 531 
L 1825 4091 
L 703 3866 
L 703 4441 
L 1819 4666 
L 2450 4666 
L 2450 531 
L 3481 531 
L 3481 0 
L 794 0 
L 794 531 
z
" transform="scale(0.015625)"/>
      </defs>
      <use xlink:href="#DejaVuSans-2212"/>
      <use xlink:href="#DejaVuSans-31" x="83.789062"/>
     </g>
    </g>
   </g>
   <g id="xtick_2">
    <g id="line2d_3">
     <path d="M 196.69995 265.060666 
L 194.500531 267.090184 
" style="fill: none; stroke: #000000; stroke-width: 0.8; stroke-linecap: square"/>
    </g>
    <g id="text_2">
     <!-- 0 -->
     <g transform="translate(185.32602 289.487318) scale(0.1 -0.1)">
      <defs>
       <path id="DejaVuSans-30" d="M 2034 4250 
Q 1547 4250 1301 3770 
Q 1056 3291 1056 2328 
Q 1056 1369 1301 889 
Q 1547 409 2034 409 
Q 2525 409 2770 889 
Q 3016 1369 3016 2328 
Q 3016 3291 2770 3770 
Q 2525 4250 2034 4250 
z
M 2034 4750 
Q 2819 4750 3233 4129 
Q 3647 3509 3647 2328 
Q 3647 1150 3233 529 
Q 2819 -91 2034 -91 
Q 1250 -91 836 529 
Q 422 1150 422 2328 
Q 422 3509 836 4129 
Q 1250 4750 2034 4750 
z
" transform="scale(0.015625)"/>
      </defs>
      <use xlink:href="#DejaVuSans-30"/>
     </g>
    </g>
   </g>
   <g id="xtick_3">
    <g id="line2d_4">
     <path d="M 273.373625 290.077542 
L 271.287426 292.218496 
" style="fill: none; stroke: #000000; stroke-width: 0.8; stroke-linecap: square"/>
    </g>
    <g id="text_3">
     <!-- 1 -->
     <g transform="translate(262.134281 315.078203) scale(0.1 -0.1)">
      <use xlink:href="#DejaVuSans-31"/>
     </g>
    </g>
   </g>
  </g>
  <g id="axis3d_2">
   <g id="line2d_5">
    <path d="M 352.090401 209.294766 
L 272.679269 290.790123 
" style="fill: none; stroke: #000000; stroke-width: 0.8; stroke-linecap: square"/>
   </g>
   <g id="xtick_4">
    <g id="line2d_6">
     <path d="M 271.419199 290.378584 
L 275.202687 291.614271 
" style="fill: none; stroke: #000000; stroke-width: 0.8; stroke-linecap: square"/>
    </g>
    <g id="text_4">
     <!-- −1 -->
     <g transform="translate(278.262429 311.89542) scale(0.1 -0.1)">
      <use xlink:href="#DejaVuSans-2212"/>
      <use xlink:href="#DejaVuSans-31" x="83.789062"/>
     </g>
    </g>
   </g>
   <g id="xtick_5">
    <g id="line2d_7">
     <path d="M 312.942742 247.841548 
L 316.608191 248.968982 
" style="fill: none; stroke: #000000; stroke-width: 0.8; stroke-linecap: square"/>
    </g>
    <g id="text_5">
     <!-- 0 -->
     <g transform="translate(323.379766 268.692429) scale(0.1 -0.1)">
      <use xlink:href="#DejaVuSans-30"/>
     </g>
    </g>
   </g>
   <g id="xtick_6">
    <g id="line2d_8">
     <path d="M 350.906903 208.95077 
L 354.460211 209.983577 
" style="fill: none; stroke: #000000; stroke-width: 0.8; stroke-linecap: square"/>
    </g>
    <g id="text_6">
     <!-- 1 -->
     <g transform="translate(360.795648 229.196288) scale(0.1 -0.1)">
      <use xlink:href="#DejaVuSans-31"/>
     </g>
    </g>
   </g>
  </g>
  <g id="axis3d_3">
   <g id="line2d_9">
    <path d="M 352.090401 209.294766 
L 357.122702 99.402171 
" style="fill: none; stroke: #000000; stroke-width: 0.8; stroke-linecap: square"/>
   </g>
   <g id="xtick_7">
    <g id="line2d_10">
     <path d="M 350.906903 208.95077 
L 354.460211 209.983577 
" style="fill: none; stroke: #000000; stroke-width: 0.8; stroke-linecap: square"/>
    </g>
    <g id="text_7">
     <!-- 0 -->
     <g transform="translate(367.15779 214.288206) scale(0.1 -0.1)">
      <use xlink:href="#DejaVuSans-30"/>
     </g>
    </g>
   </g>
   <g id="xtick_8">
    <g id="line2d_11">
     <path d="M 353.341016 155.22245 
L 356.975191 156.212608 
" style="fill: none; stroke: #000000; stroke-width: 0.8; stroke-linecap: square"/>
    </g>
    <g id="text_8">
     <!-- 5 -->
     <g transform="translate(370.009844 160.653431) scale(0.1 -0.1)">
      <defs>
       <path id="DejaVuSans-35" d="M 691 4666 
L 3169 4666 
L 3169 4134 
L 1269 4134 
L 1269 2991 
Q 1406 3038 1543 3061 
Q 1681 3084 1819 3084 
Q 2600 3084 3056 2656 
Q 3513 2228 3513 1497 
Q 3513 744 3044 326 
Q 2575 -91 1722 -91 
Q 1428 -91 1123 -41 
Q 819 9 494 109 
L 494 744 
Q 775 591 1075 516 
Q 1375 441 1709 441 
Q 2250 441 2565 725 
Q 2881 1009 2881 1497 
Q 2881 1984 2565 2268 
Q 2250 2553 1709 2553 
Q 1456 2553 1204 2497 
Q 953 2441 691 2322 
L 691 4666 
z
" transform="scale(0.015625)"/>
      </defs>
      <use xlink:href="#DejaVuSans-35"/>
     </g>
    </g>
   </g>
   <g id="xtick_9">
    <g id="line2d_12">
     <path d="M 355.884126 99.088228 
L 359.60293 100.030837 
" style="fill: none; stroke: #000000; stroke-width: 0.8; stroke-linecap: square"/>
    </g>
    <g id="text_9">
     <!-- 10 -->
     <g transform="translate(369.808013 104.623475) scale(0.1 -0.1)">
      <use xlink:href="#DejaVuSans-31"/>
      <use xlink:href="#DejaVuSans-30" x="63.623047"/>
     </g>
    </g>
   </g>
  </g>
  <g id="axes_1">
   <g id="Poly3DCollection_1">
    <path d="M 185.669332 161.882372 
L 192.624875 165.9087 
L 196.710216 152.884221 
L 189.750919 148.880949 
z
" clip-path="url(#p4b0eb6c179)" style="fill: #d7d7d7"/>
    <path d="M 189.750919 148.880949 
L 196.710216 152.884221 
L 200.759044 137.731113 
L 193.79016 133.750999 
z
" clip-path="url(#p4b0eb6c179)" style="fill: #0000d9"/>
    <path d="M 181.534963 172.785633 
L 188.492566 176.835026 
L 192.624875 165.9087 
L 185.669332 161.882372 
z
" clip-path="url(#p4b0eb6c179)" style="fill: #0000d3"/>
    <path d="M 193.79016 133.750999 
L 200.759044 137.731113 
L 204.781629 120.408058 
L 197.797276 116.451329 
z
" clip-path="url(#p4b0eb6c179)" style="fill: #dadada"/>
    <path d="M 192.624875 165.9087 
L 199.599897 169.736498 
L 203.689343 156.687862 
L 196.710216 152.884221 
z
" clip-path="url(#p4b0eb6c179)" style="fill: #0000d8"/>
    <path d="M 196.710216 152.884221 
L 203.689343 156.687862 
L 207.748143 141.510147 
L 200.759044 137.731113 
z
" clip-path="url(#p4b0eb6c179)" style="fill: #dadada"/>
    <path d="M 200.759044 137.731113 
L 207.748143 141.510147 
L 211.786617 124.161897 
L 204.781629 120.408058 
z
" clip-path="url(#p4b0eb6c179)" style="fill: #0000db"/>
    <path d="M 188.492566 176.835026 
L 195.469329 180.686642 
L 199.599897 169.736498 
L 192.624875 165.9087 
z
" clip-path="url(#p4b0eb6c179)" style="fill: #d5d5d5"/>
    <path d="M 197.797276 116.451329 
L 204.781629 120.408058 
L 208.788141 100.862512 
L 201.782358 96.929544 
z
" clip-path="url(#p4b0eb6c179)" style="fill: #0000db"/>
    <path d="M 177.33707 181.610504 
L 184.302558 185.68306 
L 188.492566 176.835026 
L 181.534963 172.785633 
z
" clip-path="url(#p4b0eb6c179)" style="fill: #cdcdcd"/>
    <path d="M 199.599897 169.736498 
L 206.59628 173.365711 
L 210.690185 160.291807 
L 203.689343 156.687862 
z
" clip-path="url(#p4b0eb6c179)" style="fill: #dadada"/>
    <path d="M 203.689343 156.687862 
L 210.690185 160.291807 
L 214.759347 145.088019 
L 207.748143 141.510147 
z
" clip-path="url(#p4b0eb6c179)" style="fill: #0000db"/>
    <path d="M 184.302558 185.68306 
L 191.286915 189.558251 
L 195.469329 180.686642 
L 188.492566 176.835026 
z
" clip-path="url(#p4b0eb6c179)" style="fill: #0000d0"/>
    <path d="M 204.781629 120.408058 
L 211.786617 124.161897 
L 215.815018 104.59041 
L 208.788141 100.862512 
z
" clip-path="url(#p4b0eb6c179)" style="fill: #dcdcdc"/>
    <path d="M 207.748143 141.510147 
L 214.759347 145.088019 
L 218.81414 127.712748 
L 211.786617 124.161897 
z
" clip-path="url(#p4b0eb6c179)" style="fill: #dcdcdc"/>
    <path d="M 195.469329 180.686642 
L 202.467134 184.340437 
L 206.59628 173.365711 
L 199.599897 169.736498 
z
" clip-path="url(#p4b0eb6c179)" style="fill: #0000d7"/>
    <path d="M 173.064515 188.366263 
L 180.04375 192.462157 
L 184.302558 185.68306 
L 177.33707 181.610504 
z
" clip-path="url(#p4b0eb6c179)" style="fill: #0000c0"/>
    <path d="M 201.782358 96.929544 
L 208.788141 100.862512 
L 212.788739 79.03019 
L 205.755455 75.121527 
z
" clip-path="url(#p4b0eb6c179)" style="fill: #dcdcdc"/>
    <path d="M 210.690185 160.291807 
L 217.714651 163.695885 
L 221.794571 148.464545 
L 214.759347 145.088019 
z
" clip-path="url(#p4b0eb6c179)" style="fill: #dcdcdc"/>
    <path d="M 206.59628 173.365711 
L 213.615932 176.796181 
L 217.714651 163.695885 
L 210.690185 160.291807 
z
" clip-path="url(#p4b0eb6c179)" style="fill: #0000db"/>
    <path d="M 211.786617 124.161897 
L 218.81414 127.712748 
L 222.864899 108.113124 
L 215.815018 104.59041 
z
" clip-path="url(#p4b0eb6c179)" style="fill: #0000dd"/>
    <path d="M 191.286915 189.558251 
L 198.29203 193.23604 
L 202.467134 184.340437 
L 195.469329 180.686642 
z
" clip-path="url(#p4b0eb6c179)" style="fill: #d3d3d3"/>
    <path d="M 202.467134 184.340437 
L 209.487891 187.796264 
L 213.615932 176.796181 
L 206.59628 173.365711 
z
" clip-path="url(#p4b0eb6c179)" style="fill: #d9d9d9"/>
    <path d="M 214.759347 145.088019 
L 221.794571 148.464545 
L 225.866121 131.060411 
L 218.81414 127.712748 
z
" clip-path="url(#p4b0eb6c179)" style="fill: #0000dd"/>
    <path d="M 180.04375 192.462157 
L 187.041594 196.360753 
L 191.286915 189.558251 
L 184.302558 185.68306 
z
" clip-path="url(#p4b0eb6c179)" style="fill: #c4c4c4"/>
    <path d="M 208.788141 100.862512 
L 215.815018 104.59041 
L 219.843615 82.73122 
L 212.788739 79.03019 
z
" clip-path="url(#p4b0eb6c179)" style="fill: #0000dd"/>
    <path d="M 217.714651 163.695885 
L 224.764676 166.899823 
L 228.855756 151.639436 
L 221.794571 148.464545 
z
" clip-path="url(#p4b0eb6c179)" style="fill: #0000dd"/>
    <path d="M 213.615932 176.796181 
L 220.660785 180.027647 
L 224.764676 166.899823 
L 217.714651 163.695885 
z
" clip-path="url(#p4b0eb6c179)" style="fill: #dddddd"/>
    <path d="M 198.29203 193.23604 
L 205.319816 196.716288 
L 209.487891 187.796264 
L 202.467134 184.340437 
z
" clip-path="url(#p4b0eb6c179)" style="fill: #0000d5"/>
    <path d="M 218.81414 127.712748 
L 225.866121 131.060411 
L 229.939721 111.430432 
L 222.864899 108.113124 
z
" clip-path="url(#p4b0eb6c179)" style="fill: #dedede"/>
    <path d="M 221.794571 148.464545 
L 228.855756 151.639436 
L 232.94451 134.204578 
L 225.866121 131.060411 
z
" clip-path="url(#p4b0eb6c179)" style="fill: #dedede"/>
    <path d="M 209.487891 187.796264 
L 216.533532 191.053873 
L 220.660785 180.027647 
L 213.615932 176.796181 
z
" clip-path="url(#p4b0eb6c179)" style="fill: #0000db"/>
    <path d="M 168.705661 193.051663 
L 175.704576 197.171127 
L 180.04375 192.462157 
L 173.064515 188.366263 
z
" clip-path="url(#p4b0eb6c179)" style="fill: #9c9c9c"/>
    <path d="M 187.041594 196.360753 
L 194.059943 200.062022 
L 198.29203 193.23604 
L 191.286915 189.558251 
z
" clip-path="url(#p4b0eb6c179)" style="fill: #0000c8"/>
    <path d="M 215.815018 104.59041 
L 222.864899 108.113124 
L 226.92201 86.224482 
L 219.843615 82.73122 
z
" clip-path="url(#p4b0eb6c179)" style="fill: #dddddd"/>
    <path d="M 220.660785 180.027647 
L 227.732801 183.059747 
L 231.842225 169.903242 
L 224.764676 166.899823 
z
" clip-path="url(#p4b0eb6c179)" style="fill: #0000de"/>
    <path d="M 224.764676 166.899823 
L 231.842225 169.903242 
L 235.944873 154.612298 
L 228.855756 151.639436 
z
" clip-path="url(#p4b0eb6c179)" style="fill: #dfdfdf"/>
    <path d="M 205.319816 196.716288 
L 212.372209 199.998754 
L 216.533532 191.053873 
L 209.487891 187.796264 
z
" clip-path="url(#p4b0eb6c179)" style="fill: #d8d8d8"/>
    <path d="M 225.866121 131.060411 
L 232.94451 134.204578 
L 237.041447 114.542006 
L 229.939721 111.430432 
z
" clip-path="url(#p4b0eb6c179)" style="fill: #0000df"/>
    <path d="M 216.533532 191.053873 
L 223.60602 194.11291 
L 227.732801 183.059747 
L 220.660785 180.027647 
z
" clip-path="url(#p4b0eb6c179)" style="fill: #dddddd"/>
    <path d="M 228.855756 151.639436 
L 235.944873 154.612298 
L 240.051287 137.144834 
L 232.94451 134.204578 
z
" clip-path="url(#p4b0eb6c179)" style="fill: #0000df"/>
    <path d="M 175.704576 197.171127 
L 182.721865 201.093018 
L 187.041594 196.360753 
L 180.04375 192.462157 
z
" clip-path="url(#p4b0eb6c179)" style="fill: #0000a0"/>
    <path d="M 222.864899 108.113124 
L 229.939721 111.430432 
L 234.025876 89.509731 
L 226.92201 86.224482 
z
" clip-path="url(#p4b0eb6c179)" style="fill: #0000de"/>
    <path d="M 194.059943 200.062022 
L 201.100716 203.565831 
L 205.319816 196.716288 
L 198.29203 193.23604 
z
" clip-path="url(#p4b0eb6c179)" style="fill: #cccccc"/>
    <path d="M 227.732801 183.059747 
L 234.833971 185.892009 
L 238.949292 172.705659 
L 231.842225 169.903242 
z
" clip-path="url(#p4b0eb6c179)" style="fill: #dfdfdf"/>
    <path d="M 231.842225 169.903242 
L 238.949292 172.705659 
L 243.063921 157.382627 
L 235.944873 154.612298 
z
" clip-path="url(#p4b0eb6c179)" style="fill: #0000e0"/>
    <path d="M 232.94451 134.204578 
L 240.051287 137.144834 
L 244.17207 117.447408 
L 237.041447 114.542006 
z
" clip-path="url(#p4b0eb6c179)" style="fill: #dfdfdf"/>
    <path d="M 212.372209 199.998754 
L 219.451178 203.083092 
L 223.60602 194.11291 
L 216.533532 191.053873 
z
" clip-path="url(#p4b0eb6c179)" style="fill: #0000db"/>
    <path d="M 182.721865 201.093018 
L 189.759438 204.817307 
L 194.059943 200.062022 
L 187.041594 196.360753 
z
" clip-path="url(#p4b0eb6c179)" style="fill: #a6a6a6"/>
    <path d="M 223.60602 194.11291 
L 230.707348 196.972917 
L 234.833971 185.892009 
L 227.732801 183.059747 
z
" clip-path="url(#p4b0eb6c179)" style="fill: #0000df"/>
    <path d="M 235.944873 154.612298 
L 243.063921 157.382627 
L 247.188463 139.880658 
L 240.051287 137.144834 
z
" clip-path="url(#p4b0eb6c179)" style="fill: #e0e0e0"/>
    <path d="M 229.939721 111.430432 
L 237.041447 114.542006 
L 241.157192 92.586616 
L 234.025876 89.509731 
z
" clip-path="url(#p4b0eb6c179)" style="fill: #dfdfdf"/>
    <path d="M 201.100716 203.565831 
L 208.165859 206.871944 
L 212.372209 199.998754 
L 205.319816 196.716288 
z
" clip-path="url(#p4b0eb6c179)" style="fill: #0000d0"/>
    <path d="M 164.248266 195.65476 
L 171.272892 199.798073 
L 175.704576 197.171127 
L 168.705661 193.051663 
z
" clip-path="url(#p4b0eb6c179)" style="fill: #000069"/>
    <path d="M 234.833971 185.892009 
L 241.966318 188.523856 
L 246.087902 175.30648 
L 238.949292 172.705659 
z
" clip-path="url(#p4b0eb6c179)" style="fill: #0000e1"/>
    <path d="M 238.949292 172.705659 
L 246.087902 175.30648 
L 250.214933 159.949814 
L 243.063921 157.382627 
z
" clip-path="url(#p4b0eb6c179)" style="fill: #e1e1e1"/>
    <path d="M 189.759438 204.817307 
L 196.819223 208.343868 
L 201.100716 203.565831 
L 194.059943 200.062022 
z
" clip-path="url(#p4b0eb6c179)" style="fill: #0000ac"/>
    <path d="M 219.451178 203.083092 
L 226.558717 205.968853 
L 230.707348 196.972917 
L 223.60602 194.11291 
z
" clip-path="url(#p4b0eb6c179)" style="fill: #dddddd"/>
    <path d="M 240.051287 137.144834 
L 247.188463 139.880658 
L 251.333614 120.146091 
L 244.17207 117.447408 
z
" clip-path="url(#p4b0eb6c179)" style="fill: #0000e0"/>
    <path d="M 237.041447 114.542006 
L 244.17207 117.447408 
L 248.317969 95.454671 
L 241.157192 92.586616 
z
" clip-path="url(#p4b0eb6c179)" style="fill: #0000e0"/>
    <path d="M 208.165859 206.871944 
L 215.257348 209.980022 
L 219.451178 203.083092 
L 212.372209 199.998754 
z
" clip-path="url(#p4b0eb6c179)" style="fill: #d5d5d5"/>
    <path d="M 171.272892 199.798073 
L 178.315685 203.743183 
L 182.721865 201.093018 
L 175.704576 197.171127 
z
" clip-path="url(#p4b0eb6c179)" style="fill: #6b6b6b"/>
    <path d="M 230.707348 196.972917 
L 237.839537 199.633329 
L 241.966318 188.523856 
L 234.833971 185.892009 
z
" clip-path="url(#p4b0eb6c179)" style="fill: #e1e1e1"/>
    <path d="M 243.063921 157.382627 
L 250.214933 159.949814 
L 254.358081 142.411415 
L 247.188463 139.880658 
z
" clip-path="url(#p4b0eb6c179)" style="fill: #0000e1"/>
    <path d="M 196.819223 208.343868 
L 203.903179 211.672466 
L 208.165859 206.871944 
L 201.100716 203.565831 
z
" clip-path="url(#p4b0eb6c179)" style="fill: #b3b3b3"/>
    <path d="M 241.966318 188.523856 
L 249.131899 190.954602 
L 253.260117 177.705005 
L 246.087902 175.30648 
z
" clip-path="url(#p4b0eb6c179)" style="fill: #e2e2e2"/>
    <path d="M 246.087902 175.30648 
L 253.260117 177.705005 
L 257.399978 162.313137 
L 250.214933 159.949814 
z
" clip-path="url(#p4b0eb6c179)" style="fill: #0000e2"/>
    <path d="M 226.558717 205.968853 
L 233.696855 208.655479 
L 237.839537 199.633329 
L 230.707348 196.972917 
z
" clip-path="url(#p4b0eb6c179)" style="fill: #0000e0"/>
    <path d="M 247.188463 139.880658 
L 254.358081 142.411415 
L 258.528136 122.637396 
L 251.333614 120.146091 
z
" clip-path="url(#p4b0eb6c179)" style="fill: #e1e1e1"/>
    <path d="M 178.315685 203.743183 
L 185.378568 207.490066 
L 189.759438 204.817307 
L 182.721865 201.093018 
z
" clip-path="url(#p4b0eb6c179)" style="fill: #00006c"/>
    <path d="M 244.17207 117.447408 
L 251.333614 120.146091 
L 255.510248 98.113323 
L 248.317969 95.454671 
z
" clip-path="url(#p4b0eb6c179)" style="fill: #e0e0e0"/>
    <path d="M 215.257348 209.980022 
L 222.377185 212.88962 
L 226.558717 205.968853 
L 219.451178 203.083092 
z
" clip-path="url(#p4b0eb6c179)" style="fill: #0000d9"/>
    <path d="M 237.839537 199.633329 
L 245.004648 202.093471 
L 249.131899 190.954602 
L 241.966318 188.523856 
z
" clip-path="url(#p4b0eb6c179)" style="fill: #0000e2"/>
    <path d="M 250.214933 159.949814 
L 257.399978 162.313137 
L 261.562219 144.736361 
L 254.358081 142.411415 
z
" clip-path="url(#p4b0eb6c179)" style="fill: #e2e2e2"/>
    <path d="M 203.903179 211.672466 
L 211.013292 214.802767 
L 215.257348 209.980022 
L 208.165859 206.871944 
z
" clip-path="url(#p4b0eb6c179)" style="fill: #0000bb"/>
    <path d="M 159.679366 196.152605 
L 166.735865 200.320072 
L 171.272892 199.798073 
L 164.248266 195.65476 
z
" clip-path="url(#p4b0eb6c179)" style="fill: #5f5f5f"/>
    <path d="M 185.378568 207.490066 
L 192.463488 211.038595 
L 196.819223 208.343868 
L 189.759438 204.817307 
z
" clip-path="url(#p4b0eb6c179)" style="fill: #6e6e6e"/>
    <path d="M 249.131899 190.954602 
L 256.332809 193.183451 
L 260.468034 179.900419 
L 253.260117 177.705005 
z
" clip-path="url(#p4b0eb6c179)" style="fill: #0000e4"/>
    <path d="M 253.260117 177.705005 
L 260.468034 179.900419 
L 264.62116 164.471762 
L 257.399978 162.313137 
z
" clip-path="url(#p4b0eb6c179)" style="fill: #e3e3e3"/>
    <path d="M 233.696855 208.655479 
L 240.867654 211.142304 
L 245.004648 202.093471 
L 237.839537 199.633329 
z
" clip-path="url(#p4b0eb6c179)" style="fill: #e2e2e2"/>
    <path d="M 254.358081 142.411415 
L 261.562219 144.736361 
L 265.75773 124.92055 
L 258.528136 122.637396 
z
" clip-path="url(#p4b0eb6c179)" style="fill: #0000e2"/>
    <path d="M 222.377185 212.88962 
L 229.527407 215.600184 
L 233.696855 208.655479 
L 226.558717 205.968853 
z
" clip-path="url(#p4b0eb6c179)" style="fill: #dedede"/>
    <path d="M 251.333614 120.146091 
L 258.528136 122.637396 
L 262.736105 100.561882 
L 255.510248 98.113323 
z
" clip-path="url(#p4b0eb6c179)" style="fill: #0000e1"/>
    <path d="M 245.004648 202.093471 
L 252.204773 204.352558 
L 256.332809 193.183451 
L 249.131899 190.954602 
z
" clip-path="url(#p4b0eb6c179)" style="fill: #e4e4e4"/>
    <path d="M 257.399978 162.313137 
L 264.62116 164.471762 
L 268.802993 146.854637 
L 261.562219 144.736361 
z
" clip-path="url(#p4b0eb6c179)" style="fill: #0000e3"/>
    <path d="M 166.735865 200.320072 
L 173.81035 204.288347 
L 178.315685 203.743183 
L 171.272892 199.798073 
z
" clip-path="url(#p4b0eb6c179)" style="fill: #000060"/>
    <path d="M 211.013292 214.802767 
L 218.151576 217.734327 
L 222.377185 212.88962 
L 215.257348 209.980022 
z
" clip-path="url(#p4b0eb6c179)" style="fill: #c4c4c4"/>
    <path d="M 192.463488 211.038595 
L 199.572415 214.388539 
L 203.903179 211.672466 
L 196.819223 208.343868 
z
" clip-path="url(#p4b0eb6c179)" style="fill: #000071"/>
    <path d="M 256.332809 193.183451 
L 263.57118 195.209492 
L 267.713788 181.891796 
L 260.468034 179.900419 
z
" clip-path="url(#p4b0eb6c179)" style="fill: #e5e5e5"/>
    <path d="M 260.468034 179.900419 
L 267.713788 181.891796 
L 271.880622 166.42474 
L 264.62116 164.471762 
z
" clip-path="url(#p4b0eb6c179)" style="fill: #0000e4"/>
    <path d="M 240.867654 211.142304 
L 248.073213 213.428553 
L 252.204773 204.352558 
L 245.004648 202.093471 
z
" clip-path="url(#p4b0eb6c179)" style="fill: #0000e5"/>
    <path d="M 261.562219 144.736361 
L 268.802993 146.854637 
L 273.024527 126.994666 
L 265.75773 124.92055 
z
" clip-path="url(#p4b0eb6c179)" style="fill: #e3e3e3"/>
    <path d="M 229.527407 215.600184 
L 236.710084 218.111056 
L 240.867654 211.142304 
L 233.696855 208.655479 
z
" clip-path="url(#p4b0eb6c179)" style="fill: #0000e2"/>
    <path d="M 258.528136 122.637396 
L 265.75773 124.92055 
L 269.997651 102.799542 
L 262.736105 100.561882 
z
" clip-path="url(#p4b0eb6c179)" style="fill: #e2e2e2"/>
    <path d="M 173.81035 204.288347 
L 180.904762 208.057406 
L 185.378568 207.490066 
L 178.315685 203.743183 
z
" clip-path="url(#p4b0eb6c179)" style="fill: #626262"/>
    <path d="M 252.204773 204.352558 
L 259.442046 206.409696 
L 263.57118 195.209492 
L 256.332809 193.183451 
z
" clip-path="url(#p4b0eb6c179)" style="fill: #0000e6"/>
    <path d="M 264.62116 164.471762 
L 271.880622 166.42474 
L 276.082559 148.765269 
L 268.802993 146.854637 
z
" clip-path="url(#p4b0eb6c179)" style="fill: #e4e4e4"/>
    <path d="M 199.572415 214.388539 
L 206.70735 217.539561 
L 211.013292 214.802767 
L 203.903179 211.672466 
z
" clip-path="url(#p4b0eb6c179)" style="fill: #747474"/>
    <path d="M 218.151576 217.734327 
L 225.32008 220.466596 
L 229.527407 215.600184 
L 222.377185 212.88962 
z
" clip-path="url(#p4b0eb6c179)" style="fill: #0000cd"/>
    <path d="M 180.904762 208.057406 
L 188.021066 211.627123 
L 192.463488 211.038595 
L 185.378568 207.490066 
z
" clip-path="url(#p4b0eb6c179)" style="fill: #000064"/>
    <path d="M 263.57118 195.209492 
L 270.849185 197.031702 
L 274.999558 183.678094 
L 267.713788 181.891796 
z
" clip-path="url(#p4b0eb6c179)" style="fill: #0000e6"/>
    <path d="M 267.713788 181.891796 
L 274.999558 183.678094 
L 279.18055 168.171008 
L 271.880622 166.42474 
z
" clip-path="url(#p4b0eb6c179)" style="fill: #e5e5e5"/>
    <path d="M 268.802993 146.854637 
L 276.082559 148.765269 
L 280.330696 128.858737 
L 273.024527 126.994666 
z
" clip-path="url(#p4b0eb6c179)" style="fill: #0000e3"/>
    <path d="M 248.073213 213.428553 
L 255.315668 215.513338 
L 259.442046 206.409696 
L 252.204773 204.352558 
z
" clip-path="url(#p4b0eb6c179)" style="fill: #e7e7e7"/>
    <path d="M 236.710084 218.111056 
L 243.927322 220.421464 
L 248.073213 213.428553 
L 240.867654 211.142304 
z
" clip-path="url(#p4b0eb6c179)" style="fill: #e6e6e6"/>
    <path d="M 265.75773 124.92055 
L 273.024527 126.994666 
L 277.297037 104.825383 
L 269.997651 102.799542 
z
" clip-path="url(#p4b0eb6c179)" style="fill: #0000e3"/>
    <path d="M 154.985144 194.510782 
L 162.079843 198.702717 
L 166.735865 200.320072 
L 159.679366 196.152605 
z
" clip-path="url(#p4b0eb6c179)" style="fill: #000060"/>
    <path d="M 259.442046 206.409696 
L 266.71864 208.263871 
L 270.849185 197.031702 
L 263.57118 195.209492 
z
" clip-path="url(#p4b0eb6c179)" style="fill: #e7e7e7"/>
    <path d="M 271.880622 166.42474 
L 279.18055 168.171008 
L 283.403112 150.467163 
L 276.082559 148.765269 
z
" clip-path="url(#p4b0eb6c179)" style="fill: #0000e5"/>
    <path d="M 206.70735 217.539561 
L 213.870325 220.491219 
L 218.151576 217.734327 
L 211.013292 214.802767 
z
" clip-path="url(#p4b0eb6c179)" style="fill: #000079"/>
    <path d="M 225.32008 220.466596 
L 232.520884 222.998914 
L 236.710084 218.111056 
L 229.527407 215.600184 
z
" clip-path="url(#p4b0eb6c179)" style="fill: #d7d7d7"/>
    <path d="M 188.021066 211.627123 
L 195.16125 214.997264 
L 199.572415 214.388539 
L 192.463488 211.038595 
z
" clip-path="url(#p4b0eb6c179)" style="fill: #666666"/>
    <path d="M 162.079843 198.702717 
L 169.192373 202.6941 
L 173.81035 204.288347 
L 166.735865 200.320072 
z
" clip-path="url(#p4b0eb6c179)" style="fill: #616161"/>
    <path d="M 255.315668 215.513338 
L 262.597196 217.395657 
L 266.71864 208.263871 
L 259.442046 206.409696 
z
" clip-path="url(#p4b0eb6c179)" style="fill: #0000e9"/>
    <path d="M 276.082559 148.765269 
L 283.403112 150.467163 
L 287.678452 130.511638 
L 280.330696 128.858737 
z
" clip-path="url(#p4b0eb6c179)" style="fill: #e4e4e4"/>
    <path d="M 243.927322 220.421464 
L 251.181267 222.530525 
L 255.315668 215.513338 
L 248.073213 213.428553 
z
" clip-path="url(#p4b0eb6c179)" style="fill: #0000e9"/>
    <path d="M 273.024527 126.994666 
L 280.330696 128.858737 
L 284.636452 106.638361 
L 277.297037 104.825383 
z
" clip-path="url(#p4b0eb6c179)" style="fill: #e3e3e3"/>
    <path d="M 270.849185 197.031702 
L 278.16904 198.648939 
L 282.327563 185.258152 
L 274.999558 183.678094 
z
" clip-path="url(#p4b0eb6c179)" style="fill: #e7e7e7"/>
    <path d="M 274.999558 183.678094 
L 282.327563 185.258152 
L 286.523172 169.709379 
L 279.18055 168.171008 
z
" clip-path="url(#p4b0eb6c179)" style="fill: #0000e6"/>
    <path d="M 213.870325 220.491219 
L 221.063402 223.242959 
L 225.32008 220.466596 
L 218.151576 217.734327 
z
" clip-path="url(#p4b0eb6c179)" style="fill: #7e7e7e"/>
    <path d="M 279.18055 168.171008 
L 286.523172 169.709379 
L 290.766896 151.959106 
L 283.403112 150.467163 
z
" clip-path="url(#p4b0eb6c179)" style="fill: #e6e6e6"/>
    <path d="M 266.71864 208.263871 
L 274.036771 209.913958 
L 278.16904 198.648939 
L 270.849185 197.031702 
z
" clip-path="url(#p4b0eb6c179)" style="fill: #0000e9"/>
    <path d="M 232.520884 222.998914 
L 239.756108 225.330512 
L 243.927322 220.421464 
L 236.710084 218.111056 
z
" clip-path="url(#p4b0eb6c179)" style="fill: #0000e1"/>
    <path d="M 195.16125 214.997264 
L 202.327336 218.167491 
L 206.70735 217.539561 
L 199.572415 214.388539 
z
" clip-path="url(#p4b0eb6c179)" style="fill: #000068"/>
    <path d="M 169.192373 202.6941 
L 176.324694 206.484906 
L 180.904762 208.057406 
L 173.81035 204.288347 
z
" clip-path="url(#p4b0eb6c179)" style="fill: #000063"/>
    <path d="M 251.181267 222.530525 
L 258.474103 224.43724 
L 262.597196 217.395657 
L 255.315668 215.513338 
z
" clip-path="url(#p4b0eb6c179)" style="fill: #ededed"/>
    <path d="M 280.330696 128.858737 
L 287.678452 130.511638 
L 292.018132 108.237313 
L 284.636452 106.638361 
z
" clip-path="url(#p4b0eb6c179)" style="fill: #0000e4"/>
    <path d="M 283.403112 150.467163 
L 290.766896 151.959106 
L 295.070053 131.952121 
L 287.678452 130.511638 
z
" clip-path="url(#p4b0eb6c179)" style="fill: #0000e5"/>
    <path d="M 262.597196 217.395657 
L 269.92002 219.074391 
L 274.036771 209.913958 
L 266.71864 208.263871 
z
" clip-path="url(#p4b0eb6c179)" style="fill: #ebebeb"/>
    <path d="M 278.16904 198.648939 
L 285.533009 200.059942 
L 289.70007 186.63069 
L 282.327563 185.258152 
z
" clip-path="url(#p4b0eb6c179)" style="fill: #0000e9"/>
    <path d="M 282.327563 185.258152 
L 289.70007 186.63069 
L 293.910764 171.038549 
L 286.523172 169.709379 
z
" clip-path="url(#p4b0eb6c179)" style="fill: #e7e7e7"/>
    <path d="M 221.063402 223.242959 
L 228.288678 225.794121 
L 232.520884 222.998914 
L 225.32008 220.466596 
z
" clip-path="url(#p4b0eb6c179)" style="fill: #000085"/>
    <path d="M 176.324694 206.484906 
L 183.478795 210.075004 
L 188.021066 211.627123 
L 180.904762 208.057406 
z
" clip-path="url(#p4b0eb6c179)" style="fill: #646464"/>
    <path d="M 239.756108 225.330512 
L 247.027908 227.460506 
L 251.181267 222.530525 
L 243.927322 220.421464 
z
" clip-path="url(#p4b0eb6c179)" style="fill: #e9e9e9"/>
    <path d="M 202.327336 218.167491 
L 209.521373 221.137356 
L 213.870325 220.491219 
L 206.70735 217.539561 
z
" clip-path="url(#p4b0eb6c179)" style="fill: #6b6b6b"/>
    <path d="M 274.036771 209.913958 
L 281.398702 211.358708 
L 285.533009 200.059942 
L 278.16904 198.648939 
z
" clip-path="url(#p4b0eb6c179)" style="fill: #eaeaea"/>
    <path d="M 286.523172 169.709379 
L 293.910764 171.038549 
L 298.176197 153.239762 
L 290.766896 151.959106 
z
" clip-path="url(#p4b0eb6c179)" style="fill: #0000e6"/>
    <path d="M 150.150784 190.682774 
L 157.290211 194.899485 
L 162.079843 198.702717 
L 154.985144 194.510782 
z
" clip-path="url(#p4b0eb6c179)" style="fill: #616161"/>
    <path d="M 287.678452 130.511638 
L 295.070053 131.952121 
L 299.444355 109.620948 
L 292.018132 108.237313 
z
" clip-path="url(#p4b0eb6c179)" style="fill: #e5e5e5"/>
    <path d="M 258.474103 224.43724 
L 265.80806 226.140494 
L 269.92002 219.074391 
L 262.597196 217.395657 
z
" clip-path="url(#p4b0eb6c179)" style="fill: #0000f0"/>
    <path d="M 228.288678 225.794121 
L 235.548288 228.143932 
L 239.756108 225.330512 
L 232.520884 222.998914 
z
" clip-path="url(#p4b0eb6c179)" style="fill: #8d8d8d"/>
    <path d="M 183.478795 210.075004 
L 190.656688 213.464158 
L 195.16125 214.997264 
L 188.021066 211.627123 
z
" clip-path="url(#p4b0eb6c179)" style="fill: #000066"/>
    <path d="M 269.92002 219.074391 
L 277.286405 220.548302 
L 281.398702 211.358708 
L 274.036771 209.913958 
z
" clip-path="url(#p4b0eb6c179)" style="fill: #0000ed"/>
    <path d="M 290.766896 151.959106 
L 298.176197 153.239762 
L 302.507804 133.178811 
L 295.070053 131.952121 
z
" clip-path="url(#p4b0eb6c179)" style="fill: #e6e6e6"/>
    <path d="M 285.533009 200.059942 
L 292.943403 201.263327 
L 297.119396 187.794304 
L 289.70007 186.63069 
z
" clip-path="url(#p4b0eb6c179)" style="fill: #eaeaea"/>
    <path d="M 289.70007 186.63069 
L 297.119396 187.794304 
L 301.34565 172.157088 
L 293.910764 171.038549 
z
" clip-path="url(#p4b0eb6c179)" style="fill: #0000e8"/>
    <path d="M 209.521373 221.137356 
L 216.745443 223.906302 
L 221.063402 223.242959 
L 213.870325 220.491219 
z
" clip-path="url(#p4b0eb6c179)" style="fill: #00006e"/>
    <path d="M 247.027908 227.460506 
L 254.338483 229.387897 
L 258.474103 224.43724 
L 251.181267 222.530525 
z
" clip-path="url(#p4b0eb6c179)" style="fill: #0000f0"/>
    <path d="M 281.398702 211.358708 
L 288.806745 212.596754 
L 292.943403 201.263327 
L 285.533009 200.059942 
z
" clip-path="url(#p4b0eb6c179)" style="fill: #0000ec"/>
    <path d="M 293.910764 171.038549 
L 301.34565 172.157088 
L 305.633355 154.307667 
L 298.176197 153.239762 
z
" clip-path="url(#p4b0eb6c179)" style="fill: #e7e7e7"/>
    <path d="M 157.290211 194.899485 
L 164.447337 198.913895 
L 169.192373 202.6941 
L 162.079843 198.702717 
z
" clip-path="url(#p4b0eb6c179)" style="fill: #000063"/>
    <path d="M 190.656688 213.464158 
L 197.860415 216.652022 
L 202.327336 218.167491 
L 195.16125 214.997264 
z
" clip-path="url(#p4b0eb6c179)" style="fill: #686868"/>
    <path d="M 235.548288 228.143932 
L 242.844405 230.291502 
L 247.027908 227.460506 
L 239.756108 225.330512 
z
" clip-path="url(#p4b0eb6c179)" style="fill: #000095"/>
    <path d="M 265.80806 226.140494 
L 273.185413 227.639054 
L 277.286405 220.548302 
L 269.92002 219.074391 
z
" clip-path="url(#p4b0eb6c179)" style="fill: #f3f3f3"/>
    <path d="M 295.070053 131.952121 
L 302.507804 133.178811 
L 306.91745 110.787851 
L 299.444355 109.620948 
z
" clip-path="url(#p4b0eb6c179)" style="fill: #0000e5"/>
    <path d="M 216.745443 223.906302 
L 224.001663 226.473662 
L 228.288678 225.794121 
L 221.063402 223.242959 
z
" clip-path="url(#p4b0eb6c179)" style="fill: #717171"/>
    <path d="M 298.176197 153.239762 
L 305.633355 154.307667 
L 309.994062 134.190207 
L 302.507804 133.178811 
z
" clip-path="url(#p4b0eb6c179)" style="fill: #0000e7"/>
    <path d="M 277.286405 220.548302 
L 284.698666 221.816029 
L 288.806745 212.596754 
L 281.398702 211.358708 
z
" clip-path="url(#p4b0eb6c179)" style="fill: #efefef"/>
    <path d="M 164.447337 198.913895 
L 171.624149 202.725978 
L 176.324694 206.484906 
L 169.192373 202.6941 
z
" clip-path="url(#p4b0eb6c179)" style="fill: #646464"/>
    <path d="M 292.943403 201.263327 
L 300.402582 202.257585 
L 304.587907 188.747462 
L 297.119396 187.794304 
z
" clip-path="url(#p4b0eb6c179)" style="fill: #0000eb"/>
    <path d="M 297.119396 187.794304 
L 304.587907 188.747462 
L 308.830207 173.063436 
L 301.34565 172.157088 
z
" clip-path="url(#p4b0eb6c179)" style="fill: #e9e9e9"/>
    <path d="M 254.338483 229.387897 
L 261.690075 231.111571 
L 265.80806 226.140494 
L 258.474103 224.43724 
z
" clip-path="url(#p4b0eb6c179)" style="fill: #f5f5f5"/>
    <path d="M 301.34565 172.157088 
L 308.830207 173.063436 
L 313.140758 155.16123 
L 305.633355 154.307667 
z
" clip-path="url(#p4b0eb6c179)" style="fill: #0000e8"/>
    <path d="M 288.806745 212.596754 
L 296.26326 213.6266 
L 300.402582 202.257585 
L 292.943403 201.263327 
z
" clip-path="url(#p4b0eb6c179)" style="fill: #ededed"/>
    <path d="M 197.860415 216.652022 
L 205.092048 219.638143 
L 209.521373 221.137356 
L 202.327336 218.167491 
z
" clip-path="url(#p4b0eb6c179)" style="fill: #00006a"/>
    <path d="M 171.624149 202.725978 
L 178.822661 206.335597 
L 183.478795 210.075004 
L 176.324694 206.484906 
z
" clip-path="url(#p4b0eb6c179)" style="fill: #000065"/>
    <path d="M 242.844405 230.291502 
L 250.179244 232.23583 
L 254.338483 229.387897 
L 247.027908 227.460506 
z
" clip-path="url(#p4b0eb6c179)" style="fill: #9e9e9e"/>
    <path d="M 224.001663 226.473662 
L 231.292188 228.838655 
L 235.548288 228.143932 
L 228.288678 225.794121 
z
" clip-path="url(#p4b0eb6c179)" style="fill: #000075"/>
    <path d="M 273.185413 227.639054 
L 280.608487 228.931563 
L 284.698666 221.816029 
L 277.286405 220.548302 
z
" clip-path="url(#p4b0eb6c179)" style="fill: #0000f5"/>
    <path d="M 302.507804 133.178811 
L 309.994062 134.190207 
L 314.439795 111.736474 
L 306.91745 110.787851 
z
" clip-path="url(#p4b0eb6c179)" style="fill: #e6e6e6"/>
    <path d="M 284.698666 221.816029 
L 292.15917 222.876089 
L 296.26326 213.6266 
L 288.806745 212.596754 
z
" clip-path="url(#p4b0eb6c179)" style="fill: #0000f1"/>
    <path d="M 305.633355 154.307667 
L 313.140758 155.16123 
L 317.531236 134.984676 
L 309.994062 134.190207 
z
" clip-path="url(#p4b0eb6c179)" style="fill: #e7e7e7"/>
    <path d="M 261.690075 231.111571 
L 269.084971 232.63029 
L 273.185413 227.639054 
L 265.80806 226.140494 
z
" clip-path="url(#p4b0eb6c179)" style="fill: #0000f9"/>
    <path d="M 300.402582 202.257585 
L 307.912964 203.041078 
L 312.108023 189.488506 
L 304.587907 188.747462 
z
" clip-path="url(#p4b0eb6c179)" style="fill: #ececec"/>
    <path d="M 304.587907 188.747462 
L 312.108023 189.488506 
L 316.366866 173.755905 
L 308.830207 173.063436 
z
" clip-path="url(#p4b0eb6c179)" style="fill: #0000ea"/>
    <path d="M 205.092048 219.638143 
L 212.353694 222.421955 
L 216.745443 223.906302 
L 209.521373 221.137356 
z
" clip-path="url(#p4b0eb6c179)" style="fill: #6c6c6c"/>
    <path d="M 178.822661 206.335597 
L 186.044911 209.742509 
L 190.656688 213.464158 
L 183.478795 210.075004 
z
" clip-path="url(#p4b0eb6c179)" style="fill: #676767"/>
    <path d="M 296.26326 213.6266 
L 303.770663 214.446625 
L 307.912964 203.041078 
L 300.402582 202.257585 
z
" clip-path="url(#p4b0eb6c179)" style="fill: #0000ef"/>
    <path d="M 308.830207 173.063436 
L 316.366866 173.755905 
L 320.700854 155.798725 
L 313.140758 155.16123 
z
" clip-path="url(#p4b0eb6c179)" style="fill: #e9e9e9"/>
    <path d="M 145.160309 184.609155 
L 152.35123 188.85092 
L 157.290211 194.899485 
L 150.150784 190.682774 
z
" clip-path="url(#p4b0eb6c179)" style="fill: #000063"/>
    <path d="M 231.292188 228.838655 
L 238.619211 231.000383 
L 242.844405 230.291502 
L 235.548288 228.143932 
z
" clip-path="url(#p4b0eb6c179)" style="fill: #797979"/>
    <path d="M 250.179244 232.23583 
L 257.555064 233.975794 
L 261.690075 231.111571 
L 254.338483 229.387897 
z
" clip-path="url(#p4b0eb6c179)" style="fill: #0000a6"/>
    <path d="M 280.608487 228.931563 
L 288.079655 230.016539 
L 292.15917 222.876089 
L 284.698666 221.816029 
z
" clip-path="url(#p4b0eb6c179)" style="fill: #f7f7f7"/>
    <path d="M 309.994062 134.190207 
L 317.531236 134.984676 
L 322.013822 112.465136 
L 314.439795 111.736474 
z
" clip-path="url(#p4b0eb6c179)" style="fill: #0000e7"/>
    <path d="M 212.353694 222.421955 
L 219.647494 225.00278 
L 224.001663 226.473662 
L 216.745443 223.906302 
z
" clip-path="url(#p4b0eb6c179)" style="fill: #00006e"/>
    <path d="M 313.140758 155.16123 
L 320.700854 155.798725 
L 325.12179 135.56045 
L 317.531236 134.984676 
z
" clip-path="url(#p4b0eb6c179)" style="fill: #0000e8"/>
    <path d="M 292.15917 222.876089 
L 299.670337 223.726869 
L 303.770663 214.446625 
L 296.26326 213.6266 
z
" clip-path="url(#p4b0eb6c179)" style="fill: #f3f3f3"/>
    <path d="M 269.084971 232.63029 
L 276.525507 233.942697 
L 280.608487 228.931563 
L 273.185413 227.639054 
z
" clip-path="url(#p4b0eb6c179)" style="fill: #fbfbfb"/>
    <path d="M 186.044911 209.742509 
L 193.292968 212.94636 
L 197.860415 216.652022 
L 190.656688 213.464158 
z
" clip-path="url(#p4b0eb6c179)" style="fill: #000068"/>
    <path d="M 152.35123 188.85092 
L 159.559743 192.888231 
L 164.447337 198.913895 
L 157.290211 194.899485 
z
" clip-path="url(#p4b0eb6c179)" style="fill: #646464"/>
    <path d="M 307.912964 203.041078 
L 315.477022 203.612036 
L 319.682225 190.015641 
L 312.108023 189.488506 
z
" clip-path="url(#p4b0eb6c179)" style="fill: #0000ed"/>
    <path d="M 312.108023 189.488506 
L 319.682225 190.015641 
L 323.958114 174.232671 
L 316.366866 173.755905 
z
" clip-path="url(#p4b0eb6c179)" style="fill: #ebebeb"/>
    <path d="M 238.619211 231.000383 
L 245.984968 232.957835 
L 250.179244 232.23583 
L 242.844405 230.291502 
z
" clip-path="url(#p4b0eb6c179)" style="fill: #00007d"/>
    <path d="M 303.770663 214.446625 
L 311.331428 215.055074 
L 315.477022 203.612036 
L 307.912964 203.041078 
z
" clip-path="url(#p4b0eb6c179)" style="fill: #f0f0f0"/>
    <path d="M 316.366866 173.755905 
L 323.958114 174.232671 
L 328.316144 156.218291 
L 320.700854 155.798725 
z
" clip-path="url(#p4b0eb6c179)" style="fill: #0000ea"/>
    <path d="M 257.555064 233.975794 
L 264.974169 235.510149 
L 269.084971 232.63029 
L 261.690075 231.111571 
z
" clip-path="url(#p4b0eb6c179)" style="fill: #adadad"/>
    <path d="M 159.559743 192.888231 
L 166.787865 196.721055 
L 171.624149 202.725978 
L 164.447337 198.913895 
z
" clip-path="url(#p4b0eb6c179)" style="fill: #000065"/>
    <path d="M 193.292968 212.94636 
L 200.568933 215.946684 
L 205.092048 219.638143 
L 197.860415 216.652022 
z
" clip-path="url(#p4b0eb6c179)" style="fill: #696969"/>
    <path d="M 219.647494 225.00278 
L 226.975626 227.379824 
L 231.292188 228.838655 
L 224.001663 226.473662 
z
" clip-path="url(#p4b0eb6c179)" style="fill: #707070"/>
    <path d="M 288.079655 230.016539 
L 295.601347 230.892372 
L 299.670337 223.726869 
L 292.15917 222.876089 
z
" clip-path="url(#p4b0eb6c179)" style="fill: #0000f9"/>
    <path d="M 317.531236 134.984676 
L 325.12179 135.56045 
L 329.642022 112.972018 
L 322.013822 112.465136 
z
" clip-path="url(#p4b0eb6c179)" style="fill: #e7e7e7"/>
    <path d="M 276.525507 233.942697 
L 284.014074 235.047306 
L 288.079655 230.016539 
L 280.608487 228.931563 
z
" clip-path="url(#p4b0eb6c179)" style="fill: #0000fc"/>
    <path d="M 299.670337 223.726869 
L 307.234643 224.366623 
L 311.331428 215.055074 
L 303.770663 214.446625 
z
" clip-path="url(#p4b0eb6c179)" style="fill: #0000f4"/>
    <path d="M 320.700854 155.798725 
L 328.316144 156.218291 
L 332.768247 135.915623 
L 325.12179 135.56045 
z
" clip-path="url(#p4b0eb6c179)" style="fill: #e9e9e9"/>
    <path d="M 319.682225 190.015641 
L 327.313049 190.326939 
L 331.606502 174.491775 
L 323.958114 174.232671 
z
" clip-path="url(#p4b0eb6c179)" style="fill: #0000ec"/>
    <path d="M 315.477022 203.612036 
L 323.097289 203.968554 
L 327.313049 190.326939 
L 319.682225 190.015641 
z
" clip-path="url(#p4b0eb6c179)" style="fill: #eeeeee"/>
    <path d="M 166.787865 196.721055 
L 174.037638 200.349249 
L 178.822661 206.335597 
L 171.624149 202.725978 
z
" clip-path="url(#p4b0eb6c179)" style="fill: #666666"/>
    <path d="M 245.984968 232.957835 
L 253.391739 234.709876 
L 257.555064 233.975794 
L 250.179244 232.23583 
z
" clip-path="url(#p4b0eb6c179)" style="fill: #818181"/>
    <path d="M 264.974169 235.510149 
L 272.438915 236.837529 
L 276.525507 233.942697 
L 269.084971 232.63029 
z
" clip-path="url(#p4b0eb6c179)" style="fill: #0000b4"/>
    <path d="M 200.568933 215.946684 
L 207.874939 218.742904 
L 212.353694 222.421955 
L 205.092048 219.638143 
z
" clip-path="url(#p4b0eb6c179)" style="fill: #00006b"/>
    <path d="M 311.331428 215.055074 
L 318.948087 215.45006 
L 323.097289 203.968554 
L 315.477022 203.612036 
z
" clip-path="url(#p4b0eb6c179)" style="fill: #0000f1"/>
    <path d="M 323.958114 174.232671 
L 331.606502 174.491775 
L 335.989195 156.417929 
L 328.316144 156.218291 
z
" clip-path="url(#p4b0eb6c179)" style="fill: #ebebeb"/>
    <path d="M 226.975626 227.379824 
L 234.340309 229.55218 
L 238.619211 231.000383 
L 231.292188 228.838655 
z
" clip-path="url(#p4b0eb6c179)" style="fill: #000072"/>
    <path d="M 295.601347 230.892372 
L 303.17605 231.557321 
L 307.234643 224.366623 
L 299.670337 223.726869 
z
" clip-path="url(#p4b0eb6c179)" style="fill: #fbfbfb"/>
    <path d="M 325.12179 135.56045 
L 332.768247 135.915623 
L 337.326942 113.25516 
L 329.642022 112.972018 
z
" clip-path="url(#p4b0eb6c179)" style="fill: #0000e8"/>
    <path d="M 174.037638 200.349249 
L 181.311133 203.772559 
L 186.044911 209.742509 
L 178.822661 206.335597 
z
" clip-path="url(#p4b0eb6c179)" style="fill: #000067"/>
    <path d="M 284.014074 235.047306 
L 291.553112 235.942504 
L 295.601347 230.892372 
L 288.079655 230.016539 
z
" clip-path="url(#p4b0eb6c179)" style="fill: #fcfcfc"/>
    <path d="M 307.234643 224.366623 
L 314.854626 224.793473 
L 318.948087 215.45006 
L 311.331428 215.055074 
z
" clip-path="url(#p4b0eb6c179)" style="fill: #f5f5f5"/>
    <path d="M 328.316144 156.218291 
L 335.989195 156.417929 
L 340.473195 136.048147 
L 332.768247 135.915623 
z
" clip-path="url(#p4b0eb6c179)" style="fill: #0000e9"/>
    <path d="M 253.391739 234.709876 
L 260.841852 236.255251 
L 264.974169 235.510149 
L 257.555064 233.975794 
z
" clip-path="url(#p4b0eb6c179)" style="fill: #000085"/>
    <path d="M 207.874939 218.742904 
L 215.213156 221.334327 
L 219.647494 225.00278 
L 212.353694 222.421955 
z
" clip-path="url(#p4b0eb6c179)" style="fill: #6d6d6d"/>
    <path d="M 139.996392 176.216573 
L 147.245855 180.483615 
L 152.35123 188.85092 
L 145.160309 184.609155 
z
" clip-path="url(#p4b0eb6c179)" style="fill: #646464"/>
    <path d="M 272.438915 236.837529 
L 279.951707 237.95644 
L 284.014074 235.047306 
L 276.525507 233.942697 
z
" clip-path="url(#p4b0eb6c179)" style="fill: #bababa"/>
    <path d="M 234.340309 229.55218 
L 241.743805 231.518817 
L 245.984968 232.957835 
L 238.619211 231.000383 
z
" clip-path="url(#p4b0eb6c179)" style="fill: #757575"/>
    <path d="M 181.311133 203.772559 
L 188.610451 206.990618 
L 193.292968 212.94636 
L 186.044911 209.742509 
z
" clip-path="url(#p4b0eb6c179)" style="fill: #686868"/>
    <path d="M 147.245855 180.483615 
L 154.512825 184.543622 
L 159.559743 192.888231 
L 152.35123 188.85092 
z
" clip-path="url(#p4b0eb6c179)" style="fill: #000065"/>
    <path d="M 303.17605 231.557321 
L 310.806309 232.009508 
L 314.854626 224.793473 
L 307.234643 224.366623 
z
" clip-path="url(#p4b0eb6c179)" style="fill: #0000fc"/>
    <path d="M 332.768247 135.915623 
L 340.473195 136.048147 
L 345.071196 113.312458 
L 337.326942 113.25516 
z
" clip-path="url(#p4b0eb6c179)" style="fill: #e9e9e9"/>
    <path d="M 291.553112 235.942504 
L 299.145124 236.626544 
L 303.17605 231.557321 
L 295.601347 230.892372 
z
" clip-path="url(#p4b0eb6c179)" style="fill: #0000fc"/>
    <path d="M 215.213156 221.334327 
L 222.585792 223.720144 
L 226.975626 227.379824 
L 219.647494 225.00278 
z
" clip-path="url(#p4b0eb6c179)" style="fill: #00006e"/>
    <path d="M 260.841852 236.255251 
L 268.337683 237.592579 
L 272.438915 236.837529 
L 264.974169 235.510149 
z
" clip-path="url(#p4b0eb6c179)" style="fill: #898989"/>
    <path d="M 188.610451 206.990618 
L 195.937723 210.002948 
L 200.568933 215.946684 
L 193.292968 212.94636 
z
" clip-path="url(#p4b0eb6c179)" style="fill: #000069"/>
    <path d="M 241.743805 231.518817 
L 249.188419 233.278585 
L 253.391739 234.709876 
L 245.984968 232.957835 
z
" clip-path="url(#p4b0eb6c179)" style="fill: #000077"/>
    <path d="M 279.951707 237.95644 
L 287.515008 238.865259 
L 291.553112 235.942504 
L 284.014074 235.047306 
z
" clip-path="url(#p4b0eb6c179)" style="fill: #0000bf"/>
    <path d="M 154.512825 184.543622 
L 161.799355 188.396554 
L 166.787865 196.721055 
L 159.559743 192.888231 
z
" clip-path="url(#p4b0eb6c179)" style="fill: #666666"/>
    <path d="M 222.585792 223.720144 
L 229.995094 225.899426 
L 234.340309 229.55218 
L 226.975626 227.379824 
z
" clip-path="url(#p4b0eb6c179)" style="fill: #707070"/>
    <path d="M 195.937723 210.002948 
L 203.295114 212.808953 
L 207.874939 218.742904 
L 200.568933 215.946684 
z
" clip-path="url(#p4b0eb6c179)" style="fill: #6b6b6b"/>
    <path d="M 299.145124 236.626544 
L 306.792669 237.097546 
L 310.806309 232.009508 
L 303.17605 231.557321 
z
" clip-path="url(#p4b0eb6c179)" style="fill: #fcfcfc"/>
    <path d="M 161.799355 188.396554 
L 169.107522 192.042254 
L 174.037638 200.349249 
L 166.787865 196.721055 
z
" clip-path="url(#p4b0eb6c179)" style="fill: #000067"/>
    <path d="M 268.337683 237.592579 
L 275.881662 238.720349 
L 279.951707 237.95644 
L 272.438915 236.837529 
z
" clip-path="url(#p4b0eb6c179)" style="fill: #00008d"/>
    <path d="M 249.188419 233.278585 
L 256.676506 234.83021 
L 260.841852 236.255251 
L 253.391739 234.709876 
z
" clip-path="url(#p4b0eb6c179)" style="fill: #7a7a7a"/>
    <path d="M 287.515008 238.865259 
L 295.131337 239.562228 
L 299.145124 236.626544 
L 291.553112 235.942504 
z
" clip-path="url(#p4b0eb6c179)" style="fill: #c3c3c3"/>
    <path d="M 229.995094 225.899426 
L 237.443354 227.871125 
L 241.743805 231.518817 
L 234.340309 229.55218 
z
" clip-path="url(#p4b0eb6c179)" style="fill: #000072"/>
    <path d="M 169.107522 192.042254 
L 176.439433 195.480456 
L 181.311133 203.772559 
L 174.037638 200.349249 
z
" clip-path="url(#p4b0eb6c179)" style="fill: #686868"/>
    <path d="M 203.295114 212.808953 
L 210.684829 215.407923 
L 215.213156 221.334327 
L 207.874939 218.742904 
z
" clip-path="url(#p4b0eb6c179)" style="fill: #00006c"/>
    <path d="M 275.881662 238.720349 
L 283.476275 239.636921 
L 287.515008 238.865259 
L 279.951707 237.95644 
z
" clip-path="url(#p4b0eb6c179)" style="fill: #919191"/>
    <path d="M 256.676506 234.83021 
L 264.210469 236.172291 
L 268.337683 237.592579 
L 260.841852 236.255251 
z
" clip-path="url(#p4b0eb6c179)" style="fill: #00007c"/>
    <path d="M 176.439433 195.480456 
L 183.797222 198.710778 
L 188.610451 206.990618 
L 181.311133 203.772559 
z
" clip-path="url(#p4b0eb6c179)" style="fill: #000069"/>
    <path d="M 134.640144 165.416484 
L 141.95552 169.708949 
L 147.245855 180.483615 
L 139.996392 176.216573 
z
" clip-path="url(#p4b0eb6c179)" style="fill: #000065"/>
    <path d="M 295.131337 239.562228 
L 302.803276 240.045451 
L 306.792669 237.097546 
L 299.145124 236.626544 
z
" clip-path="url(#p4b0eb6c179)" style="fill: #0000c6"/>
    <path d="M 237.443354 227.871125 
L 244.932909 229.634067 
L 249.188419 233.278585 
L 241.743805 231.518817 
z
" clip-path="url(#p4b0eb6c179)" style="fill: #737373"/>
    <path d="M 210.684829 215.407923 
L 218.109107 217.799025 
L 222.585792 223.720144 
L 215.213156 221.334327 
z
" clip-path="url(#p4b0eb6c179)" style="fill: #6d6d6d"/>
    <path d="M 141.95552 169.708949 
L 149.288345 173.791342 
L 154.512825 184.543622 
L 147.245855 180.483615 
z
" clip-path="url(#p4b0eb6c179)" style="fill: #656565"/>
    <path d="M 264.210469 236.172291 
L 271.792768 237.303294 
L 275.881662 238.720349 
L 268.337683 237.592579 
z
" clip-path="url(#p4b0eb6c179)" style="fill: #7f7f7f"/>
    <path d="M 283.476275 239.636921 
L 291.124065 240.340519 
L 295.131337 239.562228 
L 287.515008 238.865259 
z
" clip-path="url(#p4b0eb6c179)" style="fill: #000095"/>
    <path d="M 183.797222 198.710778 
L 191.183058 201.732722 
L 195.937723 210.002948 
L 188.610451 206.990618 
z
" clip-path="url(#p4b0eb6c179)" style="fill: #6a6a6a"/>
    <path d="M 218.109107 217.799025 
L 225.570231 219.981308 
L 229.995094 225.899426 
L 222.585792 223.720144 
z
" clip-path="url(#p4b0eb6c179)" style="fill: #00006f"/>
    <path d="M 244.932909 229.634067 
L 252.466145 231.186953 
L 256.676506 234.83021 
L 249.188419 233.278585 
z
" clip-path="url(#p4b0eb6c179)" style="fill: #000075"/>
    <path d="M 149.288345 173.791342 
L 156.640709 177.66361 
L 161.799355 188.396554 
L 154.512825 184.543622 
z
" clip-path="url(#p4b0eb6c179)" style="fill: #000066"/>
    <path d="M 191.183058 201.732722 
L 198.599145 204.545672 
L 203.295114 212.808953 
L 195.937723 210.002948 
z
" clip-path="url(#p4b0eb6c179)" style="fill: #00006b"/>
    <path d="M 271.792768 237.303294 
L 279.425916 238.221555 
L 283.476275 239.636921 
L 275.881662 238.720349 
z
" clip-path="url(#p4b0eb6c179)" style="fill: #000082"/>
    <path d="M 291.124065 240.340519 
L 298.82764 240.829227 
L 302.803276 240.045451 
L 295.131337 239.562228 
z
" clip-path="url(#p4b0eb6c179)" style="fill: #989898"/>
    <path d="M 156.640709 177.66361 
L 164.014729 181.325585 
L 169.107522 192.042254 
L 161.799355 188.396554 
z
" clip-path="url(#p4b0eb6c179)" style="fill: #676767"/>
    <path d="M 225.570231 219.981308 
L 233.070529 221.953696 
L 237.443354 227.871125 
L 229.995094 225.899426 
z
" clip-path="url(#p4b0eb6c179)" style="fill: #707070"/>
    <path d="M 252.466145 231.186953 
L 260.0455 232.528353 
L 264.210469 236.172291 
L 256.676506 234.83021 
z
" clip-path="url(#p4b0eb6c179)" style="fill: #777777"/>
    <path d="M 198.599145 204.545672 
L 206.047723 207.148891 
L 210.684829 215.407923 
L 203.295114 212.808953 
z
" clip-path="url(#p4b0eb6c179)" style="fill: #6c6c6c"/>
    <path d="M 164.014729 181.325585 
L 171.412551 184.776983 
L 176.439433 195.480456 
L 169.107522 192.042254 
z
" clip-path="url(#p4b0eb6c179)" style="fill: #000068"/>
    <path d="M 279.425916 238.221555 
L 287.112487 238.925271 
L 291.124065 240.340519 
L 283.476275 239.636921 
z
" clip-path="url(#p4b0eb6c179)" style="fill: #848484"/>
    <path d="M 233.070529 221.953696 
L 240.612374 223.714987 
L 244.932909 229.634067 
L 237.443354 227.871125 
z
" clip-path="url(#p4b0eb6c179)" style="fill: #000071"/>
    <path d="M 260.0455 232.528353 
L 267.673464 233.656706 
L 271.792768 237.303294 
L 264.210469 236.172291 
z
" clip-path="url(#p4b0eb6c179)" style="fill: #000079"/>
    <path d="M 206.047723 207.148891 
L 213.531072 209.541523 
L 218.109107 217.799025 
L 210.684829 215.407923 
z
" clip-path="url(#p4b0eb6c179)" style="fill: #00006d"/>
    <path d="M 171.412551 184.776983 
L 178.836353 188.0174 
L 183.797222 198.710778 
L 176.439433 195.480456 
z
" clip-path="url(#p4b0eb6c179)" style="fill: #696969"/>
    <path d="M 129.070866 152.103627 
L 136.459905 156.421548 
L 141.95552 169.708949 
L 134.640144 165.416484 
z
" clip-path="url(#p4b0eb6c179)" style="fill: #656565"/>
    <path d="M 240.612374 223.714987 
L 248.198189 225.263849 
L 252.466145 231.186953 
L 244.932909 229.634067 
z
" clip-path="url(#p4b0eb6c179)" style="fill: #737373"/>
    <path d="M 287.112487 238.925271 
L 294.855119 239.412497 
L 298.82764 240.829227 
L 291.124065 240.340519 
z
" clip-path="url(#p4b0eb6c179)" style="fill: #000087"/>
    <path d="M 213.531072 209.541523 
L 221.051514 211.722585 
L 225.570231 219.981308 
L 218.109107 217.799025 
z
" clip-path="url(#p4b0eb6c179)" style="fill: #6e6e6e"/>
    <path d="M 178.836353 188.0174 
L 186.288342 191.046317 
L 191.183058 201.732722 
L 183.797222 198.710778 
z
" clip-path="url(#p4b0eb6c179)" style="fill: #00006a"/>
    <path d="M 267.673464 233.656706 
L 275.352587 234.570315 
L 279.425916 238.221555 
L 271.792768 237.303294 
z
" clip-path="url(#p4b0eb6c179)" style="fill: #7b7b7b"/>
    <path d="M 136.459905 156.421548 
L 143.866357 160.52587 
L 149.288345 173.791342 
L 141.95552 169.708949 
z
" clip-path="url(#p4b0eb6c179)" style="fill: #000066"/>
    <path d="M 248.198189 225.263849 
L 255.830448 226.59882 
L 260.0455 232.528353 
L 252.466145 231.186953 
z
" clip-path="url(#p4b0eb6c179)" style="fill: #000074"/>
    <path d="M 186.288342 191.046317 
L 193.770767 193.863089 
L 198.599145 204.545672 
L 191.183058 201.732722 
z
" clip-path="url(#p4b0eb6c179)" style="fill: #6a6a6a"/>
    <path d="M 143.866357 160.52587 
L 151.292357 164.416528 
L 156.640709 177.66361 
L 149.288345 173.791342 
z
" clip-path="url(#p4b0eb6c179)" style="fill: #676767"/>
    <path d="M 221.051514 211.722585 
L 228.611417 213.690968 
L 233.070529 221.953696 
L 225.570231 219.981308 
z
" clip-path="url(#p4b0eb6c179)" style="fill: #00006f"/>
    <path d="M 275.352587 234.570315 
L 283.085479 235.26734 
L 287.112487 238.925271 
L 279.425916 238.221555 
z
" clip-path="url(#p4b0eb6c179)" style="fill: #00007d"/>
    <path d="M 151.292357 164.416528 
L 158.740067 168.093334 
L 164.014729 181.325585 
L 156.640709 177.66361 
z
" clip-path="url(#p4b0eb6c179)" style="fill: #000067"/>
    <path d="M 193.770767 193.863089 
L 201.285909 196.466953 
L 206.047723 207.148891 
L 198.599145 204.545672 
z
" clip-path="url(#p4b0eb6c179)" style="fill: #00006b"/>
    <path d="M 255.830448 226.59882 
L 263.511684 227.718298 
L 267.673464 233.656706 
L 260.0455 232.528353 
z
" clip-path="url(#p4b0eb6c179)" style="fill: #757575"/>
    <path d="M 228.611417 213.690968 
L 236.213197 215.445434 
L 240.612374 223.714987 
L 233.070529 221.953696 
z
" clip-path="url(#p4b0eb6c179)" style="fill: #707070"/>
    <path d="M 158.740067 168.093334 
L 166.211677 171.555984 
L 171.412551 184.776983 
L 164.014729 181.325585 
z
" clip-path="url(#p4b0eb6c179)" style="fill: #686868"/>
    <path d="M 283.085479 235.26734 
L 290.874814 235.745802 
L 294.855119 239.412497 
L 287.112487 238.925271 
z
" clip-path="url(#p4b0eb6c179)" style="fill: #7e7e7e"/>
    <path d="M 201.285909 196.466953 
L 208.836094 198.857018 
L 213.531072 209.541523 
L 206.047723 207.148891 
z
" clip-path="url(#p4b0eb6c179)" style="fill: #6c6c6c"/>
    <path d="M 236.213197 215.445434 
L 243.859318 216.984613 
L 248.198189 225.263849 
L 240.612374 223.714987 
z
" clip-path="url(#p4b0eb6c179)" style="fill: #000071"/>
    <path d="M 263.511684 227.718298 
L 271.244485 228.620547 
L 275.352587 234.570315 
L 267.673464 233.656706 
z
" clip-path="url(#p4b0eb6c179)" style="fill: #000077"/>
    <path d="M 166.211677 171.555984 
L 173.709411 174.80405 
L 178.836353 188.0174 
L 171.412551 184.776983 
z
" clip-path="url(#p4b0eb6c179)" style="fill: #000069"/>
    <path d="M 208.836094 198.857018 
L 216.423689 201.032264 
L 221.051514 211.722585 
L 213.531072 209.541523 
z
" clip-path="url(#p4b0eb6c179)" style="fill: #00006d"/>
    <path d="M 123.265762 136.154159 
L 130.736645 140.497417 
L 136.459905 156.421548 
L 129.070866 152.103627 
z
" clip-path="url(#p4b0eb6c179)" style="fill: #000066"/>
    <path d="M 173.709411 174.80405 
L 181.235525 177.836982 
L 186.288342 191.046317 
L 178.836353 188.0174 
z
" clip-path="url(#p4b0eb6c179)" style="fill: #6a6a6a"/>
    <path d="M 243.859318 216.984613 
L 251.552301 218.306998 
L 255.830448 226.59882 
L 248.198189 225.263849 
z
" clip-path="url(#p4b0eb6c179)" style="fill: #727272"/>
    <path d="M 271.244485 228.620547 
L 279.031504 229.303684 
L 283.085479 235.26734 
L 275.352587 234.570315 
z
" clip-path="url(#p4b0eb6c179)" style="fill: #787878"/>
    <path d="M 130.736645 140.497417 
L 138.22493 144.623025 
L 143.866357 160.52587 
L 136.459905 156.421548 
z
" clip-path="url(#p4b0eb6c179)" style="fill: #666666"/>
    <path d="M 216.423689 201.032264 
L 224.051108 202.991544 
L 228.611417 213.690968 
L 221.051514 211.722585 
z
" clip-path="url(#p4b0eb6c179)" style="fill: #6e6e6e"/>
    <path d="M 181.235525 177.836982 
L 188.792313 180.654107 
L 193.770767 193.863089 
L 186.288342 191.046317 
z
" clip-path="url(#p4b0eb6c179)" style="fill: #00006a"/>
    <path d="M 138.22493 144.623025 
L 145.732802 148.530896 
L 151.292357 164.416528 
L 143.866357 160.52587 
z
" clip-path="url(#p4b0eb6c179)" style="fill: #000067"/>
    <path d="M 251.552301 218.306998 
L 259.294722 219.410944 
L 263.511684 227.718298 
L 255.830448 226.59882 
z
" clip-path="url(#p4b0eb6c179)" style="fill: #000073"/>
    <path d="M 279.031504 229.303684 
L 286.875458 229.765681 
L 290.874814 235.745802 
L 283.085479 235.26734 
z
" clip-path="url(#p4b0eb6c179)" style="fill: #00007a"/>
    <path d="M 224.051108 202.991544 
L 231.720814 204.733575 
L 236.213197 215.445434 
L 228.611417 213.690968 
z
" clip-path="url(#p4b0eb6c179)" style="fill: #00006f"/>
    <path d="M 188.792313 180.654107 
L 196.382109 183.254624 
L 201.285909 196.466953 
L 193.770767 193.863089 
z
" clip-path="url(#p4b0eb6c179)" style="fill: #6b6b6b"/>
    <path d="M 145.732802 148.530896 
L 153.262472 152.220823 
L 158.740067 168.093334 
L 151.292357 164.416528 
z
" clip-path="url(#p4b0eb6c179)" style="fill: #686868"/>
    <path d="M 259.294722 219.410944 
L 267.089217 220.294662 
L 271.244485 228.620547 
L 263.511684 227.718298 
z
" clip-path="url(#p4b0eb6c179)" style="fill: #757575"/>
    <path d="M 196.382109 183.254624 
L 204.007286 185.637601 
L 208.836094 198.857018 
L 201.285909 196.466953 
z
" clip-path="url(#p4b0eb6c179)" style="fill: #00006c"/>
    <path d="M 153.262472 152.220823 
L 160.816181 155.692474 
L 166.211677 171.555984 
L 158.740067 168.093334 
z
" clip-path="url(#p4b0eb6c179)" style="fill: #000068"/>
    <path d="M 231.720814 204.733575 
L 239.435323 206.256939 
L 243.859318 216.984613 
L 236.213197 215.445434 
z
" clip-path="url(#p4b0eb6c179)" style="fill: #707070"/>
    <path d="M 160.816181 155.692474 
L 168.396206 158.945392 
L 173.709411 174.80405 
L 166.211677 171.555984 
z
" clip-path="url(#p4b0eb6c179)" style="fill: #696969"/>
    <path d="M 267.089217 220.294662 
L 274.938486 220.956219 
L 279.031504 229.303684 
L 271.244485 228.620547 
z
" clip-path="url(#p4b0eb6c179)" style="fill: #000076"/>
    <path d="M 204.007286 185.637601 
L 211.670263 187.801978 
L 216.423689 201.032264 
L 208.836094 198.857018 
z
" clip-path="url(#p4b0eb6c179)" style="fill: #6d6d6d"/>
    <path d="M 239.435323 206.256939 
L 247.197203 207.56008 
L 251.552301 218.306998 
L 243.859318 216.984613 
z
" clip-path="url(#p4b0eb6c179)" style="fill: #000071"/>
    <path d="M 168.396206 158.945392 
L 176.004856 161.978995 
L 181.235525 177.836982 
L 173.709411 174.80405 
z
" clip-path="url(#p4b0eb6c179)" style="fill: #00006a"/>
    <path d="M 117.199602 117.42341 
L 124.761006 121.791694 
L 130.736645 140.497417 
L 123.265762 136.154159 
z
" clip-path="url(#p4b0eb6c179)" style="fill: #666666"/>
    <path d="M 211.670263 187.801978 
L 219.373508 189.746557 
L 224.051108 202.991544 
L 216.423689 201.032264 
z
" clip-path="url(#p4b0eb6c179)" style="fill: #00006e"/>
    <path d="M 274.938486 220.956219 
L 282.845297 221.393529 
L 286.875458 229.765681 
L 279.031504 229.303684 
z
" clip-path="url(#p4b0eb6c179)" style="fill: #777777"/>
    <path d="M 247.197203 207.56008 
L 255.009083 208.641295 
L 259.294722 219.410944 
L 251.552301 218.306998 
z
" clip-path="url(#p4b0eb6c179)" style="fill: #727272"/>
    <path d="M 124.761006 121.791694 
L 132.339826 125.937701 
L 138.22493 144.623025 
L 130.736645 140.497417 
z
" clip-path="url(#p4b0eb6c179)" style="fill: #000067"/>
    <path d="M 176.004856 161.978995 
L 183.644479 164.792569 
L 188.792313 180.654107 
L 181.235525 177.836982 
z
" clip-path="url(#p4b0eb6c179)" style="fill: #6a6a6a"/>
    <path d="M 219.373508 189.746557 
L 227.119537 191.470004 
L 231.720814 204.733575 
L 224.051108 202.991544 
z
" clip-path="url(#p4b0eb6c179)" style="fill: #6e6e6e"/>
    <path d="M 132.339826 125.937701 
L 139.9383 129.861321 
L 145.732802 148.530896 
L 138.22493 144.623025 
z
" clip-path="url(#p4b0eb6c179)" style="fill: #676767"/>
    <path d="M 183.644479 164.792569 
L 191.317463 167.38527 
L 196.382109 183.254624 
L 188.792313 180.654107 
z
" clip-path="url(#p4b0eb6c179)" style="fill: #00006b"/>
    <path d="M 255.009083 208.641295 
L 262.873654 209.498739 
L 267.089217 220.294662 
L 259.294722 219.410944 
z
" clip-path="url(#p4b0eb6c179)" style="fill: #000073"/>
    <path d="M 139.9383 129.861321 
L 147.558698 133.562323 
L 153.262472 152.220823 
L 145.732802 148.530896 
z
" clip-path="url(#p4b0eb6c179)" style="fill: #000068"/>
    <path d="M 227.119537 191.470004 
L 234.91092 192.970846 
L 239.435323 206.256939 
L 231.720814 204.733575 
z
" clip-path="url(#p4b0eb6c179)" style="fill: #00006f"/>
    <path d="M 191.317463 167.38527 
L 199.026238 169.756122 
L 204.007286 185.637601 
L 196.382109 183.254624 
z
" clip-path="url(#p4b0eb6c179)" style="fill: #6c6c6c"/>
    <path d="M 262.873654 209.498739 
L 270.79367 210.130411 
L 274.938486 220.956219 
L 267.089217 220.294662 
z
" clip-path="url(#p4b0eb6c179)" style="fill: #747474"/>
    <path d="M 147.558698 133.562323 
L 155.203319 137.040342 
L 160.816181 155.692474 
L 153.262472 152.220823 
z
" clip-path="url(#p4b0eb6c179)" style="fill: #696969"/>
    <path d="M 234.91092 192.970846 
L 242.750286 194.247463 
L 247.197203 207.56008 
L 239.435323 206.256939 
z
" clip-path="url(#p4b0eb6c179)" style="fill: #707070"/>
    <path d="M 199.026238 169.756122 
L 206.773282 171.90401 
L 211.670263 187.801978 
L 204.007286 185.637601 
z
" clip-path="url(#p4b0eb6c179)" style="fill: #00006c"/>
    <path d="M 155.203319 137.040342 
L 162.874496 140.294886 
L 168.396206 158.945392 
L 160.816181 155.692474 
z
" clip-path="url(#p4b0eb6c179)" style="fill: #000069"/>
    <path d="M 270.79367 210.130411 
L 278.771957 210.534157 
L 282.845297 221.393529 
L 274.938486 220.956219 
z
" clip-path="url(#p4b0eb6c179)" style="fill: #000075"/>
    <path d="M 242.750286 194.247463 
L 250.640321 195.29809 
L 255.009083 208.641295 
L 247.197203 207.56008 
z
" clip-path="url(#p4b0eb6c179)" style="fill: #000071"/>
    <path d="M 206.773282 171.90401 
L 214.561122 173.827681 
L 219.373508 189.746557 
L 211.670263 187.801978 
z
" clip-path="url(#p4b0eb6c179)" style="fill: #6d6d6d"/>
    <path d="M 162.874496 140.294886 
L 170.574598 143.325332 
L 176.004856 161.978995 
L 168.396206 158.945392 
z
" clip-path="url(#p4b0eb6c179)" style="fill: #6a6a6a"/>
    <path d="M 170.574598 143.325332 
L 178.306033 146.130922 
L 183.644479 164.792569 
L 176.004856 161.978995 
z
" clip-path="url(#p4b0eb6c179)" style="fill: #00006a"/>
    <path d="M 214.561122 173.827681 
L 222.392335 175.525741 
L 227.119537 191.470004 
L 219.373508 189.746557 
z
" clip-path="url(#p4b0eb6c179)" style="fill: #00006e"/>
    <path d="M 250.640321 195.29809 
L 258.583777 196.120808 
L 262.873654 209.498739 
L 255.009083 208.641295 
z
" clip-path="url(#p4b0eb6c179)" style="fill: #727272"/>
    <path d="M 178.306033 146.130922 
L 186.071253 148.71076 
L 191.317463 167.38527 
L 183.644479 164.792569 
z
" clip-path="url(#p4b0eb6c179)" style="fill: #6b6b6b"/>
    <path d="M 222.392335 175.525741 
L 230.269554 176.996648 
L 234.91092 192.970846 
L 227.119537 191.470004 
z
" clip-path="url(#p4b0eb6c179)" style="fill: #6f6f6f"/>
    <path d="M 258.583777 196.120808 
L 266.583471 196.713542 
L 270.79367 210.130411 
L 262.873654 209.498739 
z
" clip-path="url(#p4b0eb6c179)" style="fill: #000073"/>
    <path d="M 186.071253 148.71076 
L 193.872751 151.063815 
L 199.026238 169.756122 
L 191.317463 167.38527 
z
" clip-path="url(#p4b0eb6c179)" style="fill: #00006c"/>
    <path d="M 230.269554 176.996648 
L 238.195472 178.238712 
L 242.750286 194.247463 
L 234.91092 192.970846 
z
" clip-path="url(#p4b0eb6c179)" style="fill: #00006f"/>
    <path d="M 266.583471 196.713542 
L 274.642292 197.074058 
L 278.771957 210.534157 
L 270.79367 210.130411 
z
" clip-path="url(#p4b0eb6c179)" style="fill: #737373"/>
    <path d="M 193.872751 151.063815 
L 201.71307 153.188912 
L 206.773282 171.90401 
L 199.026238 169.756122 
z
" clip-path="url(#p4b0eb6c179)" style="fill: #6c6c6c"/>
    <path d="M 238.195472 178.238712 
L 246.172842 179.250089 
L 250.640321 195.29809 
L 242.750286 194.247463 
z
" clip-path="url(#p4b0eb6c179)" style="fill: #707070"/>
    <path d="M 201.71307 153.188912 
L 209.594802 155.084731 
L 214.561122 173.827681 
L 206.773282 171.90401 
z
" clip-path="url(#p4b0eb6c179)" style="fill: #00006d"/>
    <path d="M 246.172842 179.250089 
L 254.204485 180.028778 
L 258.583777 196.120808 
L 250.640321 195.29809 
z
" clip-path="url(#p4b0eb6c179)" style="fill: #000071"/>
    <path d="M 209.594802 155.084731 
L 217.520595 156.749804 
L 222.392335 175.525741 
L 214.561122 173.827681 
z
" clip-path="url(#p4b0eb6c179)" style="fill: #6d6d6d"/>
    <path d="M 254.204485 180.028778 
L 262.293289 180.572615 
L 266.583471 196.713542 
L 258.583777 196.120808 
z
" clip-path="url(#p4b0eb6c179)" style="fill: #727272"/>
    <path d="M 217.520595 156.749804 
L 225.493152 158.182514 
L 230.269554 176.996648 
L 222.392335 175.525741 
z
" clip-path="url(#p4b0eb6c179)" style="fill: #00006e"/>
    <path d="M 225.493152 158.182514 
L 233.515239 159.381084 
L 238.195472 178.238712 
L 230.269554 176.996648 
z
" clip-path="url(#p4b0eb6c179)" style="fill: #6f6f6f"/>
    <path d="M 262.293289 180.572615 
L 270.442218 180.879271 
L 274.642292 197.074058 
L 266.583471 196.713542 
z
" clip-path="url(#p4b0eb6c179)" style="fill: #000072"/>
    <path d="M 233.515239 159.381084 
L 241.589684 160.343582 
L 246.172842 179.250089 
L 238.195472 178.238712 
z
" clip-path="url(#p4b0eb6c179)" style="fill: #00006f"/>
    <path d="M 241.589684 160.343582 
L 249.719385 161.067909 
L 254.204485 180.028778 
L 246.172842 179.250089 
z
" clip-path="url(#p4b0eb6c179)" style="fill: #707070"/>
    <path d="M 249.719385 161.067909 
L 257.907311 161.551798 
L 262.293289 180.572615 
L 254.204485 180.028778 
z
" clip-path="url(#p4b0eb6c179)" style="fill: #000071"/>
    <path d="M 257.907311 161.551798 
L 266.15651 161.792806 
L 270.442218 180.879271 
L 262.293289 180.572615 
z
" clip-path="url(#p4b0eb6c179)" style="fill: #717171"/>
   </g>
   <g id="text_10">
    <!-- $C$ -->
    <g transform="translate(381.155407 171.463402) scale(0.2 -0.2)">
     <defs>
      <path id="DejaVuSans-Oblique-43" d="M 4447 4306 
L 4319 3641 
Q 4019 3944 3683 4091 
Q 3347 4238 2956 4238 
Q 2422 4238 2017 3981 
Q 1613 3725 1319 3200 
Q 1131 2863 1032 2486 
Q 934 2109 934 1728 
Q 934 1091 1264 756 
Q 1594 422 2222 422 
Q 2656 422 3056 561 
Q 3456 700 3834 978 
L 3688 231 
Q 3316 72 2936 -9 
Q 2556 -91 2175 -91 
Q 1278 -91 773 396 
Q 269 884 269 1753 
Q 269 2309 461 2846 
Q 653 3384 1013 3828 
Q 1394 4300 1883 4525 
Q 2372 4750 3022 4750 
Q 3422 4750 3780 4639 
Q 4138 4528 4447 4306 
z
" transform="scale(0.015625)"/>
     </defs>
     <use xlink:href="#DejaVuSans-Oblique-43" transform="translate(0 0.78125)"/>
    </g>
   </g>
   <g id="text_11">
    <!-- $v_1$ -->
    <g transform="translate(161.778176 302.133977) scale(0.2 -0.2)">
     <defs>
      <path id="DejaVuSans-Oblique-76" d="M 459 3500 
L 1069 3500 
L 1581 525 
L 3256 3500 
L 3866 3500 
L 1875 0 
L 1100 0 
L 459 3500 
z
" transform="scale(0.015625)"/>
     </defs>
     <use xlink:href="#DejaVuSans-Oblique-76" transform="translate(0 0.3125)"/>
     <use xlink:href="#DejaVuSans-31" transform="translate(59.179688 -16.09375) scale(0.7)"/>
    </g>
   </g>
   <g id="text_12">
    <!-- $v_2$ -->
    <g transform="translate(343.121829 270.664446) scale(0.2 -0.2)">
     <defs>
      <path id="DejaVuSans-32" d="M 1228 531 
L 3431 531 
L 3431 0 
L 469 0 
L 469 531 
Q 828 903 1448 1529 
Q 2069 2156 2228 2338 
Q 2531 2678 2651 2914 
Q 2772 3150 2772 3378 
Q 2772 3750 2511 3984 
Q 2250 4219 1831 4219 
Q 1534 4219 1204 4116 
Q 875 4013 500 3803 
L 500 4441 
Q 881 4594 1212 4672 
Q 1544 4750 1819 4750 
Q 2544 4750 2975 4387 
Q 3406 4025 3406 3419 
Q 3406 3131 3298 2873 
Q 3191 2616 2906 2266 
Q 2828 2175 2409 1742 
Q 1991 1309 1228 531 
z
" transform="scale(0.015625)"/>
     </defs>
     <use xlink:href="#DejaVuSans-Oblique-76" transform="translate(0 0.3125)"/>
     <use xlink:href="#DejaVuSans-32" transform="translate(59.179688 -16.09375) scale(0.7)"/>
    </g>
   </g>
  </g>
 </g>
 <defs>
  <clipPath id="p4b0eb6c179">
   <rect x="103.104" y="41.472" width="266.112" height="266.112"/>
  </clipPath>
 </defs>
</svg>
