<?xml version="1.0" encoding="utf-8" standalone="no"?>
<!DOCTYPE svg PUBLIC "-//W3C//DTD SVG 1.1//EN"
  "http://www.w3.org/Graphics/SVG/1.1/DTD/svg11.dtd">
<svg xmlns:xlink="http://www.w3.org/1999/xlink" width="460.8pt" height="345.6pt" viewBox="0 0 460.8 345.6" xmlns="http://www.w3.org/2000/svg" version="1.1">
 <metadata>
  <rdf:RDF xmlns:dc="http://purl.org/dc/elements/1.1/" xmlns:cc="http://creativecommons.org/ns#" xmlns:rdf="http://www.w3.org/1999/02/22-rdf-syntax-ns#">
   <cc:Work>
    <dc:type rdf:resource="http://purl.org/dc/dcmitype/StillImage"/>
    <dc:date>2025-04-12T17:28:12.450131</dc:date>
    <dc:format>image/svg+xml</dc:format>
    <dc:creator>
     <cc:Agent>
      <dc:title>Matplotlib v3.9.2, https://matplotlib.org/</dc:title>
     </cc:Agent>
    </dc:creator>
   </cc:Work>
  </rdf:RDF>
 </metadata>
 <defs>
  <style type="text/css">*{stroke-linejoin: round; stroke-linecap: butt}</style>
 </defs>
 <g id="figure_1">
  <g id="patch_1">
   <path d="M 0 345.6 
L 460.8 345.6 
L 460.8 0 
L 0 0 
z
" style="fill: #ffffff"/>
  </g>
  <g id="axes_1">
   <g id="patch_2">
    <path d="M 57.6 307.584 
L 414.72 307.584 
L 414.72 41.472 
L 57.6 41.472 
z
" style="fill: #ffffff"/>
   </g>
   <g id="matplotlib.axis_1">
    <g id="xtick_1">
     <g id="line2d_1">
      <defs>
       <path id="m1ba2952418" d="M 0 0 
L 0 3.5 
" style="stroke: #000000; stroke-width: 0.8"/>
      </defs>
      <g>
       <use xlink:href="#m1ba2952418" x="57.6" y="307.584" style="stroke: #000000; stroke-width: 0.8"/>
      </g>
     </g>
     <g id="text_1">
      <!-- −1.00 -->
      <g transform="translate(42.277344 322.182437) scale(0.1 -0.1)">
       <defs>
        <path id="DejaVuSans-2212" d="M 678 2272 
L 4684 2272 
L 4684 1741 
L 678 1741 
L 678 2272 
z
" transform="scale(0.015625)"/>
        <path id="DejaVuSans-31" d="M 794 531 
L 1825 531 
L 1825 4091 
L 703 3866 
L 703 4441 
L 1819 4666 
L 2450 4666 
L 2450 531 
L 3481 531 
L 3481 0 
L 794 0 
L 794 531 
z
" transform="scale(0.015625)"/>
        <path id="DejaVuSans-2e" d="M 684 794 
L 1344 794 
L 1344 0 
L 684 0 
L 684 794 
z
" transform="scale(0.015625)"/>
        <path id="DejaVuSans-30" d="M 2034 4250 
Q 1547 4250 1301 3770 
Q 1056 3291 1056 2328 
Q 1056 1369 1301 889 
Q 1547 409 2034 409 
Q 2525 409 2770 889 
Q 3016 1369 3016 2328 
Q 3016 3291 2770 3770 
Q 2525 4250 2034 4250 
z
M 2034 4750 
Q 2819 4750 3233 4129 
Q 3647 3509 3647 2328 
Q 3647 1150 3233 529 
Q 2819 -91 2034 -91 
Q 1250 -91 836 529 
Q 422 1150 422 2328 
Q 422 3509 836 4129 
Q 1250 4750 2034 4750 
z
" transform="scale(0.015625)"/>
       </defs>
       <use xlink:href="#DejaVuSans-2212"/>
       <use xlink:href="#DejaVuSans-31" x="83.789062"/>
       <use xlink:href="#DejaVuSans-2e" x="147.412109"/>
       <use xlink:href="#DejaVuSans-30" x="179.199219"/>
       <use xlink:href="#DejaVuSans-30" x="242.822266"/>
      </g>
     </g>
    </g>
    <g id="xtick_2">
     <g id="line2d_2">
      <g>
       <use xlink:href="#m1ba2952418" x="102.690909" y="307.584" style="stroke: #000000; stroke-width: 0.8"/>
      </g>
     </g>
     <g id="text_2">
      <!-- −0.75 -->
      <g transform="translate(87.368253 322.182437) scale(0.1 -0.1)">
       <defs>
        <path id="DejaVuSans-37" d="M 525 4666 
L 3525 4666 
L 3525 4397 
L 1831 0 
L 1172 0 
L 2766 4134 
L 525 4134 
L 525 4666 
z
" transform="scale(0.015625)"/>
        <path id="DejaVuSans-35" d="M 691 4666 
L 3169 4666 
L 3169 4134 
L 1269 4134 
L 1269 2991 
Q 1406 3038 1543 3061 
Q 1681 3084 1819 3084 
Q 2600 3084 3056 2656 
Q 3513 2228 3513 1497 
Q 3513 744 3044 326 
Q 2575 -91 1722 -91 
Q 1428 -91 1123 -41 
Q 819 9 494 109 
L 494 744 
Q 775 591 1075 516 
Q 1375 441 1709 441 
Q 2250 441 2565 725 
Q 2881 1009 2881 1497 
Q 2881 1984 2565 2268 
Q 2250 2553 1709 2553 
Q 1456 2553 1204 2497 
Q 953 2441 691 2322 
L 691 4666 
z
" transform="scale(0.015625)"/>
       </defs>
       <use xlink:href="#DejaVuSans-2212"/>
       <use xlink:href="#DejaVuSans-30" x="83.789062"/>
       <use xlink:href="#DejaVuSans-2e" x="147.412109"/>
       <use xlink:href="#DejaVuSans-37" x="179.199219"/>
       <use xlink:href="#DejaVuSans-35" x="242.822266"/>
      </g>
     </g>
    </g>
    <g id="xtick_3">
     <g id="line2d_3">
      <g>
       <use xlink:href="#m1ba2952418" x="147.781818" y="307.584" style="stroke: #000000; stroke-width: 0.8"/>
      </g>
     </g>
     <g id="text_3">
      <!-- −0.50 -->
      <g transform="translate(132.459162 322.182437) scale(0.1 -0.1)">
       <use xlink:href="#DejaVuSans-2212"/>
       <use xlink:href="#DejaVuSans-30" x="83.789062"/>
       <use xlink:href="#DejaVuSans-2e" x="147.412109"/>
       <use xlink:href="#DejaVuSans-35" x="179.199219"/>
       <use xlink:href="#DejaVuSans-30" x="242.822266"/>
      </g>
     </g>
    </g>
    <g id="xtick_4">
     <g id="line2d_4">
      <g>
       <use xlink:href="#m1ba2952418" x="192.872727" y="307.584" style="stroke: #000000; stroke-width: 0.8"/>
      </g>
     </g>
     <g id="text_4">
      <!-- −0.25 -->
      <g transform="translate(177.550071 322.182437) scale(0.1 -0.1)">
       <defs>
        <path id="DejaVuSans-32" d="M 1228 531 
L 3431 531 
L 3431 0 
L 469 0 
L 469 531 
Q 828 903 1448 1529 
Q 2069 2156 2228 2338 
Q 2531 2678 2651 2914 
Q 2772 3150 2772 3378 
Q 2772 3750 2511 3984 
Q 2250 4219 1831 4219 
Q 1534 4219 1204 4116 
Q 875 4013 500 3803 
L 500 4441 
Q 881 4594 1212 4672 
Q 1544 4750 1819 4750 
Q 2544 4750 2975 4387 
Q 3406 4025 3406 3419 
Q 3406 3131 3298 2873 
Q 3191 2616 2906 2266 
Q 2828 2175 2409 1742 
Q 1991 1309 1228 531 
z
" transform="scale(0.015625)"/>
       </defs>
       <use xlink:href="#DejaVuSans-2212"/>
       <use xlink:href="#DejaVuSans-30" x="83.789062"/>
       <use xlink:href="#DejaVuSans-2e" x="147.412109"/>
       <use xlink:href="#DejaVuSans-32" x="179.199219"/>
       <use xlink:href="#DejaVuSans-35" x="242.822266"/>
      </g>
     </g>
    </g>
    <g id="xtick_5">
     <g id="line2d_5">
      <g>
       <use xlink:href="#m1ba2952418" x="237.963636" y="307.584" style="stroke: #000000; stroke-width: 0.8"/>
      </g>
     </g>
     <g id="text_5">
      <!-- 0.00 -->
      <g transform="translate(226.830824 322.182437) scale(0.1 -0.1)">
       <use xlink:href="#DejaVuSans-30"/>
       <use xlink:href="#DejaVuSans-2e" x="63.623047"/>
       <use xlink:href="#DejaVuSans-30" x="95.410156"/>
       <use xlink:href="#DejaVuSans-30" x="159.033203"/>
      </g>
     </g>
    </g>
    <g id="xtick_6">
     <g id="line2d_6">
      <g>
       <use xlink:href="#m1ba2952418" x="283.054545" y="307.584" style="stroke: #000000; stroke-width: 0.8"/>
      </g>
     </g>
     <g id="text_6">
      <!-- 0.25 -->
      <g transform="translate(271.921733 322.182437) scale(0.1 -0.1)">
       <use xlink:href="#DejaVuSans-30"/>
       <use xlink:href="#DejaVuSans-2e" x="63.623047"/>
       <use xlink:href="#DejaVuSans-32" x="95.410156"/>
       <use xlink:href="#DejaVuSans-35" x="159.033203"/>
      </g>
     </g>
    </g>
    <g id="xtick_7">
     <g id="line2d_7">
      <g>
       <use xlink:href="#m1ba2952418" x="328.145455" y="307.584" style="stroke: #000000; stroke-width: 0.8"/>
      </g>
     </g>
     <g id="text_7">
      <!-- 0.50 -->
      <g transform="translate(317.012642 322.182437) scale(0.1 -0.1)">
       <use xlink:href="#DejaVuSans-30"/>
       <use xlink:href="#DejaVuSans-2e" x="63.623047"/>
       <use xlink:href="#DejaVuSans-35" x="95.410156"/>
       <use xlink:href="#DejaVuSans-30" x="159.033203"/>
      </g>
     </g>
    </g>
    <g id="xtick_8">
     <g id="line2d_8">
      <g>
       <use xlink:href="#m1ba2952418" x="373.236364" y="307.584" style="stroke: #000000; stroke-width: 0.8"/>
      </g>
     </g>
     <g id="text_8">
      <!-- 0.75 -->
      <g transform="translate(362.103551 322.182437) scale(0.1 -0.1)">
       <use xlink:href="#DejaVuSans-30"/>
       <use xlink:href="#DejaVuSans-2e" x="63.623047"/>
       <use xlink:href="#DejaVuSans-37" x="95.410156"/>
       <use xlink:href="#DejaVuSans-35" x="159.033203"/>
      </g>
     </g>
    </g>
    <g id="text_9">
     <!-- $w_1$ -->
     <g transform="translate(225.76 340.419625) scale(0.16 -0.16)">
      <defs>
       <path id="DejaVuSans-Oblique-77" d="M 544 3500 
L 1113 3500 
L 1259 684 
L 2566 3500 
L 3231 3500 
L 3425 684 
L 4666 3500 
L 5241 3500 
L 3641 0 
L 2969 0 
L 2797 2900 
L 1459 0 
L 781 0 
L 544 3500 
z
" transform="scale(0.015625)"/>
      </defs>
      <use xlink:href="#DejaVuSans-Oblique-77" transform="translate(0 0.3125)"/>
      <use xlink:href="#DejaVuSans-31" transform="translate(81.787109 -16.09375) scale(0.7)"/>
     </g>
    </g>
   </g>
   <g id="matplotlib.axis_2">
    <g id="ytick_1">
     <g id="line2d_9">
      <defs>
       <path id="medfac70a2a" d="M 0 0 
L -3.5 0 
" style="stroke: #000000; stroke-width: 0.8"/>
      </defs>
      <g>
       <use xlink:href="#medfac70a2a" x="57.6" y="307.584" style="stroke: #000000; stroke-width: 0.8"/>
      </g>
     </g>
     <g id="text_10">
      <!-- −1.00 -->
      <g transform="translate(19.954687 311.383219) scale(0.1 -0.1)">
       <use xlink:href="#DejaVuSans-2212"/>
       <use xlink:href="#DejaVuSans-31" x="83.789062"/>
       <use xlink:href="#DejaVuSans-2e" x="147.412109"/>
       <use xlink:href="#DejaVuSans-30" x="179.199219"/>
       <use xlink:href="#DejaVuSans-30" x="242.822266"/>
      </g>
     </g>
    </g>
    <g id="ytick_2">
     <g id="line2d_10">
      <g>
       <use xlink:href="#medfac70a2a" x="57.6" y="273.984" style="stroke: #000000; stroke-width: 0.8"/>
      </g>
     </g>
     <g id="text_11">
      <!-- −0.75 -->
      <g transform="translate(19.954687 277.783219) scale(0.1 -0.1)">
       <use xlink:href="#DejaVuSans-2212"/>
       <use xlink:href="#DejaVuSans-30" x="83.789062"/>
       <use xlink:href="#DejaVuSans-2e" x="147.412109"/>
       <use xlink:href="#DejaVuSans-37" x="179.199219"/>
       <use xlink:href="#DejaVuSans-35" x="242.822266"/>
      </g>
     </g>
    </g>
    <g id="ytick_3">
     <g id="line2d_11">
      <g>
       <use xlink:href="#medfac70a2a" x="57.6" y="240.384" style="stroke: #000000; stroke-width: 0.8"/>
      </g>
     </g>
     <g id="text_12">
      <!-- −0.50 -->
      <g transform="translate(19.954687 244.183219) scale(0.1 -0.1)">
       <use xlink:href="#DejaVuSans-2212"/>
       <use xlink:href="#DejaVuSans-30" x="83.789062"/>
       <use xlink:href="#DejaVuSans-2e" x="147.412109"/>
       <use xlink:href="#DejaVuSans-35" x="179.199219"/>
       <use xlink:href="#DejaVuSans-30" x="242.822266"/>
      </g>
     </g>
    </g>
    <g id="ytick_4">
     <g id="line2d_12">
      <g>
       <use xlink:href="#medfac70a2a" x="57.6" y="206.784" style="stroke: #000000; stroke-width: 0.8"/>
      </g>
     </g>
     <g id="text_13">
      <!-- −0.25 -->
      <g transform="translate(19.954687 210.583219) scale(0.1 -0.1)">
       <use xlink:href="#DejaVuSans-2212"/>
       <use xlink:href="#DejaVuSans-30" x="83.789062"/>
       <use xlink:href="#DejaVuSans-2e" x="147.412109"/>
       <use xlink:href="#DejaVuSans-32" x="179.199219"/>
       <use xlink:href="#DejaVuSans-35" x="242.822266"/>
      </g>
     </g>
    </g>
    <g id="ytick_5">
     <g id="line2d_13">
      <g>
       <use xlink:href="#medfac70a2a" x="57.6" y="173.184" style="stroke: #000000; stroke-width: 0.8"/>
      </g>
     </g>
     <g id="text_14">
      <!-- 0.00 -->
      <g transform="translate(28.334375 176.983219) scale(0.1 -0.1)">
       <use xlink:href="#DejaVuSans-30"/>
       <use xlink:href="#DejaVuSans-2e" x="63.623047"/>
       <use xlink:href="#DejaVuSans-30" x="95.410156"/>
       <use xlink:href="#DejaVuSans-30" x="159.033203"/>
      </g>
     </g>
    </g>
    <g id="ytick_6">
     <g id="line2d_14">
      <g>
       <use xlink:href="#medfac70a2a" x="57.6" y="139.584" style="stroke: #000000; stroke-width: 0.8"/>
      </g>
     </g>
     <g id="text_15">
      <!-- 0.25 -->
      <g transform="translate(28.334375 143.383219) scale(0.1 -0.1)">
       <use xlink:href="#DejaVuSans-30"/>
       <use xlink:href="#DejaVuSans-2e" x="63.623047"/>
       <use xlink:href="#DejaVuSans-32" x="95.410156"/>
       <use xlink:href="#DejaVuSans-35" x="159.033203"/>
      </g>
     </g>
    </g>
    <g id="ytick_7">
     <g id="line2d_15">
      <g>
       <use xlink:href="#medfac70a2a" x="57.6" y="105.984" style="stroke: #000000; stroke-width: 0.8"/>
      </g>
     </g>
     <g id="text_16">
      <!-- 0.50 -->
      <g transform="translate(28.334375 109.783219) scale(0.1 -0.1)">
       <use xlink:href="#DejaVuSans-30"/>
       <use xlink:href="#DejaVuSans-2e" x="63.623047"/>
       <use xlink:href="#DejaVuSans-35" x="95.410156"/>
       <use xlink:href="#DejaVuSans-30" x="159.033203"/>
      </g>
     </g>
    </g>
    <g id="ytick_8">
     <g id="line2d_16">
      <g>
       <use xlink:href="#medfac70a2a" x="57.6" y="72.384" style="stroke: #000000; stroke-width: 0.8"/>
      </g>
     </g>
     <g id="text_17">
      <!-- 0.75 -->
      <g transform="translate(28.334375 76.183219) scale(0.1 -0.1)">
       <use xlink:href="#DejaVuSans-30"/>
       <use xlink:href="#DejaVuSans-2e" x="63.623047"/>
       <use xlink:href="#DejaVuSans-37" x="95.410156"/>
       <use xlink:href="#DejaVuSans-35" x="159.033203"/>
      </g>
     </g>
    </g>
    <g id="text_18">
     <!-- $w_2$ -->
     <g transform="translate(12.627187 184.928) rotate(-90) scale(0.16 -0.16)">
      <use xlink:href="#DejaVuSans-Oblique-77" transform="translate(0 0.3125)"/>
      <use xlink:href="#DejaVuSans-32" transform="translate(81.787109 -16.09375) scale(0.7)"/>
     </g>
    </g>
   </g>
   <g id="QuadContourSet_1">
    <path d="M 216.32 202.798748 
L 209.105455 202.4448 
L 198.283636 201.7152 
L 187.461818 200.7552 
L 180.247273 199.979116 
L 169.425455 198.493642 
L 162.210909 197.360188 
L 151.389091 195.2256 
L 147.781818 194.4192 
L 138.534083 192 
L 130.356857 189.312 
L 123.905108 186.624 
L 118.869796 183.936 
L 115.107246 181.248 
L 112.493281 178.56 
L 110.946991 175.872 
L 110.438924 173.184 
L 110.946991 170.496 
L 112.493281 167.808 
L 115.316364 164.9664 
L 118.923636 162.402133 
L 123.905108 159.744 
L 130.356857 157.056 
L 138.534083 154.368 
L 147.781818 151.9488 
L 151.389091 151.1424 
L 162.298891 148.992 
L 173.032727 147.350905 
L 180.945455 146.304 
L 191.069091 145.2672 
L 201.890909 144.384 
L 212.712727 143.7312 
L 223.534545 143.335513 
L 234.356364 143.160209 
L 245.178182 143.19527 
L 256 143.440696 
L 266.821818 143.9232 
L 277.643636 144.6528 
L 288.465455 145.6128 
L 295.68 146.388884 
L 306.501818 147.874358 
L 313.716364 149.007812 
L 324.538182 151.1424 
L 328.145455 151.9488 
L 337.39319 154.368 
L 345.570416 157.056 
L 352.022165 159.744 
L 357.057476 162.432 
L 360.820026 165.12 
L 363.433992 167.808 
L 364.980282 170.496 
L 365.488348 173.184 
L 364.980282 175.872 
L 363.433992 178.56 
L 360.610909 181.4016 
L 357.003636 183.965867 
L 352.022165 186.624 
L 345.570416 189.312 
L 337.39319 192 
L 328.145455 194.4192 
L 324.538182 195.2256 
L 313.628381 197.376 
L 302.894545 199.017095 
L 294.981818 200.064 
L 284.858182 201.1008 
L 274.036364 201.984 
L 263.214545 202.6368 
L 252.392727 203.032487 
L 241.570909 203.207791 
L 230.749091 203.17273 
L 219.927273 202.927304 
L 216.32 202.798748 
L 216.32 202.798748 
" clip-path="url(#pb33ff2da93)" style="fill: none; stroke: #440154; stroke-width: 1.5"/>
    <path d="M 414.72 181.5936 
L 412.451509 183.936 
L 409.062278 186.624 
L 404.829091 189.312 
L 399.682942 192 
L 393.076364 194.861929 
L 385.861818 197.503326 
L 377.663471 200.064 
L 367.520615 202.752 
L 355.394238 205.44 
L 346.181818 207.16032 
L 338.967273 208.386844 
L 328.145455 209.969778 
L 317.323636 211.335062 
L 302.894545 212.818097 
L 292.072727 213.720774 
L 277.643636 214.622555 
L 263.214545 215.246865 
L 248.785455 215.593703 
L 234.356364 215.663071 
L 219.927273 215.454968 
L 205.498182 214.969394 
L 191.069091 214.206348 
L 180.247273 213.448386 
L 165.818182 212.113655 
L 154.152108 210.816 
L 144.174545 209.462044 
L 133.352727 207.794688 
L 120.533035 205.44 
L 111.709091 203.511652 
L 104.494545 201.7408 
L 97.28 199.766905 
L 89.674304 197.376 
L 82.394817 194.688 
L 75.636364 191.689846 
L 71.098182 189.312 
L 66.864995 186.624 
L 63.475764 183.936 
L 60.879339 181.248 
L 59.057484 178.56 
L 57.964371 175.872 
L 57.6 173.184 
M 57.6 173.184 
L 57.964371 170.496 
L 59.057484 167.808 
L 61.207273 164.7744 
L 63.475764 162.432 
L 66.864995 159.744 
L 71.098182 157.056 
L 76.244331 154.368 
L 82.850909 151.506071 
L 90.065455 148.864674 
L 98.263802 146.304 
L 108.406658 143.616 
L 120.533035 140.928 
L 129.745455 139.20768 
L 136.96 137.981156 
L 147.781818 136.398222 
L 158.603636 135.032938 
L 173.032727 133.549903 
L 183.854545 132.647226 
L 198.283636 131.745445 
L 212.712727 131.121135 
L 227.141818 130.774297 
L 241.570909 130.704929 
L 256 130.913032 
L 270.429091 131.398606 
L 284.858182 132.161652 
L 295.68 132.919614 
L 310.109091 134.254345 
L 321.775164 135.552 
L 331.752727 136.905956 
L 342.574545 138.573312 
L 355.394238 140.928 
L 364.218182 142.856348 
L 371.432727 144.6272 
L 378.647273 146.601095 
L 386.252968 148.992 
L 393.532456 151.68 
L 400.290909 154.678154 
L 404.829091 157.056 
L 409.062278 159.744 
L 412.451509 162.432 
L 414.72 164.7744 
L 414.72 164.7744 
" clip-path="url(#pb33ff2da93)" style="fill: none; stroke: #481a6c; stroke-width: 1.5"/>
    <path d="M 414.72 216.509673 
L 403.66034 218.88 
L 389.295246 221.568 
L 375.04 223.863697 
L 364.218182 225.393231 
L 349.789091 227.199688 
L 335.36 228.720702 
L 320.930909 230.013321 
L 306.501818 231.063516 
L 292.072727 231.913674 
L 277.643636 232.55296 
L 263.214545 232.98304 
L 248.785455 233.221973 
L 234.356364 233.26976 
L 219.927273 233.1264 
L 205.498182 232.791893 
L 191.069091 232.26374 
L 176.64 231.5136 
L 162.210909 230.563423 
L 147.781818 229.402537 
L 133.352727 227.98642 
L 118.923636 226.330585 
L 103.484509 224.256 
L 90.065455 222.141924 
L 82.850909 220.88448 
L 72.029091 218.831127 
L 59.786226 216.192 
L 57.6 215.671742 
M 57.6 130.696258 
L 64.814545 129.068218 
L 75.636364 126.8352 
L 86.632026 124.8 
L 100.887273 122.504303 
L 111.709091 120.974769 
L 126.138182 119.168312 
L 140.567273 117.647298 
L 154.996364 116.354679 
L 169.425455 115.304484 
L 183.854545 114.454326 
L 198.283636 113.81504 
L 212.712727 113.38496 
L 227.141818 113.146027 
L 241.570909 113.09824 
L 256 113.2416 
L 270.429091 113.576107 
L 284.858182 114.10426 
L 299.287273 114.8544 
L 313.716364 115.804577 
L 328.145455 116.965463 
L 342.574545 118.38158 
L 357.003636 120.037415 
L 372.442764 122.112 
L 385.861818 124.226076 
L 393.076364 125.48352 
L 403.898182 127.536873 
L 414.72 129.858327 
L 414.72 129.858327 
" clip-path="url(#pb33ff2da93)" style="fill: none; stroke: #414487; stroke-width: 1.5"/>
    <path d="M 414.72 233.867093 
L 403.898182 235.5456 
L 388.426024 237.696 
L 371.432727 239.7312 
L 357.003636 241.232565 
L 338.967273 242.840094 
L 324.538182 243.903758 
L 306.501818 244.994174 
L 288.465455 245.828422 
L 270.429091 246.390458 
L 252.392727 246.708131 
L 234.356364 246.78144 
L 216.32 246.610385 
L 198.283636 246.194967 
L 180.247273 245.526702 
L 162.210909 244.588438 
L 144.174545 243.396589 
L 129.745455 242.228706 
L 111.709091 240.515765 
L 100.887273 239.319771 
L 86.458182 237.55874 
L 72.029091 235.5456 
L 61.207273 233.867093 
L 57.6 233.275733 
M 57.6 113.092267 
L 72.029091 110.8224 
L 87.501249 108.672 
L 104.494545 106.6368 
L 118.923636 105.135435 
L 136.96 103.527906 
L 151.389091 102.464242 
L 169.425455 101.373826 
L 187.461818 100.539578 
L 205.498182 99.977542 
L 223.534545 99.659869 
L 241.570909 99.58656 
L 259.607273 99.757615 
L 277.643636 100.173033 
L 295.68 100.841298 
L 313.716364 101.779562 
L 331.752727 102.971411 
L 346.181818 104.139294 
L 364.218182 105.852235 
L 375.04 107.048229 
L 389.469091 108.80926 
L 403.898182 110.8224 
L 414.72 112.500907 
L 414.72 112.500907 
" clip-path="url(#pb33ff2da93)" style="fill: none; stroke: #31688e; stroke-width: 1.5"/>
    <path d="M 414.72 247.270167 
L 400.290909 249.084632 
L 381.797929 251.136 
L 364.218182 252.798915 
L 346.181818 254.264656 
L 328.145455 255.476459 
L 309.184149 256.512 
L 292.072727 257.216 
L 274.036364 257.749333 
L 256 258.069333 
L 237.963636 258.176 
L 219.927273 258.069333 
L 201.890909 257.749333 
L 183.854545 257.216 
L 165.818182 256.467934 
L 147.781818 255.476459 
L 129.745455 254.264656 
L 115.316364 253.113275 
L 97.28 251.450359 
L 82.850909 249.914611 
L 68.421818 248.208524 
L 57.6 246.786327 
M 57.6 99.581673 
L 72.029091 97.712505 
L 90.065455 95.661137 
L 104.494545 94.225139 
L 123.905108 92.544 
L 140.567273 91.349823 
L 158.603636 90.270216 
L 176.64 89.425067 
L 194.676364 88.8064 
L 212.712727 88.401067 
L 230.749091 88.209067 
L 248.785455 88.2304 
L 266.821818 88.465067 
L 284.858182 88.913067 
L 302.894545 89.5744 
L 320.930909 90.468511 
L 338.967273 91.592184 
L 357.003636 92.949478 
L 375.04 94.566834 
L 389.469091 96.052547 
L 407.505455 98.159476 
L 414.72 99.097833 
L 414.72 99.097833 
" clip-path="url(#pb33ff2da93)" style="fill: none; stroke: #23888e; stroke-width: 1.5"/>
    <path d="M 414.72 258.5984 
L 400.290909 260.171815 
L 382.254545 261.928119 
L 364.218182 263.432597 
L 346.181818 264.731826 
L 328.145455 265.80313 
L 310.109091 266.679652 
L 292.072727 267.358648 
L 274.036364 267.831887 
L 256 268.115831 
L 237.963636 268.210479 
L 219.927273 268.115831 
L 201.890909 267.831887 
L 180.945455 267.264 
L 165.818182 266.679652 
L 147.781818 265.80313 
L 127.38003 264.576 
L 111.709091 263.432597 
L 93.227385 261.888 
L 75.636364 260.171815 
L 61.207273 258.5984 
L 57.6 258.176 
M 57.6 88.192 
L 72.029091 86.572505 
L 90.065455 84.773612 
L 104.494545 83.513122 
L 122.530909 82.129003 
L 140.567273 80.970017 
L 158.603636 80.015583 
L 176.64 79.25593 
L 194.676364 78.702693 
L 212.712727 78.343031 
L 230.749091 78.172665 
L 248.785455 78.191594 
L 266.821818 78.39982 
L 284.858182 78.797341 
L 302.894545 79.392278 
L 320.930909 80.190887 
L 338.967273 81.184278 
L 357.003636 82.389779 
L 375.04 83.814018 
L 393.076364 85.468357 
L 411.112727 87.355733 
L 414.72 87.7696 
L 414.72 87.7696 
" clip-path="url(#pb33ff2da93)" style="fill: none; stroke: #22a884; stroke-width: 1.5"/>
    <path d="M 414.72 268.585285 
L 396.683636 270.334948 
L 375.04 272.146586 
L 357.003636 273.432064 
L 335.36 274.722304 
L 317.323636 275.593309 
L 295.68 276.389236 
L 274.036364 276.933818 
L 252.392727 277.227055 
L 230.749091 277.268945 
L 209.105455 277.059491 
L 187.461818 276.598691 
L 165.818182 275.886545 
L 147.781818 275.09504 
L 126.138182 273.890816 
L 107.410012 272.64 
L 86.458182 270.968285 
L 68.421818 269.31218 
L 57.6 268.210479 
M 57.6 78.157521 
L 75.636364 76.360767 
L 97.28 74.504942 
L 115.316364 73.176064 
L 136.96 71.842816 
L 154.996364 70.931782 
L 176.64 70.093964 
L 198.283636 69.507491 
L 219.927273 69.172364 
L 241.570909 69.088582 
L 263.214545 69.256145 
L 284.858182 69.675055 
L 306.501818 70.345309 
L 328.145455 71.27296 
L 349.789091 72.477184 
L 368.51726 73.728 
L 389.469091 75.399715 
L 407.505455 77.05582 
L 414.72 77.782715 
L 414.72 77.782715 
" clip-path="url(#pb33ff2da93)" style="fill: none; stroke: #54c568; stroke-width: 1.5"/>
    <path d="M 414.72 277.628509 
L 396.683636 279.220496 
L 375.04 280.889837 
L 353.396364 282.283615 
L 331.752727 283.43734 
L 310.109091 284.331181 
L 288.465455 284.991846 
L 266.821818 285.419335 
L 245.178182 285.613648 
L 223.534545 285.574786 
L 201.890909 285.302747 
L 180.247273 284.797533 
L 158.603636 284.059142 
L 136.96 283.080059 
L 115.316364 281.84557 
L 93.672727 280.363747 
L 72.029091 278.608041 
L 57.6 277.282909 
M 57.6 69.085091 
L 75.636364 67.450329 
L 97.28 65.735453 
L 115.316364 64.52243 
L 136.96 63.287941 
L 154.996364 62.454593 
L 176.64 61.67734 
L 198.283636 61.133263 
L 219.927273 60.822361 
L 241.570909 60.744636 
L 263.214545 60.900087 
L 284.858182 61.288713 
L 306.501818 61.910516 
L 328.145455 62.765494 
L 346.181818 63.672889 
L 367.825455 64.987022 
L 385.861818 66.279858 
L 407.505455 68.076395 
L 414.72 68.739491 
L 414.72 68.739491 
" clip-path="url(#pb33ff2da93)" style="fill: none; stroke: #a5db36; stroke-width: 1.5"/>
    <path d="M 414.72 285.947219 
L 396.683636 287.420838 
L 375.04 288.971917 
L 353.396364 290.269572 
L 331.752727 291.344772 
L 310.109091 292.180854 
L 288.465455 292.79698 
L 266.821818 293.195649 
L 245.178182 293.376863 
L 223.534545 293.34062 
L 201.890909 293.086921 
L 180.247273 292.615766 
L 158.603636 291.927155 
L 136.96 291.01109 
L 115.316364 289.861738 
L 93.672727 288.483388 
L 72.029091 286.851614 
L 57.6 285.626602 
M 57.6 60.741398 
L 75.636364 59.228612 
L 97.795325 57.6 
L 118.923636 56.299255 
L 140.567273 55.186979 
L 162.210909 54.310975 
L 183.854545 53.658607 
L 205.498182 53.223694 
L 227.141818 53.006238 
L 248.785455 53.006238 
L 270.429091 53.223694 
L 292.072727 53.658607 
L 313.716364 54.310975 
L 335.36 55.186979 
L 357.003636 56.299255 
L 378.647273 57.634786 
L 400.290909 59.228612 
L 414.72 60.420781 
L 414.72 60.420781 
" clip-path="url(#pb33ff2da93)" style="fill: none; stroke: #fde725; stroke-width: 1.5"/>
   </g>
   <g id="patch_3">
    <path d="M 57.6 307.584 
L 57.6 41.472 
" style="fill: none; stroke: #000000; stroke-width: 0.8; stroke-linejoin: miter; stroke-linecap: square"/>
   </g>
   <g id="patch_4">
    <path d="M 414.72 307.584 
L 414.72 41.472 
" style="fill: none; stroke: #000000; stroke-width: 0.8; stroke-linejoin: miter; stroke-linecap: square"/>
   </g>
   <g id="patch_5">
    <path d="M 57.6 307.584 
L 414.72 307.584 
" style="fill: none; stroke: #000000; stroke-width: 0.8; stroke-linejoin: miter; stroke-linecap: square"/>
   </g>
   <g id="patch_6">
    <path d="M 57.6 41.472 
L 414.72 41.472 
" style="fill: none; stroke: #000000; stroke-width: 0.8; stroke-linejoin: miter; stroke-linecap: square"/>
   </g>
  </g>
 </g>
 <defs>
  <clipPath id="pb33ff2da93">
   <rect x="57.6" y="41.472" width="357.12" height="266.112"/>
  </clipPath>
 </defs>
</svg>
