<?xml version="1.0" encoding="utf-8" standalone="no"?>
<!DOCTYPE svg PUBLIC "-//W3C//DTD SVG 1.1//EN"
  "http://www.w3.org/Graphics/SVG/1.1/DTD/svg11.dtd">
<svg xmlns:xlink="http://www.w3.org/1999/xlink" width="460.8pt" height="345.6pt" viewBox="0 0 460.8 345.6" xmlns="http://www.w3.org/2000/svg" version="1.1">
 <metadata>
  <rdf:RDF xmlns:dc="http://purl.org/dc/elements/1.1/" xmlns:cc="http://creativecommons.org/ns#" xmlns:rdf="http://www.w3.org/1999/02/22-rdf-syntax-ns#">
   <cc:Work>
    <dc:type rdf:resource="http://purl.org/dc/dcmitype/StillImage"/>
    <dc:date>2025-04-12T17:24:38.318432</dc:date>
    <dc:format>image/svg+xml</dc:format>
    <dc:creator>
     <cc:Agent>
      <dc:title>Matplotlib v3.9.2, https://matplotlib.org/</dc:title>
     </cc:Agent>
    </dc:creator>
   </cc:Work>
  </rdf:RDF>
 </metadata>
 <defs>
  <style type="text/css">*{stroke-linejoin: round; stroke-linecap: butt}</style>
 </defs>
 <g id="figure_1">
  <g id="patch_1">
   <path d="M 0 345.6 
L 460.8 345.6 
L 460.8 0 
L 0 0 
z
" style="fill: #ffffff"/>
  </g>
  <g id="patch_2">
   <path d="M 103.104 307.584 
L 369.216 307.584 
L 369.216 41.472 
L 103.104 41.472 
z
" style="fill: #ffffff"/>
  </g>
  <g id="pane3d_1">
   <g id="patch_3">
    <path d="M 123.197291 241.969309 
L 211.076164 168.307495 
L 209.854564 62.073991 
L 117.770234 129.272941 
" style="fill: #f2f2f2; opacity: 0.5; stroke: #f2f2f2; stroke-linejoin: miter"/>
   </g>
  </g>
  <g id="pane3d_2">
   <g id="patch_4">
    <path d="M 211.076164 168.307495 
L 352.090401 209.294766 
L 357.122702 99.402171 
L 209.854564 62.073991 
" style="fill: #e6e6e6; opacity: 0.5; stroke: #e6e6e6; stroke-linejoin: miter"/>
   </g>
  </g>
  <g id="pane3d_3">
   <g id="patch_5">
    <path d="M 123.197291 241.969309 
L 272.679269 290.790123 
L 352.090401 209.294766 
L 211.076164 168.307495 
" style="fill: #ececec; opacity: 0.5; stroke: #ececec; stroke-linejoin: miter"/>
   </g>
  </g>
  <g id="grid3d_1">
   <g id="Line3DCollection_1">
    <path d="M 123.197291 241.969309 
L 211.076164 168.307495 
L 209.854564 62.073991 
" style="fill: none; stroke: #b0b0b0; stroke-width: 0.8"/>
    <path d="M 195.967881 265.736184 
L 279.880048 188.306068 
L 281.632185 80.267526 
" style="fill: none; stroke: #b0b0b0; stroke-width: 0.8"/>
    <path d="M 272.679269 290.790123 
L 352.090401 209.294766 
L 357.122702 99.402171 
" style="fill: none; stroke: #b0b0b0; stroke-width: 0.8"/>
   </g>
  </g>
  <g id="grid3d_2">
   <g id="Line3DCollection_2">
    <path d="M 117.770234 129.272941 
L 123.197291 241.969309 
L 272.679269 290.790123 
" style="fill: none; stroke: #b0b0b0; stroke-width: 0.8"/>
    <path d="M 165.860779 94.178651 
L 169.008295 203.569617 
L 314.163547 248.217048 
" style="fill: none; stroke: #b0b0b0; stroke-width: 0.8"/>
    <path d="M 209.854564 62.073991 
L 211.076164 168.307495 
L 352.090401 209.294766 
" style="fill: none; stroke: #b0b0b0; stroke-width: 0.8"/>
   </g>
  </g>
  <g id="grid3d_3">
   <g id="Line3DCollection_3">
    <path d="M 352.090401 209.294766 
L 211.076164 168.307495 
L 123.197291 241.969309 
" style="fill: none; stroke: #b0b0b0; stroke-width: 0.8"/>
    <path d="M 354.551427 155.552235 
L 210.478101 116.298387 
L 120.545497 186.903085 
" style="fill: none; stroke: #b0b0b0; stroke-width: 0.8"/>
    <path d="M 357.122702 99.402171 
L 209.854564 62.073991 
L 117.770234 129.272941 
" style="fill: none; stroke: #b0b0b0; stroke-width: 0.8"/>
   </g>
  </g>
  <g id="axis3d_1">
   <g id="line2d_1">
    <path d="M 123.197291 241.969309 
L 272.679269 290.790123 
" style="fill: none; stroke: #000000; stroke-width: 0.8; stroke-linecap: square"/>
   </g>
   <g id="xtick_1">
    <g id="line2d_2">
     <path d="M 123.962332 241.328036 
L 121.663937 243.254597 
" style="fill: none; stroke: #000000; stroke-width: 0.8; stroke-linecap: square"/>
    </g>
    <g id="text_1">
     <!-- −1 -->
     <g transform="translate(108.288309 265.215952) scale(0.1 -0.1)">
      <defs>
       <path id="DejaVuSans-2212" d="M 678 2272 
L 4684 2272 
L 4684 1741 
L 678 1741 
L 678 2272 
z
" transform="scale(0.015625)"/>
       <path id="DejaVuSans-31" d="M 794 531 
L 1825 531 
L 1825 4091 
L 703 3866 
L 703 4441 
L 1819 4666 
L 2450 4666 
L 2450 531 
L 3481 531 
L 3481 0 
L 794 0 
L 794 531 
z
" transform="scale(0.015625)"/>
      </defs>
      <use xlink:href="#DejaVuSans-2212"/>
      <use xlink:href="#DejaVuSans-31" x="83.789062"/>
     </g>
    </g>
   </g>
   <g id="xtick_2">
    <g id="line2d_3">
     <path d="M 196.69995 265.060666 
L 194.500531 267.090184 
" style="fill: none; stroke: #000000; stroke-width: 0.8; stroke-linecap: square"/>
    </g>
    <g id="text_2">
     <!-- 0 -->
     <g transform="translate(185.32602 289.487318) scale(0.1 -0.1)">
      <defs>
       <path id="DejaVuSans-30" d="M 2034 4250 
Q 1547 4250 1301 3770 
Q 1056 3291 1056 2328 
Q 1056 1369 1301 889 
Q 1547 409 2034 409 
Q 2525 409 2770 889 
Q 3016 1369 3016 2328 
Q 3016 3291 2770 3770 
Q 2525 4250 2034 4250 
z
M 2034 4750 
Q 2819 4750 3233 4129 
Q 3647 3509 3647 2328 
Q 3647 1150 3233 529 
Q 2819 -91 2034 -91 
Q 1250 -91 836 529 
Q 422 1150 422 2328 
Q 422 3509 836 4129 
Q 1250 4750 2034 4750 
z
" transform="scale(0.015625)"/>
      </defs>
      <use xlink:href="#DejaVuSans-30"/>
     </g>
    </g>
   </g>
   <g id="xtick_3">
    <g id="line2d_4">
     <path d="M 273.373625 290.077542 
L 271.287426 292.218496 
" style="fill: none; stroke: #000000; stroke-width: 0.8; stroke-linecap: square"/>
    </g>
    <g id="text_3">
     <!-- 1 -->
     <g transform="translate(262.134281 315.078203) scale(0.1 -0.1)">
      <use xlink:href="#DejaVuSans-31"/>
     </g>
    </g>
   </g>
  </g>
  <g id="axis3d_2">
   <g id="line2d_5">
    <path d="M 352.090401 209.294766 
L 272.679269 290.790123 
" style="fill: none; stroke: #000000; stroke-width: 0.8; stroke-linecap: square"/>
   </g>
   <g id="xtick_4">
    <g id="line2d_6">
     <path d="M 271.419199 290.378584 
L 275.202687 291.614271 
" style="fill: none; stroke: #000000; stroke-width: 0.8; stroke-linecap: square"/>
    </g>
    <g id="text_4">
     <!-- −1 -->
     <g transform="translate(278.262429 311.89542) scale(0.1 -0.1)">
      <use xlink:href="#DejaVuSans-2212"/>
      <use xlink:href="#DejaVuSans-31" x="83.789062"/>
     </g>
    </g>
   </g>
   <g id="xtick_5">
    <g id="line2d_7">
     <path d="M 312.942742 247.841548 
L 316.608191 248.968982 
" style="fill: none; stroke: #000000; stroke-width: 0.8; stroke-linecap: square"/>
    </g>
    <g id="text_5">
     <!-- 0 -->
     <g transform="translate(323.379766 268.692429) scale(0.1 -0.1)">
      <use xlink:href="#DejaVuSans-30"/>
     </g>
    </g>
   </g>
   <g id="xtick_6">
    <g id="line2d_8">
     <path d="M 350.906903 208.95077 
L 354.460211 209.983577 
" style="fill: none; stroke: #000000; stroke-width: 0.8; stroke-linecap: square"/>
    </g>
    <g id="text_6">
     <!-- 1 -->
     <g transform="translate(360.795648 229.196288) scale(0.1 -0.1)">
      <use xlink:href="#DejaVuSans-31"/>
     </g>
    </g>
   </g>
  </g>
  <g id="axis3d_3">
   <g id="line2d_9">
    <path d="M 352.090401 209.294766 
L 357.122702 99.402171 
" style="fill: none; stroke: #000000; stroke-width: 0.8; stroke-linecap: square"/>
   </g>
   <g id="xtick_7">
    <g id="line2d_10">
     <path d="M 350.906903 208.95077 
L 354.460211 209.983577 
" style="fill: none; stroke: #000000; stroke-width: 0.8; stroke-linecap: square"/>
    </g>
    <g id="text_7">
     <!-- 0 -->
     <g transform="translate(367.15779 214.288206) scale(0.1 -0.1)">
      <use xlink:href="#DejaVuSans-30"/>
     </g>
    </g>
   </g>
   <g id="xtick_8">
    <g id="line2d_11">
     <path d="M 353.341016 155.22245 
L 356.975191 156.212608 
" style="fill: none; stroke: #000000; stroke-width: 0.8; stroke-linecap: square"/>
    </g>
    <g id="text_8">
     <!-- 1 -->
     <g transform="translate(370.009844 160.653431) scale(0.1 -0.1)">
      <use xlink:href="#DejaVuSans-31"/>
     </g>
    </g>
   </g>
   <g id="xtick_9">
    <g id="line2d_12">
     <path d="M 355.884126 99.088228 
L 359.60293 100.030837 
" style="fill: none; stroke: #000000; stroke-width: 0.8; stroke-linecap: square"/>
    </g>
    <g id="text_9">
     <!-- 2 -->
     <g transform="translate(372.989263 104.623475) scale(0.1 -0.1)">
      <defs>
       <path id="DejaVuSans-32" d="M 1228 531 
L 3431 531 
L 3431 0 
L 469 0 
L 469 531 
Q 828 903 1448 1529 
Q 2069 2156 2228 2338 
Q 2531 2678 2651 2914 
Q 2772 3150 2772 3378 
Q 2772 3750 2511 3984 
Q 2250 4219 1831 4219 
Q 1534 4219 1204 4116 
Q 875 4013 500 3803 
L 500 4441 
Q 881 4594 1212 4672 
Q 1544 4750 1819 4750 
Q 2544 4750 2975 4387 
Q 3406 4025 3406 3419 
Q 3406 3131 3298 2873 
Q 3191 2616 2906 2266 
Q 2828 2175 2409 1742 
Q 1991 1309 1228 531 
z
" transform="scale(0.015625)"/>
      </defs>
      <use xlink:href="#DejaVuSans-32"/>
     </g>
    </g>
   </g>
  </g>
  <g id="axes_1">
   <g id="Poly3DCollection_1">
    <path d="M 230.013095 130.497825 
L 237.066814 138.34994 
L 241.139053 125.856298 
L 234.089352 118.010632 
z
" clip-path="url(#pe57a5c4434)" style="fill: #c3c3c3"/>
    <path d="M 222.953879 121.56859 
L 230.013095 130.497825 
L 234.089352 118.010632 
L 227.035889 109.083232 
z
" clip-path="url(#pe57a5c4434)" style="fill: #0000bc"/>
    <path d="M 237.066814 138.34994 
L 244.124028 145.13457 
L 248.193973 132.629849 
L 241.139053 125.856298 
z
" clip-path="url(#pe57a5c4434)" style="fill: #0000c9"/>
    <path d="M 215.880159 111.549849 
L 222.953879 121.56859 
L 227.035889 109.083232 
L 219.969671 99.061718 
z
" clip-path="url(#pe57a5c4434)" style="fill: #b7b7b7"/>
    <path d="M 225.925764 141.929834 
L 232.986506 149.791625 
L 237.066814 138.34994 
L 230.013095 130.497825 
z
" clip-path="url(#pe57a5c4434)" style="fill: #0000bf"/>
    <path d="M 218.85778 132.994638 
L 225.925764 141.929834 
L 230.013095 130.497825 
L 222.953879 121.56859 
z
" clip-path="url(#pe57a5c4434)" style="fill: #b8b8b8"/>
    <path d="M 244.124028 145.13457 
L 251.193748 150.858639 
L 255.263119 138.338182 
L 248.193973 132.629849 
z
" clip-path="url(#pe57a5c4434)" style="fill: #d0d0d0"/>
    <path d="M 232.986506 149.791625 
L 240.049014 156.58967 
L 244.124028 145.13457 
L 237.066814 138.34994 
z
" clip-path="url(#pe57a5c4434)" style="fill: #c6c6c6"/>
    <path d="M 211.773524 122.973633 
L 218.85778 132.994638 
L 222.953879 121.56859 
L 215.880159 111.549849 
z
" clip-path="url(#pe57a5c4434)" style="fill: #0000b2"/>
    <path d="M 208.782869 100.426408 
L 215.880159 111.549849 
L 219.969671 99.061718 
L 212.881652 87.93089 
z
" clip-path="url(#pe57a5c4434)" style="fill: #0000b1"/>
    <path d="M 240.049014 156.58967 
L 247.122315 162.330923 
L 251.193748 150.858639 
L 244.124028 145.13457 
z
" clip-path="url(#pe57a5c4434)" style="fill: #0000ce"/>
    <path d="M 221.822102 152.317891 
L 228.892889 160.192609 
L 232.986506 149.791625 
L 225.925764 141.929834 
z
" clip-path="url(#pe57a5c4434)" style="fill: #bbbbbb"/>
    <path d="M 214.742313 143.37259 
L 221.822102 152.317891 
L 225.925764 141.929834 
L 218.85778 132.994638 
z
" clip-path="url(#pe57a5c4434)" style="fill: #0000b4"/>
    <path d="M 251.193748 150.858639 
L 258.285045 155.526381 
L 262.355558 142.985495 
L 255.263119 138.338182 
z
" clip-path="url(#pe57a5c4434)" style="fill: #0000d7"/>
    <path d="M 204.663903 111.851613 
L 211.773524 122.973633 
L 215.880159 111.549849 
L 208.782869 100.426408 
z
" clip-path="url(#pe57a5c4434)" style="fill: #adadad"/>
    <path d="M 228.892889 160.192609 
L 235.963709 167.006435 
L 240.049014 156.58967 
L 232.986506 149.791625 
z
" clip-path="url(#pe57a5c4434)" style="fill: #0000c2"/>
    <path d="M 207.644459 133.344273 
L 214.742313 143.37259 
L 218.85778 132.994638 
L 211.773524 122.973633 
z
" clip-path="url(#pe57a5c4434)" style="fill: #aeaeae"/>
    <path d="M 201.652851 88.180187 
L 208.782869 100.426408 
L 212.881652 87.93089 
L 205.762697 75.672657 
z
" clip-path="url(#pe57a5c4434)" style="fill: #acacac"/>
    <path d="M 247.122315 162.330923 
L 254.215489 167.019655 
L 258.285045 155.526381 
L 251.193748 150.858639 
z
" clip-path="url(#pe57a5c4434)" style="fill: #d5d5d5"/>
    <path d="M 235.963709 167.006435 
L 243.043607 172.766358 
L 247.122315 162.330923 
L 240.049014 156.58967 
z
" clip-path="url(#pe57a5c4434)" style="fill: #cacaca"/>
    <path d="M 200.519416 122.217708 
L 207.644459 133.344273 
L 211.773524 122.973633 
L 204.663903 111.851613 
z
" clip-path="url(#pe57a5c4434)" style="fill: #0000a8"/>
    <path d="M 197.519727 99.610497 
L 204.663903 111.851613 
L 208.782869 100.426408 
L 201.652851 88.180187 
z
" clip-path="url(#pe57a5c4434)" style="fill: #0000a8"/>
    <path d="M 217.696785 161.670616 
L 224.780666 169.561544 
L 228.892889 160.192609 
L 221.822102 152.317891 
z
" clip-path="url(#pe57a5c4434)" style="fill: #0000b6"/>
    <path d="M 258.285045 155.526381 
L 265.407088 159.139344 
L 269.480464 146.57329 
L 262.355558 142.985495 
z
" clip-path="url(#pe57a5c4434)" style="fill: #dedede"/>
    <path d="M 210.602122 152.711036 
L 217.696785 161.670616 
L 221.822102 152.317891 
L 214.742313 143.37259 
z
" clip-path="url(#pe57a5c4434)" style="fill: #afafaf"/>
    <path d="M 224.780666 169.561544 
L 231.862833 176.393552 
L 235.963709 167.006435 
L 228.892889 160.192609 
z
" clip-path="url(#pe57a5c4434)" style="fill: #bebebe"/>
    <path d="M 243.043607 172.766358 
L 250.141681 177.476687 
L 254.215489 167.019655 
L 247.122315 162.330923 
z
" clip-path="url(#pe57a5c4434)" style="fill: #0000d3"/>
    <path d="M 203.487576 142.670333 
L 210.602122 152.711036 
L 214.742313 143.37259 
L 207.644459 133.344273 
z
" clip-path="url(#pe57a5c4434)" style="fill: #0000a9"/>
    <path d="M 254.215489 167.019655 
L 261.337709 170.65746 
L 265.407088 159.139344 
L 258.285045 155.526381 
z
" clip-path="url(#pe57a5c4434)" style="fill: #0000dd"/>
    <path d="M 231.862833 176.393552 
L 238.95236 182.173669 
L 243.043607 172.766358 
L 235.963709 167.006435 
z
" clip-path="url(#pe57a5c4434)" style="fill: #0000c6"/>
    <path d="M 193.357953 109.97479 
L 200.519416 122.217708 
L 204.663903 111.851613 
L 197.519727 99.610497 
z
" clip-path="url(#pe57a5c4434)" style="fill: #a3a3a3"/>
    <path d="M 196.343979 131.533233 
L 203.487576 142.670333 
L 207.644459 133.344273 
L 200.519416 122.217708 
z
" clip-path="url(#pe57a5c4434)" style="fill: #a3a3a3"/>
    <path d="M 265.407088 159.139344 
L 272.569185 161.696381 
L 276.647151 149.100362 
L 269.480464 146.57329 
z
" clip-path="url(#pe57a5c4434)" style="fill: #0000e5"/>
    <path d="M 213.544396 169.994028 
L 220.644453 177.90449 
L 224.780666 169.561544 
L 217.696785 161.670616 
z
" clip-path="url(#pe57a5c4434)" style="fill: #b0b0b0"/>
    <path d="M 250.141681 177.476687 
L 257.267117 181.139059 
L 261.337709 170.65746 
L 254.215489 167.019655 
z
" clip-path="url(#pe57a5c4434)" style="fill: #dbdbdb"/>
    <path d="M 206.431752 161.015958 
L 213.544396 169.994028 
L 217.696785 161.670616 
L 210.602122 152.711036 
z
" clip-path="url(#pe57a5c4434)" style="fill: #0000a9"/>
    <path d="M 238.95236 182.173669 
L 246.058371 186.906245 
L 250.141681 177.476687 
L 243.043607 172.766358 
z
" clip-path="url(#pe57a5c4434)" style="fill: #cfcfcf"/>
    <path d="M 220.644453 177.90449 
L 227.741033 184.757122 
L 231.862833 176.393552 
L 224.780666 169.561544 
z
" clip-path="url(#pe57a5c4434)" style="fill: #0000b8"/>
    <path d="M 199.297375 150.957754 
L 206.431752 161.015958 
L 210.602122 152.711036 
L 203.487576 142.670333 
z
" clip-path="url(#pe57a5c4434)" style="fill: #a3a3a3"/>
    <path d="M 261.337709 170.65746 
L 268.498284 173.243241 
L 272.569185 161.696381 
L 265.407088 159.139344 
z
" clip-path="url(#pe57a5c4434)" style="fill: #e4e4e4"/>
    <path d="M 189.162052 119.281588 
L 196.343979 131.533233 
L 200.519416 122.217708 
L 193.357953 109.97479 
z
" clip-path="url(#pe57a5c4434)" style="fill: #00009e"/>
    <path d="M 227.741033 184.757122 
L 234.843247 190.558999 
L 238.95236 182.173669 
L 231.862833 176.393552 
z
" clip-path="url(#pe57a5c4434)" style="fill: #c1c1c1"/>
    <path d="M 192.132044 139.804087 
L 199.297375 150.957754 
L 203.487576 142.670333 
L 196.343979 131.533233 
z
" clip-path="url(#pe57a5c4434)" style="fill: #00009e"/>
    <path d="M 246.058371 186.906245 
L 253.190073 190.592956 
L 257.267117 181.139059 
L 250.141681 177.476687 
z
" clip-path="url(#pe57a5c4434)" style="fill: #0000d9"/>
    <path d="M 257.267117 181.139059 
L 264.429234 183.752424 
L 268.498284 173.243241 
L 261.337709 170.65746 
z
" clip-path="url(#pe57a5c4434)" style="fill: #0000e3"/>
    <path d="M 234.843247 190.558999 
L 241.960251 195.314512 
L 246.058371 186.906245 
L 238.95236 182.173669 
z
" clip-path="url(#pe57a5c4434)" style="fill: #0000cb"/>
    <path d="M 272.569185 161.696381 
L 279.780822 163.193616 
L 283.865116 150.562767 
L 276.647151 149.100362 
z
" clip-path="url(#pe57a5c4434)" style="fill: #ebebeb"/>
    <path d="M 209.359401 177.291554 
L 216.478759 185.224922 
L 220.644453 177.90449 
L 213.544396 169.994028 
z
" clip-path="url(#pe57a5c4434)" style="fill: #0000a9"/>
    <path d="M 202.225623 168.290727 
L 209.359401 177.291554 
L 213.544396 169.994028 
L 206.431752 161.015958 
z
" clip-path="url(#pe57a5c4434)" style="fill: #a2a2a2"/>
    <path d="M 216.478759 185.224922 
L 223.592854 192.100666 
L 227.741033 184.757122 
L 220.644453 177.90449 
z
" clip-path="url(#pe57a5c4434)" style="fill: #b2b2b2"/>
    <path d="M 184.926425 127.536748 
L 192.132044 139.804087 
L 196.343979 131.533233 
L 189.162052 119.281588 
z
" clip-path="url(#pe57a5c4434)" style="fill: #999999"/>
    <path d="M 195.068223 158.20985 
L 202.225623 168.290727 
L 206.431752 161.015958 
L 199.297375 150.957754 
z
" clip-path="url(#pe57a5c4434)" style="fill: #00009d"/>
    <path d="M 268.498284 173.243241 
L 275.706697 174.773184 
L 279.780822 163.193616 
L 272.569185 161.696381 
z
" clip-path="url(#pe57a5c4434)" style="fill: #0000eb"/>
    <path d="M 223.592854 192.100666 
L 230.710845 197.925911 
L 234.843247 190.558999 
L 227.741033 184.757122 
z
" clip-path="url(#pe57a5c4434)" style="fill: #0000bb"/>
    <path d="M 253.190073 190.592956 
L 260.356799 193.232794 
L 264.429234 183.752424 
L 257.267117 181.139059 
z
" clip-path="url(#pe57a5c4434)" style="fill: #e2e2e2"/>
    <path d="M 241.960251 195.314512 
L 249.101282 199.025376 
L 253.190073 190.592956 
L 246.058371 186.906245 
z
" clip-path="url(#pe57a5c4434)" style="fill: #d5d5d5"/>
    <path d="M 187.877922 147.033525 
L 195.068223 158.20985 
L 199.297375 150.957754 
L 192.132044 139.804087 
z
" clip-path="url(#pe57a5c4434)" style="fill: #989898"/>
    <path d="M 264.429234 183.752424 
L 271.637519 185.313017 
L 275.706697 174.773184 
L 268.498284 173.243241 
z
" clip-path="url(#pe57a5c4434)" style="fill: #ebebeb"/>
    <path d="M 230.710845 197.925911 
L 237.841928 202.705091 
L 241.960251 195.314512 
L 234.843247 190.558999 
z
" clip-path="url(#pe57a5c4434)" style="fill: #c5c5c5"/>
    <path d="M 279.780822 163.193616 
L 287.051707 163.624402 
L 291.144085 150.953777 
L 283.865116 150.562767 
z
" clip-path="url(#pe57a5c4434)" style="fill: #0000f0"/>
    <path d="M 180.64532 134.74346 
L 187.877922 147.033525 
L 192.132044 139.804087 
L 184.926425 127.536748 
z
" clip-path="url(#pe57a5c4434)" style="fill: #000093"/>
    <path d="M 205.136127 183.564004 
L 212.277959 191.523709 
L 216.478759 185.224922 
L 209.359401 177.291554 
z
" clip-path="url(#pe57a5c4434)" style="fill: #a2a2a2"/>
    <path d="M 197.978005 174.536089 
L 205.136127 183.564004 
L 209.359401 177.291554 
L 202.225623 168.290727 
z
" clip-path="url(#pe57a5c4434)" style="fill: #00009b"/>
    <path d="M 212.277959 191.523709 
L 219.412719 198.425104 
L 223.592854 192.100666 
L 216.478759 185.224922 
z
" clip-path="url(#pe57a5c4434)" style="fill: #0000aa"/>
    <path d="M 249.101282 199.025376 
L 256.275698 201.690618 
L 260.356799 193.232794 
L 253.190073 190.592956 
z
" clip-path="url(#pe57a5c4434)" style="fill: #0000df"/>
    <path d="M 275.706697 174.773184 
L 282.972648 175.240706 
L 287.051707 163.624402 
L 279.780822 163.193616 
z
" clip-path="url(#pe57a5c4434)" style="fill: #f1f1f1"/>
    <path d="M 190.794331 164.427298 
L 197.978005 174.536089 
L 202.225623 168.290727 
L 195.068223 158.20985 
z
" clip-path="url(#pe57a5c4434)" style="fill: #969696"/>
    <path d="M 260.356799 193.232794 
L 267.568052 194.822035 
L 271.637519 185.313017 
L 264.429234 183.752424 
z
" clip-path="url(#pe57a5c4434)" style="fill: #0000ea"/>
    <path d="M 237.841928 202.705091 
L 244.995376 206.439957 
L 249.101282 199.025376 
L 241.960251 195.314512 
z
" clip-path="url(#pe57a5c4434)" style="fill: #0000d0"/>
    <path d="M 219.412719 198.425104 
L 226.549618 204.275369 
L 230.710845 197.925911 
L 223.592854 192.100666 
z
" clip-path="url(#pe57a5c4434)" style="fill: #b3b3b3"/>
    <path d="M 183.575757 153.222142 
L 190.794331 164.427298 
L 195.068223 158.20985 
L 187.877922 147.033525 
z
" clip-path="url(#pe57a5c4434)" style="fill: #000091"/>
    <path d="M 271.637519 185.313017 
L 278.901674 185.814311 
L 282.972648 175.240706 
L 275.706697 174.773184 
z
" clip-path="url(#pe57a5c4434)" style="fill: #0000f1"/>
    <path d="M 226.549618 204.275369 
L 233.697901 209.078984 
L 237.841928 202.705091 
L 230.710845 197.925911 
z
" clip-path="url(#pe57a5c4434)" style="fill: #0000be"/>
    <path d="M 256.275698 201.690618 
L 263.493021 203.306546 
L 267.568052 194.822035 
L 260.356799 193.232794 
z
" clip-path="url(#pe57a5c4434)" style="fill: #e8e8e8"/>
    <path d="M 244.995376 206.439957 
L 252.18058 209.129567 
L 256.275698 201.690618 
L 249.101282 199.025376 
z
" clip-path="url(#pe57a5c4434)" style="fill: #dbdbdb"/>
    <path d="M 176.312806 140.902233 
L 183.575757 153.222142 
L 187.877922 147.033525 
L 180.64532 134.74346 
z
" clip-path="url(#pe57a5c4434)" style="fill: #8d8d8d"/>
    <path d="M 287.051707 163.624402 
L 294.391817 162.979249 
L 298.494053 150.263811 
L 291.144085 150.953777 
z
" clip-path="url(#pe57a5c4434)" style="fill: #f5f5f5"/>
    <path d="M 200.868731 188.809546 
L 208.036272 196.799085 
L 212.277959 191.523709 
L 205.136127 183.564004 
z
" clip-path="url(#pe57a5c4434)" style="fill: #00009a"/>
    <path d="M 193.682992 179.750135 
L 200.868731 188.809546 
L 205.136127 183.564004 
L 197.978005 174.536089 
z
" clip-path="url(#pe57a5c4434)" style="fill: #949494"/>
    <path d="M 267.568052 194.822035 
L 274.833542 195.354193 
L 278.901674 185.814311 
L 271.637519 185.313017 
z
" clip-path="url(#pe57a5c4434)" style="fill: #f0f0f0"/>
    <path d="M 208.036272 196.799085 
L 215.1949 203.728727 
L 219.412719 198.425104 
L 212.277959 191.523709 
z
" clip-path="url(#pe57a5c4434)" style="fill: #a1a1a1"/>
    <path d="M 233.697901 209.078984 
L 240.866885 212.837734 
L 244.995376 206.439957 
L 237.841928 202.705091 
z
" clip-path="url(#pe57a5c4434)" style="fill: #cacaca"/>
    <path d="M 282.972648 175.240706 
L 290.306103 174.636395 
L 294.391817 162.979249 
L 287.051707 163.624402 
z
" clip-path="url(#pe57a5c4434)" style="fill: #0000f5"/>
    <path d="M 186.469722 169.608097 
L 193.682992 179.750135 
L 197.978005 174.536089 
L 190.794331 164.427298 
z
" clip-path="url(#pe57a5c4434)" style="fill: #00008f"/>
    <path d="M 215.1949 203.728727 
L 222.353886 209.605712 
L 226.549618 204.275369 
L 219.412719 198.425104 
z
" clip-path="url(#pe57a5c4434)" style="fill: #0000aa"/>
    <path d="M 179.219494 158.367839 
L 186.469722 169.608097 
L 190.794331 164.427298 
L 183.575757 153.222142 
z
" clip-path="url(#pe57a5c4434)" style="fill: #8b8b8b"/>
    <path d="M 278.901674 185.814311 
L 286.231659 185.246952 
L 290.306103 174.636395 
L 282.972648 175.240706 
z
" clip-path="url(#pe57a5c4434)" style="fill: #f6f6f6"/>
    <path d="M 252.18058 209.129567 
L 259.407094 210.770253 
L 263.493021 203.306546 
L 256.275698 201.690618 
z
" clip-path="url(#pe57a5c4434)" style="fill: #0000e5"/>
    <path d="M 222.353886 209.605712 
L 229.522535 214.434566 
L 233.697901 209.078984 
L 226.549618 204.275369 
z
" clip-path="url(#pe57a5c4434)" style="fill: #b5b5b5"/>
    <path d="M 263.493021 203.306546 
L 270.762982 203.866706 
L 274.833542 195.354193 
L 267.568052 194.822035 
z
" clip-path="url(#pe57a5c4434)" style="fill: #0000ef"/>
    <path d="M 240.866885 212.837734 
L 248.066006 215.550702 
L 252.18058 209.129567 
L 244.995376 206.439957 
z
" clip-path="url(#pe57a5c4434)" style="fill: #0000d5"/>
    <path d="M 171.922751 146.010854 
L 179.219494 158.367839 
L 183.575757 153.222142 
L 176.312806 140.902233 
z
" clip-path="url(#pe57a5c4434)" style="fill: #000088"/>
    <path d="M 294.391817 162.979249 
L 301.811442 161.245742 
L 305.925336 148.480349 
L 298.494053 150.263811 
z
" clip-path="url(#pe57a5c4434)" style="fill: #0000f8"/>
    <path d="M 274.833542 195.354193 
L 282.163236 194.819959 
L 286.231659 185.246952 
L 278.901674 185.814311 
z
" clip-path="url(#pe57a5c4434)" style="fill: #0000f5"/>
    <path d="M 196.551175 193.023649 
L 203.747727 201.046596 
L 208.036272 196.799085 
L 200.868731 188.809546 
z
" clip-path="url(#pe57a5c4434)" style="fill: #929292"/>
    <path d="M 229.522535 214.434566 
L 236.710217 218.217109 
L 240.866885 212.837734 
L 233.697901 209.078984 
z
" clip-path="url(#pe57a5c4434)" style="fill: #0000c1"/>
    <path d="M 189.334472 183.928242 
L 196.551175 193.023649 
L 200.868731 188.809546 
L 193.682992 179.750135 
z
" clip-path="url(#pe57a5c4434)" style="fill: #00008c"/>
    <path d="M 203.747727 201.046596 
L 210.933489 208.007144 
L 215.1949 203.728727 
L 208.036272 196.799085 
z
" clip-path="url(#pe57a5c4434)" style="fill: #000099"/>
    <path d="M 290.306103 174.636395 
L 297.717335 172.947919 
L 301.811442 161.245742 
L 294.391817 162.979249 
z
" clip-path="url(#pe57a5c4434)" style="fill: #f9f9f9"/>
    <path d="M 182.088203 173.74752 
L 189.334472 183.928242 
L 193.682992 179.750135 
L 186.469722 169.608097 
z
" clip-path="url(#pe57a5c4434)" style="fill: #888888"/>
    <path d="M 259.407094 210.770253 
L 266.684672 211.355577 
L 270.762982 203.866706 
L 263.493021 203.306546 
z
" clip-path="url(#pe57a5c4434)" style="fill: #ededed"/>
    <path d="M 210.933489 208.007144 
L 218.117802 213.912598 
L 222.353886 209.605712 
L 215.1949 203.728727 
z
" clip-path="url(#pe57a5c4434)" style="fill: #a1a1a1"/>
    <path d="M 248.066006 215.550702 
L 255.304852 217.214235 
L 259.407094 210.770253 
L 252.18058 209.129567 
z
" clip-path="url(#pe57a5c4434)" style="fill: #e0e0e0"/>
    <path d="M 174.802857 162.465768 
L 182.088203 173.74752 
L 186.469722 169.608097 
L 179.219494 158.367839 
z
" clip-path="url(#pe57a5c4434)" style="fill: #000085"/>
    <path d="M 286.231659 185.246952 
L 293.637743 183.598672 
L 297.717335 172.947919 
L 290.306103 174.636395 
z
" clip-path="url(#pe57a5c4434)" style="fill: #0000f9"/>
    <path d="M 270.762982 203.866706 
L 278.095561 203.361812 
L 282.163236 194.819959 
L 274.833542 195.354193 
z
" clip-path="url(#pe57a5c4434)" style="fill: #f5f5f5"/>
    <path d="M 236.710217 218.217109 
L 243.926415 220.952442 
L 248.066006 215.550702 
L 240.866885 212.837734 
z
" clip-path="url(#pe57a5c4434)" style="fill: #cdcdcd"/>
    <path d="M 218.117802 213.912598 
L 225.310035 218.767533 
L 229.522535 214.434566 
L 222.353886 209.605712 
z
" clip-path="url(#pe57a5c4434)" style="fill: #0000ab"/>
    <path d="M 167.468783 150.064339 
L 174.802857 162.465768 
L 179.219494 158.367839 
L 171.922751 146.010854 
z
" clip-path="url(#pe57a5c4434)" style="fill: #828282"/>
    <path d="M 282.163236 194.819959 
L 289.567403 193.207108 
L 293.637743 183.598672 
L 286.231659 185.246952 
z
" clip-path="url(#pe57a5c4434)" style="fill: #f9f9f9"/>
    <path d="M 301.811442 161.245742 
L 309.321236 158.408434 
L 313.448619 145.587827 
L 305.925336 148.480349 
z
" clip-path="url(#pe57a5c4434)" style="fill: #fbfbfb"/>
    <path d="M 225.310035 218.767533 
L 232.519623 222.573799 
L 236.710217 218.217109 
L 229.522535 214.434566 
z
" clip-path="url(#pe57a5c4434)" style="fill: #b7b7b7"/>
    <path d="M 255.304852 217.214235 
L 262.593214 217.821901 
L 266.684672 211.355577 
L 259.407094 210.770253 
z
" clip-path="url(#pe57a5c4434)" style="fill: #0000e9"/>
    <path d="M 192.177195 196.199016 
L 199.40614 204.259034 
L 203.747727 201.046596 
L 196.551175 193.023649 
z
" clip-path="url(#pe57a5c4434)" style="fill: #00008a"/>
    <path d="M 266.684672 211.355577 
L 274.02332 210.876267 
L 278.095561 203.361812 
L 270.762982 203.866706 
z
" clip-path="url(#pe57a5c4434)" style="fill: #0000f2"/>
    <path d="M 184.926096 187.063009 
L 192.177195 196.199016 
L 196.551175 193.023649 
L 189.334472 183.928242 
z
" clip-path="url(#pe57a5c4434)" style="fill: #858585"/>
    <path d="M 243.926415 220.952442 
L 251.180768 222.636919 
L 255.304852 217.214235 
L 248.066006 215.550702 
z
" clip-path="url(#pe57a5c4434)" style="fill: #0000d9"/>
    <path d="M 297.717335 172.947919 
L 305.216979 170.159923 
L 309.321236 158.408434 
L 301.811442 161.245742 
z
" clip-path="url(#pe57a5c4434)" style="fill: #0000fb"/>
    <path d="M 199.40614 204.259034 
L 206.622373 211.253216 
L 210.933489 208.007144 
L 203.747727 201.046596 
z
" clip-path="url(#pe57a5c4434)" style="fill: #909090"/>
    <path d="M 177.643338 176.838041 
L 184.926096 187.063009 
L 189.334472 183.928242 
L 182.088203 173.74752 
z
" clip-path="url(#pe57a5c4434)" style="fill: #000082"/>
    <path d="M 206.622373 211.253216 
L 213.835319 217.18894 
L 218.117802 213.912598 
L 210.933489 208.007144 
z
" clip-path="url(#pe57a5c4434)" style="fill: #000097"/>
    <path d="M 278.095561 203.361812 
L 285.501038 201.779666 
L 289.567403 193.207108 
L 282.163236 194.819959 
z
" clip-path="url(#pe57a5c4434)" style="fill: #0000f8"/>
    <path d="M 170.319312 165.508261 
L 177.643338 176.838041 
L 182.088203 173.74752 
L 174.802857 162.465768 
z
" clip-path="url(#pe57a5c4434)" style="fill: #7f7f7f"/>
    <path d="M 293.637743 183.598672 
L 301.13055 180.854184 
L 305.216979 170.159923 
L 297.717335 172.947919 
z
" clip-path="url(#pe57a5c4434)" style="fill: #fcfcfc"/>
    <path d="M 232.519623 222.573799 
L 239.756108 225.330512 
L 243.926415 220.952442 
L 236.710217 218.217109 
z
" clip-path="url(#pe57a5c4434)" style="fill: #0000c3"/>
    <path d="M 213.835319 217.18894 
L 221.054419 222.070829 
L 225.310035 218.767533 
L 218.117802 213.912598 
z
" clip-path="url(#pe57a5c4434)" style="fill: #a0a0a0"/>
    <path d="M 162.944264 153.054857 
L 170.319312 165.508261 
L 174.802857 162.465768 
L 167.468783 150.064339 
z
" clip-path="url(#pe57a5c4434)" style="fill: #00007c"/>
    <path d="M 262.593214 217.821901 
L 269.94113 217.364419 
L 274.02332 210.876267 
L 266.684672 211.355577 
z
" clip-path="url(#pe57a5c4434)" style="fill: #efefef"/>
    <path d="M 251.180768 222.636919 
L 258.48311 223.264098 
L 262.593214 217.821901 
L 255.304852 217.214235 
z
" clip-path="url(#pe57a5c4434)" style="fill: #e2e2e2"/>
    <path d="M 289.567403 193.207108 
L 297.056666 190.500396 
L 301.13055 180.854184 
L 293.637743 183.598672 
z
" clip-path="url(#pe57a5c4434)" style="fill: #0000fb"/>
    <path d="M 274.02332 210.876267 
L 281.433338 209.320123 
L 285.501038 201.779666 
L 278.095561 203.361812 
z
" clip-path="url(#pe57a5c4434)" style="fill: #f6f6f6"/>
    <path d="M 221.054419 222.070829 
L 228.28918 225.900766 
L 232.519623 222.573799 
L 225.310035 218.767533 
z
" clip-path="url(#pe57a5c4434)" style="fill: #0000ab"/>
    <path d="M 309.321236 158.408434 
L 316.932274 154.448712 
L 321.075012 141.567501 
L 313.448619 145.587827 
z
" clip-path="url(#pe57a5c4434)" style="fill: #0000fd"/>
    <path d="M 239.756108 225.330512 
L 247.029182 227.034022 
L 251.180768 222.636919 
L 243.926415 220.952442 
z
" clip-path="url(#pe57a5c4434)" style="fill: #cfcfcf"/>
    <path d="M 187.740271 198.325496 
L 195.005076 206.426344 
L 199.40614 204.259034 
L 192.177195 196.199016 
z
" clip-path="url(#pe57a5c4434)" style="fill: #828282"/>
    <path d="M 180.45125 189.144163 
L 187.740271 198.325496 
L 192.177195 196.199016 
L 184.926096 187.063009 
z
" clip-path="url(#pe57a5c4434)" style="fill: #00007e"/>
    <path d="M 305.216979 170.159923 
L 312.816084 166.253898 
L 316.932274 154.448712 
L 309.321236 158.408434 
z
" clip-path="url(#pe57a5c4434)" style="fill: #fdfdfd"/>
    <path d="M 195.005076 206.426344 
L 202.255203 213.456965 
L 206.622373 211.253216 
L 199.40614 204.259034 
z
" clip-path="url(#pe57a5c4434)" style="fill: #000088"/>
    <path d="M 173.128408 178.869246 
L 180.45125 189.144163 
L 184.926096 187.063009 
L 177.643338 176.838041 
z
" clip-path="url(#pe57a5c4434)" style="fill: #7b7b7b"/>
    <path d="M 285.501038 201.779666 
L 292.990045 199.105044 
L 297.056666 190.500396 
L 289.567403 193.207108 
z
" clip-path="url(#pe57a5c4434)" style="fill: #fafafa"/>
    <path d="M 202.255203 213.456965 
L 209.500163 219.424813 
L 213.835319 217.18894 
L 206.622373 211.253216 
z
" clip-path="url(#pe57a5c4434)" style="fill: #8e8e8e"/>
    <path d="M 228.28918 225.900766 
L 235.549211 228.677874 
L 239.756108 225.330512 
L 232.519623 222.573799 
z
" clip-path="url(#pe57a5c4434)" style="fill: #b7b7b7"/>
    <path d="M 301.13055 180.854184 
L 308.721112 176.995055 
L 312.816084 166.253898 
L 305.216979 170.159923 
z
" clip-path="url(#pe57a5c4434)" style="fill: #0000fd"/>
    <path d="M 165.762032 167.484736 
L 173.128408 178.869246 
L 177.643338 176.838041 
L 170.319312 165.508261 
z
" clip-path="url(#pe57a5c4434)" style="fill: #000079"/>
    <path d="M 258.48311 223.264098 
L 265.843518 222.824677 
L 269.94113 217.364419 
L 262.593214 217.821901 
z
" clip-path="url(#pe57a5c4434)" style="fill: #0000e9"/>
    <path d="M 269.94113 217.364419 
L 277.35893 215.829575 
L 281.433338 209.320123 
L 274.02332 210.876267 
z
" clip-path="url(#pe57a5c4434)" style="fill: #0000f2"/>
    <path d="M 209.500163 219.424813 
L 216.749484 224.334567 
L 221.054419 222.070829 
L 213.835319 217.18894 
z
" clip-path="url(#pe57a5c4434)" style="fill: #000096"/>
    <path d="M 247.029182 227.034022 
L 254.348733 227.677868 
L 258.48311 223.264098 
L 251.180768 222.636919 
z
" clip-path="url(#pe57a5c4434)" style="fill: #0000d9"/>
    <path d="M 158.342253 154.971638 
L 165.762032 167.484736 
L 170.319312 165.508261 
L 162.944264 153.054857 
z
" clip-path="url(#pe57a5c4434)" style="fill: #777777"/>
    <path d="M 297.056666 190.500396 
L 304.642055 186.681436 
L 308.721112 176.995055 
L 301.13055 180.854184 
z
" clip-path="url(#pe57a5c4434)" style="fill: #fdfdfd"/>
    <path d="M 281.433338 209.320123 
L 288.925374 206.671921 
L 292.990045 199.105044 
L 285.501038 201.779666 
z
" clip-path="url(#pe57a5c4434)" style="fill: #0000f8"/>
    <path d="M 235.549211 228.677874 
L 242.844269 230.398491 
L 247.029182 227.034022 
L 239.756108 225.330512 
z
" clip-path="url(#pe57a5c4434)" style="fill: #0000c3"/>
    <path d="M 216.749484 224.334567 
L 224.012752 228.188134 
L 228.28918 225.900766 
L 221.054419 222.070829 
z
" clip-path="url(#pe57a5c4434)" style="fill: #a0a0a0"/>
    <path d="M 316.932274 154.448712 
L 324.656108 149.344652 
L 328.816106 136.397301 
L 321.075012 141.567501 
z
" clip-path="url(#pe57a5c4434)" style="fill: #fefefe"/>
    <path d="M 183.233588 199.389969 
L 190.537822 207.535517 
L 195.005076 206.426344 
L 187.740271 198.325496 
z
" clip-path="url(#pe57a5c4434)" style="fill: #00007c"/>
    <path d="M 175.903013 190.158451 
L 183.233588 199.389969 
L 187.740271 198.325496 
L 180.45125 189.144163 
z
" clip-path="url(#pe57a5c4434)" style="fill: #797979"/>
    <path d="M 312.816084 166.253898 
L 320.526172 161.20803 
L 324.656108 149.344652 
L 316.932274 154.448712 
z
" clip-path="url(#pe57a5c4434)" style="fill: #0000fe"/>
    <path d="M 292.990045 199.105044 
L 300.573616 195.319573 
L 304.642055 186.681436 
L 297.056666 190.500396 
z
" clip-path="url(#pe57a5c4434)" style="fill: #0000fb"/>
    <path d="M 190.537822 207.535517 
L 197.825357 214.605465 
L 202.255203 213.456965 
L 195.005076 206.426344 
z
" clip-path="url(#pe57a5c4434)" style="fill: #808080"/>
    <path d="M 265.843518 222.824677 
L 273.272361 221.306404 
L 277.35893 215.829575 
L 269.94113 217.364419 
z
" clip-path="url(#pe57a5c4434)" style="fill: #ededed"/>
    <path d="M 254.348733 227.677868 
L 261.724888 227.252706 
L 265.843518 222.824677 
L 258.48311 223.264098 
z
" clip-path="url(#pe57a5c4434)" style="fill: #e0e0e0"/>
    <path d="M 168.536382 179.827717 
L 175.903013 190.158451 
L 180.45125 189.144163 
L 173.128408 178.869246 
z
" clip-path="url(#pe57a5c4434)" style="fill: #000076"/>
    <path d="M 224.012752 228.188134 
L 231.299652 230.984642 
L 235.549211 228.677874 
L 228.28918 225.900766 
z
" clip-path="url(#pe57a5c4434)" style="fill: #0000ab"/>
    <path d="M 197.825357 214.605465 
L 205.105802 220.607351 
L 209.500163 219.424813 
L 202.255203 213.456965 
z
" clip-path="url(#pe57a5c4434)" style="fill: #000086"/>
    <path d="M 277.35893 215.829575 
L 284.857289 213.202114 
L 288.925374 206.671921 
L 281.433338 209.320123 
z
" clip-path="url(#pe57a5c4434)" style="fill: #f5f5f5"/>
    <path d="M 308.721112 176.995055 
L 316.420934 171.999547 
L 320.526172 161.20803 
L 312.816084 166.253898 
z
" clip-path="url(#pe57a5c4434)" style="fill: #fefefe"/>
    <path d="M 242.844269 230.398491 
L 250.184304 231.05612 
L 254.348733 227.677868 
L 247.029182 227.034022 
z
" clip-path="url(#pe57a5c4434)" style="fill: #cdcdcd"/>
    <path d="M 161.123864 168.381586 
L 168.536382 179.827717 
L 173.128408 178.869246 
L 165.762032 167.484736 
z
" clip-path="url(#pe57a5c4434)" style="fill: #747474"/>
    <path d="M 205.105802 220.607351 
L 212.388778 225.545909 
L 216.749484 224.334567 
L 209.500163 219.424813 
z
" clip-path="url(#pe57a5c4434)" style="fill: #8d8d8d"/>
    <path d="M 288.925374 206.671921 
L 296.510478 202.913274 
L 300.573616 195.319573 
L 292.990045 199.105044 
z
" clip-path="url(#pe57a5c4434)" style="fill: #f9f9f9"/>
    <path d="M 153.655468 155.800854 
L 161.123864 168.381586 
L 165.762032 167.484736 
L 158.342253 154.971638 
z
" clip-path="url(#pe57a5c4434)" style="fill: #000072"/>
    <path d="M 304.642055 186.681436 
L 312.335064 181.728538 
L 316.420934 171.999547 
L 308.721112 176.995055 
z
" clip-path="url(#pe57a5c4434)" style="fill: #0000fd"/>
    <path d="M 231.299652 230.984642 
L 238.620015 232.720406 
L 242.844269 230.398491 
L 235.549211 228.677874 
z
" clip-path="url(#pe57a5c4434)" style="fill: #b7b7b7"/>
    <path d="M 212.388778 225.545909 
L 219.683962 229.423073 
L 224.012752 228.188134 
L 216.749484 224.334567 
z
" clip-path="url(#pe57a5c4434)" style="fill: #000096"/>
    <path d="M 261.724888 227.252706 
L 269.168066 225.746226 
L 273.272361 221.306404 
L 265.843518 222.824677 
z
" clip-path="url(#pe57a5c4434)" style="fill: #0000e5"/>
    <path d="M 273.272361 221.306404 
L 280.780353 218.69397 
L 284.857289 213.202114 
L 277.35893 215.829575 
z
" clip-path="url(#pe57a5c4434)" style="fill: #0000ef"/>
    <path d="M 324.656108 149.344652 
L 332.504828 143.070832 
L 336.684039 130.051644 
L 328.816106 136.397301 
z
" clip-path="url(#pe57a5c4434)" style="fill: #0000ff"/>
    <path d="M 250.184304 231.05612 
L 257.579503 230.641361 
L 261.724888 227.252706 
L 254.348733 227.677868 
z
" clip-path="url(#pe57a5c4434)" style="fill: #0000d5"/>
    <path d="M 300.573616 195.319573 
L 308.263248 190.401578 
L 312.335064 181.728538 
L 304.642055 186.681436 
z
" clip-path="url(#pe57a5c4434)" style="fill: #fcfcfc"/>
    <path d="M 178.650002 199.376218 
L 185.997344 207.570457 
L 190.537822 207.535517 
L 183.233588 199.389969 
z
" clip-path="url(#pe57a5c4434)" style="fill: #777777"/>
    <path d="M 320.526172 161.20803 
L 328.3593 154.997021 
L 332.504828 143.070832 
L 324.656108 149.344652 
z
" clip-path="url(#pe57a5c4434)" style="fill: #ffffff"/>
    <path d="M 171.274122 190.0895 
L 178.650002 199.376218 
L 183.233588 199.389969 
L 175.903013 190.158451 
z
" clip-path="url(#pe57a5c4434)" style="fill: #000074"/>
    <path d="M 284.857289 213.202114 
L 292.447283 209.46361 
L 296.510478 202.913274 
L 288.925374 206.671921 
z
" clip-path="url(#pe57a5c4434)" style="fill: #0000f5"/>
    <path d="M 185.997344 207.570457 
L 193.325905 214.682711 
L 197.825357 214.605465 
L 190.537822 207.535517 
z
" clip-path="url(#pe57a5c4434)" style="fill: #00007b"/>
    <path d="M 219.683962 229.423073 
L 227.001125 232.237967 
L 231.299652 230.984642 
L 224.012752 228.188134 
z
" clip-path="url(#pe57a5c4434)" style="fill: #a0a0a0"/>
    <path d="M 238.620015 232.720406 
L 245.983863 233.388881 
L 250.184304 231.05612 
L 242.844269 230.398491 
z
" clip-path="url(#pe57a5c4434)" style="fill: #0000c1"/>
    <path d="M 163.859871 179.696899 
L 171.274122 190.0895 
L 175.903013 190.158451 
L 168.536382 179.827717 
z
" clip-path="url(#pe57a5c4434)" style="fill: #717171"/>
    <path d="M 193.325905 214.682711 
L 200.645402 220.720609 
L 205.105802 220.607351 
L 197.825357 214.605465 
z
" clip-path="url(#pe57a5c4434)" style="fill: #808080"/>
    <path d="M 316.420934 171.999547 
L 324.242049 165.842448 
L 328.3593 154.997021 
L 320.526172 161.20803 
z
" clip-path="url(#pe57a5c4434)" style="fill: #0000fe"/>
    <path d="M 156.397288 168.182039 
L 163.859871 179.696899 
L 168.536382 179.827717 
L 161.123864 168.381586 
z
" clip-path="url(#pe57a5c4434)" style="fill: #000070"/>
    <path d="M 296.510478 202.913274 
L 304.20016 198.022487 
L 308.263248 190.401578 
L 300.573616 195.319573 
z
" clip-path="url(#pe57a5c4434)" style="fill: #0000f9"/>
    <path d="M 200.645402 220.720609 
L 207.965561 225.688943 
L 212.388778 225.545909 
L 205.105802 220.607351 
z
" clip-path="url(#pe57a5c4434)" style="fill: #000086"/>
    <path d="M 227.001125 232.237967 
L 234.350182 233.986873 
L 238.620015 232.720406 
L 231.299652 230.984642 
z
" clip-path="url(#pe57a5c4434)" style="fill: #0000ab"/>
    <path d="M 269.168066 225.746226 
L 276.689026 223.14304 
L 280.780353 218.69397 
L 273.272361 221.306404 
z
" clip-path="url(#pe57a5c4434)" style="fill: #e8e8e8"/>
    <path d="M 148.876247 155.525483 
L 156.397288 168.182039 
L 161.123864 168.381586 
L 153.655468 155.800854 
z
" clip-path="url(#pe57a5c4434)" style="fill: #6e6e6e"/>
    <path d="M 257.579503 230.641361 
L 265.040343 229.141822 
L 269.168066 225.746226 
L 261.724888 227.252706 
z
" clip-path="url(#pe57a5c4434)" style="fill: #dbdbdb"/>
    <path d="M 312.335064 181.728538 
L 320.147715 175.616533 
L 324.242049 165.842448 
L 316.420934 171.999547 
z
" clip-path="url(#pe57a5c4434)" style="fill: #fdfdfd"/>
    <path d="M 280.780353 218.69397 
L 288.378605 214.968878 
L 292.447283 209.46361 
L 284.857289 213.202114 
z
" clip-path="url(#pe57a5c4434)" style="fill: #f0f0f0"/>
    <path d="M 207.965561 225.688943 
L 215.296158 229.58967 
L 219.683962 229.423073 
L 212.388778 225.545909 
z
" clip-path="url(#pe57a5c4434)" style="fill: #8e8e8e"/>
    <path d="M 245.983863 233.388881 
L 253.401452 232.980591 
L 257.579503 230.641361 
L 250.184304 231.05612 
z
" clip-path="url(#pe57a5c4434)" style="fill: #cacaca"/>
    <path d="M 332.504828 143.070832 
L 340.491136 135.598127 
L 344.691562 122.501227 
L 336.684039 130.051644 
z
" clip-path="url(#pe57a5c4434)" style="fill: #ffffff"/>
    <path d="M 308.263248 190.401578 
L 316.070961 184.325898 
L 320.147715 175.616533 
L 312.335064 181.728538 
z
" clip-path="url(#pe57a5c4434)" style="fill: #0000fb"/>
    <path d="M 292.447283 209.46361 
L 300.140444 204.592311 
L 304.20016 198.022487 
L 296.510478 202.913274 
z
" clip-path="url(#pe57a5c4434)" style="fill: #f6f6f6"/>
    <path d="M 234.350182 233.986873 
L 241.741234 234.663183 
L 245.983863 233.388881 
L 238.620015 232.720406 
z
" clip-path="url(#pe57a5c4434)" style="fill: #b5b5b5"/>
    <path d="M 328.3593 154.997021 
L 336.328129 147.591879 
L 340.491136 135.598127 
L 332.504828 143.070832 
z
" clip-path="url(#pe57a5c4434)" style="fill: #0000ff"/>
    <path d="M 215.296158 229.58967 
L 222.64706 232.421905 
L 227.001125 232.237967 
L 219.683962 229.423073 
z
" clip-path="url(#pe57a5c4434)" style="fill: #000097"/>
    <path d="M 173.981997 198.264765 
L 181.37625 206.51182 
L 185.997344 207.570457 
L 178.650002 199.376218 
z
" clip-path="url(#pe57a5c4434)" style="fill: #000072"/>
    <path d="M 166.556933 188.917664 
L 173.981997 198.264765 
L 178.650002 199.376218 
L 171.274122 190.0895 
z
" clip-path="url(#pe57a5c4434)" style="fill: #707070"/>
    <path d="M 181.37625 206.51182 
L 188.74957 213.669459 
L 193.325905 214.682711 
L 185.997344 207.570457 
z
" clip-path="url(#pe57a5c4434)" style="fill: #767676"/>
    <path d="M 159.091091 178.456938 
L 166.556933 188.917664 
L 171.274122 190.0895 
L 163.859871 179.696899 
z
" clip-path="url(#pe57a5c4434)" style="fill: #00006e"/>
    <path d="M 188.74957 213.669459 
L 196.111798 219.745408 
L 200.645402 220.720609 
L 193.325905 214.682711 
z
" clip-path="url(#pe57a5c4434)" style="fill: #00007b"/>
    <path d="M 265.040343 229.141822 
L 272.577641 226.54201 
L 276.689026 223.14304 
L 269.168066 225.746226 
z
" clip-path="url(#pe57a5c4434)" style="fill: #0000df"/>
    <path d="M 324.242049 165.842448 
L 332.197091 158.494856 
L 336.328129 147.591879 
L 328.3593 154.997021 
z
" clip-path="url(#pe57a5c4434)" style="fill: #fefefe"/>
    <path d="M 276.689026 223.14304 
L 284.298925 219.424549 
L 288.378605 214.968878 
L 280.780353 218.69397 
z
" clip-path="url(#pe57a5c4434)" style="fill: #0000ea"/>
    <path d="M 151.574371 166.865994 
L 159.091091 178.456938 
L 163.859871 179.696899 
L 156.397288 168.182039 
z
" clip-path="url(#pe57a5c4434)" style="fill: #6c6c6c"/>
    <path d="M 253.401452 232.980591 
L 260.883328 231.48304 
L 265.040343 229.141822 
L 257.579503 230.641361 
z
" clip-path="url(#pe57a5c4434)" style="fill: #0000d0"/>
    <path d="M 304.20016 198.022487 
L 312.006452 191.974369 
L 316.070961 184.325898 
L 308.263248 190.401578 
z
" clip-path="url(#pe57a5c4434)" style="fill: #f9f9f9"/>
    <path d="M 196.111798 219.745408 
L 203.47277 224.744518 
L 207.965561 225.688943 
L 200.645402 220.720609 
z
" clip-path="url(#pe57a5c4434)" style="fill: #808080"/>
    <path d="M 222.64706 232.421905 
L 230.028275 234.181888 
L 234.350182 233.986873 
L 227.001125 232.237967 
z
" clip-path="url(#pe57a5c4434)" style="fill: #a1a1a1"/>
    <path d="M 288.378605 214.968878 
L 296.078682 210.109288 
L 300.140444 204.592311 
L 292.447283 209.46361 
z
" clip-path="url(#pe57a5c4434)" style="fill: #0000f1"/>
    <path d="M 320.147715 175.616533 
L 328.092626 168.316567 
L 332.197091 158.494856 
L 324.242049 165.842448 
z
" clip-path="url(#pe57a5c4434)" style="fill: #0000fd"/>
    <path d="M 143.996501 154.125141 
L 151.574371 166.865994 
L 156.397288 168.182039 
L 148.876247 155.525483 
z
" clip-path="url(#pe57a5c4434)" style="fill: #00006b"/>
    <path d="M 241.741234 234.663183 
L 249.184619 234.257328 
L 253.401452 232.980591 
L 245.983863 233.388881 
z
" clip-path="url(#pe57a5c4434)" style="fill: #0000be"/>
    <path d="M 203.47277 224.744518 
L 210.842374 228.668769 
L 215.296158 229.58967 
L 207.965561 225.688943 
z
" clip-path="url(#pe57a5c4434)" style="fill: #000088"/>
    <path d="M 300.140444 204.592311 
L 307.948826 198.562958 
L 312.006452 191.974369 
L 304.20016 198.022487 
z
" clip-path="url(#pe57a5c4434)" style="fill: #0000f5"/>
    <path d="M 316.070961 184.325898 
L 324.009372 177.063681 
L 328.092626 168.316567 
L 320.147715 175.616533 
z
" clip-path="url(#pe57a5c4434)" style="fill: #fbfbfb"/>
    <path d="M 230.028275 234.181888 
L 237.449996 234.862932 
L 241.741234 234.663183 
L 234.350182 233.986873 
z
" clip-path="url(#pe57a5c4434)" style="fill: #0000aa"/>
    <path d="M 272.577641 226.54201 
L 280.202607 222.823193 
L 284.298925 219.424549 
L 276.689026 223.14304 
z
" clip-path="url(#pe57a5c4434)" style="fill: #e2e2e2"/>
    <path d="M 260.883328 231.48304 
L 268.440373 228.880603 
L 272.577641 226.54201 
L 265.040343 229.141822 
z
" clip-path="url(#pe57a5c4434)" style="fill: #d5d5d5"/>
    <path d="M 210.842374 228.668769 
L 218.230583 231.517261 
L 222.64706 232.421905 
L 215.296158 229.58967 
z
" clip-path="url(#pe57a5c4434)" style="fill: #909090"/>
    <path d="M 169.221643 196.032689 
L 176.666744 204.336835 
L 181.37625 206.51182 
L 173.981997 198.264765 
z
" clip-path="url(#pe57a5c4434)" style="fill: #6f6f6f"/>
    <path d="M 161.743369 186.61983 
L 169.221643 196.032689 
L 173.981997 198.264765 
L 166.556933 188.917664 
z
" clip-path="url(#pe57a5c4434)" style="fill: #00006d"/>
    <path d="M 284.298925 219.424549 
L 292.009374 214.568788 
L 296.078682 210.109288 
L 288.378605 214.968878 
z
" clip-path="url(#pe57a5c4434)" style="fill: #ebebeb"/>
    <path d="M 176.666744 204.336835 
L 184.088688 211.543045 
L 188.74957 213.669459 
L 181.37625 206.51182 
z
" clip-path="url(#pe57a5c4434)" style="fill: #000072"/>
    <path d="M 249.184619 234.257328 
L 256.690959 232.756685 
L 260.883328 231.48304 
L 253.401452 232.980591 
z
" clip-path="url(#pe57a5c4434)" style="fill: #c5c5c5"/>
    <path d="M 154.221812 176.084489 
L 161.743369 186.61983 
L 166.556933 188.917664 
L 159.091091 178.456938 
z
" clip-path="url(#pe57a5c4434)" style="fill: #6b6b6b"/>
    <path d="M 184.088688 211.543045 
L 191.497444 217.659151 
L 196.111798 219.745408 
L 188.74957 213.669459 
z
" clip-path="url(#pe57a5c4434)" style="fill: #777777"/>
    <path d="M 312.006452 191.974369 
L 319.941977 184.740026 
L 324.009372 177.063681 
L 316.070961 184.325898 
z
" clip-path="url(#pe57a5c4434)" style="fill: #0000f8"/>
    <path d="M 146.646722 164.409834 
L 154.221812 176.084489 
L 159.091091 178.456938 
L 151.574371 166.865994 
z
" clip-path="url(#pe57a5c4434)" style="fill: #000069"/>
    <path d="M 296.078682 210.109288 
L 303.892672 204.08983 
L 307.948826 198.562958 
L 300.140444 204.592311 
z
" clip-path="url(#pe57a5c4434)" style="fill: #f1f1f1"/>
    <path d="M 218.230583 231.517261 
L 225.647508 233.286178 
L 230.028275 234.181888 
L 222.64706 232.421905 
z
" clip-path="url(#pe57a5c4434)" style="fill: #000099"/>
    <path d="M 237.449996 234.862932 
L 244.922649 234.455353 
L 249.184619 234.257328 
L 241.741234 234.663183 
z
" clip-path="url(#pe57a5c4434)" style="fill: #b3b3b3"/>
    <path d="M 191.497444 217.659151 
L 198.902976 222.690066 
L 203.47277 224.744518 
L 196.111798 219.745408 
z
" clip-path="url(#pe57a5c4434)" style="fill: #00007c"/>
    <path d="M 139.007665 151.57589 
L 146.646722 164.409834 
L 151.574371 166.865994 
L 143.996501 154.125141 
z
" clip-path="url(#pe57a5c4434)" style="fill: #686868"/>
    <path d="M 198.902976 222.690066 
L 206.315289 226.637791 
L 210.842374 228.668769 
L 203.47277 224.744518 
z
" clip-path="url(#pe57a5c4434)" style="fill: #828282"/>
    <path d="M 268.440373 228.880603 
L 276.083868 225.154382 
L 280.202607 222.823193 
L 272.577641 226.54201 
z
" clip-path="url(#pe57a5c4434)" style="fill: #0000d9"/>
    <path d="M 307.948826 198.562958 
L 315.885073 191.346573 
L 319.941977 184.740026 
L 312.006452 191.974369 
z
" clip-path="url(#pe57a5c4434)" style="fill: #f5f5f5"/>
    <path d="M 280.202607 222.823193 
L 287.926911 217.963245 
L 292.009374 214.568788 
L 284.298925 219.424549 
z
" clip-path="url(#pe57a5c4434)" style="fill: #0000e3"/>
    <path d="M 256.690959 232.756685 
L 264.271215 230.145465 
L 268.440373 228.880603 
L 260.883328 231.48304 
z
" clip-path="url(#pe57a5c4434)" style="fill: #0000cb"/>
    <path d="M 225.647508 233.286178 
L 233.103445 233.968739 
L 237.449996 234.862932 
L 230.028275 234.181888 
z
" clip-path="url(#pe57a5c4434)" style="fill: #a1a1a1"/>
    <path d="M 292.009374 214.568788 
L 299.832505 208.550238 
L 303.892672 204.08983 
L 296.078682 210.109288 
z
" clip-path="url(#pe57a5c4434)" style="fill: #0000eb"/>
    <path d="M 206.315289 226.637791 
L 213.744476 229.5014 
L 218.230583 231.517261 
L 210.842374 228.668769 
z
" clip-path="url(#pe57a5c4434)" style="fill: #00008a"/>
    <path d="M 244.922649 234.455353 
L 252.456947 232.946378 
L 256.690959 232.756685 
L 249.184619 234.257328 
z
" clip-path="url(#pe57a5c4434)" style="fill: #0000bb"/>
    <path d="M 164.360543 192.653406 
L 171.860581 201.019081 
L 176.666744 204.336835 
L 169.221643 196.032689 
z
" clip-path="url(#pe57a5c4434)" style="fill: #00006d"/>
    <path d="M 156.824874 183.169205 
L 164.360543 192.653406 
L 169.221643 196.032689 
L 161.743369 186.61983 
z
" clip-path="url(#pe57a5c4434)" style="fill: #6a6a6a"/>
    <path d="M 171.860581 201.019081 
L 179.335154 208.277167 
L 184.088688 211.543045 
L 176.666744 204.336835 
z
" clip-path="url(#pe57a5c4434)" style="fill: #707070"/>
    <path d="M 149.24331 172.552499 
L 156.824874 183.169205 
L 161.743369 186.61983 
L 154.221812 176.084489 
z
" clip-path="url(#pe57a5c4434)" style="fill: #000068"/>
    <path d="M 303.892672 204.08983 
L 311.833252 196.881395 
L 315.885073 191.346573 
L 307.948826 198.562958 
z
" clip-path="url(#pe57a5c4434)" style="fill: #0000f0"/>
    <path d="M 179.335154 208.277167 
L 186.794372 214.435609 
L 191.497444 217.659151 
L 184.088688 211.543045 
z
" clip-path="url(#pe57a5c4434)" style="fill: #000074"/>
    <path d="M 233.103445 233.968739 
L 240.608919 233.555127 
L 244.922649 234.455353 
L 237.449996 234.862932 
z
" clip-path="url(#pe57a5c4434)" style="fill: #0000aa"/>
    <path d="M 213.744476 229.5014 
L 221.200762 231.277014 
L 225.647508 233.286178 
L 218.230583 231.517261 
z
" clip-path="url(#pe57a5c4434)" style="fill: #929292"/>
    <path d="M 141.605435 160.786197 
L 149.24331 172.552499 
L 154.221812 176.084489 
L 146.646722 164.409834 
z
" clip-path="url(#pe57a5c4434)" style="fill: #676767"/>
    <path d="M 276.083868 225.154382 
L 283.825547 220.282052 
L 287.926911 217.963245 
L 280.202607 222.823193 
z
" clip-path="url(#pe57a5c4434)" style="fill: #dbdbdb"/>
    <path d="M 186.794372 214.435609 
L 194.248337 219.499385 
L 198.902976 222.690066 
L 191.497444 217.659151 
z
" clip-path="url(#pe57a5c4434)" style="fill: #797979"/>
    <path d="M 264.271215 230.145465 
L 271.936746 226.404573 
L 276.083868 225.154382 
L 268.440373 228.880603 
z
" clip-path="url(#pe57a5c4434)" style="fill: #cfcfcf"/>
    <path d="M 133.900642 147.850011 
L 141.605435 160.786197 
L 146.646722 164.409834 
L 139.007665 151.57589 
z
" clip-path="url(#pe57a5c4434)" style="fill: #000066"/>
    <path d="M 287.926911 217.963245 
L 295.762742 211.936455 
L 299.832505 208.550238 
L 292.009374 214.568788 
z
" clip-path="url(#pe57a5c4434)" style="fill: #e4e4e4"/>
    <path d="M 252.456947 232.946378 
L 260.063939 230.320024 
L 264.271215 230.145465 
L 256.690959 232.756685 
z
" clip-path="url(#pe57a5c4434)" style="fill: #c1c1c1"/>
    <path d="M 194.248337 219.499385 
L 201.707184 223.470511 
L 206.315289 226.637791 
L 198.902976 222.690066 
z
" clip-path="url(#pe57a5c4434)" style="fill: #00007e"/>
    <path d="M 221.200762 231.277014 
L 228.694554 231.957741 
L 233.103445 233.968739 
L 225.647508 233.286178 
z
" clip-path="url(#pe57a5c4434)" style="fill: #00009a"/>
    <path d="M 299.832505 208.550238 
L 307.781041 201.339613 
L 311.833252 196.881395 
L 303.892672 204.08983 
z
" clip-path="url(#pe57a5c4434)" style="fill: #ebebeb"/>
    <path d="M 240.608919 233.555127 
L 248.174743 232.032389 
L 252.456947 232.946378 
L 244.922649 234.455353 
z
" clip-path="url(#pe57a5c4434)" style="fill: #b2b2b2"/>
    <path d="M 201.707184 223.470511 
L 209.181136 226.348034 
L 213.744476 229.5014 
L 206.315289 226.637791 
z
" clip-path="url(#pe57a5c4434)" style="fill: #858585"/>
    <path d="M 159.389778 188.096422 
L 166.949009 196.528245 
L 171.860581 201.019081 
L 164.360543 192.653406 
z
" clip-path="url(#pe57a5c4434)" style="fill: #6b6b6b"/>
    <path d="M 151.792354 178.535061 
L 159.389778 188.096422 
L 164.360543 192.653406 
L 156.824874 183.169205 
z
" clip-path="url(#pe57a5c4434)" style="fill: #000068"/>
    <path d="M 271.936746 226.404573 
L 279.699365 221.511446 
L 283.825547 220.282052 
L 276.083868 225.154382 
z
" clip-path="url(#pe57a5c4434)" style="fill: #0000d3"/>
    <path d="M 166.949009 196.528245 
L 174.480374 203.84164 
L 179.335154 208.277167 
L 171.860581 201.019081 
z
" clip-path="url(#pe57a5c4434)" style="fill: #00006e"/>
    <path d="M 283.825547 220.282052 
L 291.677667 214.237668 
L 295.762742 211.936455 
L 287.926911 217.963245 
z
" clip-path="url(#pe57a5c4434)" style="fill: #0000dd"/>
    <path d="M 228.694554 231.957741 
L 236.236491 231.533605 
L 240.608919 233.555127 
L 233.103445 233.968739 
z
" clip-path="url(#pe57a5c4434)" style="fill: #a2a2a2"/>
    <path d="M 144.146303 167.829953 
L 151.792354 178.535061 
L 156.824874 183.169205 
L 149.24331 172.552499 
z
" clip-path="url(#pe57a5c4434)" style="fill: #666666"/>
    <path d="M 260.063939 230.320024 
L 267.755073 226.556964 
L 271.936746 226.404573 
L 264.271215 230.145465 
z
" clip-path="url(#pe57a5c4434)" style="fill: #0000c6"/>
    <path d="M 174.480374 203.84164 
L 181.994138 210.044672 
L 186.794372 214.435609 
L 179.335154 208.277167 
z
" clip-path="url(#pe57a5c4434)" style="fill: #717171"/>
    <path d="M 209.181136 226.348034 
L 216.680543 228.127994 
L 221.200762 231.277014 
L 213.744476 229.5014 
z
" clip-path="url(#pe57a5c4434)" style="fill: #00008c"/>
    <path d="M 136.441034 155.963724 
L 144.146303 167.829953 
L 149.24331 172.552499 
L 141.605435 160.786197 
z
" clip-path="url(#pe57a5c4434)" style="fill: #000065"/>
    <path d="M 295.762742 211.936455 
L 303.722877 204.713311 
L 307.781041 201.339613 
L 299.832505 208.550238 
z
" clip-path="url(#pe57a5c4434)" style="fill: #0000e5"/>
    <path d="M 248.174743 232.032389 
L 255.812066 229.384321 
L 260.063939 230.320024 
L 252.456947 232.946378 
z
" clip-path="url(#pe57a5c4434)" style="fill: #0000b8"/>
    <path d="M 181.994138 210.044672 
L 189.500549 215.142386 
L 194.248337 219.499385 
L 186.794372 214.435609 
z
" clip-path="url(#pe57a5c4434)" style="fill: #000076"/>
    <path d="M 128.665748 142.915743 
L 136.441034 155.963724 
L 141.605435 160.786197 
L 133.900642 147.850011 
z
" clip-path="url(#pe57a5c4434)" style="fill: #646464"/>
    <path d="M 189.500549 215.142386 
L 197.00989 219.136815 
L 201.707184 223.470511 
L 194.248337 219.499385 
z
" clip-path="url(#pe57a5c4434)" style="fill: #7b7b7b"/>
    <path d="M 216.680543 228.127994 
L 224.215935 228.803371 
L 228.694554 231.957741 
L 221.200762 231.277014 
z
" clip-path="url(#pe57a5c4434)" style="fill: #949494"/>
    <path d="M 236.236491 231.533605 
L 243.837493 229.991449 
L 248.174743 232.032389 
L 240.608919 233.555127 
z
" clip-path="url(#pe57a5c4434)" style="fill: #0000a9"/>
    <path d="M 279.699365 221.511446 
L 287.57141 215.439855 
L 291.677667 214.237668 
L 283.825547 220.282052 
z
" clip-path="url(#pe57a5c4434)" style="fill: #d5d5d5"/>
    <path d="M 267.755073 226.556964 
L 275.542253 221.634354 
L 279.699365 221.511446 
L 271.936746 226.404573 
z
" clip-path="url(#pe57a5c4434)" style="fill: #cacaca"/>
    <path d="M 197.00989 219.136815 
L 204.532521 222.026965 
L 209.181136 226.348034 
L 201.707184 223.470511 
z
" clip-path="url(#pe57a5c4434)" style="fill: #000082"/>
    <path d="M 291.677667 214.237668 
L 299.653079 206.99144 
L 303.722877 204.713311 
L 295.762742 211.936455 
z
" clip-path="url(#pe57a5c4434)" style="fill: #dedede"/>
    <path d="M 255.812066 229.384321 
L 263.532437 225.591322 
L 267.755073 226.556964 
L 260.063939 230.320024 
z
" clip-path="url(#pe57a5c4434)" style="fill: #bebebe"/>
    <path d="M 224.215935 228.803371 
L 231.798074 228.36401 
L 236.236491 231.533605 
L 228.694554 231.957741 
z
" clip-path="url(#pe57a5c4434)" style="fill: #00009b"/>
    <path d="M 154.299851 182.327043 
L 161.922714 190.829831 
L 166.949009 196.528245 
L 159.389778 188.096422 
z
" clip-path="url(#pe57a5c4434)" style="fill: #000069"/>
    <path d="M 146.636118 172.682444 
L 154.299851 182.327043 
L 159.389778 188.096422 
L 151.792354 178.535061 
z
" clip-path="url(#pe57a5c4434)" style="fill: #676767"/>
    <path d="M 161.922714 190.829831 
L 169.515207 198.202107 
L 174.480374 203.84164 
L 166.949009 196.528245 
z
" clip-path="url(#pe57a5c4434)" style="fill: #6c6c6c"/>
    <path d="M 138.920897 161.881577 
L 146.636118 172.682444 
L 151.792354 178.535061 
L 144.146303 167.829953 
z
" clip-path="url(#pe57a5c4434)" style="fill: #000065"/>
    <path d="M 204.532521 222.026965 
L 212.07893 223.808786 
L 216.680543 228.127994 
L 209.181136 226.348034 
z
" clip-path="url(#pe57a5c4434)" style="fill: #888888"/>
    <path d="M 243.837493 229.991449 
L 251.508825 227.314812 
L 255.812066 229.384321 
L 248.174743 232.032389 
z
" clip-path="url(#pe57a5c4434)" style="fill: #b0b0b0"/>
    <path d="M 169.515207 198.202107 
L 177.087763 204.452063 
L 181.994138 210.044672 
L 174.480374 203.84164 
z
" clip-path="url(#pe57a5c4434)" style="fill: #000070"/>
    <path d="M 131.143404 149.906759 
L 138.920897 161.881577 
L 144.146303 167.829953 
L 136.441034 155.963724 
z
" clip-path="url(#pe57a5c4434)" style="fill: #636363"/>
    <path d="M 177.087763 204.452063 
L 184.650793 209.584815 
L 189.500549 215.142386 
L 181.994138 210.044672 
z
" clip-path="url(#pe57a5c4434)" style="fill: #747474"/>
    <path d="M 123.292637 136.736983 
L 131.143404 149.906759 
L 136.441034 155.963724 
L 128.665748 142.915743 
z
" clip-path="url(#pe57a5c4434)" style="fill: #000062"/>
    <path d="M 231.798074 228.36401 
L 239.438005 226.796517 
L 243.837493 229.991449 
L 236.236491 231.533605 
z
" clip-path="url(#pe57a5c4434)" style="fill: #a2a2a2"/>
    <path d="M 275.542253 221.634354 
L 283.437911 215.525636 
L 287.57141 215.439855 
L 279.699365 221.511446 
z
" clip-path="url(#pe57a5c4434)" style="fill: #0000ce"/>
    <path d="M 212.07893 223.808786 
L 219.659784 224.47511 
L 224.215935 228.803371 
L 216.680543 228.127994 
z
" clip-path="url(#pe57a5c4434)" style="fill: #00008f"/>
    <path d="M 287.57141 215.439855 
L 295.565815 208.159685 
L 299.653079 206.99144 
L 291.677667 214.237668 
z
" clip-path="url(#pe57a5c4434)" style="fill: #0000d7"/>
    <path d="M 184.650793 209.584815 
L 192.214734 213.602409 
L 197.00989 219.136815 
L 189.500549 215.142386 
z
" clip-path="url(#pe57a5c4434)" style="fill: #000079"/>
    <path d="M 263.532437 225.591322 
L 271.347865 220.630225 
L 275.542253 221.634354 
L 267.755073 226.556964 
z
" clip-path="url(#pe57a5c4434)" style="fill: #0000c2"/>
    <path d="M 251.508825 227.314812 
L 259.262148 223.483782 
L 263.532437 225.591322 
L 255.812066 229.384321 
z
" clip-path="url(#pe57a5c4434)" style="fill: #0000b6"/>
    <path d="M 192.214734 213.602409 
L 199.7901 216.503803 
L 204.532521 222.026965 
L 197.00989 219.136815 
z
" clip-path="url(#pe57a5c4434)" style="fill: #7f7f7f"/>
    <path d="M 219.659784 224.47511 
L 227.285979 224.015574 
L 231.798074 228.36401 
L 224.215935 228.803371 
z
" clip-path="url(#pe57a5c4434)" style="fill: #969696"/>
    <path d="M 239.438005 226.796517 
L 247.147115 224.08414 
L 251.508825 227.314812 
L 243.837493 229.991449 
z
" clip-path="url(#pe57a5c4434)" style="fill: #0000a9"/>
    <path d="M 149.080615 175.306042 
L 156.771749 183.88483 
L 161.922714 190.829831 
L 154.299851 182.327043 
z
" clip-path="url(#pe57a5c4434)" style="fill: #686868"/>
    <path d="M 141.345806 165.571843 
L 149.080615 175.306042 
L 154.299851 182.327043 
L 146.636118 172.682444 
z
" clip-path="url(#pe57a5c4434)" style="fill: #000066"/>
    <path d="M 199.7901 216.503803 
L 207.387529 218.284841 
L 212.07893 223.808786 
L 204.532521 222.026965 
z
" clip-path="url(#pe57a5c4434)" style="fill: #000085"/>
    <path d="M 156.771749 183.88483 
L 164.429898 191.319709 
L 169.515207 198.202107 
L 161.922714 190.829831 
z
" clip-path="url(#pe57a5c4434)" style="fill: #00006b"/>
    <path d="M 133.556506 154.667506 
L 141.345806 165.571843 
L 146.636118 172.682444 
L 138.920897 161.881577 
z
" clip-path="url(#pe57a5c4434)" style="fill: #646464"/>
    <path d="M 164.429898 191.319709 
L 172.065675 197.619008 
L 177.087763 204.452063 
L 169.515207 198.202107 
z
" clip-path="url(#pe57a5c4434)" style="fill: #6e6e6e"/>
    <path d="M 283.437911 215.525636 
L 291.455076 208.200314 
L 295.565815 208.159685 
L 287.57141 215.439855 
z
" clip-path="url(#pe57a5c4434)" style="fill: #d0d0d0"/>
    <path d="M 271.347865 220.630225 
L 279.270887 214.474095 
L 283.437911 215.525636 
L 275.542253 221.634354 
z
" clip-path="url(#pe57a5c4434)" style="fill: #c6c6c6"/>
    <path d="M 125.701722 142.575011 
L 133.556506 154.667506 
L 138.920897 161.881577 
L 131.143404 149.906759 
z
" clip-path="url(#pe57a5c4434)" style="fill: #000062"/>
    <path d="M 259.262148 223.483782 
L 267.109585 218.474823 
L 271.347865 220.630225 
L 263.532437 225.591322 
z
" clip-path="url(#pe57a5c4434)" style="fill: #bbbbbb"/>
    <path d="M 172.065675 197.619008 
L 179.689666 202.787917 
L 184.650793 209.584815 
L 177.087763 204.452063 
z
" clip-path="url(#pe57a5c4434)" style="fill: #000072"/>
    <path d="M 227.285979 224.015574 
L 234.968695 222.416521 
L 239.438005 226.796517 
L 231.798074 228.36401 
z
" clip-path="url(#pe57a5c4434)" style="fill: #00009d"/>
    <path d="M 117.770234 129.272941 
L 125.701722 142.575011 
L 131.143404 149.906759 
L 123.292637 136.736983 
z
" clip-path="url(#pe57a5c4434)" style="fill: #616161"/>
    <path d="M 207.387529 218.284841 
L 215.017835 218.938186 
L 219.659784 224.47511 
L 212.07893 223.808786 
z
" clip-path="url(#pe57a5c4434)" style="fill: #8b8b8b"/>
    <path d="M 179.689666 202.787917 
L 187.312479 206.82849 
L 192.214734 213.602409 
L 184.650793 209.584815 
z
" clip-path="url(#pe57a5c4434)" style="fill: #777777"/>
    <path d="M 247.147115 224.08414 
L 254.937191 220.206615 
L 259.262148 223.483782 
L 251.508825 227.314812 
z
" clip-path="url(#pe57a5c4434)" style="fill: #afafaf"/>
    <path d="M 187.312479 206.82849 
L 194.944792 209.73963 
L 199.7901 216.503803 
L 192.214734 213.602409 
z
" clip-path="url(#pe57a5c4434)" style="fill: #00007c"/>
    <path d="M 215.017835 218.938186 
L 222.692063 218.453244 
L 227.285979 224.015574 
L 219.659784 224.47511 
z
" clip-path="url(#pe57a5c4434)" style="fill: #000091"/>
    <path d="M 234.968695 222.416521 
L 242.719456 219.660868 
L 247.147115 224.08414 
L 239.438005 226.796517 
z
" clip-path="url(#pe57a5c4434)" style="fill: #a3a3a3"/>
    <path d="M 279.270887 214.474095 
L 287.314642 207.091993 
L 291.455076 208.200314 
L 283.437911 215.525636 
z
" clip-path="url(#pe57a5c4434)" style="fill: #0000c9"/>
    <path d="M 267.109585 218.474823 
L 275.063795 212.260567 
L 279.270887 214.474095 
L 271.347865 220.630225 
z
" clip-path="url(#pe57a5c4434)" style="fill: #0000bf"/>
    <path d="M 194.944792 209.73963 
L 202.597407 211.517057 
L 207.387529 218.284841 
L 199.7901 216.503803 
z
" clip-path="url(#pe57a5c4434)" style="fill: #828282"/>
    <path d="M 254.937191 220.206615 
L 262.820488 215.139986 
L 267.109585 218.474823 
L 259.262148 223.483782 
z
" clip-path="url(#pe57a5c4434)" style="fill: #0000b4"/>
    <path d="M 222.692063 218.453244 
L 230.421542 216.816057 
L 234.968695 222.416521 
L 227.285979 224.015574 
z
" clip-path="url(#pe57a5c4434)" style="fill: #989898"/>
    <path d="M 202.597407 211.517057 
L 210.281301 212.153244 
L 215.017835 218.938186 
L 207.387529 218.284841 
z
" clip-path="url(#pe57a5c4434)" style="fill: #000088"/>
    <path d="M 242.719456 219.660868 
L 250.55019 215.727954 
L 254.937191 220.206615 
L 247.147115 224.08414 
z
" clip-path="url(#pe57a5c4434)" style="fill: #0000a9"/>
    <path d="M 275.063795 212.260567 
L 283.138042 204.809574 
L 287.314642 207.091993 
L 279.270887 214.474095 
z
" clip-path="url(#pe57a5c4434)" style="fill: #c3c3c3"/>
    <path d="M 230.421542 216.816057 
L 238.217944 214.009172 
L 242.719456 219.660868 
L 234.968695 222.416521 
z
" clip-path="url(#pe57a5c4434)" style="fill: #00009e"/>
    <path d="M 262.820488 215.139986 
L 270.809795 208.856397 
L 275.063795 212.260567 
L 267.109585 218.474823 
z
" clip-path="url(#pe57a5c4434)" style="fill: #b8b8b8"/>
    <path d="M 210.281301 212.153244 
L 218.007677 211.637336 
L 222.692063 218.453244 
L 215.017835 218.938186 
z
" clip-path="url(#pe57a5c4434)" style="fill: #8d8d8d"/>
    <path d="M 250.55019 215.727954 
L 258.473292 210.593351 
L 262.820488 215.139986 
L 254.937191 220.206615 
z
" clip-path="url(#pe57a5c4434)" style="fill: #aeaeae"/>
    <path d="M 218.007677 211.637336 
L 225.788028 209.955039 
L 230.421542 216.816057 
L 222.692063 218.453244 
z
" clip-path="url(#pe57a5c4434)" style="fill: #000093"/>
    <path d="M 238.217944 214.009172 
L 246.093351 210.011482 
L 250.55019 215.727954 
L 242.719456 219.660868 
z
" clip-path="url(#pe57a5c4434)" style="fill: #a3a3a3"/>
    <path d="M 270.809795 208.856397 
L 278.918518 201.323841 
L 283.138042 204.809574 
L 275.063795 212.260567 
z
" clip-path="url(#pe57a5c4434)" style="fill: #0000bc"/>
    <path d="M 258.473292 210.593351 
L 266.501704 204.228654 
L 270.809795 208.856397 
L 262.820488 215.139986 
z
" clip-path="url(#pe57a5c4434)" style="fill: #0000b2"/>
    <path d="M 225.788028 209.955039 
L 233.63419 207.088486 
L 238.217944 214.009172 
L 230.421542 216.816057 
z
" clip-path="url(#pe57a5c4434)" style="fill: #999999"/>
    <path d="M 246.093351 210.011482 
L 254.060317 204.798033 
L 258.473292 210.593351 
L 250.55019 215.727954 
z
" clip-path="url(#pe57a5c4434)" style="fill: #0000a8"/>
    <path d="M 233.63419 207.088486 
L 241.558412 203.016072 
L 246.093351 210.011482 
L 238.217944 214.009172 
z
" clip-path="url(#pe57a5c4434)" style="fill: #00009e"/>
    <path d="M 266.501704 204.228654 
L 274.648983 196.601218 
L 278.918518 201.323841 
L 270.809795 208.856397 
z
" clip-path="url(#pe57a5c4434)" style="fill: #b7b7b7"/>
    <path d="M 254.060317 204.798033 
L 262.131947 198.339802 
L 266.501704 204.228654 
L 258.473292 210.593351 
z
" clip-path="url(#pe57a5c4434)" style="fill: #adadad"/>
    <path d="M 241.558412 203.016072 
L 249.573423 197.712256 
L 254.060317 204.798033 
L 246.093351 210.011482 
z
" clip-path="url(#pe57a5c4434)" style="fill: #a3a3a3"/>
    <path d="M 262.131947 198.339802 
L 270.32197 190.603437 
L 274.648983 196.601218 
L 266.501704 204.228654 
z
" clip-path="url(#pe57a5c4434)" style="fill: #0000b1"/>
    <path d="M 249.573423 197.712256 
L 257.692505 191.147328 
L 262.131947 198.339802 
L 254.060317 204.798033 
z
" clip-path="url(#pe57a5c4434)" style="fill: #0000a8"/>
    <path d="M 257.692505 191.147328 
L 265.92958 183.287145 
L 270.32197 190.603437 
L 262.131947 198.339802 
z
" clip-path="url(#pe57a5c4434)" style="fill: #acacac"/>
   </g>
   <g id="text_10">
    <!-- $C$ -->
    <g transform="translate(380.95395 175.012312) scale(0.2 -0.2)">
     <defs>
      <path id="DejaVuSans-Oblique-43" d="M 4447 4306 
L 4319 3641 
Q 4019 3944 3683 4091 
Q 3347 4238 2956 4238 
Q 2422 4238 2017 3981 
Q 1613 3725 1319 3200 
Q 1131 2863 1032 2486 
Q 934 2109 934 1728 
Q 934 1091 1264 756 
Q 1594 422 2222 422 
Q 2656 422 3056 561 
Q 3456 700 3834 978 
L 3688 231 
Q 3316 72 2936 -9 
Q 2556 -91 2175 -91 
Q 1278 -91 773 396 
Q 269 884 269 1753 
Q 269 2309 461 2846 
Q 653 3384 1013 3828 
Q 1394 4300 1883 4525 
Q 2372 4750 3022 4750 
Q 3422 4750 3780 4639 
Q 4138 4528 4447 4306 
z
" transform="scale(0.015625)"/>
     </defs>
     <use xlink:href="#DejaVuSans-Oblique-43" transform="translate(0 0.78125)"/>
    </g>
   </g>
   <g id="text_11">
    <!-- $v_1$ -->
    <g transform="translate(161.778176 302.133977) scale(0.2 -0.2)">
     <defs>
      <path id="DejaVuSans-Oblique-76" d="M 459 3500 
L 1069 3500 
L 1581 525 
L 3256 3500 
L 3866 3500 
L 1875 0 
L 1100 0 
L 459 3500 
z
" transform="scale(0.015625)"/>
     </defs>
     <use xlink:href="#DejaVuSans-Oblique-76" transform="translate(0 0.3125)"/>
     <use xlink:href="#DejaVuSans-31" transform="translate(59.179688 -16.09375) scale(0.7)"/>
    </g>
   </g>
   <g id="text_12">
    <!-- $v_2$ -->
    <g transform="translate(343.121829 270.664446) scale(0.2 -0.2)">
     <use xlink:href="#DejaVuSans-Oblique-76" transform="translate(0 0.3125)"/>
     <use xlink:href="#DejaVuSans-32" transform="translate(59.179688 -16.09375) scale(0.7)"/>
    </g>
   </g>
  </g>
 </g>
 <defs>
  <clipPath id="pe57a5c4434">
   <rect x="103.104" y="41.472" width="266.112" height="266.112"/>
  </clipPath>
 </defs>
</svg>
