<?xml version="1.0" encoding="UTF-8" standalone="no"?>
<svg
   width="61.078156pt"
   height="56.890625pt"
   viewBox="0 0 61.078158 56.890625"
   version="1.1"
   id="svg6"
   xmlns="http://www.w3.org/2000/svg"
   xmlns:svg="http://www.w3.org/2000/svg">
  <defs
     id="defs2">
    <clipPath
       id="clip-0">
      <path
         clip-rule="nonzero"
         d="M 0,0 H 64.394531 V 57.089844 H 0 Z m 0,0"
         id="path1" />
    </clipPath>
    <clipPath
       id="clip-1">
      <path
         clip-rule="nonzero"
         d="M 0,20 H 64.394531 V 49 H 0 Z m 0,0"
         id="path2" />
    </clipPath>
  </defs>
  <path
     fill-rule="nonzero"
     fill="#ccccff"
     fill-opacity="1"
     d="m 2.191406,56.890625 c 0,-15.730469 12.613282,-28.34375 28.347656,-28.34375 15.730469,0 28.347657,12.613281 28.347657,28.34375 0,-44.078125 -12.617188,-56.691406 -28.347657,-56.691406 -15.734374,0 -28.347656,12.613281 -28.347656,56.691406 z m 0,0"
     id="path3" />
  <g
     clip-path="url(#clip-0)"
     id="g4">
    <path
       fill="none"
       stroke-width="0.3985"
       stroke-linecap="butt"
       stroke-linejoin="miter"
       stroke="#000000"
       stroke-opacity="1"
       stroke-miterlimit="10"
       d="m -28.346594,0.001375 c 0,15.730469 12.613281,28.34375 28.3476565,28.34375 15.7304685,0 28.3476565,-12.613281 28.3476565,-28.34375 0,44.078125 -12.617188,56.691406 -28.3476565,56.691406 -15.7343755,0 -28.3476565,-12.613281 -28.3476565,-56.691406 z m 0,0"
       transform="matrix(1,0,0,-1,30.538,56.892)"
       id="path4" />
  </g>
  <path
     fill-rule="nonzero"
     fill="#7f7f7f"
     fill-opacity="1"
     d="m 4.183594,41.160156 c 0,-1.101562 -0.890625,-1.992187 -1.992188,-1.992187 -1.101562,0 -1.992187,0.890625 -1.992187,1.992187 0,1.101563 0.890625,1.992188 1.992187,1.992188 1.101563,0 1.992188,-0.890625 1.992188,-1.992188 z M 16.796875,28.546875 c 0,-1.101563 -0.890625,-1.996094 -1.992187,-1.996094 -1.097657,0 -1.992188,0.894531 -1.992188,1.996094 0,1.097656 0.894531,1.992187 1.992188,1.992187 1.101562,0 1.992187,-0.894531 1.992187,-1.992187 z m 31.464844,0 c 0,-1.101563 -0.890625,-1.996094 -1.992188,-1.996094 -1.101562,0 -1.992187,0.894531 -1.992187,1.996094 0,1.097656 0.890625,1.992187 1.992187,1.992187 1.101563,0 1.992188,-0.894531 1.992188,-1.992187 z m 12.617187,12.613281 c 0,-1.101562 -0.894531,-1.992187 -1.992187,-1.992187 -1.101563,0 -1.996094,0.890625 -1.996094,1.992187 0,1.101563 0.894531,1.992188 1.996094,1.992188 1.097656,0 1.992187,-0.890625 1.992187,-1.992188 z m 0,0"
     id="path5" />
  <g
     clip-path="url(#clip-1)"
     id="g6">
    <path
       fill="none"
       stroke-width="0.3985"
       stroke-linecap="butt"
       stroke-linejoin="miter"
       stroke="#7f7f7f"
       stroke-opacity="1"
       stroke-miterlimit="10"
       d="m -26.354406,15.731844 c 0,1.101562 -0.890625,1.992187 -1.992188,1.992187 -1.101562,0 -1.992187,-0.890625 -1.992187,-1.992187 0,-1.101563 0.890625,-1.992188 1.992187,-1.992188 1.101563,0 1.992188,0.890625 1.992188,1.992188 z m 12.613281,12.613281 c 0,1.101563 -0.890625,1.996094 -1.992188,1.996094 -1.097656,0 -1.992187,-0.894531 -1.992187,-1.996094 0,-1.097656 0.894531,-1.992187 1.992187,-1.992187 1.101563,0 1.992188,0.894531 1.992188,1.992187 z m 31.464844,0 c 0,1.101563 -0.890625,1.996094 -1.992188,1.996094 -1.101562,0 -1.992187,-0.894531 -1.992187,-1.996094 0,-1.097656 0.890625,-1.992187 1.992187,-1.992187 1.101563,0 1.992188,0.894531 1.992188,1.992187 z M 30.340906,15.731844 c 0,1.101562 -0.894531,1.992187 -1.992187,1.992187 -1.101563,0 -1.996094,-0.890625 -1.996094,-1.992187 0,-1.101563 0.894531,-1.992188 1.996094,-1.992188 1.097656,0 1.992187,0.890625 1.992187,1.992188 z m 0,0"
       transform="matrix(1,0,0,-1,30.538,56.892)"
       id="path6" />
  </g>
</svg>
