<?xml version="1.0" encoding="UTF-8" standalone="no"?>
<svg
   width="226.99449pt"
   height="170.44313pt"
   viewBox="0 0 226.99449 170.44313"
   version="1.1"
   id="svg4"
   xmlns="http://www.w3.org/2000/svg"
   xmlns:svg="http://www.w3.org/2000/svg">
  <defs
     id="defs2">
    <clipPath
       id="clip-0">
      <path
         clip-rule="nonzero"
         d="M 0,0 H 227 V 170.47656 H 0 Z m 0,0"
         id="path1" />
    </clipPath>
    <clipPath
       id="clip-1">
      <path
         clip-rule="nonzero"
         d="M 0,0 H 230.48828 V 170.47656 H 0 Z m 0,0"
         id="path2" />
    </clipPath>
  </defs>
  <g
     clip-path="url(#clip-0)"
     id="g3"
     transform="translate(-0.08869122)">
    <path
       fill-rule="nonzero"
       fill="#ccccff"
       fill-opacity="1"
       d="m 85.238281,113.58203 c -14.171875,28.34766 -14.171875,28.34766 0,56.69531 -14.171875,-28.34765 -42.519531,-28.34765 -85.039062,0 42.519531,-28.34765 42.519531,-28.34765 0,-56.69531 42.519531,28.34766 42.519531,28.34766 56.695312,0 C 0.199219,56.890625 0.199219,0.195312 113.58594,0.195312 c 113.38672,0 113.38672,56.695313 56.69531,113.386718 14.17187,28.34766 14.17187,28.34766 56.69141,0 -42.51954,28.34766 -42.51954,28.34766 0,56.69531 -42.51954,-28.34765 -70.86719,-28.34765 -85.03907,0 14.17188,-28.34765 14.17188,-28.34765 0,-56.69531 28.34766,-28.343749 28.34766,-85.039061 -28.34765,-85.039061 -56.691409,0 -56.691409,56.695312 -28.347659,85.039061 z m 0,0"
       id="path3" />
  </g>
  <g
     clip-path="url(#clip-1)"
     id="g4"
     transform="translate(-0.08869122)">
    <path
       fill="none"
       stroke-width="0.3985"
       stroke-linecap="butt"
       stroke-linejoin="miter"
       stroke="#000000"
       stroke-opacity="1"
       stroke-miterlimit="10"
       d="m 85.039281,85.041969 c -14.171875,-28.347657 -14.171875,-28.347657 0,-56.695313 -14.171875,28.347656 -42.519531,28.347656 -85.03906225,0 42.51953125,28.347656 42.51953125,28.347656 0,56.695313 C 42.51975,56.694312 42.51975,56.694312 56.695531,85.041969 2.1875e-4,141.73337 2.1875e-4,198.42869 113.38694,198.42869 c 113.38672,0 113.38672,-56.69532 56.69531,-113.386721 14.17187,-28.347657 14.17187,-28.347657 56.69141,0 -42.51954,-28.347657 -42.51954,-28.347657 0,-56.695313 -42.51954,28.347656 -70.86719,28.347656 -85.03907,0 14.17188,28.347656 14.17188,28.347656 0,56.695313 28.34766,28.343751 28.34766,85.039061 -28.34765,85.039061 -56.691409,0 -56.691409,-56.69531 -28.347659,-85.039061 z m 0,0"
       transform="matrix(1,0,0,-1,0.199,198.624)"
       id="path4" />
  </g>
</svg>
