<?xml version="1.0" encoding="UTF-8" standalone="no"?>
<svg
   width="73.861542pt"
   height="45.885544pt"
   viewBox="0 0 73.86154 45.885546"
   version="1.1"
   id="svg6"
   xmlns="http://www.w3.org/2000/svg"
   xmlns:svg="http://www.w3.org/2000/svg">
  <defs
     id="defs2">
    <clipPath
       id="clip-0">
      <path
         clip-rule="nonzero"
         d="M 41,32 H 74 V 48.671875 H 41 Z m 0,0"
         id="path1" />
    </clipPath>
    <clipPath
       id="clip-1">
      <path
         clip-rule="nonzero"
         d="M 0,32 H 33 V 48.671875 H 0 Z m 0,0"
         id="path2" />
    </clipPath>
  </defs>
  <path
     fill-rule="nonzero"
     fill="#ff0000"
     fill-opacity="1"
     stroke-width="2.98883"
     stroke-linecap="round"
     stroke-linejoin="round"
     stroke="#000000"
     stroke-opacity="1"
     stroke-miterlimit="10"
     d="m 44.191406,31.293535 c 7.117188,-3.613281 9.554688,-11.625 5.445313,-17.886719 C 45.527344,7.1411906 36.425781,4.9966596 29.308594,8.6138476 22.191406,12.227129 19.75,20.238848 23.859375,26.500566 c 1.308594,1.992188 3.1875,3.644532 5.449219,4.792969"
     id="path3" />
  <path
     fill="none"
     stroke-width="2.98883"
     stroke-linecap="round"
     stroke-linejoin="round"
     stroke="#000000"
     stroke-opacity="1"
     stroke-miterlimit="10"
     d="m 59.269531,31.293535 c 7.125,-9.488281 2.898438,-21.6250004 -9.441406,-27.1054694 -12.335937,-5.476562 -28.113281,-2.226562 -35.238281,7.2656254 -4.605469,6.136719 -4.605469,13.703125 0,19.839844"
     id="path4" />
  <g
     clip-path="url(#clip-0)"
     id="g5"
     transform="translate(0,-2.7845904)">
    <path
       fill="none"
       stroke-width="2.98883"
       stroke-linecap="round"
       stroke-linejoin="round"
       stroke="#000000"
       stroke-opacity="1"
       stroke-miterlimit="10"
       d="m 13.095531,0.001875 c 5.109375,0 9.484375,-3.613281 13.097657,0 -1.324219,-4.933594 -1.324219,-8.164063 0,-13.097656 -11.257813,3.015625 -18.507813,5 -29.765625,1.984375 1.136718,4.234375 2.722656,6.875 1.589843,11.113281"
       transform="matrix(1,0,0,-1,46.174,34.08)"
       id="path5" />
  </g>
  <g
     clip-path="url(#clip-1)"
     id="g6"
     transform="translate(0,-2.7845904)">
    <path
       fill="none"
       stroke-width="2.98883"
       stroke-linecap="round"
       stroke-linejoin="round"
       stroke="#000000"
       stroke-opacity="1"
       stroke-miterlimit="10"
       d="m -31.584156,0.001875 c -5.105469,0 -9.484375,-3.613281 -13.097656,0 1.324218,-4.933594 1.324218,-8.164063 0,-13.097656 11.257812,3.015625 18.511718,5 29.765625,1.984375 -1.140625,4.25 -3.089844,6.859375 -1.949219,11.113281"
       transform="matrix(1,0,0,-1,46.174,34.08)"
       id="path6" />
  </g>
</svg>
