<?xml version="1.0" encoding="UTF-8" standalone="no"?>
<svg
   width="63.877174pt"
   height="45.864388pt"
   viewBox="0 0 63.877175 45.864389"
   version="1.1"
   id="svg3"
   xmlns="http://www.w3.org/2000/svg"
   xmlns:svg="http://www.w3.org/2000/svg">
  <defs
     id="defs1">
    <clipPath
       id="clip-0">
      <path
         clip-rule="nonzero"
         d="M 0,2 H 64 V 48.671875 H 0 Z m 0,0"
         id="path1" />
    </clipPath>
  </defs>
  <path
     fill-rule="nonzero"
     fill="#cc0000"
     fill-opacity="1"
     d="M 51.015625,31.272389 C 57.121094,21.784108 53.5,9.6473887 42.921875,4.1669197 32.347656,-1.3096423 18.824219,1.9403577 12.71875,11.432545 c -3.949219,6.136719 -3.949219,13.703125 0,19.839844 -4.378906,0 -8.128906,3.613281 -11.226562,0 1.132812,4.933594 1.132812,8.164063 0,13.097656 9.648437,-3.015625 15.867187,-5 25.515624,-1.984375 -0.859374,-3.738281 -0.859374,-6.183594 0,-9.921875 C 20.90625,28.846608 18.8125,20.838795 22.335938,14.57317 25.859375,8.3114517 33.660156,6.1630137 39.761719,9.7802017 c 6.101562,3.6171873 8.191406,11.6289063 4.667969,17.8906243 -1.117188,1.992188 -2.730469,3.644532 -4.667969,4.792969 1.03125,4.484375 1.03125,7.421875 0,11.90625 C 48.316406,41.69817 53.828125,39.713795 62.382812,42.38567 61.25,37.452076 61.25,34.221608 62.382812,29.288014 59.210938,32.991139 55.5,31.272389 51.015625,31.272389 Z m 0,0"
     id="path2" />
  <g
     clip-path="url(#clip-0)"
     id="g3"
     transform="translate(0,-2.8057363)">
    <path
       fill="none"
       stroke-width="2.98883"
       stroke-linecap="round"
       stroke-linejoin="round"
       stroke="#000000"
       stroke-opacity="1"
       stroke-miterlimit="10"
       d="m 11.225625,0.001875 c 6.105469,9.488281 2.484375,21.625 -8.09375,27.105469 -10.574219,5.476562 -24.097656,2.226562 -30.203125,-7.265625 -3.949219,-6.136719 -3.949219,-13.703125 0,-19.839844 -4.378906,0 -8.128906,-3.613281 -11.226563,0 1.132813,-4.933594 1.132813,-8.164063 0,-13.097656 9.648438,3.015625 15.867188,5 25.515625,1.984375 -0.859375,3.738281 -0.859375,6.183593 0,9.921875 -6.101562,3.617187 -8.195312,11.625 -4.671875,17.890625 3.523438,6.261718 11.324219,8.410156 17.4257817,4.792968 C 6.073281,17.876875 8.163125,9.865156 4.639687,3.603437 3.5225,1.61125 1.909219,-0.0410938 -0.0282813,-1.189531 c 1.0312503,-4.484375 1.0312503,-7.421875 0,-11.90625 8.5546873,2.671875 14.0664063,4.65625 22.6210933,1.984375 C 21.46,-6.177813 21.46,-2.947344 22.592812,1.98625 19.420937,-1.716875 15.71,0.001875 11.225625,0.001875 Z m 0,0"
       transform="matrix(1,0,0,-1,39.79,34.08)"
       id="path3" />
  </g>
</svg>
