<?xml version="1.0" encoding="UTF-8" standalone="no"?>
<svg
   width="85.437561pt"
   height="127.95706pt"
   viewBox="0 0 85.437564 127.95706"
   version="1.1"
   id="svg7"
   xmlns="http://www.w3.org/2000/svg"
   xmlns:svg="http://www.w3.org/2000/svg">
  <defs
     id="defs1">
    <clipPath
       id="clip-0">
      <path
         clip-rule="nonzero"
         d="m 56,113 h 30 v 14.95703 H 56 Z m 0,0"
         id="path1" />
    </clipPath>
  </defs>
  <path
     fill="none"
     stroke-width="0.3985"
     stroke-linecap="butt"
     stroke-linejoin="miter"
     stroke="#000000"
     stroke-opacity="1"
     stroke-miterlimit="10"
     d="M 0.19925,14.371125 H 28.546906 V 0.19925 H 0.19925 Z m 0,0"
     id="path2" />
  <g
     clip-path="url(#clip-0)"
     id="g3"
     transform="translate(3.0997735e-5,3.0997735e-5)">
    <path
       fill="none"
       stroke-width="0.3985"
       stroke-linecap="butt"
       stroke-linejoin="miter"
       stroke="#000000"
       stroke-opacity="1"
       stroke-miterlimit="10"
       d="m 14.171625,-63.779812 h 28.347656 v 14.171875 H 14.171625 Z m 0,0"
       transform="matrix(1,0,0,-1,42.719,63.978)"
       id="path3" />
  </g>
  <path
     fill="none"
     stroke-width="0.3985"
     stroke-linecap="butt"
     stroke-linejoin="miter"
     stroke="#000000"
     stroke-opacity="1"
     stroke-miterlimit="10"
     d="m 49.804718,92.32425 c 0,7.085937 21.261719,7.085937 21.261719,17.47656"
     id="path4" />
  <path
     fill-rule="nonzero"
     fill="#000000"
     fill-opacity="1"
     d="m 71.066437,113.38675 c 0.199219,-1.0625 0.796875,-2.78906 1.492188,-3.98438 h -2.988282 c 0.699219,1.19532 1.296876,2.92188 1.496094,3.98438"
     id="path5" />
  <path
     fill="none"
     stroke-width="0.3985"
     stroke-linecap="butt"
     stroke-linejoin="miter"
     stroke="#000000"
     stroke-opacity="1"
     stroke-miterlimit="10"
     d="m 14.371125,14.570343 c 0,6.886719 21.261718,6.886719 21.261718,17.472657"
     id="path6" />
  <path
     fill-rule="nonzero"
     fill="#000000"
     fill-opacity="1"
     d="m 35.632843,35.632843 c 0.199219,-1.0625 0.796876,-2.792968 1.492188,-3.988281 H 34.13675 c 0.699219,1.195313 1.296875,2.925781 1.496093,3.988281"
     id="path7" />
</svg>
