<?xml version="1.0" encoding="UTF-8" standalone="no"?>
<svg
   width="85.437561pt"
   height="35.632843pt"
   viewBox="0 0 85.437564 35.632842"
   version="1.1"
   id="svg6"
   xmlns="http://www.w3.org/2000/svg"
   xmlns:svg="http://www.w3.org/2000/svg">
  <defs
     id="defs6" />
  <path
     fill="none"
     stroke-width="0.3985"
     stroke-linecap="butt"
     stroke-linejoin="miter"
     stroke="#000000"
     stroke-opacity="1"
     stroke-miterlimit="10"
     d="M 0.19925,14.371125 H 28.546906 V 0.19925 H 0.19925 Z m 0,0"
     id="path1" />
  <path
     fill="none"
     stroke-width="0.3985"
     stroke-linecap="butt"
     stroke-linejoin="miter"
     stroke="#000000"
     stroke-opacity="1"
     stroke-miterlimit="10"
     d="M 56.890656,14.371125 H 85.238312 V 0.19925 H 56.890656 Z m 0,0"
     id="path2" />
  <path
     fill="none"
     stroke-width="0.3985"
     stroke-linecap="butt"
     stroke-linejoin="miter"
     stroke="#000000"
     stroke-opacity="1"
     stroke-miterlimit="10"
     d="m 49.804718,35.632844 c 0,-14.175782 21.261719,-14.175782 21.261719,-17.476563"
     id="path3" />
  <path
     fill-rule="nonzero"
     fill="#000000"
     fill-opacity="1"
     d="m 71.066437,14.570343 c -0.199218,1.0625 -0.796875,2.789063 -1.496094,3.984376 h 2.988282 c -0.695313,-1.195313 -1.292969,-2.921876 -1.492188,-3.984376"
     id="path4" />
  <path
     fill="none"
     stroke-width="0.3985"
     stroke-linecap="butt"
     stroke-linejoin="miter"
     stroke="#000000"
     stroke-opacity="1"
     stroke-miterlimit="10"
     d="m 14.371125,14.570344 c 0,6.886718 21.261718,6.886718 21.261718,17.472656"
     id="path5" />
  <path
     fill-rule="nonzero"
     fill="#000000"
     fill-opacity="1"
     d="m 35.632843,35.632843 c 0.199219,-1.0625 0.796876,-2.792968 1.492188,-3.988281 H 34.13675 c 0.699219,1.195313 1.296875,2.925781 1.496093,3.988281"
     id="path6" />
</svg>
