<?xml version="1.0" encoding="UTF-8" standalone="no"?>
<svg
   width="130.79303pt"
   height="105.28128pt"
   viewBox="0 0 130.79303 105.28128"
   version="1.1"
   id="svg7"
   xmlns="http://www.w3.org/2000/svg"
   xmlns:svg="http://www.w3.org/2000/svg">
  <defs
     id="defs1">
    <clipPath
       id="clip-0">
      <path
         clip-rule="nonzero"
         d="m 102,90 h 29 v 15.28125 h -29 z m 0,0"
         id="path1" />
    </clipPath>
  </defs>
  <path
     fill="none"
     stroke-width="0.3985"
     stroke-linecap="butt"
     stroke-linejoin="miter"
     stroke="#000000"
     stroke-opacity="1"
     stroke-miterlimit="10"
     d="M 0.19925,14.371125 H 28.546906 V 0.19925 H 0.19925 Z m 0,0"
     id="path2" />
  <g
     clip-path="url(#clip-0)"
     id="g3"
     transform="translate(3.0997735e-5,3.0997735e-5)">
    <path
       fill="none"
       stroke-width="0.3985"
       stroke-linecap="butt"
       stroke-linejoin="miter"
       stroke="#000000"
       stroke-opacity="1"
       stroke-miterlimit="10"
       d="M 36.850094,-52.441031 H 65.19775 v 14.171875 H 36.850094 Z m 0,0"
       transform="matrix(1,0,0,-1,65.396,52.641)"
       id="path3" />
  </g>
  <path
     fill="none"
     stroke-width="0.3985"
     stroke-linecap="butt"
     stroke-linejoin="miter"
     stroke="#000000"
     stroke-opacity="1"
     stroke-miterlimit="10"
     d="M 14.371125,14.570343 C 31.378937,18.625031 48.38675,24.293 63.550812,49.566437"
     id="path4" />
  <path
     fill-rule="nonzero"
     fill="#000000"
     fill-opacity="1"
     d="m 65.394562,52.640656 c -0.375,-1.011719 -0.75,-2.800781 -0.765625,-4.183594 l -2.566406,1.535157 c 1.214844,0.667968 2.617188,1.839843 3.332031,2.648437"
     id="path5" />
  <path
     fill="none"
     stroke-width="0.3985"
     stroke-linecap="butt"
     stroke-linejoin="miter"
     stroke="#000000"
     stroke-opacity="1"
     stroke-miterlimit="10"
     d="m 65.394562,52.640656 c 17.007813,34.015625 34.015625,39.6875 47.457028,38.410156"
     id="path6" />
  <path
     fill-rule="nonzero"
     fill="#000000"
     fill-opacity="1"
     d="m 116.42191,90.710969 c -1.07813,-0.09766 -2.85547,-0.53125 -4.10938,-1.113282 l 0.28125,2.976563 c 1.125,-0.808594 2.78906,-1.566407 3.82813,-1.863281"
     id="path7" />
</svg>
