<?xml version="1.0" encoding="UTF-8" standalone="no"?>
<svg
   width="33.078156pt"
   height="48.589844pt"
   viewBox="0 0 33.078156 48.589842"
   version="1.1"
   id="svg6"
   xmlns="http://www.w3.org/2000/svg"
   xmlns:svg="http://www.w3.org/2000/svg">
  <defs
     id="defs3">
    <clipPath
       id="clip-0">
      <path
         clip-rule="nonzero"
         d="M 0,0 H 35 V 48.789062 H 0 Z m 0,0"
         id="path1" />
    </clipPath>
    <clipPath
       id="clip-1">
      <path
         clip-rule="nonzero"
         d="M 0,22 H 31 V 48.789062 H 0 Z m 0,0"
         id="path2" />
    </clipPath>
    <clipPath
       id="clip-2">
      <path
         clip-rule="nonzero"
         d="M 18,22 H 36.394531 V 48.789062 H 18 Z m 0,0"
         id="path3" />
    </clipPath>
  </defs>
  <g
     clip-path="url(#clip-0)"
     id="g4">
    <path
       fill="none"
       stroke-width="0.3985"
       stroke-linecap="butt"
       stroke-linejoin="miter"
       stroke="#000000"
       stroke-opacity="1"
       stroke-miterlimit="10"
       d="M 2.1875e-4,2.5e-4 H 28.347875 v 42.519531 z m 0,0"
       transform="matrix(1,0,0,-1,0.199,42.719)"
       id="path4" />
  </g>
  <g
     clip-path="url(#clip-1)"
     id="g5">
    <path
       fill="none"
       stroke-width="0.3985"
       stroke-linecap="butt"
       stroke-linejoin="miter"
       stroke="#000000"
       stroke-opacity="1"
       stroke-miterlimit="10"
       d="M 2.1875e-4,2.5e-4 H 24.379125 v 14.171875 z m 0,0"
       transform="matrix(1,0,0,-1,0.199,42.719)"
       id="path5" />
  </g>
  <g
     clip-path="url(#clip-2)"
     id="g6">
    <path
       fill="none"
       stroke-width="0.3985"
       stroke-linecap="butt"
       stroke-linejoin="miter"
       stroke="#000000"
       stroke-opacity="1"
       stroke-miterlimit="10"
       d="m 24.379125,14.172125 c 5.3125,-5.3125 8.300781,-12.527344 8.300781,-20.042969"
       transform="matrix(1,0,0,-1,0.199,42.719)"
       id="path6" />
  </g>
</svg>
