<?xml version="1.0" encoding="UTF-8" standalone="no"?>
<svg
   width="226.77576pt"
   height="113.98749pt"
   viewBox="0 0 226.77575 113.98749"
   version="1.1"
   id="svg10"
   xmlns="http://www.w3.org/2000/svg"
   xmlns:svg="http://www.w3.org/2000/svg">
  <defs
     id="defs3">
    <clipPath
       id="clip-0">
      <path
         clip-rule="nonzero"
         d="m 225,111 h 2 v 3.18359 h -2 z m 0,0"
         id="path1" />
    </clipPath>
    <clipPath
       id="clip-1">
      <path
         clip-rule="nonzero"
         d="m 0,111 h 3 v 3.18359 H 0 Z m 0,0"
         id="path2" />
    </clipPath>
    <clipPath
       id="clip-2">
      <path
         clip-rule="nonzero"
         d="M 11,11 H 216 V 114.18359 H 11 Z m 0,0"
         id="path3" />
    </clipPath>
  </defs>
  <path
     fill="none"
     stroke-width="0.3985"
     stroke-linecap="butt"
     stroke-linejoin="miter"
     stroke="#000000"
     stroke-opacity="1"
     stroke-miterlimit="10"
     d="M 113.38983,0.46014125 V 113.38983 h 112.92969"
     id="path4" />
  <path
     fill="none"
     stroke-width="0.31879"
     stroke-linecap="round"
     stroke-linejoin="round"
     stroke="#000000"
     stroke-opacity="1"
     stroke-miterlimit="10"
     d="m 111.79608,1.6554543 c 0.59766,-0.101563 1.49219,-1.19531305 1.59375,-1.49609405 0.0977,0.300781 0.99609,1.39453105 1.59375,1.49609405"
     id="path5" />
  <g
     clip-path="url(#clip-0)"
     id="g6"
     transform="translate(-0.19610875,-0.19610875)">
    <path
       fill="none"
       stroke-width="0.31879"
       stroke-linecap="round"
       stroke-linejoin="round"
       stroke="#000000"
       stroke-opacity="1"
       stroke-miterlimit="10"
       d="M -1.193647,1.592812 C -1.095991,0.995156 0.001665,0.100625 0.29854,-9.375e-4 0.001665,-0.0985938 -1.095991,-0.997031 -1.193647,-1.594688"
       transform="matrix(1,0,0,-1,226.51396,113.585)"
       id="path6" />
  </g>
  <path
     fill="none"
     stroke-width="0.3985"
     stroke-linecap="butt"
     stroke-linejoin="miter"
     stroke="#000000"
     stroke-opacity="1"
     stroke-miterlimit="10"
     d="M 0.46014125,113.38983 H 113.38983"
     id="path7" />
  <g
     clip-path="url(#clip-1)"
     id="g8"
     transform="translate(-0.19610875,-0.19610875)">
    <path
       fill="none"
       stroke-width="0.31879"
       stroke-linecap="round"
       stroke-linejoin="round"
       stroke="#000000"
       stroke-opacity="1"
       stroke-miterlimit="10"
       d="M -1.195523,1.594688 C -1.09396,0.997031 -2.1e-4,0.0985938 0.300571,9.375e-4 -2.1e-4,-0.100625 -1.09396,-0.995156 -1.195523,-1.592812"
       transform="matrix(-1,0,0,1,0.65604,113.585)"
       id="path8" />
  </g>
  <path
     fill-rule="nonzero"
     fill="#ff0000"
     fill-opacity="1"
     d="m 198.42889,113.38983 c 0,-47.089845 -37.95313,-85.04297 -85.03906,-85.04297 -47.089845,0 -85.04297,37.953125 -85.04297,85.04297"
     id="path9" />
  <g
     clip-path="url(#clip-2)"
     id="g10"
     transform="translate(-0.19610875,-0.19610875)">
    <path
       fill="none"
       stroke-width="1.19553"
       stroke-linecap="butt"
       stroke-linejoin="miter"
       stroke="#000000"
       stroke-opacity="1"
       stroke-miterlimit="10"
       d="M 85.04,-9.375e-4 C 85.04,47.088906 47.086875,85.042031 9.375e-4,85.042031 c -47.0898435,0 -85.0429685,-37.953125 -85.0429685,-85.0429685"
       transform="matrix(1,0,0,-1,113.585,113.585)"
       id="path10" />
  </g>
</svg>
