<?xml version="1.0" encoding="UTF-8" standalone="no"?>
<svg
   width="37.046906pt"
   height="44.617188pt"
   viewBox="0 0 37.046904 44.617188"
   version="1.1"
   id="svg6"
   xmlns="http://www.w3.org/2000/svg"
   xmlns:svg="http://www.w3.org/2000/svg">
  <defs
     id="defs3">
    <clipPath
       id="clip-0">
      <path
         clip-rule="nonzero"
         d="M 0,0 H 35 V 44.617188 H 0 Z m 0,0"
         id="path1" />
    </clipPath>
    <clipPath
       id="clip-1">
      <path
         clip-rule="nonzero"
         d="M 9,14 H 35 V 44.617188 H 9 Z m 0,0"
         id="path2" />
    </clipPath>
    <clipPath
       id="clip-2">
      <path
         clip-rule="nonzero"
         d="M 22,14 H 40.363281 V 44.617188 H 22 Z m 0,0"
         id="path3" />
    </clipPath>
  </defs>
  <g
     clip-path="url(#clip-0)"
     id="g4">
    <path
       fill="none"
       stroke-width="0.3985"
       stroke-linecap="butt"
       stroke-linejoin="miter"
       stroke="#000000"
       stroke-opacity="1"
       stroke-miterlimit="10"
       d="M 2.1875e-4,-0.001875 H 28.347875 v 44.222656 z m 0,0"
       transform="matrix(1,0,0,-1,0.199,44.42)"
       id="path4" />
  </g>
  <g
     clip-path="url(#clip-1)"
     id="g5">
    <path
       fill="none"
       stroke-width="0.3985"
       stroke-linecap="butt"
       stroke-linejoin="miter"
       stroke="#000000"
       stroke-opacity="1"
       stroke-miterlimit="10"
       d="M 28.347875,23.810625 15.308813,-0.001875"
       transform="matrix(1,0,0,-1,0.199,44.42)"
       id="path5" />
  </g>
  <g
     clip-path="url(#clip-2)"
     id="g6">
    <path
       fill="none"
       stroke-width="0.3985"
       stroke-linecap="butt"
       stroke-linejoin="miter"
       stroke="#000000"
       stroke-opacity="1"
       stroke-miterlimit="10"
       d="m 28.347875,23.810625 c 5.3125,-5.3125 8.300781,-12.527344 8.300781,-20.042969"
       transform="matrix(1,0,0,-1,0.199,44.42)"
       id="path6" />
  </g>
</svg>
