<?xml version="1.0" encoding="UTF-8" standalone="no"?>
<svg
   width="368.50781pt"
   height="141.93359pt"
   viewBox="0 0 368.50781 141.9336"
   version="1.1"
   id="svg24"
   xmlns="http://www.w3.org/2000/svg"
   xmlns:svg="http://www.w3.org/2000/svg">
  <defs
     id="defs10">
    <clipPath
       id="clip-0">
      <path
         clip-rule="nonzero"
         d="M 14,19 H 128 V 142.13281 H 14 Z m 0,0"
         id="path1" />
    </clipPath>
    <clipPath
       id="clip-1">
      <path
         clip-rule="nonzero"
         d="m 1,141 h 140 v 1.13281 H 1 Z m 0,0"
         id="path2" />
    </clipPath>
    <clipPath
       id="clip-2">
      <path
         clip-rule="nonzero"
         d="m 0,140 h 4 v 2.13281 H 0 Z m 0,0"
         id="path3" />
    </clipPath>
    <clipPath
       id="clip-3">
      <path
         clip-rule="nonzero"
         d="m 138,140 h 4 v 2.13281 h -4 z m 0,0"
         id="path4" />
    </clipPath>
    <clipPath
       id="clip-4">
      <path
         clip-rule="nonzero"
         d="m 70,1 h 2 v 141.13281 h -2 z m 0,0"
         id="path5" />
    </clipPath>
    <clipPath
       id="clip-5">
      <path
         clip-rule="nonzero"
         d="M 240,19 H 355 V 142.13281 H 240 Z m 0,0"
         id="path6" />
    </clipPath>
    <clipPath
       id="clip-6">
      <path
         clip-rule="nonzero"
         d="m 228,141 h 139 v 1.13281 H 228 Z m 0,0"
         id="path7" />
    </clipPath>
    <clipPath
       id="clip-7">
      <path
         clip-rule="nonzero"
         d="m 226,140 h 5 v 2.13281 h -5 z m 0,0"
         id="path8" />
    </clipPath>
    <clipPath
       id="clip-8">
      <path
         clip-rule="nonzero"
         d="m 365,140 h 4 v 2.13281 h -4 z m 0,0"
         id="path9" />
    </clipPath>
    <clipPath
       id="clip-9">
      <path
         clip-rule="nonzero"
         d="m 297,1 h 2 v 141.13281 h -2 z m 0,0"
         id="path10" />
    </clipPath>
  </defs>
  <path
     fill="none"
     stroke-width="0.3985"
     stroke-linecap="butt"
     stroke-linejoin="miter"
     stroke="#ff0000"
     stroke-opacity="1"
     stroke-miterlimit="10"
     d="M 5.667968,127.55859 H 136.06641 M 5.667968,113.38672 H 136.06641 M 5.667968,99.210937 H 136.06641 M 5.667968,85.039062 H 136.06641 M 5.667968,70.867187 H 136.06641 M 5.667968,56.691406 H 136.06641 M 5.667968,42.519531 H 136.06641 M 5.667968,28.343751 H 136.06641"
     id="path11" />
  <g
     clip-path="url(#clip-0)"
     id="g12"
     transform="translate(-0.195312,-0.199219)">
    <path
       fill="none"
       stroke-width="0.3985"
       stroke-linecap="butt"
       stroke-linejoin="miter"
       stroke="#0000ff"
       stroke-opacity="1"
       stroke-miterlimit="10"
       d="M -283.46981,-0.00159375 V 121.89294 M -269.29403,-0.00159375 V 121.89294 M -255.12216,-0.00159375 V 121.89294 M -240.94637,-0.00159375 V 121.89294 M -226.7745,-0.00159375 V 121.89294 M -212.60262,-0.00159375 V 121.89294 M -198.42684,-0.00159375 V 121.89294 M -184.25497,-0.00159375 V 121.89294 M -170.07919,-0.00159375 V 121.89294"
       transform="matrix(1,0,0,-1,297.837,141.932)"
       id="path12" />
  </g>
  <g
     clip-path="url(#clip-1)"
     id="g13"
     transform="translate(-0.195312,-0.199219)">
    <path
       fill="none"
       stroke-width="0.3985"
       stroke-linecap="butt"
       stroke-linejoin="miter"
       stroke="#000000"
       stroke-opacity="1"
       stroke-miterlimit="10"
       d="m -295.6495,-0.00159375 h 137.75"
       transform="matrix(1,0,0,-1,297.837,141.932)"
       id="path13" />
  </g>
  <g
     clip-path="url(#clip-2)"
     id="g14"
     transform="translate(-0.195312,-0.199219)">
    <path
       fill-rule="nonzero"
       fill="#000000"
       fill-opacity="1"
       d="m 0.195312,141.93359 3.1875,1.59375 -1.195312,-1.59375 1.195312,-1.59375"
       id="path14" />
  </g>
  <g
     clip-path="url(#clip-3)"
     id="g15"
     transform="translate(-0.195312,-0.199219)">
    <path
       fill-rule="nonzero"
       fill="#000000"
       fill-opacity="1"
       d="m 141.92969,141.93359 -3.1875,-1.59375 1.19531,1.59375 -1.19531,1.59375"
       id="path15" />
  </g>
  <g
     clip-path="url(#clip-4)"
     id="g16"
     transform="translate(-0.195312,-0.199219)">
    <path
       fill="none"
       stroke-width="0.3985"
       stroke-linecap="butt"
       stroke-linejoin="miter"
       stroke="#000000"
       stroke-opacity="1"
       stroke-miterlimit="10"
       d="M -226.7745,-0.00159375 V 139.74059"
       transform="matrix(1,0,0,-1,297.837,141.932)"
       id="path16" />
  </g>
  <path
     fill-rule="nonzero"
     fill="#000000"
     fill-opacity="1"
     d="m 70.867188,0 -1.59375,3.1875 1.59375,-1.195313 1.59375,1.195313"
     id="path17" />
  <path
     fill="none"
     stroke-width="0.3985"
     stroke-linecap="butt"
     stroke-linejoin="miter"
     stroke="#ff0000"
     stroke-opacity="1"
     stroke-miterlimit="10"
     d="M 232.44531,127.55859 H 362.83984 M 232.44531,113.38672 H 362.83984 M 232.44531,99.210937 H 362.83984 M 232.44531,85.039062 H 362.83984 M 232.44531,70.867187 H 362.83984 M 232.44531,56.691406 H 362.83984 M 232.44531,42.519531 H 362.83984 M 232.44531,28.343751 h 130.39453"
     id="path18" />
  <g
     clip-path="url(#clip-5)"
     id="g19"
     transform="translate(-0.195312,-0.199219)">
    <path
       fill="none"
       stroke-width="0.3985"
       stroke-linecap="butt"
       stroke-linejoin="miter"
       stroke="#0000ff"
       stroke-opacity="1"
       stroke-miterlimit="10"
       d="M -56.692469,-0.00159375 V 121.89294 M -42.520594,-0.00159375 V 121.89294 M -28.348719,-0.00159375 V 121.89294 M -14.172937,-0.00159375 V 121.89294 M -0.0010625,-0.00159375 V 121.89294 M 14.174719,-0.00159375 V 121.89294 M 28.346594,-0.00159375 V 121.89294 M 42.518469,-0.00159375 V 121.89294 M 56.69425,-0.00159375 V 121.89294"
       transform="matrix(1,0,0,-1,297.837,141.932)"
       id="path19" />
  </g>
  <g
     clip-path="url(#clip-6)"
     id="g20"
     transform="translate(-0.195312,-0.199219)">
    <path
       fill="none"
       stroke-width="0.3985"
       stroke-linecap="butt"
       stroke-linejoin="miter"
       stroke="#000000"
       stroke-opacity="1"
       stroke-miterlimit="10"
       d="m -68.876062,-0.00159375 h 137.75"
       transform="matrix(1,0,0,-1,297.837,141.932)"
       id="path20" />
  </g>
  <g
     clip-path="url(#clip-7)"
     id="g21"
     transform="translate(-0.195312,-0.199219)">
    <path
       fill-rule="nonzero"
       fill="#000000"
       fill-opacity="1"
       d="m 226.96875,141.93359 3.1875,1.59375 -1.19531,-1.59375 1.19531,-1.59375"
       id="path21" />
  </g>
  <g
     clip-path="url(#clip-8)"
     id="g22"
     transform="translate(-0.195312,-0.199219)">
    <path
       fill-rule="nonzero"
       fill="#000000"
       fill-opacity="1"
       d="m 368.70312,141.93359 -3.1875,-1.59375 1.19532,1.59375 -1.19532,1.59375"
       id="path22" />
  </g>
  <g
     clip-path="url(#clip-9)"
     id="g23"
     transform="translate(-0.195312,-0.199219)">
    <path
       fill="none"
       stroke-width="0.3985"
       stroke-linecap="butt"
       stroke-linejoin="miter"
       stroke="#000000"
       stroke-opacity="1"
       stroke-miterlimit="10"
       d="M -0.0010625,-0.00159375 V 139.74059"
       transform="matrix(1,0,0,-1,297.837,141.932)"
       id="path23" />
  </g>
  <path
     fill-rule="nonzero"
     fill="#000000"
     fill-opacity="1"
     d="m 297.64063,0 -1.59375,3.1875 1.59375,-1.195313 1.59375,1.195313"
     id="path24" />
</svg>
