<?xml version="1.0" encoding="UTF-8" standalone="no"?>
<svg
   width="226.77576pt"
   height="57.288265pt"
   viewBox="0 0 226.77575 57.288262"
   version="1.1"
   id="svg11"
   xmlns="http://www.w3.org/2000/svg"
   xmlns:svg="http://www.w3.org/2000/svg">
  <defs
     id="defs5">
    <clipPath
       id="clip-0">
      <path
         clip-rule="nonzero"
         d="M 113,10 H 227 V 67.519531 H 113 Z m 0,0"
         id="path1" />
    </clipPath>
    <clipPath
       id="clip-1">
      <path
         clip-rule="nonzero"
         d="m 225,65 h 2 v 2.519531 h -2 z m 0,0"
         id="path2" />
    </clipPath>
    <clipPath
       id="clip-2">
      <path
         clip-rule="nonzero"
         d="m 0,66 h 114 v 1.519531 H 0 Z m 0,0"
         id="path3" />
    </clipPath>
    <clipPath
       id="clip-3">
      <path
         clip-rule="nonzero"
         d="m 0,65 h 3 v 2.519531 H 0 Z m 0,0"
         id="path4" />
    </clipPath>
    <clipPath
       id="clip-4">
      <path
         clip-rule="nonzero"
         d="M 11,0 H 216 V 67.519531 H 11 Z m 0,0"
         id="path5" />
    </clipPath>
  </defs>
  <g
     clip-path="url(#clip-0)"
     id="g6"
     transform="translate(-0.19610875,-10.231264)">
    <path
       fill="none"
       stroke-width="0.3985"
       stroke-linecap="butt"
       stroke-linejoin="miter"
       stroke="#000000"
       stroke-opacity="1"
       stroke-miterlimit="10"
       d="M 9.375e-4,56.2355 V 0.001125 H 112.93063"
       transform="matrix(1,0,0,-1,113.585,66.923)"
       id="path6" />
  </g>
  <path
     fill="none"
     stroke-width="0.31879"
     stroke-linecap="round"
     stroke-linejoin="round"
     stroke="#000000"
     stroke-opacity="1"
     stroke-miterlimit="10"
     d="m 111.79608,1.6515488 c 0.59766,-0.097657 1.49219,-1.19531295 1.59375,-1.49218795 0.0977,0.296875 0.99609,1.39453095 1.59375,1.49218795"
     id="path7" />
  <g
     clip-path="url(#clip-1)"
     id="g8"
     transform="translate(-0.19610875,-10.231264)">
    <path
       fill="none"
       stroke-width="0.31879"
       stroke-linecap="round"
       stroke-linejoin="round"
       stroke="#000000"
       stroke-opacity="1"
       stroke-miterlimit="10"
       d="M -1.193647,1.594875 C -1.095991,0.997219 0.001665,0.0987813 0.29854,0.001125 0.001665,-0.100437 -1.095991,-0.994969 -1.193647,-1.592625"
       transform="matrix(1,0,0,-1,226.51396,66.923)"
       id="path8" />
  </g>
  <g
     clip-path="url(#clip-2)"
     id="g9"
     transform="translate(-0.19610875,-10.231264)">
    <path
       fill="none"
       stroke-width="0.3985"
       stroke-linecap="butt"
       stroke-linejoin="miter"
       stroke="#000000"
       stroke-opacity="1"
       stroke-miterlimit="10"
       d="M -112.92875,0.001125 H 9.375e-4"
       transform="matrix(1,0,0,-1,113.585,66.923)"
       id="path9" />
  </g>
  <g
     clip-path="url(#clip-3)"
     id="g10"
     transform="translate(-0.19610875,-10.231264)">
    <path
       fill="none"
       stroke-width="0.31879"
       stroke-linecap="round"
       stroke-linejoin="round"
       stroke="#000000"
       stroke-opacity="1"
       stroke-miterlimit="10"
       d="M -1.195523,1.592625 C -1.09396,0.994969 -2.1e-4,0.100437 0.300571,-0.001125 -2.1e-4,-0.0987813 -1.09396,-0.997219 -1.195523,-1.594875"
       transform="matrix(-1,0,0,1,0.65604,66.923)"
       id="path10" />
  </g>
  <g
     clip-path="url(#clip-4)"
     id="g11"
     transform="translate(-0.19610875,-10.231264)">
    <path
       fill="none"
       stroke-width="1.19553"
       stroke-linecap="butt"
       stroke-linejoin="miter"
       stroke="#000000"
       stroke-opacity="1"
       stroke-miterlimit="10"
       d="m 85.04,0.001125 c 0,66.324219 -170.082031,66.324219 -170.082031,0"
       transform="matrix(1,0,0,-1,113.585,66.923)"
       id="path11" />
  </g>
</svg>
