<?xml version="1.0" encoding="UTF-8" standalone="no"?>
<svg
   width="226.77576pt"
   height="86.234375pt"
   viewBox="0 0 226.77575 86.234374"
   version="1.1"
   id="svg9"
   xmlns="http://www.w3.org/2000/svg"
   xmlns:svg="http://www.w3.org/2000/svg">
  <defs
     id="defs3">
    <clipPath
       id="clip-0">
      <path
         clip-rule="nonzero"
         d="m 225,83 h 2 v 3.234375 h -2 z m 0,0"
         id="path1" />
    </clipPath>
    <clipPath
       id="clip-1">
      <path
         clip-rule="nonzero"
         d="m 0,83 h 3 v 3.234375 H 0 Z m 0,0"
         id="path2" />
    </clipPath>
    <clipPath
       id="clip-2">
      <path
         clip-rule="nonzero"
         d="M 11,0 H 216 V 86.234375 H 11 Z m 0,0"
         id="path3" />
    </clipPath>
  </defs>
  <path
     fill="none"
     stroke-width="0.3985"
     stroke-linecap="butt"
     stroke-linejoin="miter"
     stroke="#000000"
     stroke-opacity="1"
     stroke-miterlimit="10"
     d="M 113.38983,29.402344 V 85.636719 H 226.31952"
     id="path4" />
  <path
     fill="none"
     stroke-width="0.31879"
     stroke-linecap="round"
     stroke-linejoin="round"
     stroke="#000000"
     stroke-opacity="1"
     stroke-miterlimit="10"
     d="m 111.79608,30.597656 c 0.59766,-0.101562 1.49219,-1.195312 1.59375,-1.496093 0.0977,0.300781 0.99609,1.394531 1.59375,1.496093"
     id="path5" />
  <g
     clip-path="url(#clip-0)"
     id="g6"
     transform="translate(-0.19610875)">
    <path
       fill="none"
       stroke-width="0.31879"
       stroke-linecap="round"
       stroke-linejoin="round"
       stroke="#000000"
       stroke-opacity="1"
       stroke-miterlimit="10"
       d="M -1.193647,1.594031 C -1.095991,0.996375 0.001665,0.0979375 0.29854,2.8125e-4 0.001665,-0.101281 -1.095991,-0.995812 -1.193647,-1.593469"
       transform="matrix(1,0,0,-1,226.51396,85.637)"
       id="path6" />
  </g>
  <path
     fill="none"
     stroke-width="0.3985"
     stroke-linecap="butt"
     stroke-linejoin="miter"
     stroke="#000000"
     stroke-opacity="1"
     stroke-miterlimit="10"
     d="M 0.46014125,85.636719 H 113.38983"
     id="path7" />
  <g
     clip-path="url(#clip-1)"
     id="g8"
     transform="translate(-0.19610875)">
    <path
       fill="none"
       stroke-width="0.31879"
       stroke-linecap="round"
       stroke-linejoin="round"
       stroke="#000000"
       stroke-opacity="1"
       stroke-miterlimit="10"
       d="M -1.195523,1.593469 C -1.09396,0.995812 -2.1e-4,0.101281 0.300571,-2.8125e-4 -2.1e-4,-0.0979375 -1.09396,-0.996375 -1.195523,-1.594031"
       transform="matrix(-1,0,0,1,0.65604,85.637)"
       id="path8" />
  </g>
  <g
     clip-path="url(#clip-2)"
     id="g9"
     transform="translate(-0.19610875)">
    <path
       fill="none"
       stroke-width="1.19553"
       stroke-linecap="butt"
       stroke-linejoin="miter"
       stroke="#000000"
       stroke-opacity="1"
       stroke-miterlimit="10"
       d="M 85.04,2.8125e-4 C 85.04,47.090125 47.086875,85.039344 9.375e-4,85.039344 -47.088906,85.039344 -85.042031,47.090125 -85.042031,2.8125e-4"
       transform="matrix(1,0,0,-1,113.585,85.637)"
       id="path9" />
  </g>
</svg>
