<?xml version="1.0" encoding="UTF-8" standalone="no"?>
<svg
   width="28.746124pt"
   height="48.585968pt"
   viewBox="0 0 28.746125 48.585969"
   version="1.1"
   id="svg6"
   xmlns="http://www.w3.org/2000/svg"
   xmlns:svg="http://www.w3.org/2000/svg">
  <defs
     id="defs3">
    <clipPath
       id="clip-0">
      <path
         clip-rule="nonzero"
         d="M 0,0 H 32.0625 V 48.757812 H 0 Z m 0,0"
         id="path1" />
    </clipPath>
    <clipPath
       id="clip-1">
      <path
         clip-rule="nonzero"
         d="M 0,18 H 21 V 48.757812 H 0 Z m 0,0"
         id="path2" />
    </clipPath>
    <clipPath
       id="clip-2">
      <path
         clip-rule="nonzero"
         d="M 8,18 H 32.0625 V 48.757812 H 8 Z m 0,0"
         id="path3" />
    </clipPath>
  </defs>
  <g
     clip-path="url(#clip-0)"
     id="g4">
    <path
       fill="none"
       stroke-width="0.3985"
       stroke-linecap="butt"
       stroke-linejoin="miter"
       stroke="#000000"
       stroke-opacity="1"
       stroke-miterlimit="10"
       d="M 2.1875e-4,0.00128125 H 28.347875 V 48.188781 Z m 0,0"
       transform="matrix(1,0,0,-1,0.199,48.388)"
       id="path4" />
  </g>
  <g
     clip-path="url(#clip-1)"
     id="g5">
    <path
       fill="none"
       stroke-width="0.3985"
       stroke-linecap="butt"
       stroke-linejoin="miter"
       stroke="#000000"
       stroke-opacity="1"
       stroke-miterlimit="10"
       d="M 2.1875e-4,0.00128125 H 14.172094 V 24.380188 Z m 0,0"
       transform="matrix(1,0,0,-1,0.199,48.388)"
       id="path5" />
  </g>
  <g
     clip-path="url(#clip-2)"
     id="g6">
    <path
       fill="none"
       stroke-width="0.3985"
       stroke-linecap="butt"
       stroke-linejoin="miter"
       stroke="#000000"
       stroke-opacity="1"
       stroke-miterlimit="10"
       d="M 14.172094,24.380188 C 22.941625,19.313781 28.347875,9.954406 28.347875,-0.170594"
       transform="matrix(1,0,0,-1,0.199,48.388)"
       id="path6" />
  </g>
</svg>
