<?xml version="1.0" standalone="no"?>
<svg width="728.00" height="696.00"
     viewBox="51.00 0.00 728.00 696.00"
     xmlns="http://www.w3.org/2000/svg" version="1.1">
  <g transform="translate(0,696.00) scale(1,-1)">
    <path d="M 253.00 675.00 C 226.00 668.00, 191.00 652.00, 169.00 638.00 C 113.00 601.00, 64.00 543.00, 64.00 457.00 C 64.00 396.00, 86.00 345.00, 132.00 277.00 C 149.00 257.00, 210.00 171.00, 216.00 161.00 C 226.00 147.00, 241.00 120.00, 241.00 119.00 C 241.00 118.00, 225.00 118.00, 202.00 118.00 C 159.00 119.00, 151.00 120.00, 140.00 125.00 C 135.00 128.00, 134.00 129.00, 132.00 133.00 C 127.00 142.00, 122.00 164.00, 116.00 195.00 C 115.00 203.00, 114.00 211.00, 113.00 212.00 L 113.00 215.00 L 51.00 215.00 L 51.00 212.00 C 52.00 211.00, 60.00 164.00, 70.00 108.00 C 79.00 51.00, 87.00 4.00, 88.00 3.00 L 88.00 0.00 L 196.00 0.00 C 290.00 0.00, 304.00 0.00, 307.00 2.00 C 315.00 5.00, 318.00 10.00, 318.00 26.00 C 318.00 32.00, 318.00 40.00, 317.00 49.00 C 313.00 100.00, 303.00 145.00, 275.00 242.00 C 254.00 312.00, 246.00 341.00, 240.00 375.00 C 235.00 404.00, 232.00 432.00, 232.00 458.00 C 232.00 581.00, 292.00 645.00, 415.00 645.00 C 538.00 645.00, 598.00 581.00, 598.00 458.00 C 598.00 432.00, 595.00 404.00, 590.00 375.00 C 584.00 341.00, 576.00 312.00, 555.00 242.00 C 527.00 145.00, 517.00 100.00, 513.00 49.00 C 512.00 40.00, 512.00 32.00, 512.00 26.00 C 512.00 10.00, 515.00 5.00, 523.00 2.00 C 526.00 0.00, 540.00 0.00, 634.00 0.00 L 742.00 0.00 L 742.00 3.00 C 743.00 4.00, 751.00 51.00, 760.00 108.00 C 770.00 164.00, 778.00 211.00, 779.00 212.00 L 779.00 215.00 L 717.00 215.00 L 717.00 212.00 C 716.00 211.00, 715.00 203.00, 714.00 195.00 C 708.00 164.00, 703.00 142.00, 698.00 133.00 C 696.00 129.00, 695.00 128.00, 690.00 125.00 C 679.00 120.00, 671.00 119.00, 628.00 118.00 C 605.00 118.00, 589.00 118.00, 589.00 119.00 C 589.00 120.00, 604.00 147.00, 614.00 161.00 C 620.00 170.00, 682.00 257.00, 698.00 277.00 C 735.00 331.00, 755.00 375.00, 763.00 421.00 C 765.00 431.00, 766.00 445.00, 766.00 458.00 C 766.00 465.00, 766.00 472.00, 765.00 477.00 C 758.00 543.00, 720.00 600.00, 661.00 638.00 C 589.00 679.00, 520.00 696.00, 403.00 696.00 C 340.00 696.00, 294.00 688.00, 253.00 675.00 Z" fill="black" stroke="none" />
  </g>
</svg>
