<?xml version="1.0" encoding="UTF-8" standalone="no"?>
<svg
   width="103.74438pt"
   height="128.75322pt"
   viewBox="0 0 103.74439 128.75322"
   version="1.1"
   id="svg5"
   xmlns="http://www.w3.org/2000/svg"
   xmlns:svg="http://www.w3.org/2000/svg">
  <defs
     id="defs5" />
  <path
     fill="none"
     stroke-width="2.98883"
     stroke-linecap="round"
     stroke-linejoin="round"
     stroke="#000000"
     stroke-opacity="1"
     stroke-miterlimit="10"
     d="m 1.494415,47.75815 c 36.710938,0 65.160157,-30.757809 73.421876,-39.6874986"
     id="path1" />
  <path
     fill="none"
     stroke-width="2.98883"
     stroke-linecap="round"
     stroke-linejoin="round"
     stroke="#000000"
     stroke-opacity="1"
     stroke-miterlimit="10"
     d="m 74.916291,8.0706514 c 3.476562,-8.60938001 -21.253907,-8.92578001 -23.8125,0"
     id="path2" />
  <path
     fill="none"
     stroke-width="2.98883"
     stroke-linecap="round"
     stroke-linejoin="round"
     stroke="#000000"
     stroke-opacity="1"
     stroke-miterlimit="10"
     d="M 51.103791,8.0706514 C 31.232697,50.230806 14.576447,131.00034 61.025666,127.12924"
     id="path3" />
  <path
     fill="none"
     stroke-width="2.98883"
     stroke-linecap="round"
     stroke-linejoin="round"
     stroke="#000000"
     stroke-opacity="1"
     stroke-miterlimit="10"
     d="M 61.025666,127.12924 C 85.599884,123.38706 5.8108215,58.109712 21.338166,77.523775 34.904572,108.53159 114.27957,73.808931 100.71317,42.797212"
     id="path4" />
  <path
     fill="none"
     stroke-width="2.98883"
     stroke-linecap="round"
     stroke-linejoin="round"
     stroke="#000000"
     stroke-opacity="1"
     stroke-miterlimit="10"
     d="m 100.71317,42.797212 c 0,-3.871094 -9.921879,-3.871094 -9.921879,0 0,1.933594 4.960937,1.933594 4.960937,0 0,-0.96875 -2.480469,-0.96875 -2.480469,0"
     id="path5" />
</svg>
