<?xml version="1.0" encoding="UTF-8" standalone="no"?>
<svg
   width="6.773438pt"
   height="6.7729998pt"
   viewBox="0 0 6.7734379 6.7729997"
   version="1.1"
   id="svg8"
   xmlns="http://www.w3.org/2000/svg"
   xmlns:svg="http://www.w3.org/2000/svg">
  <defs
     id="defs4">
    <clipPath
       id="clip-0">
      <path
         clip-rule="nonzero"
         d="M 0,0 H 6.773438 V 1 H 0 Z m 0,0"
         id="path1" />
    </clipPath>
    <clipPath
       id="clip-1">
      <path
         clip-rule="nonzero"
         d="M 0,0 H 1 V 6.773438 H 0 Z m 0,0"
         id="path2" />
    </clipPath>
    <clipPath
       id="clip-2">
      <path
         clip-rule="nonzero"
         d="M 6,0 H 6.773438 V 6.773438 H 6 Z m 0,0"
         id="path3" />
    </clipPath>
    <clipPath
       id="clip-3">
      <path
         clip-rule="nonzero"
         d="M 0,6 H 6.773438 V 6.773438 H 0 Z m 0,0"
         id="path4" />
    </clipPath>
  </defs>
  <g
     clip-path="url(#clip-0)"
     id="g5"
     transform="translate(0,-2.1874905e-4)">
    <path
       fill="none"
       stroke-width="0.398"
       stroke-linecap="butt"
       stroke-linejoin="miter"
       stroke="#000000"
       stroke-opacity="1"
       stroke-miterlimit="10"
       d="M 0,7.8125e-4 H 6.773438"
       transform="matrix(1,0,0,-1,0,0.2)"
       id="path5" />
  </g>
  <g
     clip-path="url(#clip-1)"
     id="g6"
     transform="translate(0,-2.1874905e-4)">
    <path
       fill="none"
       stroke-width="0.398"
       stroke-linecap="butt"
       stroke-linejoin="miter"
       stroke="#000000"
       stroke-opacity="1"
       stroke-miterlimit="10"
       d="M 2.1875e-4,0.00178125 V 6.376781"
       transform="matrix(1,0,0,-1,0.199,6.576)"
       id="path6" />
  </g>
  <g
     clip-path="url(#clip-2)"
     id="g7"
     transform="translate(0,-2.1874905e-4)">
    <path
       fill="none"
       stroke-width="0.398"
       stroke-linecap="butt"
       stroke-linejoin="miter"
       stroke="#000000"
       stroke-opacity="1"
       stroke-miterlimit="10"
       d="M -7.8125e-4,0.00178125 V 6.376781"
       transform="matrix(1,0,0,-1,6.575,6.576)"
       id="path7" />
  </g>
  <g
     clip-path="url(#clip-3)"
     id="g8"
     transform="translate(0,-2.1874905e-4)">
    <path
       fill="none"
       stroke-width="0.398"
       stroke-linecap="butt"
       stroke-linejoin="miter"
       stroke="#000000"
       stroke-opacity="1"
       stroke-miterlimit="10"
       d="M 0,0.00178125 H 6.773438"
       transform="matrix(1,0,0,-1,0,6.576)"
       id="path8" />
  </g>
</svg>
