<?xml version="1.0" encoding="UTF-8" standalone="no"?>
<svg
   width="65.460938pt"
   height="56.695312pt"
   viewBox="0 0 65.460937 56.695313"
   version="1.1"
   id="svg57"
   xmlns="http://www.w3.org/2000/svg"
   xmlns:svg="http://www.w3.org/2000/svg">
  <defs
     id="defs16">
    <clipPath
       id="clip-0">
      <path
         clip-rule="nonzero"
         d="M 0,0 H 66 V 56.695312 H 0 Z m 0,0"
         id="path1" />
    </clipPath>
    <clipPath
       id="clip-1">
      <path
         clip-rule="nonzero"
         d="M 16,28 H 50 V 56.695312 H 16 Z m 0,0"
         id="path2" />
    </clipPath>
    <clipPath
       id="clip-2">
      <path
         clip-rule="nonzero"
         d="M 40,42 H 58 V 56.695312 H 40 Z m 0,0"
         id="path3" />
    </clipPath>
    <clipPath
       id="clip-3">
      <path
         clip-rule="nonzero"
         d="M 8,42 H 25 V 56.695312 H 8 Z m 0,0"
         id="path4" />
    </clipPath>
    <clipPath
       id="clip-4">
      <path
         clip-rule="nonzero"
         d="m 53,49 h 9 v 7.695312 h -9 z m 0,0"
         id="path5" />
    </clipPath>
    <clipPath
       id="clip-5">
      <path
         clip-rule="nonzero"
         d="m 36,49 h 10 v 7.695312 H 36 Z m 0,0"
         id="path6" />
    </clipPath>
    <clipPath
       id="clip-6">
      <path
         clip-rule="nonzero"
         d="m 20,49 h 9 v 7.695312 h -9 z m 0,0"
         id="path7" />
    </clipPath>
    <clipPath
       id="clip-7">
      <path
         clip-rule="nonzero"
         d="m 4,49 h 9 v 7.695312 H 4 Z m 0,0"
         id="path8" />
    </clipPath>
    <clipPath
       id="clip-8">
      <path
         clip-rule="nonzero"
         d="m 59,53 h 5 v 3.695312 h -5 z m 0,0"
         id="path9" />
    </clipPath>
    <clipPath
       id="clip-9">
      <path
         clip-rule="nonzero"
         d="m 51,53 h 5 v 3.695312 h -5 z m 0,0"
         id="path10" />
    </clipPath>
    <clipPath
       id="clip-10">
      <path
         clip-rule="nonzero"
         d="m 26,53 h 5 v 3.695312 h -5 z m 0,0"
         id="path11" />
    </clipPath>
    <clipPath
       id="clip-11">
      <path
         clip-rule="nonzero"
         d="m 18,53 h 5 v 3.695312 h -5 z m 0,0"
         id="path12" />
    </clipPath>
    <clipPath
       id="clip-12">
      <path
         clip-rule="nonzero"
         d="m 42,53 h 6 v 3.695312 h -6 z m 0,0"
         id="path13" />
    </clipPath>
    <clipPath
       id="clip-13">
      <path
         clip-rule="nonzero"
         d="m 34,53 h 5 v 3.695312 h -5 z m 0,0"
         id="path14" />
    </clipPath>
    <clipPath
       id="clip-14">
      <path
         clip-rule="nonzero"
         d="m 10,53 h 5 v 3.695312 h -5 z m 0,0"
         id="path15" />
    </clipPath>
    <clipPath
       id="clip-15">
      <path
         clip-rule="nonzero"
         d="m 2,53 h 5 v 3.695312 H 2 Z m 0,0"
         id="path16" />
    </clipPath>
  </defs>
  <g
     clip-path="url(#clip-0)"
     id="g17">
    <path
       fill-rule="nonzero"
       fill="#000000"
       fill-opacity="1"
       d="M 32.730469,0 0,56.695312 h 65.460938 z m 0,0"
       id="path17" />
  </g>
  <g
     clip-path="url(#clip-1)"
     id="g18">
    <path
       fill-rule="nonzero"
       fill="#ffffff"
       fill-opacity="1"
       d="M 32.730469,56.695312 49.09375,28.347656 H 16.363281 Z m 0,0"
       id="path18" />
  </g>
  <g
     clip-path="url(#clip-2)"
     id="g19">
    <path
       fill-rule="nonzero"
       fill="#ffffff"
       fill-opacity="1"
       d="M 49.09375,56.695312 57.277344,42.523438 H 40.914062 Z m 0,0"
       id="path19" />
  </g>
  <g
     clip-path="url(#clip-3)"
     id="g20">
    <path
       fill-rule="nonzero"
       fill="#ffffff"
       fill-opacity="1"
       d="M 16.363281,56.695312 24.546875,42.523438 H 8.183594 Z m 0,0"
       id="path20" />
  </g>
  <path
     fill-rule="nonzero"
     fill="#ffffff"
     fill-opacity="1"
     d="M 32.730469,28.347656 40.914062,14.171875 H 24.546875 Z m 0,0"
     id="path21" />
  <g
     clip-path="url(#clip-4)"
     id="g22">
    <path
       fill-rule="nonzero"
       fill="#ffffff"
       fill-opacity="1"
       d="m 57.277344,56.695312 4.089844,-7.085937 H 53.1875 Z m 0,0"
       id="path22" />
  </g>
  <g
     clip-path="url(#clip-5)"
     id="g23">
    <path
       fill-rule="nonzero"
       fill="#ffffff"
       fill-opacity="1"
       d="m 40.914062,56.695312 4.089844,-7.085937 h -8.183594 z m 0,0"
       id="path23" />
  </g>
  <path
     fill-rule="nonzero"
     fill="#ffffff"
     fill-opacity="1"
     d="m 49.09375,42.519531 4.09375,-7.085937 h -8.183594 z m 0,0"
     id="path24" />
  <g
     clip-path="url(#clip-6)"
     id="g25">
    <path
       fill-rule="nonzero"
       fill="#ffffff"
       fill-opacity="1"
       d="m 24.546875,56.695312 4.09375,-7.085937 h -8.183594 z m 0,0"
       id="path25" />
  </g>
  <g
     clip-path="url(#clip-7)"
     id="g26">
    <path
       fill-rule="nonzero"
       fill="#ffffff"
       fill-opacity="1"
       d="m 8.183594,56.695312 4.089844,-7.085937 H 4.089844 Z m 0,0"
       id="path26" />
  </g>
  <path
     fill-rule="nonzero"
     fill="#ffffff"
     fill-opacity="1"
     d="m 16.363281,42.519531 4.09375,-7.085937 h -8.183593 z m 0,0"
     id="path27" />
  <path
     fill-rule="nonzero"
     fill="#ffffff"
     fill-opacity="1"
     d="m 40.914062,28.347656 4.089844,-7.085937 h -8.183594 z m 0,0"
     id="path28" />
  <path
     fill-rule="nonzero"
     fill="#ffffff"
     fill-opacity="1"
     d="m 24.546875,28.347656 4.09375,-7.085937 h -8.183594 z m 0,0"
     id="path29" />
  <path
     fill-rule="nonzero"
     fill="#ffffff"
     fill-opacity="1"
     d="m 32.730469,14.171875 4.089843,-7.085937 h -8.179687 z m 0,0"
     id="path30" />
  <g
     clip-path="url(#clip-8)"
     id="g31">
    <path
       fill-rule="nonzero"
       fill="#ffffff"
       fill-opacity="1"
       d="m 61.367188,56.695312 2.046874,-3.542968 h -4.089843 z m 0,0"
       id="path31" />
  </g>
  <g
     clip-path="url(#clip-9)"
     id="g32">
    <path
       fill-rule="nonzero"
       fill="#ffffff"
       fill-opacity="1"
       d="m 53.1875,56.695312 2.042969,-3.542968 h -4.089844 z m 0,0"
       id="path32" />
  </g>
  <path
     fill-rule="nonzero"
     fill="#ffffff"
     fill-opacity="1"
     d="m 57.277344,49.609375 2.046875,-3.542969 h -4.09375 z m 0,0"
     id="path33" />
  <g
     clip-path="url(#clip-10)"
     id="g34">
    <path
       fill-rule="nonzero"
       fill="#ffffff"
       fill-opacity="1"
       d="m 28.640625,56.695312 2.042969,-3.542968 H 26.59375 Z m 0,0"
       id="path34" />
  </g>
  <g
     clip-path="url(#clip-11)"
     id="g35">
    <path
       fill-rule="nonzero"
       fill="#ffffff"
       fill-opacity="1"
       d="M 20.457031,56.695312 22.5,53.152344 h -4.089844 z m 0,0"
       id="path35" />
  </g>
  <path
     fill-rule="nonzero"
     fill="#ffffff"
     fill-opacity="1"
     d="M 24.546875,49.609375 26.59375,46.066406 H 22.5 Z m 0,0"
     id="path36" />
  <path
     fill-rule="nonzero"
     fill="#ffffff"
     fill-opacity="1"
     d="m 45.003906,28.347656 2.046875,-3.542968 h -4.09375 z m 0,0"
     id="path37" />
  <path
     fill-rule="nonzero"
     fill="#ffffff"
     fill-opacity="1"
     d="m 36.820312,28.347656 2.046876,-3.542968 h -4.089844 z m 0,0"
     id="path38" />
  <path
     fill-rule="nonzero"
     fill="#ffffff"
     fill-opacity="1"
     d="m 40.914062,21.261719 2.042969,-3.546875 h -4.089843 z m 0,0"
     id="path39" />
  <g
     clip-path="url(#clip-12)"
     id="g40">
    <path
       fill-rule="nonzero"
       fill="#ffffff"
       fill-opacity="1"
       d="m 45.003906,56.695312 2.046875,-3.542968 h -4.09375 z m 0,0"
       id="path40" />
  </g>
  <g
     clip-path="url(#clip-13)"
     id="g41">
    <path
       fill-rule="nonzero"
       fill="#ffffff"
       fill-opacity="1"
       d="m 36.820312,56.695312 2.046876,-3.542968 h -4.089844 z m 0,0"
       id="path41" />
  </g>
  <path
     fill-rule="nonzero"
     fill="#ffffff"
     fill-opacity="1"
     d="m 40.914062,49.609375 2.042969,-3.542969 h -4.089843 z m 0,0"
     id="path42" />
  <g
     clip-path="url(#clip-14)"
     id="g43">
    <path
       fill-rule="nonzero"
       fill="#ffffff"
       fill-opacity="1"
       d="m 12.273438,56.695312 2.046874,-3.542968 h -4.09375 z m 0,0"
       id="path43" />
  </g>
  <g
     clip-path="url(#clip-15)"
     id="g44">
    <path
       fill-rule="nonzero"
       fill="#ffffff"
       fill-opacity="1"
       d="M 4.089844,56.695312 6.136719,53.152344 H 2.046875 Z m 0,0"
       id="path44" />
  </g>
  <path
     fill-rule="nonzero"
     fill="#ffffff"
     fill-opacity="1"
     d="m 8.183594,49.609375 2.042968,-3.542969 H 6.136719 Z m 0,0"
     id="path45" />
  <path
     fill-rule="nonzero"
     fill="#ffffff"
     fill-opacity="1"
     d="m 28.640625,28.347656 2.042969,-3.542968 H 26.59375 Z m 0,0"
     id="path46" />
  <path
     fill-rule="nonzero"
     fill="#ffffff"
     fill-opacity="1"
     d="M 20.457031,28.347656 22.5,24.804688 h -4.089844 z m 0,0"
     id="path47" />
  <path
     fill-rule="nonzero"
     fill="#ffffff"
     fill-opacity="1"
     d="M 24.546875,21.261719 26.59375,17.714844 H 22.5 Z m 0,0"
     id="path48" />
  <path
     fill-rule="nonzero"
     fill="#ffffff"
     fill-opacity="1"
     d="m 53.1875,42.519531 2.042969,-3.542969 h -4.089844 z m 0,0"
     id="path49" />
  <path
     fill-rule="nonzero"
     fill="#ffffff"
     fill-opacity="1"
     d="m 45.003906,42.519531 2.046875,-3.542969 h -4.09375 z m 0,0"
     id="path50" />
  <path
     fill-rule="nonzero"
     fill="#ffffff"
     fill-opacity="1"
     d="m 49.09375,35.433594 2.046875,-3.542969 h -4.089844 z m 0,0"
     id="path51" />
  <path
     fill-rule="nonzero"
     fill="#ffffff"
     fill-opacity="1"
     d="M 20.457031,42.519531 22.5,38.976562 h -4.089844 z m 0,0"
     id="path52" />
  <path
     fill-rule="nonzero"
     fill="#ffffff"
     fill-opacity="1"
     d="m 12.273438,42.519531 2.046874,-3.542969 h -4.09375 z m 0,0"
     id="path53" />
  <path
     fill-rule="nonzero"
     fill="#ffffff"
     fill-opacity="1"
     d="m 16.363281,35.433594 2.046875,-3.542969 h -4.089844 z m 0,0"
     id="path54" />
  <path
     fill-rule="nonzero"
     fill="#ffffff"
     fill-opacity="1"
     d="m 36.820312,14.171875 2.046876,-3.542969 h -4.089844 z m 0,0"
     id="path55" />
  <path
     fill-rule="nonzero"
     fill="#ffffff"
     fill-opacity="1"
     d="m 28.640625,14.171875 2.042969,-3.542969 H 26.59375 Z m 0,0"
     id="path56" />
  <path
     fill-rule="nonzero"
     fill="#ffffff"
     fill-opacity="1"
     d="m 32.730469,7.085938 2.046875,-3.542969 h -4.09375 z m 0,0"
     id="path57" />
</svg>
