<?xml version="1.0" encoding="utf-8" standalone="no"?>
<!DOCTYPE svg PUBLIC "-//W3C//DTD SVG 1.1//EN"
  "http://www.w3.org/Graphics/SVG/1.1/DTD/svg11.dtd">
<svg xmlns:xlink="http://www.w3.org/1999/xlink" width="864pt" height="432pt" viewBox="0 0 864 432" xmlns="http://www.w3.org/2000/svg" version="1.1">
 <metadata>
  <rdf:RDF xmlns:dc="http://purl.org/dc/elements/1.1/" xmlns:cc="http://creativecommons.org/ns#" xmlns:rdf="http://www.w3.org/1999/02/22-rdf-syntax-ns#">
   <cc:Work>
    <dc:type rdf:resource="http://purl.org/dc/dcmitype/StillImage"/>
    <dc:date>2025-04-12T17:58:19.619760</dc:date>
    <dc:format>image/svg+xml</dc:format>
    <dc:creator>
     <cc:Agent>
      <dc:title>Matplotlib v3.9.2, https://matplotlib.org/</dc:title>
     </cc:Agent>
    </dc:creator>
   </cc:Work>
  </rdf:RDF>
 </metadata>
 <defs>
  <style type="text/css">*{stroke-linejoin: round; stroke-linecap: butt}</style>
 </defs>
 <g id="figure_1">
  <g id="patch_1">
   <path d="M 0 432 
L 864 432 
L 864 0 
L 0 0 
z
" style="fill: #ffffff"/>
  </g>
  <g id="axes_1">
   <g id="patch_2">
    <path d="M 50.547681 226.050075 
Q 90.331211 283.421088 148.712715 321.706496 
" clip-path="url(#pf24918f5cd)" style="fill: none; opacity: 0.6; stroke: #808080; stroke-width: 0.8; stroke-linecap: round"/>
   </g>
   <g id="patch_3">
    <path d="M 50.907316 225.721863 
Q 94.189651 263.684542 148.501471 282.782768 
" clip-path="url(#pf24918f5cd)" style="fill: none; opacity: 0.6; stroke: #808080; stroke-width: 0.8; stroke-linecap: round"/>
   </g>
   <g id="patch_4">
    <path d="M 51.262399 225.153227 
Q 98.005864 243.960229 148.390797 244.082496 
" clip-path="url(#pf24918f5cd)" style="fill: none; opacity: 0.6; stroke: #808080; stroke-width: 0.8; stroke-linecap: round"/>
   </g>
   <g id="patch_5">
    <path d="M 51.409682 224.402495 
Q 101.794598 224.280139 148.538045 205.473048 
" clip-path="url(#pf24918f5cd)" style="fill: none; opacity: 0.6; stroke: #808080; stroke-width: 0.8; stroke-linecap: round"/>
   </g>
   <g id="patch_6">
    <path d="M 51.296353 223.743533 
Q 105.608393 204.645685 148.89095 166.683384 
" clip-path="url(#pf24918f5cd)" style="fill: none; opacity: 0.6; stroke: #808080; stroke-width: 0.8; stroke-linecap: round"/>
   </g>
   <g id="patch_7">
    <path d="M 51.088961 223.305397 
Q 109.470198 185.019714 149.253461 127.648428 
" clip-path="url(#pf24918f5cd)" style="fill: none; opacity: 0.6; stroke: #808080; stroke-width: 0.8; stroke-linecap: round"/>
   </g>
   <g id="patch_8">
    <path d="M 50.883178 223.046539 
Q 113.363794 165.387947 149.543525 88.45044 
" clip-path="url(#pf24918f5cd)" style="fill: none; opacity: 0.6; stroke: #808080; stroke-width: 0.8; stroke-linecap: round"/>
   </g>
   <g id="patch_9">
    <path d="M 50.720054 222.887217 
Q 117.274349 145.745259 149.755658 49.177544 
" clip-path="url(#pf24918f5cd)" style="fill: none; opacity: 0.6; stroke: #808080; stroke-width: 0.8; stroke-linecap: round"/>
   </g>
   <g id="patch_10">
    <path d="M 50.257315 186.852227 
Q 86.437352 263.789511 148.918273 321.447878 
" clip-path="url(#pf24918f5cd)" style="fill: none; opacity: 0.6; stroke: #808080; stroke-width: 0.8; stroke-linecap: round"/>
   </g>
   <g id="patch_11">
    <path d="M 50.547681 186.690075 
Q 90.331211 244.061088 148.712715 282.346496 
" clip-path="url(#pf24918f5cd)" style="fill: none; opacity: 0.6; stroke: #808080; stroke-width: 0.8; stroke-linecap: round"/>
   </g>
   <g id="patch_12">
    <path d="M 50.907316 186.361863 
Q 94.189651 224.324542 148.501471 243.422768 
" clip-path="url(#pf24918f5cd)" style="fill: none; opacity: 0.6; stroke: #808080; stroke-width: 0.8; stroke-linecap: round"/>
   </g>
   <g id="patch_13">
    <path d="M 51.262399 185.793227 
Q 98.005864 204.600229 148.390797 204.722496 
" clip-path="url(#pf24918f5cd)" style="fill: none; opacity: 0.6; stroke: #808080; stroke-width: 0.8; stroke-linecap: round"/>
   </g>
   <g id="patch_14">
    <path d="M 51.409682 185.042495 
Q 101.794598 184.920139 148.538045 166.113048 
" clip-path="url(#pf24918f5cd)" style="fill: none; opacity: 0.6; stroke: #808080; stroke-width: 0.8; stroke-linecap: round"/>
   </g>
   <g id="patch_15">
    <path d="M 51.296353 184.383533 
Q 105.608393 165.285685 148.89095 127.323384 
" clip-path="url(#pf24918f5cd)" style="fill: none; opacity: 0.6; stroke: #808080; stroke-width: 0.8; stroke-linecap: round"/>
   </g>
   <g id="patch_16">
    <path d="M 51.088961 183.945397 
Q 109.470198 145.659714 149.253461 88.288428 
" clip-path="url(#pf24918f5cd)" style="fill: none; opacity: 0.6; stroke: #808080; stroke-width: 0.8; stroke-linecap: round"/>
   </g>
   <g id="patch_17">
    <path d="M 50.883178 183.686539 
Q 113.363794 126.027947 149.543525 49.09044 
" clip-path="url(#pf24918f5cd)" style="fill: none; opacity: 0.6; stroke: #808080; stroke-width: 0.8; stroke-linecap: round"/>
   </g>
   <g id="patch_18">
    <path d="M 50.044477 147.577945 
Q 82.525856 244.145619 149.080222 321.287537 
" clip-path="url(#pf24918f5cd)" style="fill: none; opacity: 0.6; stroke: #808080; stroke-width: 0.8; stroke-linecap: round"/>
   </g>
   <g id="patch_19">
    <path d="M 50.257315 147.492227 
Q 86.437352 224.429511 148.918273 282.087878 
" clip-path="url(#pf24918f5cd)" style="fill: none; opacity: 0.6; stroke: #808080; stroke-width: 0.8; stroke-linecap: round"/>
   </g>
   <g id="patch_20">
    <path d="M 50.547681 147.330075 
Q 90.331211 204.701088 148.712715 242.986496 
" clip-path="url(#pf24918f5cd)" style="fill: none; opacity: 0.6; stroke: #808080; stroke-width: 0.8; stroke-linecap: round"/>
   </g>
   <g id="patch_21">
    <path d="M 50.907316 147.001863 
Q 94.189651 184.964542 148.501471 204.062768 
" clip-path="url(#pf24918f5cd)" style="fill: none; opacity: 0.6; stroke: #808080; stroke-width: 0.8; stroke-linecap: round"/>
   </g>
   <g id="patch_22">
    <path d="M 51.262399 146.433227 
Q 98.005864 165.240229 148.390797 165.362496 
" clip-path="url(#pf24918f5cd)" style="fill: none; opacity: 0.6; stroke: #808080; stroke-width: 0.8; stroke-linecap: round"/>
   </g>
   <g id="patch_23">
    <path d="M 51.409682 145.682495 
Q 101.794598 145.560139 148.538045 126.753048 
" clip-path="url(#pf24918f5cd)" style="fill: none; opacity: 0.6; stroke: #808080; stroke-width: 0.8; stroke-linecap: round"/>
   </g>
   <g id="patch_24">
    <path d="M 51.296353 145.023533 
Q 105.608393 125.925685 148.89095 87.963384 
" clip-path="url(#pf24918f5cd)" style="fill: none; opacity: 0.6; stroke: #808080; stroke-width: 0.8; stroke-linecap: round"/>
   </g>
   <g id="patch_25">
    <path d="M 51.088961 144.585397 
Q 109.470198 106.299714 149.253461 48.928428 
" clip-path="url(#pf24918f5cd)" style="fill: none; opacity: 0.6; stroke: #808080; stroke-width: 0.8; stroke-linecap: round"/>
   </g>
   <g id="patch_26">
    <path d="M 170.173021 323.184972 
Q 218.70095 332.513211 267.228879 323.184607 
" clip-path="url(#pf24918f5cd)" style="fill: none; opacity: 0.6; stroke: #808080; stroke-width: 0.8; stroke-linecap: round"/>
   </g>
   <g id="patch_27">
    <path d="M 170.177308 322.446576 
Q 222.494377 312.859448 267.499457 284.513054 
" clip-path="url(#pf24918f5cd)" style="fill: none; opacity: 0.6; stroke: #808080; stroke-width: 0.8; stroke-linecap: round"/>
   </g>
   <g id="patch_28">
    <path d="M 169.998043 321.896878 
Q 226.333757 293.232884 267.87748 245.594103 
" clip-path="url(#pf24918f5cd)" style="fill: none; opacity: 0.6; stroke: #808080; stroke-width: 0.8; stroke-linecap: round"/>
   </g>
   <g id="patch_29">
    <path d="M 169.776627 321.563085 
Q 230.212741 273.607742 268.209461 206.462612 
" clip-path="url(#pf24918f5cd)" style="fill: none; opacity: 0.6; stroke: #808080; stroke-width: 0.8; stroke-linecap: round"/>
   </g>
   <g id="patch_30">
    <path d="M 169.595174 321.359081 
Q 234.11666 253.969259 268.457305 167.221833 
" clip-path="url(#pf24918f5cd)" style="fill: none; opacity: 0.6; stroke: #808080; stroke-width: 0.8; stroke-linecap: round"/>
   </g>
   <g id="patch_31">
    <path d="M 169.451071 321.232755 
Q 238.033305 234.321617 268.639866 127.924791 
" clip-path="url(#pf24918f5cd)" style="fill: none; opacity: 0.6; stroke: #808080; stroke-width: 0.8; stroke-linecap: round"/>
   </g>
   <g id="patch_32">
    <path d="M 169.340269 321.14785 
Q 241.957531 214.665019 268.776239 88.599117 
" clip-path="url(#pf24918f5cd)" style="fill: none; opacity: 0.6; stroke: #808080; stroke-width: 0.8; stroke-linecap: round"/>
   </g>
   <g id="patch_33">
    <path d="M 169.253073 321.088778 
Q 245.886483 195.001761 268.880901 49.255678 
" clip-path="url(#pf24918f5cd)" style="fill: none; opacity: 0.6; stroke: #808080; stroke-width: 0.8; stroke-linecap: round"/>
   </g>
   <g id="patch_34">
    <path d="M 169.897546 284.511166 
Q 214.902383 312.858185 267.219208 322.445938 
" clip-path="url(#pf24918f5cd)" style="fill: none; opacity: 0.6; stroke: #808080; stroke-width: 0.8; stroke-linecap: round"/>
   </g>
   <g id="patch_35">
    <path d="M 170.173021 283.824972 
Q 218.70095 293.153211 267.228879 283.824607 
" clip-path="url(#pf24918f5cd)" style="fill: none; opacity: 0.6; stroke: #808080; stroke-width: 0.8; stroke-linecap: round"/>
   </g>
   <g id="patch_36">
    <path d="M 170.177308 283.086576 
Q 222.494377 273.499448 267.499457 245.153054 
" clip-path="url(#pf24918f5cd)" style="fill: none; opacity: 0.6; stroke: #808080; stroke-width: 0.8; stroke-linecap: round"/>
   </g>
   <g id="patch_37">
    <path d="M 169.998043 282.536878 
Q 226.333757 253.872884 267.87748 206.234103 
" clip-path="url(#pf24918f5cd)" style="fill: none; opacity: 0.6; stroke: #808080; stroke-width: 0.8; stroke-linecap: round"/>
   </g>
   <g id="patch_38">
    <path d="M 169.776627 282.203085 
Q 230.212741 234.247742 268.209461 167.102612 
" clip-path="url(#pf24918f5cd)" style="fill: none; opacity: 0.6; stroke: #808080; stroke-width: 0.8; stroke-linecap: round"/>
   </g>
   <g id="patch_39">
    <path d="M 169.595174 281.999081 
Q 234.11666 214.609259 268.457305 127.861833 
" clip-path="url(#pf24918f5cd)" style="fill: none; opacity: 0.6; stroke: #808080; stroke-width: 0.8; stroke-linecap: round"/>
   </g>
   <g id="patch_40">
    <path d="M 169.451071 281.872755 
Q 238.033305 194.961617 268.639866 88.564791 
" clip-path="url(#pf24918f5cd)" style="fill: none; opacity: 0.6; stroke: #808080; stroke-width: 0.8; stroke-linecap: round"/>
   </g>
   <g id="patch_41">
    <path d="M 169.340269 281.78785 
Q 241.957531 175.305019 268.776239 49.239117 
" clip-path="url(#pf24918f5cd)" style="fill: none; opacity: 0.6; stroke: #808080; stroke-width: 0.8; stroke-linecap: round"/>
   </g>
   <g id="patch_42">
    <path d="M 169.522112 245.593636 
Q 211.065762 293.232509 267.401403 321.896596 
" clip-path="url(#pf24918f5cd)" style="fill: none; opacity: 0.6; stroke: #808080; stroke-width: 0.8; stroke-linecap: round"/>
   </g>
   <g id="patch_43">
    <path d="M 169.897546 245.151166 
Q 214.902383 273.498185 267.219208 283.085938 
" clip-path="url(#pf24918f5cd)" style="fill: none; opacity: 0.6; stroke: #808080; stroke-width: 0.8; stroke-linecap: round"/>
   </g>
   <g id="patch_44">
    <path d="M 170.173021 244.464972 
Q 218.70095 253.793211 267.228879 244.464607 
" clip-path="url(#pf24918f5cd)" style="fill: none; opacity: 0.6; stroke: #808080; stroke-width: 0.8; stroke-linecap: round"/>
   </g>
   <g id="patch_45">
    <path d="M 170.177308 243.726576 
Q 222.494377 234.139448 267.499457 205.793054 
" clip-path="url(#pf24918f5cd)" style="fill: none; opacity: 0.6; stroke: #808080; stroke-width: 0.8; stroke-linecap: round"/>
   </g>
   <g id="patch_46">
    <path d="M 169.998043 243.176878 
Q 226.333757 214.512884 267.87748 166.874103 
" clip-path="url(#pf24918f5cd)" style="fill: none; opacity: 0.6; stroke: #808080; stroke-width: 0.8; stroke-linecap: round"/>
   </g>
   <g id="patch_47">
    <path d="M 169.776627 242.843085 
Q 230.212741 194.887742 268.209461 127.742612 
" clip-path="url(#pf24918f5cd)" style="fill: none; opacity: 0.6; stroke: #808080; stroke-width: 0.8; stroke-linecap: round"/>
   </g>
   <g id="patch_48">
    <path d="M 169.595174 242.639081 
Q 234.11666 175.249259 268.457305 88.501833 
" clip-path="url(#pf24918f5cd)" style="fill: none; opacity: 0.6; stroke: #808080; stroke-width: 0.8; stroke-linecap: round"/>
   </g>
   <g id="patch_49">
    <path d="M 169.451071 242.512755 
Q 238.033305 155.601617 268.639866 49.204791 
" clip-path="url(#pf24918f5cd)" style="fill: none; opacity: 0.6; stroke: #808080; stroke-width: 0.8; stroke-linecap: round"/>
   </g>
   <g id="patch_50">
    <path d="M 169.188829 206.459589 
Q 207.185044 273.605151 267.620653 321.560926 
" clip-path="url(#pf24918f5cd)" style="fill: none; opacity: 0.6; stroke: #808080; stroke-width: 0.8; stroke-linecap: round"/>
   </g>
   <g id="patch_51">
    <path d="M 169.522112 206.233636 
Q 211.065762 253.872509 267.401403 282.536596 
" clip-path="url(#pf24918f5cd)" style="fill: none; opacity: 0.6; stroke: #808080; stroke-width: 0.8; stroke-linecap: round"/>
   </g>
   <g id="patch_52">
    <path d="M 169.897546 205.791166 
Q 214.902383 234.138185 267.219208 243.725938 
" clip-path="url(#pf24918f5cd)" style="fill: none; opacity: 0.6; stroke: #808080; stroke-width: 0.8; stroke-linecap: round"/>
   </g>
   <g id="patch_53">
    <path d="M 170.173021 205.104972 
Q 218.70095 214.433211 267.228879 205.104607 
" clip-path="url(#pf24918f5cd)" style="fill: none; opacity: 0.6; stroke: #808080; stroke-width: 0.8; stroke-linecap: round"/>
   </g>
   <g id="patch_54">
    <path d="M 170.177308 204.366576 
Q 222.494377 194.779448 267.499457 166.433054 
" clip-path="url(#pf24918f5cd)" style="fill: none; opacity: 0.6; stroke: #808080; stroke-width: 0.8; stroke-linecap: round"/>
   </g>
   <g id="patch_55">
    <path d="M 169.998043 203.816878 
Q 226.333757 175.152884 267.87748 127.514103 
" clip-path="url(#pf24918f5cd)" style="fill: none; opacity: 0.6; stroke: #808080; stroke-width: 0.8; stroke-linecap: round"/>
   </g>
   <g id="patch_56">
    <path d="M 169.776627 203.483085 
Q 230.212741 155.527742 268.209461 88.382612 
" clip-path="url(#pf24918f5cd)" style="fill: none; opacity: 0.6; stroke: #808080; stroke-width: 0.8; stroke-linecap: round"/>
   </g>
   <g id="patch_57">
    <path d="M 169.595174 203.279081 
Q 234.11666 135.889259 268.457305 49.141833 
" clip-path="url(#pf24918f5cd)" style="fill: none; opacity: 0.6; stroke: #808080; stroke-width: 0.8; stroke-linecap: round"/>
   </g>
   <g id="patch_58">
    <path d="M 168.94193 167.219901 
Q 203.282239 253.967543 267.803389 321.35758 
" clip-path="url(#pf24918f5cd)" style="fill: none; opacity: 0.6; stroke: #808080; stroke-width: 0.8; stroke-linecap: round"/>
   </g>
   <g id="patch_59">
    <path d="M 169.188829 167.099589 
Q 207.185044 234.245151 267.620653 282.200926 
" clip-path="url(#pf24918f5cd)" style="fill: none; opacity: 0.6; stroke: #808080; stroke-width: 0.8; stroke-linecap: round"/>
   </g>
   <g id="patch_60">
    <path d="M 169.522112 166.873636 
Q 211.065762 214.512509 267.401403 243.176596 
" clip-path="url(#pf24918f5cd)" style="fill: none; opacity: 0.6; stroke: #808080; stroke-width: 0.8; stroke-linecap: round"/>
   </g>
   <g id="patch_61">
    <path d="M 169.897546 166.431166 
Q 214.902383 194.778185 267.219208 204.365938 
" clip-path="url(#pf24918f5cd)" style="fill: none; opacity: 0.6; stroke: #808080; stroke-width: 0.8; stroke-linecap: round"/>
   </g>
   <g id="patch_62">
    <path d="M 170.173021 165.744972 
Q 218.70095 175.073211 267.228879 165.744607 
" clip-path="url(#pf24918f5cd)" style="fill: none; opacity: 0.6; stroke: #808080; stroke-width: 0.8; stroke-linecap: round"/>
   </g>
   <g id="patch_63">
    <path d="M 170.177308 165.006576 
Q 222.494377 155.419448 267.499457 127.073054 
" clip-path="url(#pf24918f5cd)" style="fill: none; opacity: 0.6; stroke: #808080; stroke-width: 0.8; stroke-linecap: round"/>
   </g>
   <g id="patch_64">
    <path d="M 169.998043 164.456878 
Q 226.333757 135.792884 267.87748 88.154103 
" clip-path="url(#pf24918f5cd)" style="fill: none; opacity: 0.6; stroke: #808080; stroke-width: 0.8; stroke-linecap: round"/>
   </g>
   <g id="patch_65">
    <path d="M 169.776627 164.123085 
Q 230.212741 116.167742 268.209461 49.022612 
" clip-path="url(#pf24918f5cd)" style="fill: none; opacity: 0.6; stroke: #808080; stroke-width: 0.8; stroke-linecap: round"/>
   </g>
   <g id="patch_66">
    <path d="M 168.759377 127.92216 
Q 199.365468 234.319227 267.947233 321.230606 
" clip-path="url(#pf24918f5cd)" style="fill: none; opacity: 0.6; stroke: #808080; stroke-width: 0.8; stroke-linecap: round"/>
   </g>
   <g id="patch_67">
    <path d="M 168.94193 127.859901 
Q 203.282239 214.607543 267.803389 281.99758 
" clip-path="url(#pf24918f5cd)" style="fill: none; opacity: 0.6; stroke: #808080; stroke-width: 0.8; stroke-linecap: round"/>
   </g>
   <g id="patch_68">
    <path d="M 169.188829 127.739589 
Q 207.185044 194.885151 267.620653 242.840926 
" clip-path="url(#pf24918f5cd)" style="fill: none; opacity: 0.6; stroke: #808080; stroke-width: 0.8; stroke-linecap: round"/>
   </g>
   <g id="patch_69">
    <path d="M 169.522112 127.513636 
Q 211.065762 175.152509 267.401403 203.816596 
" clip-path="url(#pf24918f5cd)" style="fill: none; opacity: 0.6; stroke: #808080; stroke-width: 0.8; stroke-linecap: round"/>
   </g>
   <g id="patch_70">
    <path d="M 169.897546 127.071166 
Q 214.902383 155.418185 267.219208 165.005938 
" clip-path="url(#pf24918f5cd)" style="fill: none; opacity: 0.6; stroke: #808080; stroke-width: 0.8; stroke-linecap: round"/>
   </g>
   <g id="patch_71">
    <path d="M 170.173021 126.384972 
Q 218.70095 135.713211 267.228879 126.384607 
" clip-path="url(#pf24918f5cd)" style="fill: none; opacity: 0.6; stroke: #808080; stroke-width: 0.8; stroke-linecap: round"/>
   </g>
   <g id="patch_72">
    <path d="M 170.177308 125.646576 
Q 222.494377 116.059448 267.499457 87.713054 
" clip-path="url(#pf24918f5cd)" style="fill: none; opacity: 0.6; stroke: #808080; stroke-width: 0.8; stroke-linecap: round"/>
   </g>
   <g id="patch_73">
    <path d="M 169.998043 125.096878 
Q 226.333757 96.432884 267.87748 48.794103 
" clip-path="url(#pf24918f5cd)" style="fill: none; opacity: 0.6; stroke: #808080; stroke-width: 0.8; stroke-linecap: round"/>
   </g>
   <g id="patch_74">
    <path d="M 168.623645 88.598572 
Q 195.442254 214.664516 268.059417 321.14739 
" clip-path="url(#pf24918f5cd)" style="fill: none; opacity: 0.6; stroke: #808080; stroke-width: 0.8; stroke-linecap: round"/>
   </g>
   <g id="patch_75">
    <path d="M 168.759377 88.56216 
Q 199.365468 194.959227 267.947233 281.870606 
" clip-path="url(#pf24918f5cd)" style="fill: none; opacity: 0.6; stroke: #808080; stroke-width: 0.8; stroke-linecap: round"/>
   </g>
   <g id="patch_76">
    <path d="M 168.94193 88.499901 
Q 203.282239 175.247543 267.803389 242.63758 
" clip-path="url(#pf24918f5cd)" style="fill: none; opacity: 0.6; stroke: #808080; stroke-width: 0.8; stroke-linecap: round"/>
   </g>
   <g id="patch_77">
    <path d="M 169.188829 88.379589 
Q 207.185044 155.525151 267.620653 203.480926 
" clip-path="url(#pf24918f5cd)" style="fill: none; opacity: 0.6; stroke: #808080; stroke-width: 0.8; stroke-linecap: round"/>
   </g>
   <g id="patch_78">
    <path d="M 169.522112 88.153636 
Q 211.065762 135.792509 267.401403 164.456596 
" clip-path="url(#pf24918f5cd)" style="fill: none; opacity: 0.6; stroke: #808080; stroke-width: 0.8; stroke-linecap: round"/>
   </g>
   <g id="patch_79">
    <path d="M 169.897546 87.711166 
Q 214.902383 116.058185 267.219208 125.645938 
" clip-path="url(#pf24918f5cd)" style="fill: none; opacity: 0.6; stroke: #808080; stroke-width: 0.8; stroke-linecap: round"/>
   </g>
   <g id="patch_80">
    <path d="M 170.173021 87.024972 
Q 218.70095 96.353211 267.228879 87.024607 
" clip-path="url(#pf24918f5cd)" style="fill: none; opacity: 0.6; stroke: #808080; stroke-width: 0.8; stroke-linecap: round"/>
   </g>
   <g id="patch_81">
    <path d="M 170.177308 86.286576 
Q 222.494377 76.699448 267.499457 48.353054 
" clip-path="url(#pf24918f5cd)" style="fill: none; opacity: 0.6; stroke: #808080; stroke-width: 0.8; stroke-linecap: round"/>
   </g>
   <g id="patch_82">
    <path d="M 168.519778 49.259979 
Q 191.514987 195.005772 268.149189 321.092499 
" clip-path="url(#pf24918f5cd)" style="fill: none; opacity: 0.6; stroke: #808080; stroke-width: 0.8; stroke-linecap: round"/>
   </g>
   <g id="patch_83">
    <path d="M 168.623645 49.238572 
Q 195.442254 175.304516 268.059417 281.78739 
" clip-path="url(#pf24918f5cd)" style="fill: none; opacity: 0.6; stroke: #808080; stroke-width: 0.8; stroke-linecap: round"/>
   </g>
   <g id="patch_84">
    <path d="M 168.759377 49.20216 
Q 199.365468 155.599227 267.947233 242.510606 
" clip-path="url(#pf24918f5cd)" style="fill: none; opacity: 0.6; stroke: #808080; stroke-width: 0.8; stroke-linecap: round"/>
   </g>
   <g id="patch_85">
    <path d="M 168.94193 49.139901 
Q 203.282239 135.887543 267.803389 203.27758 
" clip-path="url(#pf24918f5cd)" style="fill: none; opacity: 0.6; stroke: #808080; stroke-width: 0.8; stroke-linecap: round"/>
   </g>
   <g id="patch_86">
    <path d="M 169.188829 49.019589 
Q 207.185044 116.165151 267.620653 164.120926 
" clip-path="url(#pf24918f5cd)" style="fill: none; opacity: 0.6; stroke: #808080; stroke-width: 0.8; stroke-linecap: round"/>
   </g>
   <g id="patch_87">
    <path d="M 169.522112 48.793636 
Q 211.065762 96.432509 267.401403 125.096596 
" clip-path="url(#pf24918f5cd)" style="fill: none; opacity: 0.6; stroke: #808080; stroke-width: 0.8; stroke-linecap: round"/>
   </g>
   <g id="patch_88">
    <path d="M 169.897546 48.351166 
Q 214.902383 76.698185 267.219208 86.285938 
" clip-path="url(#pf24918f5cd)" style="fill: none; opacity: 0.6; stroke: #808080; stroke-width: 0.8; stroke-linecap: round"/>
   </g>
   <g id="patch_89">
    <path d="M 170.173021 47.664972 
Q 218.70095 56.993211 267.228879 47.664607 
" clip-path="url(#pf24918f5cd)" style="fill: none; opacity: 0.6; stroke: #808080; stroke-width: 0.8; stroke-linecap: round"/>
   </g>
   <g id="patch_90">
    <path d="M 288.576627 321.563085 
Q 349.012741 273.607742 387.009461 206.462612 
" clip-path="url(#pf24918f5cd)" style="fill: none; opacity: 0.6; stroke: #808080; stroke-width: 0.8; stroke-linecap: round"/>
   </g>
   <g id="patch_91">
    <path d="M 288.395174 321.359081 
Q 352.91666 253.969259 387.257305 167.221833 
" clip-path="url(#pf24918f5cd)" style="fill: none; opacity: 0.6; stroke: #808080; stroke-width: 0.8; stroke-linecap: round"/>
   </g>
   <g id="patch_92">
    <path d="M 288.798043 282.536878 
Q 345.133757 253.872884 386.67748 206.234103 
" clip-path="url(#pf24918f5cd)" style="fill: none; opacity: 0.6; stroke: #808080; stroke-width: 0.8; stroke-linecap: round"/>
   </g>
   <g id="patch_93">
    <path d="M 288.576627 282.203085 
Q 349.012741 234.247742 387.009461 167.102612 
" clip-path="url(#pf24918f5cd)" style="fill: none; opacity: 0.6; stroke: #808080; stroke-width: 0.8; stroke-linecap: round"/>
   </g>
   <g id="patch_94">
    <path d="M 288.977308 243.726576 
Q 341.294377 234.139448 386.299457 205.793054 
" clip-path="url(#pf24918f5cd)" style="fill: none; opacity: 0.6; stroke: #808080; stroke-width: 0.8; stroke-linecap: round"/>
   </g>
   <g id="patch_95">
    <path d="M 288.798043 243.176878 
Q 345.133757 214.512884 386.67748 166.874103 
" clip-path="url(#pf24918f5cd)" style="fill: none; opacity: 0.6; stroke: #808080; stroke-width: 0.8; stroke-linecap: round"/>
   </g>
   <g id="patch_96">
    <path d="M 288.973021 205.104972 
Q 337.50095 214.433211 386.028879 205.104607 
" clip-path="url(#pf24918f5cd)" style="fill: none; opacity: 0.6; stroke: #808080; stroke-width: 0.8; stroke-linecap: round"/>
   </g>
   <g id="patch_97">
    <path d="M 288.977308 204.366576 
Q 341.294377 194.779448 386.299457 166.433054 
" clip-path="url(#pf24918f5cd)" style="fill: none; opacity: 0.6; stroke: #808080; stroke-width: 0.8; stroke-linecap: round"/>
   </g>
   <g id="patch_98">
    <path d="M 288.697546 166.431166 
Q 333.702383 194.778185 386.019208 204.365938 
" clip-path="url(#pf24918f5cd)" style="fill: none; opacity: 0.6; stroke: #808080; stroke-width: 0.8; stroke-linecap: round"/>
   </g>
   <g id="patch_99">
    <path d="M 288.973021 165.744972 
Q 337.50095 175.073211 386.028879 165.744607 
" clip-path="url(#pf24918f5cd)" style="fill: none; opacity: 0.6; stroke: #808080; stroke-width: 0.8; stroke-linecap: round"/>
   </g>
   <g id="patch_100">
    <path d="M 288.322112 127.513636 
Q 329.865762 175.152509 386.201403 203.816596 
" clip-path="url(#pf24918f5cd)" style="fill: none; opacity: 0.6; stroke: #808080; stroke-width: 0.8; stroke-linecap: round"/>
   </g>
   <g id="patch_101">
    <path d="M 288.697546 127.071166 
Q 333.702383 155.418185 386.019208 165.005938 
" clip-path="url(#pf24918f5cd)" style="fill: none; opacity: 0.6; stroke: #808080; stroke-width: 0.8; stroke-linecap: round"/>
   </g>
   <g id="patch_102">
    <path d="M 287.988829 88.379589 
Q 325.985044 155.525151 386.420653 203.480926 
" clip-path="url(#pf24918f5cd)" style="fill: none; opacity: 0.6; stroke: #808080; stroke-width: 0.8; stroke-linecap: round"/>
   </g>
   <g id="patch_103">
    <path d="M 288.322112 88.153636 
Q 329.865762 135.792509 386.201403 164.456596 
" clip-path="url(#pf24918f5cd)" style="fill: none; opacity: 0.6; stroke: #808080; stroke-width: 0.8; stroke-linecap: round"/>
   </g>
   <g id="patch_104">
    <path d="M 287.74193 49.139901 
Q 322.082239 135.887543 386.603389 203.27758 
" clip-path="url(#pf24918f5cd)" style="fill: none; opacity: 0.6; stroke: #808080; stroke-width: 0.8; stroke-linecap: round"/>
   </g>
   <g id="patch_105">
    <path d="M 287.988829 49.019589 
Q 325.985044 116.165151 386.420653 164.120926 
" clip-path="url(#pf24918f5cd)" style="fill: none; opacity: 0.6; stroke: #808080; stroke-width: 0.8; stroke-linecap: round"/>
   </g>
   <g id="text_1">
    <g id="patch_106">
     <path d="M 24.96375 391.246875 
L 56.03625 391.246875 
Q 59.63625 391.246875 59.63625 387.646875 
L 59.63625 376.033125 
Q 59.63625 372.433125 56.03625 372.433125 
L 24.96375 372.433125 
Q 21.36375 372.433125 21.36375 376.033125 
L 21.36375 387.646875 
Q 21.36375 391.246875 24.96375 391.246875 
z
" style="fill: #ffffff; opacity: 0.7; stroke: #000000; stroke-linejoin: miter"/>
    </g>
    <!-- Input -->
    <g transform="translate(24.96375 385.15125) scale(0.12 -0.12)">
     <defs>
      <path id="DejaVuSans-49" d="M 628 4666 
L 1259 4666 
L 1259 0 
L 628 0 
L 628 4666 
z
" transform="scale(0.015625)"/>
      <path id="DejaVuSans-6e" d="M 3513 2113 
L 3513 0 
L 2938 0 
L 2938 2094 
Q 2938 2591 2744 2837 
Q 2550 3084 2163 3084 
Q 1697 3084 1428 2787 
Q 1159 2491 1159 1978 
L 1159 0 
L 581 0 
L 581 3500 
L 1159 3500 
L 1159 2956 
Q 1366 3272 1645 3428 
Q 1925 3584 2291 3584 
Q 2894 3584 3203 3211 
Q 3513 2838 3513 2113 
z
" transform="scale(0.015625)"/>
      <path id="DejaVuSans-70" d="M 1159 525 
L 1159 -1331 
L 581 -1331 
L 581 3500 
L 1159 3500 
L 1159 2969 
Q 1341 3281 1617 3432 
Q 1894 3584 2278 3584 
Q 2916 3584 3314 3078 
Q 3713 2572 3713 1747 
Q 3713 922 3314 415 
Q 2916 -91 2278 -91 
Q 1894 -91 1617 61 
Q 1341 213 1159 525 
z
M 3116 1747 
Q 3116 2381 2855 2742 
Q 2594 3103 2138 3103 
Q 1681 3103 1420 2742 
Q 1159 2381 1159 1747 
Q 1159 1113 1420 752 
Q 1681 391 2138 391 
Q 2594 391 2855 752 
Q 3116 1113 3116 1747 
z
" transform="scale(0.015625)"/>
      <path id="DejaVuSans-75" d="M 544 1381 
L 544 3500 
L 1119 3500 
L 1119 1403 
Q 1119 906 1312 657 
Q 1506 409 1894 409 
Q 2359 409 2629 706 
Q 2900 1003 2900 1516 
L 2900 3500 
L 3475 3500 
L 3475 0 
L 2900 0 
L 2900 538 
Q 2691 219 2414 64 
Q 2138 -91 1772 -91 
Q 1169 -91 856 284 
Q 544 659 544 1381 
z
M 1991 3584 
L 1991 3584 
z
" transform="scale(0.015625)"/>
      <path id="DejaVuSans-74" d="M 1172 4494 
L 1172 3500 
L 2356 3500 
L 2356 3053 
L 1172 3053 
L 1172 1153 
Q 1172 725 1289 603 
Q 1406 481 1766 481 
L 2356 481 
L 2356 0 
L 1766 0 
Q 1100 0 847 248 
Q 594 497 594 1153 
L 594 3053 
L 172 3053 
L 172 3500 
L 594 3500 
L 594 4494 
L 1172 4494 
z
" transform="scale(0.015625)"/>
     </defs>
     <use xlink:href="#DejaVuSans-49"/>
     <use xlink:href="#DejaVuSans-6e" x="29.492188"/>
     <use xlink:href="#DejaVuSans-70" x="92.871094"/>
     <use xlink:href="#DejaVuSans-75" x="156.347656"/>
     <use xlink:href="#DejaVuSans-74" x="219.726562"/>
    </g>
   </g>
   <g id="text_2">
    <g id="patch_107">
     <path d="M 132.284063 391.246875 
L 186.315938 391.246875 
Q 189.915938 391.246875 189.915938 387.646875 
L 189.915938 376.033125 
Q 189.915938 372.433125 186.315938 372.433125 
L 132.284063 372.433125 
Q 128.684063 372.433125 128.684063 376.033125 
L 128.684063 387.646875 
Q 128.684063 391.246875 132.284063 391.246875 
z
" style="fill: #ffffff; opacity: 0.7; stroke: #000000; stroke-linejoin: miter"/>
    </g>
    <!-- Hidden 1 -->
    <g transform="translate(132.284063 385.15125) scale(0.12 -0.12)">
     <defs>
      <path id="DejaVuSans-48" d="M 628 4666 
L 1259 4666 
L 1259 2753 
L 3553 2753 
L 3553 4666 
L 4184 4666 
L 4184 0 
L 3553 0 
L 3553 2222 
L 1259 2222 
L 1259 0 
L 628 0 
L 628 4666 
z
" transform="scale(0.015625)"/>
      <path id="DejaVuSans-69" d="M 603 3500 
L 1178 3500 
L 1178 0 
L 603 0 
L 603 3500 
z
M 603 4863 
L 1178 4863 
L 1178 4134 
L 603 4134 
L 603 4863 
z
" transform="scale(0.015625)"/>
      <path id="DejaVuSans-64" d="M 2906 2969 
L 2906 4863 
L 3481 4863 
L 3481 0 
L 2906 0 
L 2906 525 
Q 2725 213 2448 61 
Q 2172 -91 1784 -91 
Q 1150 -91 751 415 
Q 353 922 353 1747 
Q 353 2572 751 3078 
Q 1150 3584 1784 3584 
Q 2172 3584 2448 3432 
Q 2725 3281 2906 2969 
z
M 947 1747 
Q 947 1113 1208 752 
Q 1469 391 1925 391 
Q 2381 391 2643 752 
Q 2906 1113 2906 1747 
Q 2906 2381 2643 2742 
Q 2381 3103 1925 3103 
Q 1469 3103 1208 2742 
Q 947 2381 947 1747 
z
" transform="scale(0.015625)"/>
      <path id="DejaVuSans-65" d="M 3597 1894 
L 3597 1613 
L 953 1613 
Q 991 1019 1311 708 
Q 1631 397 2203 397 
Q 2534 397 2845 478 
Q 3156 559 3463 722 
L 3463 178 
Q 3153 47 2828 -22 
Q 2503 -91 2169 -91 
Q 1331 -91 842 396 
Q 353 884 353 1716 
Q 353 2575 817 3079 
Q 1281 3584 2069 3584 
Q 2775 3584 3186 3129 
Q 3597 2675 3597 1894 
z
M 3022 2063 
Q 3016 2534 2758 2815 
Q 2500 3097 2075 3097 
Q 1594 3097 1305 2825 
Q 1016 2553 972 2059 
L 3022 2063 
z
" transform="scale(0.015625)"/>
      <path id="DejaVuSans-20" transform="scale(0.015625)"/>
      <path id="DejaVuSans-31" d="M 794 531 
L 1825 531 
L 1825 4091 
L 703 3866 
L 703 4441 
L 1819 4666 
L 2450 4666 
L 2450 531 
L 3481 531 
L 3481 0 
L 794 0 
L 794 531 
z
" transform="scale(0.015625)"/>
     </defs>
     <use xlink:href="#DejaVuSans-48"/>
     <use xlink:href="#DejaVuSans-69" x="75.195312"/>
     <use xlink:href="#DejaVuSans-64" x="102.978516"/>
     <use xlink:href="#DejaVuSans-64" x="166.455078"/>
     <use xlink:href="#DejaVuSans-65" x="229.931641"/>
     <use xlink:href="#DejaVuSans-6e" x="291.455078"/>
     <use xlink:href="#DejaVuSans-20" x="354.833984"/>
     <use xlink:href="#DejaVuSans-31" x="386.621094"/>
    </g>
   </g>
   <g id="text_3">
    <g id="patch_108">
     <path d="M 251.084063 391.246875 
L 305.115938 391.246875 
Q 308.715937 391.246875 308.715937 387.646875 
L 308.715937 376.033125 
Q 308.715937 372.433125 305.115938 372.433125 
L 251.084063 372.433125 
Q 247.484063 372.433125 247.484063 376.033125 
L 247.484063 387.646875 
Q 247.484063 391.246875 251.084063 391.246875 
z
" style="fill: #ffffff; opacity: 0.7; stroke: #000000; stroke-linejoin: miter"/>
    </g>
    <!-- Hidden 2 -->
    <g transform="translate(251.084063 385.15125) scale(0.12 -0.12)">
     <defs>
      <path id="DejaVuSans-32" d="M 1228 531 
L 3431 531 
L 3431 0 
L 469 0 
L 469 531 
Q 828 903 1448 1529 
Q 2069 2156 2228 2338 
Q 2531 2678 2651 2914 
Q 2772 3150 2772 3378 
Q 2772 3750 2511 3984 
Q 2250 4219 1831 4219 
Q 1534 4219 1204 4116 
Q 875 4013 500 3803 
L 500 4441 
Q 881 4594 1212 4672 
Q 1544 4750 1819 4750 
Q 2544 4750 2975 4387 
Q 3406 4025 3406 3419 
Q 3406 3131 3298 2873 
Q 3191 2616 2906 2266 
Q 2828 2175 2409 1742 
Q 1991 1309 1228 531 
z
" transform="scale(0.015625)"/>
     </defs>
     <use xlink:href="#DejaVuSans-48"/>
     <use xlink:href="#DejaVuSans-69" x="75.195312"/>
     <use xlink:href="#DejaVuSans-64" x="102.978516"/>
     <use xlink:href="#DejaVuSans-64" x="166.455078"/>
     <use xlink:href="#DejaVuSans-65" x="229.931641"/>
     <use xlink:href="#DejaVuSans-6e" x="291.455078"/>
     <use xlink:href="#DejaVuSans-20" x="354.833984"/>
     <use xlink:href="#DejaVuSans-32" x="386.621094"/>
    </g>
   </g>
   <g id="text_4">
    <g id="patch_109">
     <path d="M 376.058438 391.246875 
L 417.741562 391.246875 
Q 421.341563 391.246875 421.341563 387.646875 
L 421.341563 376.033125 
Q 421.341563 372.433125 417.741562 372.433125 
L 376.058438 372.433125 
Q 372.458438 372.433125 372.458438 376.033125 
L 372.458438 387.646875 
Q 372.458438 391.246875 376.058438 391.246875 
z
" style="fill: #ffffff; opacity: 0.7; stroke: #000000; stroke-linejoin: miter"/>
    </g>
    <!-- Output -->
    <g transform="translate(376.058438 385.15125) scale(0.12 -0.12)">
     <defs>
      <path id="DejaVuSans-4f" d="M 2522 4238 
Q 1834 4238 1429 3725 
Q 1025 3213 1025 2328 
Q 1025 1447 1429 934 
Q 1834 422 2522 422 
Q 3209 422 3611 934 
Q 4013 1447 4013 2328 
Q 4013 3213 3611 3725 
Q 3209 4238 2522 4238 
z
M 2522 4750 
Q 3503 4750 4090 4092 
Q 4678 3434 4678 2328 
Q 4678 1225 4090 567 
Q 3503 -91 2522 -91 
Q 1538 -91 948 565 
Q 359 1222 359 2328 
Q 359 3434 948 4092 
Q 1538 4750 2522 4750 
z
" transform="scale(0.015625)"/>
     </defs>
     <use xlink:href="#DejaVuSans-4f"/>
     <use xlink:href="#DejaVuSans-75" x="78.710938"/>
     <use xlink:href="#DejaVuSans-74" x="142.089844"/>
     <use xlink:href="#DejaVuSans-70" x="181.298828"/>
     <use xlink:href="#DejaVuSans-75" x="244.775391"/>
     <use xlink:href="#DejaVuSans-74" x="308.154297"/>
    </g>
   </g>
   <g id="text_5">
    <!-- Standard Neural Network -->
    <g transform="translate(130.084375 21.6) scale(0.14 -0.14)">
     <defs>
      <path id="DejaVuSans-53" d="M 3425 4513 
L 3425 3897 
Q 3066 4069 2747 4153 
Q 2428 4238 2131 4238 
Q 1616 4238 1336 4038 
Q 1056 3838 1056 3469 
Q 1056 3159 1242 3001 
Q 1428 2844 1947 2747 
L 2328 2669 
Q 3034 2534 3370 2195 
Q 3706 1856 3706 1288 
Q 3706 609 3251 259 
Q 2797 -91 1919 -91 
Q 1588 -91 1214 -16 
Q 841 59 441 206 
L 441 856 
Q 825 641 1194 531 
Q 1563 422 1919 422 
Q 2459 422 2753 634 
Q 3047 847 3047 1241 
Q 3047 1584 2836 1778 
Q 2625 1972 2144 2069 
L 1759 2144 
Q 1053 2284 737 2584 
Q 422 2884 422 3419 
Q 422 4038 858 4394 
Q 1294 4750 2059 4750 
Q 2388 4750 2728 4690 
Q 3069 4631 3425 4513 
z
" transform="scale(0.015625)"/>
      <path id="DejaVuSans-61" d="M 2194 1759 
Q 1497 1759 1228 1600 
Q 959 1441 959 1056 
Q 959 750 1161 570 
Q 1363 391 1709 391 
Q 2188 391 2477 730 
Q 2766 1069 2766 1631 
L 2766 1759 
L 2194 1759 
z
M 3341 1997 
L 3341 0 
L 2766 0 
L 2766 531 
Q 2569 213 2275 61 
Q 1981 -91 1556 -91 
Q 1019 -91 701 211 
Q 384 513 384 1019 
Q 384 1609 779 1909 
Q 1175 2209 1959 2209 
L 2766 2209 
L 2766 2266 
Q 2766 2663 2505 2880 
Q 2244 3097 1772 3097 
Q 1472 3097 1187 3025 
Q 903 2953 641 2809 
L 641 3341 
Q 956 3463 1253 3523 
Q 1550 3584 1831 3584 
Q 2591 3584 2966 3190 
Q 3341 2797 3341 1997 
z
" transform="scale(0.015625)"/>
      <path id="DejaVuSans-72" d="M 2631 2963 
Q 2534 3019 2420 3045 
Q 2306 3072 2169 3072 
Q 1681 3072 1420 2755 
Q 1159 2438 1159 1844 
L 1159 0 
L 581 0 
L 581 3500 
L 1159 3500 
L 1159 2956 
Q 1341 3275 1631 3429 
Q 1922 3584 2338 3584 
Q 2397 3584 2469 3576 
Q 2541 3569 2628 3553 
L 2631 2963 
z
" transform="scale(0.015625)"/>
      <path id="DejaVuSans-4e" d="M 628 4666 
L 1478 4666 
L 3547 763 
L 3547 4666 
L 4159 4666 
L 4159 0 
L 3309 0 
L 1241 3903 
L 1241 0 
L 628 0 
L 628 4666 
z
" transform="scale(0.015625)"/>
      <path id="DejaVuSans-6c" d="M 603 4863 
L 1178 4863 
L 1178 0 
L 603 0 
L 603 4863 
z
" transform="scale(0.015625)"/>
      <path id="DejaVuSans-77" d="M 269 3500 
L 844 3500 
L 1563 769 
L 2278 3500 
L 2956 3500 
L 3675 769 
L 4391 3500 
L 4966 3500 
L 4050 0 
L 3372 0 
L 2619 2869 
L 1863 0 
L 1184 0 
L 269 3500 
z
" transform="scale(0.015625)"/>
      <path id="DejaVuSans-6f" d="M 1959 3097 
Q 1497 3097 1228 2736 
Q 959 2375 959 1747 
Q 959 1119 1226 758 
Q 1494 397 1959 397 
Q 2419 397 2687 759 
Q 2956 1122 2956 1747 
Q 2956 2369 2687 2733 
Q 2419 3097 1959 3097 
z
M 1959 3584 
Q 2709 3584 3137 3096 
Q 3566 2609 3566 1747 
Q 3566 888 3137 398 
Q 2709 -91 1959 -91 
Q 1206 -91 779 398 
Q 353 888 353 1747 
Q 353 2609 779 3096 
Q 1206 3584 1959 3584 
z
" transform="scale(0.015625)"/>
      <path id="DejaVuSans-6b" d="M 581 4863 
L 1159 4863 
L 1159 1991 
L 2875 3500 
L 3609 3500 
L 1753 1863 
L 3688 0 
L 2938 0 
L 1159 1709 
L 1159 0 
L 581 0 
L 581 4863 
z
" transform="scale(0.015625)"/>
     </defs>
     <use xlink:href="#DejaVuSans-53"/>
     <use xlink:href="#DejaVuSans-74" x="63.476562"/>
     <use xlink:href="#DejaVuSans-61" x="102.685547"/>
     <use xlink:href="#DejaVuSans-6e" x="163.964844"/>
     <use xlink:href="#DejaVuSans-64" x="227.34375"/>
     <use xlink:href="#DejaVuSans-61" x="290.820312"/>
     <use xlink:href="#DejaVuSans-72" x="352.099609"/>
     <use xlink:href="#DejaVuSans-64" x="391.462891"/>
     <use xlink:href="#DejaVuSans-20" x="454.939453"/>
     <use xlink:href="#DejaVuSans-4e" x="486.726562"/>
     <use xlink:href="#DejaVuSans-65" x="561.53125"/>
     <use xlink:href="#DejaVuSans-75" x="623.054688"/>
     <use xlink:href="#DejaVuSans-72" x="686.433594"/>
     <use xlink:href="#DejaVuSans-61" x="727.546875"/>
     <use xlink:href="#DejaVuSans-6c" x="788.826172"/>
     <use xlink:href="#DejaVuSans-20" x="816.609375"/>
     <use xlink:href="#DejaVuSans-4e" x="848.396484"/>
     <use xlink:href="#DejaVuSans-65" x="923.201172"/>
     <use xlink:href="#DejaVuSans-74" x="984.724609"/>
     <use xlink:href="#DejaVuSans-77" x="1023.933594"/>
     <use xlink:href="#DejaVuSans-6f" x="1105.720703"/>
     <use xlink:href="#DejaVuSans-72" x="1166.902344"/>
     <use xlink:href="#DejaVuSans-6b" x="1208.015625"/>
    </g>
   </g>
   <g id="patch_110">
    <path d="M 40.5 236.208 
C 42.86296 236.208 45.129457 234.963835 46.800321 232.749517 
C 48.471186 230.535199 49.41 227.531518 49.41 224.4 
C 49.41 221.268482 48.471186 218.264801 46.800321 216.050483 
C 45.129457 213.836165 42.86296 212.592 40.5 212.592 
C 38.13704 212.592 35.870543 213.836165 34.199679 216.050483 
C 32.528814 218.264801 31.59 221.268482 31.59 224.4 
C 31.59 227.531518 32.528814 230.535199 34.199679 232.749517 
C 35.870543 234.963835 38.13704 236.208 40.5 236.208 
z
" clip-path="url(#pf24918f5cd)" style="fill: #b3e0ff; stroke: #000000; stroke-linejoin: miter"/>
   </g>
   <g id="patch_111">
    <path d="M 40.5 196.848 
C 42.86296 196.848 45.129457 195.603835 46.800321 193.389517 
C 48.471186 191.175199 49.41 188.171518 49.41 185.04 
C 49.41 181.908482 48.471186 178.904801 46.800321 176.690483 
C 45.129457 174.476165 42.86296 173.232 40.5 173.232 
C 38.13704 173.232 35.870543 174.476165 34.199679 176.690483 
C 32.528814 178.904801 31.59 181.908482 31.59 185.04 
C 31.59 188.171518 32.528814 191.175199 34.199679 193.389517 
C 35.870543 195.603835 38.13704 196.848 40.5 196.848 
z
" clip-path="url(#pf24918f5cd)" style="fill: #b3e0ff; stroke: #000000; stroke-linejoin: miter"/>
   </g>
   <g id="patch_112">
    <path d="M 40.5 157.488 
C 42.86296 157.488 45.129457 156.243835 46.800321 154.029517 
C 48.471186 151.815199 49.41 148.811518 49.41 145.68 
C 49.41 142.548482 48.471186 139.544801 46.800321 137.330483 
C 45.129457 135.116165 42.86296 133.872 40.5 133.872 
C 38.13704 133.872 35.870543 135.116165 34.199679 137.330483 
C 32.528814 139.544801 31.59 142.548482 31.59 145.68 
C 31.59 148.811518 32.528814 151.815199 34.199679 154.029517 
C 35.870543 156.243835 38.13704 157.488 40.5 157.488 
z
" clip-path="url(#pf24918f5cd)" style="fill: #b3e0ff; stroke: #000000; stroke-linejoin: miter"/>
   </g>
   <g id="patch_113">
    <path d="M 159.3 334.608 
C 161.66296 334.608 163.929457 333.363835 165.600321 331.149517 
C 167.271186 328.935199 168.21 325.931518 168.21 322.8 
C 168.21 319.668482 167.271186 316.664801 165.600321 314.450483 
C 163.929457 312.236165 161.66296 310.992 159.3 310.992 
C 156.93704 310.992 154.670543 312.236165 152.999679 314.450483 
C 151.328814 316.664801 150.39 319.668482 150.39 322.8 
C 150.39 325.931518 151.328814 328.935199 152.999679 331.149517 
C 154.670543 333.363835 156.93704 334.608 159.3 334.608 
z
" clip-path="url(#pf24918f5cd)" style="fill: #b3e0ff; stroke: #000000; stroke-linejoin: miter"/>
   </g>
   <g id="patch_114">
    <path d="M 159.3 295.248 
C 161.66296 295.248 163.929457 294.003835 165.600321 291.789517 
C 167.271186 289.575199 168.21 286.571518 168.21 283.44 
C 168.21 280.308482 167.271186 277.304801 165.600321 275.090483 
C 163.929457 272.876165 161.66296 271.632 159.3 271.632 
C 156.93704 271.632 154.670543 272.876165 152.999679 275.090483 
C 151.328814 277.304801 150.39 280.308482 150.39 283.44 
C 150.39 286.571518 151.328814 289.575199 152.999679 291.789517 
C 154.670543 294.003835 156.93704 295.248 159.3 295.248 
z
" clip-path="url(#pf24918f5cd)" style="fill: #b3e0ff; stroke: #000000; stroke-linejoin: miter"/>
   </g>
   <g id="patch_115">
    <path d="M 159.3 255.888 
C 161.66296 255.888 163.929457 254.643835 165.600321 252.429517 
C 167.271186 250.215199 168.21 247.211518 168.21 244.08 
C 168.21 240.948482 167.271186 237.944801 165.600321 235.730483 
C 163.929457 233.516165 161.66296 232.272 159.3 232.272 
C 156.93704 232.272 154.670543 233.516165 152.999679 235.730483 
C 151.328814 237.944801 150.39 240.948482 150.39 244.08 
C 150.39 247.211518 151.328814 250.215199 152.999679 252.429517 
C 154.670543 254.643835 156.93704 255.888 159.3 255.888 
z
" clip-path="url(#pf24918f5cd)" style="fill: #b3e0ff; stroke: #000000; stroke-linejoin: miter"/>
   </g>
   <g id="patch_116">
    <path d="M 159.3 216.528 
C 161.66296 216.528 163.929457 215.283835 165.600321 213.069517 
C 167.271186 210.855199 168.21 207.851518 168.21 204.72 
C 168.21 201.588482 167.271186 198.584801 165.600321 196.370483 
C 163.929457 194.156165 161.66296 192.912 159.3 192.912 
C 156.93704 192.912 154.670543 194.156165 152.999679 196.370483 
C 151.328814 198.584801 150.39 201.588482 150.39 204.72 
C 150.39 207.851518 151.328814 210.855199 152.999679 213.069517 
C 154.670543 215.283835 156.93704 216.528 159.3 216.528 
z
" clip-path="url(#pf24918f5cd)" style="fill: #b3e0ff; stroke: #000000; stroke-linejoin: miter"/>
   </g>
   <g id="patch_117">
    <path d="M 159.3 177.168 
C 161.66296 177.168 163.929457 175.923835 165.600321 173.709517 
C 167.271186 171.495199 168.21 168.491518 168.21 165.36 
C 168.21 162.228482 167.271186 159.224801 165.600321 157.010483 
C 163.929457 154.796165 161.66296 153.552 159.3 153.552 
C 156.93704 153.552 154.670543 154.796165 152.999679 157.010483 
C 151.328814 159.224801 150.39 162.228482 150.39 165.36 
C 150.39 168.491518 151.328814 171.495199 152.999679 173.709517 
C 154.670543 175.923835 156.93704 177.168 159.3 177.168 
z
" clip-path="url(#pf24918f5cd)" style="fill: #b3e0ff; stroke: #000000; stroke-linejoin: miter"/>
   </g>
   <g id="patch_118">
    <path d="M 159.3 137.808 
C 161.66296 137.808 163.929457 136.563835 165.600321 134.349517 
C 167.271186 132.135199 168.21 129.131518 168.21 126 
C 168.21 122.868482 167.271186 119.864801 165.600321 117.650483 
C 163.929457 115.436165 161.66296 114.192 159.3 114.192 
C 156.93704 114.192 154.670543 115.436165 152.999679 117.650483 
C 151.328814 119.864801 150.39 122.868482 150.39 126 
C 150.39 129.131518 151.328814 132.135199 152.999679 134.349517 
C 154.670543 136.563835 156.93704 137.808 159.3 137.808 
z
" clip-path="url(#pf24918f5cd)" style="fill: #b3e0ff; stroke: #000000; stroke-linejoin: miter"/>
   </g>
   <g id="patch_119">
    <path d="M 159.3 98.448 
C 161.66296 98.448 163.929457 97.203835 165.600321 94.989517 
C 167.271186 92.775199 168.21 89.771518 168.21 86.64 
C 168.21 83.508482 167.271186 80.504801 165.600321 78.290483 
C 163.929457 76.076165 161.66296 74.832 159.3 74.832 
C 156.93704 74.832 154.670543 76.076165 152.999679 78.290483 
C 151.328814 80.504801 150.39 83.508482 150.39 86.64 
C 150.39 89.771518 151.328814 92.775199 152.999679 94.989517 
C 154.670543 97.203835 156.93704 98.448 159.3 98.448 
z
" clip-path="url(#pf24918f5cd)" style="fill: #b3e0ff; stroke: #000000; stroke-linejoin: miter"/>
   </g>
   <g id="patch_120">
    <path d="M 159.3 59.088 
C 161.66296 59.088 163.929457 57.843835 165.600321 55.629517 
C 167.271186 53.415199 168.21 50.411518 168.21 47.28 
C 168.21 44.148482 167.271186 41.144801 165.600321 38.930483 
C 163.929457 36.716165 161.66296 35.472 159.3 35.472 
C 156.93704 35.472 154.670543 36.716165 152.999679 38.930483 
C 151.328814 41.144801 150.39 44.148482 150.39 47.28 
C 150.39 50.411518 151.328814 53.415199 152.999679 55.629517 
C 154.670543 57.843835 156.93704 59.088 159.3 59.088 
z
" clip-path="url(#pf24918f5cd)" style="fill: #b3e0ff; stroke: #000000; stroke-linejoin: miter"/>
   </g>
   <g id="patch_121">
    <path d="M 278.1 334.608 
C 280.46296 334.608 282.729457 333.363835 284.400321 331.149517 
C 286.071186 328.935199 287.01 325.931518 287.01 322.8 
C 287.01 319.668482 286.071186 316.664801 284.400321 314.450483 
C 282.729457 312.236165 280.46296 310.992 278.1 310.992 
C 275.73704 310.992 273.470543 312.236165 271.799679 314.450483 
C 270.128814 316.664801 269.19 319.668482 269.19 322.8 
C 269.19 325.931518 270.128814 328.935199 271.799679 331.149517 
C 273.470543 333.363835 275.73704 334.608 278.1 334.608 
z
" clip-path="url(#pf24918f5cd)" style="fill: #b3e0ff; stroke: #000000; stroke-linejoin: miter"/>
   </g>
   <g id="patch_122">
    <path d="M 278.1 295.248 
C 280.46296 295.248 282.729457 294.003835 284.400321 291.789517 
C 286.071186 289.575199 287.01 286.571518 287.01 283.44 
C 287.01 280.308482 286.071186 277.304801 284.400321 275.090483 
C 282.729457 272.876165 280.46296 271.632 278.1 271.632 
C 275.73704 271.632 273.470543 272.876165 271.799679 275.090483 
C 270.128814 277.304801 269.19 280.308482 269.19 283.44 
C 269.19 286.571518 270.128814 289.575199 271.799679 291.789517 
C 273.470543 294.003835 275.73704 295.248 278.1 295.248 
z
" clip-path="url(#pf24918f5cd)" style="fill: #b3e0ff; stroke: #000000; stroke-linejoin: miter"/>
   </g>
   <g id="patch_123">
    <path d="M 278.1 255.888 
C 280.46296 255.888 282.729457 254.643835 284.400321 252.429517 
C 286.071186 250.215199 287.01 247.211518 287.01 244.08 
C 287.01 240.948482 286.071186 237.944801 284.400321 235.730483 
C 282.729457 233.516165 280.46296 232.272 278.1 232.272 
C 275.73704 232.272 273.470543 233.516165 271.799679 235.730483 
C 270.128814 237.944801 269.19 240.948482 269.19 244.08 
C 269.19 247.211518 270.128814 250.215199 271.799679 252.429517 
C 273.470543 254.643835 275.73704 255.888 278.1 255.888 
z
" clip-path="url(#pf24918f5cd)" style="fill: #b3e0ff; stroke: #000000; stroke-linejoin: miter"/>
   </g>
   <g id="patch_124">
    <path d="M 278.1 216.528 
C 280.46296 216.528 282.729457 215.283835 284.400321 213.069517 
C 286.071186 210.855199 287.01 207.851518 287.01 204.72 
C 287.01 201.588482 286.071186 198.584801 284.400321 196.370483 
C 282.729457 194.156165 280.46296 192.912 278.1 192.912 
C 275.73704 192.912 273.470543 194.156165 271.799679 196.370483 
C 270.128814 198.584801 269.19 201.588482 269.19 204.72 
C 269.19 207.851518 270.128814 210.855199 271.799679 213.069517 
C 273.470543 215.283835 275.73704 216.528 278.1 216.528 
z
" clip-path="url(#pf24918f5cd)" style="fill: #b3e0ff; stroke: #000000; stroke-linejoin: miter"/>
   </g>
   <g id="patch_125">
    <path d="M 278.1 177.168 
C 280.46296 177.168 282.729457 175.923835 284.400321 173.709517 
C 286.071186 171.495199 287.01 168.491518 287.01 165.36 
C 287.01 162.228482 286.071186 159.224801 284.400321 157.010483 
C 282.729457 154.796165 280.46296 153.552 278.1 153.552 
C 275.73704 153.552 273.470543 154.796165 271.799679 157.010483 
C 270.128814 159.224801 269.19 162.228482 269.19 165.36 
C 269.19 168.491518 270.128814 171.495199 271.799679 173.709517 
C 273.470543 175.923835 275.73704 177.168 278.1 177.168 
z
" clip-path="url(#pf24918f5cd)" style="fill: #b3e0ff; stroke: #000000; stroke-linejoin: miter"/>
   </g>
   <g id="patch_126">
    <path d="M 278.1 137.808 
C 280.46296 137.808 282.729457 136.563835 284.400321 134.349517 
C 286.071186 132.135199 287.01 129.131518 287.01 126 
C 287.01 122.868482 286.071186 119.864801 284.400321 117.650483 
C 282.729457 115.436165 280.46296 114.192 278.1 114.192 
C 275.73704 114.192 273.470543 115.436165 271.799679 117.650483 
C 270.128814 119.864801 269.19 122.868482 269.19 126 
C 269.19 129.131518 270.128814 132.135199 271.799679 134.349517 
C 273.470543 136.563835 275.73704 137.808 278.1 137.808 
z
" clip-path="url(#pf24918f5cd)" style="fill: #b3e0ff; stroke: #000000; stroke-linejoin: miter"/>
   </g>
   <g id="patch_127">
    <path d="M 278.1 98.448 
C 280.46296 98.448 282.729457 97.203835 284.400321 94.989517 
C 286.071186 92.775199 287.01 89.771518 287.01 86.64 
C 287.01 83.508482 286.071186 80.504801 284.400321 78.290483 
C 282.729457 76.076165 280.46296 74.832 278.1 74.832 
C 275.73704 74.832 273.470543 76.076165 271.799679 78.290483 
C 270.128814 80.504801 269.19 83.508482 269.19 86.64 
C 269.19 89.771518 270.128814 92.775199 271.799679 94.989517 
C 273.470543 97.203835 275.73704 98.448 278.1 98.448 
z
" clip-path="url(#pf24918f5cd)" style="fill: #b3e0ff; stroke: #000000; stroke-linejoin: miter"/>
   </g>
   <g id="patch_128">
    <path d="M 278.1 59.088 
C 280.46296 59.088 282.729457 57.843835 284.400321 55.629517 
C 286.071186 53.415199 287.01 50.411518 287.01 47.28 
C 287.01 44.148482 286.071186 41.144801 284.400321 38.930483 
C 282.729457 36.716165 280.46296 35.472 278.1 35.472 
C 275.73704 35.472 273.470543 36.716165 271.799679 38.930483 
C 270.128814 41.144801 269.19 44.148482 269.19 47.28 
C 269.19 50.411518 270.128814 53.415199 271.799679 55.629517 
C 273.470543 57.843835 275.73704 59.088 278.1 59.088 
z
" clip-path="url(#pf24918f5cd)" style="fill: #b3e0ff; stroke: #000000; stroke-linejoin: miter"/>
   </g>
   <g id="patch_129">
    <path d="M 396.9 216.528 
C 399.26296 216.528 401.529457 215.283835 403.200321 213.069517 
C 404.871186 210.855199 405.81 207.851518 405.81 204.72 
C 405.81 201.588482 404.871186 198.584801 403.200321 196.370483 
C 401.529457 194.156165 399.26296 192.912 396.9 192.912 
C 394.53704 192.912 392.270543 194.156165 390.599679 196.370483 
C 388.928814 198.584801 387.99 201.588482 387.99 204.72 
C 387.99 207.851518 388.928814 210.855199 390.599679 213.069517 
C 392.270543 215.283835 394.53704 216.528 396.9 216.528 
z
" clip-path="url(#pf24918f5cd)" style="fill: #b3e0ff; stroke: #000000; stroke-linejoin: miter"/>
   </g>
   <g id="patch_130">
    <path d="M 396.9 177.168 
C 399.26296 177.168 401.529457 175.923835 403.200321 173.709517 
C 404.871186 171.495199 405.81 168.491518 405.81 165.36 
C 405.81 162.228482 404.871186 159.224801 403.200321 157.010483 
C 401.529457 154.796165 399.26296 153.552 396.9 153.552 
C 394.53704 153.552 392.270543 154.796165 390.599679 157.010483 
C 388.928814 159.224801 387.99 162.228482 387.99 165.36 
C 387.99 168.491518 388.928814 171.495199 390.599679 173.709517 
C 392.270543 175.923835 394.53704 177.168 396.9 177.168 
z
" clip-path="url(#pf24918f5cd)" style="fill: #b3e0ff; stroke: #000000; stroke-linejoin: miter"/>
   </g>
  </g>
  <g id="axes_2">
   <g id="patch_131">
    <path d="M 477.507316 225.721863 
Q 520.789651 263.684542 575.101471 282.782768 
" clip-path="url(#pabff8081c9)" style="fill: none; opacity: 0.6; stroke: #808080; stroke-width: 0.8; stroke-linecap: round"/>
   </g>
   <g id="patch_132">
    <path d="M 477.862399 225.153227 
Q 524.605864 243.960229 574.990797 244.082496 
" clip-path="url(#pabff8081c9)" style="fill: none; opacity: 0.6; stroke: #808080; stroke-width: 0.8; stroke-linecap: round"/>
   </g>
   <g id="patch_133">
    <path d="M 478.009682 224.402495 
Q 528.394598 224.280139 575.138045 205.473048 
" clip-path="url(#pabff8081c9)" style="fill: none; opacity: 0.6; stroke: #808080; stroke-width: 0.8; stroke-linecap: round"/>
   </g>
   <g id="patch_134">
    <path d="M 477.320054 222.887217 
Q 543.874349 145.745259 576.355658 49.177544 
" clip-path="url(#pabff8081c9)" style="fill: none; opacity: 0.6; stroke: #808080; stroke-width: 0.8; stroke-linecap: round"/>
   </g>
   <g id="patch_135">
    <path d="M 477.147681 186.690075 
Q 516.931211 244.061088 575.312715 282.346496 
" clip-path="url(#pabff8081c9)" style="fill: none; opacity: 0.6; stroke: #808080; stroke-width: 0.8; stroke-linecap: round"/>
   </g>
   <g id="patch_136">
    <path d="M 477.507316 186.361863 
Q 520.789651 224.324542 575.101471 243.422768 
" clip-path="url(#pabff8081c9)" style="fill: none; opacity: 0.6; stroke: #808080; stroke-width: 0.8; stroke-linecap: round"/>
   </g>
   <g id="patch_137">
    <path d="M 477.862399 185.793227 
Q 524.605864 204.600229 574.990797 204.722496 
" clip-path="url(#pabff8081c9)" style="fill: none; opacity: 0.6; stroke: #808080; stroke-width: 0.8; stroke-linecap: round"/>
   </g>
   <g id="patch_138">
    <path d="M 477.483178 183.686539 
Q 539.963794 126.027947 576.143525 49.09044 
" clip-path="url(#pabff8081c9)" style="fill: none; opacity: 0.6; stroke: #808080; stroke-width: 0.8; stroke-linecap: round"/>
   </g>
   <g id="patch_139">
    <path d="M 476.857315 147.492227 
Q 513.037352 224.429511 575.518273 282.087878 
" clip-path="url(#pabff8081c9)" style="fill: none; opacity: 0.6; stroke: #808080; stroke-width: 0.8; stroke-linecap: round"/>
   </g>
   <g id="patch_140">
    <path d="M 477.147681 147.330075 
Q 516.931211 204.701088 575.312715 242.986496 
" clip-path="url(#pabff8081c9)" style="fill: none; opacity: 0.6; stroke: #808080; stroke-width: 0.8; stroke-linecap: round"/>
   </g>
   <g id="patch_141">
    <path d="M 477.507316 147.001863 
Q 520.789651 184.964542 575.101471 204.062768 
" clip-path="url(#pabff8081c9)" style="fill: none; opacity: 0.6; stroke: #808080; stroke-width: 0.8; stroke-linecap: round"/>
   </g>
   <g id="patch_142">
    <path d="M 477.688961 144.585397 
Q 536.070198 106.299714 575.853461 48.928428 
" clip-path="url(#pabff8081c9)" style="fill: none; opacity: 0.6; stroke: #808080; stroke-width: 0.8; stroke-linecap: round"/>
   </g>
   <g id="patch_143">
    <path d="M 596.497546 284.511166 
Q 641.502383 312.858185 693.819208 322.445938 
" clip-path="url(#pabff8081c9)" style="fill: none; opacity: 0.6; stroke: #808080; stroke-width: 0.8; stroke-linecap: round"/>
   </g>
   <g id="patch_144">
    <path d="M 596.773021 283.824972 
Q 645.30095 293.153211 693.828879 283.824607 
" clip-path="url(#pabff8081c9)" style="fill: none; opacity: 0.6; stroke: #808080; stroke-width: 0.8; stroke-linecap: round"/>
   </g>
   <g id="patch_145">
    <path d="M 596.598043 282.536878 
Q 652.933757 253.872884 694.47748 206.234103 
" clip-path="url(#pabff8081c9)" style="fill: none; opacity: 0.6; stroke: #808080; stroke-width: 0.8; stroke-linecap: round"/>
   </g>
   <g id="patch_146">
    <path d="M 596.376627 282.203085 
Q 656.812741 234.247742 694.809461 167.102612 
" clip-path="url(#pabff8081c9)" style="fill: none; opacity: 0.6; stroke: #808080; stroke-width: 0.8; stroke-linecap: round"/>
   </g>
   <g id="patch_147">
    <path d="M 596.122112 245.593636 
Q 637.665762 293.232509 694.001403 321.896596 
" clip-path="url(#pabff8081c9)" style="fill: none; opacity: 0.6; stroke: #808080; stroke-width: 0.8; stroke-linecap: round"/>
   </g>
   <g id="patch_148">
    <path d="M 596.497546 245.151166 
Q 641.502383 273.498185 693.819208 283.085938 
" clip-path="url(#pabff8081c9)" style="fill: none; opacity: 0.6; stroke: #808080; stroke-width: 0.8; stroke-linecap: round"/>
   </g>
   <g id="patch_149">
    <path d="M 596.777308 243.726576 
Q 649.094377 234.139448 694.099457 205.793054 
" clip-path="url(#pabff8081c9)" style="fill: none; opacity: 0.6; stroke: #808080; stroke-width: 0.8; stroke-linecap: round"/>
   </g>
   <g id="patch_150">
    <path d="M 596.598043 243.176878 
Q 652.933757 214.512884 694.47748 166.874103 
" clip-path="url(#pabff8081c9)" style="fill: none; opacity: 0.6; stroke: #808080; stroke-width: 0.8; stroke-linecap: round"/>
   </g>
   <g id="patch_151">
    <path d="M 595.788829 206.459589 
Q 633.785044 273.605151 694.220653 321.560926 
" clip-path="url(#pabff8081c9)" style="fill: none; opacity: 0.6; stroke: #808080; stroke-width: 0.8; stroke-linecap: round"/>
   </g>
   <g id="patch_152">
    <path d="M 596.122112 206.233636 
Q 637.665762 253.872509 694.001403 282.536596 
" clip-path="url(#pabff8081c9)" style="fill: none; opacity: 0.6; stroke: #808080; stroke-width: 0.8; stroke-linecap: round"/>
   </g>
   <g id="patch_153">
    <path d="M 596.773021 205.104972 
Q 645.30095 214.433211 693.828879 205.104607 
" clip-path="url(#pabff8081c9)" style="fill: none; opacity: 0.6; stroke: #808080; stroke-width: 0.8; stroke-linecap: round"/>
   </g>
   <g id="patch_154">
    <path d="M 596.777308 204.366576 
Q 649.094377 194.779448 694.099457 166.433054 
" clip-path="url(#pabff8081c9)" style="fill: none; opacity: 0.6; stroke: #808080; stroke-width: 0.8; stroke-linecap: round"/>
   </g>
   <g id="patch_155">
    <path d="M 595.119778 49.259979 
Q 618.114987 195.005772 694.749189 321.092499 
" clip-path="url(#pabff8081c9)" style="fill: none; opacity: 0.6; stroke: #808080; stroke-width: 0.8; stroke-linecap: round"/>
   </g>
   <g id="patch_156">
    <path d="M 595.223645 49.238572 
Q 622.042254 175.304516 694.659417 281.78739 
" clip-path="url(#pabff8081c9)" style="fill: none; opacity: 0.6; stroke: #808080; stroke-width: 0.8; stroke-linecap: round"/>
   </g>
   <g id="patch_157">
    <path d="M 595.54193 49.139901 
Q 629.882239 135.887543 694.403389 203.27758 
" clip-path="url(#pabff8081c9)" style="fill: none; opacity: 0.6; stroke: #808080; stroke-width: 0.8; stroke-linecap: round"/>
   </g>
   <g id="patch_158">
    <path d="M 595.788829 49.019589 
Q 633.785044 116.165151 694.220653 164.120926 
" clip-path="url(#pabff8081c9)" style="fill: none; opacity: 0.6; stroke: #808080; stroke-width: 0.8; stroke-linecap: round"/>
   </g>
   <g id="patch_159">
    <path d="M 715.176627 321.563085 
Q 775.612741 273.607742 813.609461 206.462612 
" clip-path="url(#pabff8081c9)" style="fill: none; opacity: 0.6; stroke: #808080; stroke-width: 0.8; stroke-linecap: round"/>
   </g>
   <g id="patch_160">
    <path d="M 714.995174 321.359081 
Q 779.51666 253.969259 813.857305 167.221833 
" clip-path="url(#pabff8081c9)" style="fill: none; opacity: 0.6; stroke: #808080; stroke-width: 0.8; stroke-linecap: round"/>
   </g>
   <g id="patch_161">
    <path d="M 715.398043 282.536878 
Q 771.733757 253.872884 813.27748 206.234103 
" clip-path="url(#pabff8081c9)" style="fill: none; opacity: 0.6; stroke: #808080; stroke-width: 0.8; stroke-linecap: round"/>
   </g>
   <g id="patch_162">
    <path d="M 715.176627 282.203085 
Q 775.612741 234.247742 813.609461 167.102612 
" clip-path="url(#pabff8081c9)" style="fill: none; opacity: 0.6; stroke: #808080; stroke-width: 0.8; stroke-linecap: round"/>
   </g>
   <g id="patch_163">
    <path d="M 715.573021 205.104972 
Q 764.10095 214.433211 812.628879 205.104607 
" clip-path="url(#pabff8081c9)" style="fill: none; opacity: 0.6; stroke: #808080; stroke-width: 0.8; stroke-linecap: round"/>
   </g>
   <g id="patch_164">
    <path d="M 715.577308 204.366576 
Q 767.894377 194.779448 812.899457 166.433054 
" clip-path="url(#pabff8081c9)" style="fill: none; opacity: 0.6; stroke: #808080; stroke-width: 0.8; stroke-linecap: round"/>
   </g>
   <g id="patch_165">
    <path d="M 715.297546 166.431166 
Q 760.302383 194.778185 812.619208 204.365938 
" clip-path="url(#pabff8081c9)" style="fill: none; opacity: 0.6; stroke: #808080; stroke-width: 0.8; stroke-linecap: round"/>
   </g>
   <g id="patch_166">
    <path d="M 715.573021 165.744972 
Q 764.10095 175.073211 812.628879 165.744607 
" clip-path="url(#pabff8081c9)" style="fill: none; opacity: 0.6; stroke: #808080; stroke-width: 0.8; stroke-linecap: round"/>
   </g>
   <g id="text_6">
    <g id="patch_167">
     <path d="M 451.56375 391.246875 
L 482.63625 391.246875 
Q 486.23625 391.246875 486.23625 387.646875 
L 486.23625 376.033125 
Q 486.23625 372.433125 482.63625 372.433125 
L 451.56375 372.433125 
Q 447.96375 372.433125 447.96375 376.033125 
L 447.96375 387.646875 
Q 447.96375 391.246875 451.56375 391.246875 
z
" style="fill: #ffffff; opacity: 0.7; stroke: #000000; stroke-linejoin: miter"/>
    </g>
    <!-- Input -->
    <g transform="translate(451.56375 385.15125) scale(0.12 -0.12)">
     <use xlink:href="#DejaVuSans-49"/>
     <use xlink:href="#DejaVuSans-6e" x="29.492188"/>
     <use xlink:href="#DejaVuSans-70" x="92.871094"/>
     <use xlink:href="#DejaVuSans-75" x="156.347656"/>
     <use xlink:href="#DejaVuSans-74" x="219.726562"/>
    </g>
   </g>
   <g id="text_7">
    <g id="patch_168">
     <path d="M 558.884063 391.246875 
L 612.915938 391.246875 
Q 616.515938 391.246875 616.515938 387.646875 
L 616.515938 376.033125 
Q 616.515938 372.433125 612.915938 372.433125 
L 558.884063 372.433125 
Q 555.284063 372.433125 555.284063 376.033125 
L 555.284063 387.646875 
Q 555.284063 391.246875 558.884063 391.246875 
z
" style="fill: #ffffff; opacity: 0.7; stroke: #000000; stroke-linejoin: miter"/>
    </g>
    <!-- Hidden 1 -->
    <g transform="translate(558.884063 385.15125) scale(0.12 -0.12)">
     <use xlink:href="#DejaVuSans-48"/>
     <use xlink:href="#DejaVuSans-69" x="75.195312"/>
     <use xlink:href="#DejaVuSans-64" x="102.978516"/>
     <use xlink:href="#DejaVuSans-64" x="166.455078"/>
     <use xlink:href="#DejaVuSans-65" x="229.931641"/>
     <use xlink:href="#DejaVuSans-6e" x="291.455078"/>
     <use xlink:href="#DejaVuSans-20" x="354.833984"/>
     <use xlink:href="#DejaVuSans-31" x="386.621094"/>
    </g>
   </g>
   <g id="text_8">
    <g id="patch_169">
     <path d="M 677.684063 391.246875 
L 731.715938 391.246875 
Q 735.315938 391.246875 735.315938 387.646875 
L 735.315938 376.033125 
Q 735.315938 372.433125 731.715938 372.433125 
L 677.684063 372.433125 
Q 674.084063 372.433125 674.084063 376.033125 
L 674.084063 387.646875 
Q 674.084063 391.246875 677.684063 391.246875 
z
" style="fill: #ffffff; opacity: 0.7; stroke: #000000; stroke-linejoin: miter"/>
    </g>
    <!-- Hidden 2 -->
    <g transform="translate(677.684063 385.15125) scale(0.12 -0.12)">
     <use xlink:href="#DejaVuSans-48"/>
     <use xlink:href="#DejaVuSans-69" x="75.195312"/>
     <use xlink:href="#DejaVuSans-64" x="102.978516"/>
     <use xlink:href="#DejaVuSans-64" x="166.455078"/>
     <use xlink:href="#DejaVuSans-65" x="229.931641"/>
     <use xlink:href="#DejaVuSans-6e" x="291.455078"/>
     <use xlink:href="#DejaVuSans-20" x="354.833984"/>
     <use xlink:href="#DejaVuSans-32" x="386.621094"/>
    </g>
   </g>
   <g id="text_9">
    <g id="patch_170">
     <path d="M 802.658437 391.246875 
L 844.341563 391.246875 
Q 847.941563 391.246875 847.941563 387.646875 
L 847.941563 376.033125 
Q 847.941563 372.433125 844.341563 372.433125 
L 802.658437 372.433125 
Q 799.058437 372.433125 799.058437 376.033125 
L 799.058437 387.646875 
Q 799.058437 391.246875 802.658437 391.246875 
z
" style="fill: #ffffff; opacity: 0.7; stroke: #000000; stroke-linejoin: miter"/>
    </g>
    <!-- Output -->
    <g transform="translate(802.658437 385.15125) scale(0.12 -0.12)">
     <use xlink:href="#DejaVuSans-4f"/>
     <use xlink:href="#DejaVuSans-75" x="78.710938"/>
     <use xlink:href="#DejaVuSans-74" x="142.089844"/>
     <use xlink:href="#DejaVuSans-70" x="181.298828"/>
     <use xlink:href="#DejaVuSans-75" x="244.775391"/>
     <use xlink:href="#DejaVuSans-74" x="308.154297"/>
    </g>
   </g>
   <g id="text_10">
    <!-- Network with Dropout (50%) -->
    <g transform="translate(545.227344 21.6) scale(0.14 -0.14)">
     <defs>
      <path id="DejaVuSans-68" d="M 3513 2113 
L 3513 0 
L 2938 0 
L 2938 2094 
Q 2938 2591 2744 2837 
Q 2550 3084 2163 3084 
Q 1697 3084 1428 2787 
Q 1159 2491 1159 1978 
L 1159 0 
L 581 0 
L 581 4863 
L 1159 4863 
L 1159 2956 
Q 1366 3272 1645 3428 
Q 1925 3584 2291 3584 
Q 2894 3584 3203 3211 
Q 3513 2838 3513 2113 
z
" transform="scale(0.015625)"/>
      <path id="DejaVuSans-44" d="M 1259 4147 
L 1259 519 
L 2022 519 
Q 2988 519 3436 956 
Q 3884 1394 3884 2338 
Q 3884 3275 3436 3711 
Q 2988 4147 2022 4147 
L 1259 4147 
z
M 628 4666 
L 1925 4666 
Q 3281 4666 3915 4102 
Q 4550 3538 4550 2338 
Q 4550 1131 3912 565 
Q 3275 0 1925 0 
L 628 0 
L 628 4666 
z
" transform="scale(0.015625)"/>
      <path id="DejaVuSans-28" d="M 1984 4856 
Q 1566 4138 1362 3434 
Q 1159 2731 1159 2009 
Q 1159 1288 1364 580 
Q 1569 -128 1984 -844 
L 1484 -844 
Q 1016 -109 783 600 
Q 550 1309 550 2009 
Q 550 2706 781 3412 
Q 1013 4119 1484 4856 
L 1984 4856 
z
" transform="scale(0.015625)"/>
      <path id="DejaVuSans-35" d="M 691 4666 
L 3169 4666 
L 3169 4134 
L 1269 4134 
L 1269 2991 
Q 1406 3038 1543 3061 
Q 1681 3084 1819 3084 
Q 2600 3084 3056 2656 
Q 3513 2228 3513 1497 
Q 3513 744 3044 326 
Q 2575 -91 1722 -91 
Q 1428 -91 1123 -41 
Q 819 9 494 109 
L 494 744 
Q 775 591 1075 516 
Q 1375 441 1709 441 
Q 2250 441 2565 725 
Q 2881 1009 2881 1497 
Q 2881 1984 2565 2268 
Q 2250 2553 1709 2553 
Q 1456 2553 1204 2497 
Q 953 2441 691 2322 
L 691 4666 
z
" transform="scale(0.015625)"/>
      <path id="DejaVuSans-30" d="M 2034 4250 
Q 1547 4250 1301 3770 
Q 1056 3291 1056 2328 
Q 1056 1369 1301 889 
Q 1547 409 2034 409 
Q 2525 409 2770 889 
Q 3016 1369 3016 2328 
Q 3016 3291 2770 3770 
Q 2525 4250 2034 4250 
z
M 2034 4750 
Q 2819 4750 3233 4129 
Q 3647 3509 3647 2328 
Q 3647 1150 3233 529 
Q 2819 -91 2034 -91 
Q 1250 -91 836 529 
Q 422 1150 422 2328 
Q 422 3509 836 4129 
Q 1250 4750 2034 4750 
z
" transform="scale(0.015625)"/>
      <path id="DejaVuSans-25" d="M 4653 2053 
Q 4381 2053 4226 1822 
Q 4072 1591 4072 1178 
Q 4072 772 4226 539 
Q 4381 306 4653 306 
Q 4919 306 5073 539 
Q 5228 772 5228 1178 
Q 5228 1588 5073 1820 
Q 4919 2053 4653 2053 
z
M 4653 2450 
Q 5147 2450 5437 2106 
Q 5728 1763 5728 1178 
Q 5728 594 5436 251 
Q 5144 -91 4653 -91 
Q 4153 -91 3862 251 
Q 3572 594 3572 1178 
Q 3572 1766 3864 2108 
Q 4156 2450 4653 2450 
z
M 1428 4353 
Q 1159 4353 1004 4120 
Q 850 3888 850 3481 
Q 850 3069 1003 2837 
Q 1156 2606 1428 2606 
Q 1700 2606 1854 2837 
Q 2009 3069 2009 3481 
Q 2009 3884 1853 4118 
Q 1697 4353 1428 4353 
z
M 4250 4750 
L 4750 4750 
L 1831 -91 
L 1331 -91 
L 4250 4750 
z
M 1428 4750 
Q 1922 4750 2215 4408 
Q 2509 4066 2509 3481 
Q 2509 2891 2217 2550 
Q 1925 2209 1428 2209 
Q 931 2209 642 2551 
Q 353 2894 353 3481 
Q 353 4063 643 4406 
Q 934 4750 1428 4750 
z
" transform="scale(0.015625)"/>
      <path id="DejaVuSans-29" d="M 513 4856 
L 1013 4856 
Q 1481 4119 1714 3412 
Q 1947 2706 1947 2009 
Q 1947 1309 1714 600 
Q 1481 -109 1013 -844 
L 513 -844 
Q 928 -128 1133 580 
Q 1338 1288 1338 2009 
Q 1338 2731 1133 3434 
Q 928 4138 513 4856 
z
" transform="scale(0.015625)"/>
     </defs>
     <use xlink:href="#DejaVuSans-4e"/>
     <use xlink:href="#DejaVuSans-65" x="74.804688"/>
     <use xlink:href="#DejaVuSans-74" x="136.328125"/>
     <use xlink:href="#DejaVuSans-77" x="175.537109"/>
     <use xlink:href="#DejaVuSans-6f" x="257.324219"/>
     <use xlink:href="#DejaVuSans-72" x="318.505859"/>
     <use xlink:href="#DejaVuSans-6b" x="359.619141"/>
     <use xlink:href="#DejaVuSans-20" x="417.529297"/>
     <use xlink:href="#DejaVuSans-77" x="449.316406"/>
     <use xlink:href="#DejaVuSans-69" x="531.103516"/>
     <use xlink:href="#DejaVuSans-74" x="558.886719"/>
     <use xlink:href="#DejaVuSans-68" x="598.095703"/>
     <use xlink:href="#DejaVuSans-20" x="661.474609"/>
     <use xlink:href="#DejaVuSans-44" x="693.261719"/>
     <use xlink:href="#DejaVuSans-72" x="770.263672"/>
     <use xlink:href="#DejaVuSans-6f" x="809.126953"/>
     <use xlink:href="#DejaVuSans-70" x="870.308594"/>
     <use xlink:href="#DejaVuSans-6f" x="933.785156"/>
     <use xlink:href="#DejaVuSans-75" x="994.966797"/>
     <use xlink:href="#DejaVuSans-74" x="1058.345703"/>
     <use xlink:href="#DejaVuSans-20" x="1097.554688"/>
     <use xlink:href="#DejaVuSans-28" x="1129.341797"/>
     <use xlink:href="#DejaVuSans-35" x="1168.355469"/>
     <use xlink:href="#DejaVuSans-30" x="1231.978516"/>
     <use xlink:href="#DejaVuSans-25" x="1295.601562"/>
     <use xlink:href="#DejaVuSans-29" x="1390.621094"/>
    </g>
   </g>
   <g id="patch_171">
    <path d="M 467.1 236.208 
C 469.46296 236.208 471.729457 234.963835 473.400321 232.749517 
C 475.071186 230.535199 476.01 227.531518 476.01 224.4 
C 476.01 221.268482 475.071186 218.264801 473.400321 216.050483 
C 471.729457 213.836165 469.46296 212.592 467.1 212.592 
C 464.73704 212.592 462.470543 213.836165 460.799679 216.050483 
C 459.128814 218.264801 458.19 221.268482 458.19 224.4 
C 458.19 227.531518 459.128814 230.535199 460.799679 232.749517 
C 462.470543 234.963835 464.73704 236.208 467.1 236.208 
z
" clip-path="url(#pabff8081c9)" style="fill: #b3e0ff; stroke: #000000; stroke-linejoin: miter"/>
   </g>
   <g id="patch_172">
    <path d="M 467.1 196.848 
C 469.46296 196.848 471.729457 195.603835 473.400321 193.389517 
C 475.071186 191.175199 476.01 188.171518 476.01 185.04 
C 476.01 181.908482 475.071186 178.904801 473.400321 176.690483 
C 471.729457 174.476165 469.46296 173.232 467.1 173.232 
C 464.73704 173.232 462.470543 174.476165 460.799679 176.690483 
C 459.128814 178.904801 458.19 181.908482 458.19 185.04 
C 458.19 188.171518 459.128814 191.175199 460.799679 193.389517 
C 462.470543 195.603835 464.73704 196.848 467.1 196.848 
z
" clip-path="url(#pabff8081c9)" style="fill: #b3e0ff; stroke: #000000; stroke-linejoin: miter"/>
   </g>
   <g id="patch_173">
    <path d="M 467.1 157.488 
C 469.46296 157.488 471.729457 156.243835 473.400321 154.029517 
C 475.071186 151.815199 476.01 148.811518 476.01 145.68 
C 476.01 142.548482 475.071186 139.544801 473.400321 137.330483 
C 471.729457 135.116165 469.46296 133.872 467.1 133.872 
C 464.73704 133.872 462.470543 135.116165 460.799679 137.330483 
C 459.128814 139.544801 458.19 142.548482 458.19 145.68 
C 458.19 148.811518 459.128814 151.815199 460.799679 154.029517 
C 462.470543 156.243835 464.73704 157.488 467.1 157.488 
z
" clip-path="url(#pabff8081c9)" style="fill: #b3e0ff; stroke: #000000; stroke-linejoin: miter"/>
   </g>
   <g id="patch_174">
    <path d="M 585.9 334.608 
C 588.26296 334.608 590.529457 333.363835 592.200321 331.149517 
C 593.871186 328.935199 594.81 325.931518 594.81 322.8 
C 594.81 319.668482 593.871186 316.664801 592.200321 314.450483 
C 590.529457 312.236165 588.26296 310.992 585.9 310.992 
C 583.53704 310.992 581.270543 312.236165 579.599679 314.450483 
C 577.928814 316.664801 576.99 319.668482 576.99 322.8 
C 576.99 325.931518 577.928814 328.935199 579.599679 331.149517 
C 581.270543 333.363835 583.53704 334.608 585.9 334.608 
z
" clip-path="url(#pabff8081c9)" style="fill: #ffcccc; opacity: 0.7; stroke-dasharray: 3.7,1.6; stroke-dashoffset: 0; stroke: #ff0000; stroke-linejoin: miter"/>
   </g>
   <g id="patch_175">
    <path d="M 585.9 295.248 
C 588.26296 295.248 590.529457 294.003835 592.200321 291.789517 
C 593.871186 289.575199 594.81 286.571518 594.81 283.44 
C 594.81 280.308482 593.871186 277.304801 592.200321 275.090483 
C 590.529457 272.876165 588.26296 271.632 585.9 271.632 
C 583.53704 271.632 581.270543 272.876165 579.599679 275.090483 
C 577.928814 277.304801 576.99 280.308482 576.99 283.44 
C 576.99 286.571518 577.928814 289.575199 579.599679 291.789517 
C 581.270543 294.003835 583.53704 295.248 585.9 295.248 
z
" clip-path="url(#pabff8081c9)" style="fill: #b3e0ff; stroke: #000000; stroke-linejoin: miter"/>
   </g>
   <g id="patch_176">
    <path d="M 585.9 255.888 
C 588.26296 255.888 590.529457 254.643835 592.200321 252.429517 
C 593.871186 250.215199 594.81 247.211518 594.81 244.08 
C 594.81 240.948482 593.871186 237.944801 592.200321 235.730483 
C 590.529457 233.516165 588.26296 232.272 585.9 232.272 
C 583.53704 232.272 581.270543 233.516165 579.599679 235.730483 
C 577.928814 237.944801 576.99 240.948482 576.99 244.08 
C 576.99 247.211518 577.928814 250.215199 579.599679 252.429517 
C 581.270543 254.643835 583.53704 255.888 585.9 255.888 
z
" clip-path="url(#pabff8081c9)" style="fill: #b3e0ff; stroke: #000000; stroke-linejoin: miter"/>
   </g>
   <g id="patch_177">
    <path d="M 585.9 216.528 
C 588.26296 216.528 590.529457 215.283835 592.200321 213.069517 
C 593.871186 210.855199 594.81 207.851518 594.81 204.72 
C 594.81 201.588482 593.871186 198.584801 592.200321 196.370483 
C 590.529457 194.156165 588.26296 192.912 585.9 192.912 
C 583.53704 192.912 581.270543 194.156165 579.599679 196.370483 
C 577.928814 198.584801 576.99 201.588482 576.99 204.72 
C 576.99 207.851518 577.928814 210.855199 579.599679 213.069517 
C 581.270543 215.283835 583.53704 216.528 585.9 216.528 
z
" clip-path="url(#pabff8081c9)" style="fill: #b3e0ff; stroke: #000000; stroke-linejoin: miter"/>
   </g>
   <g id="patch_178">
    <path d="M 585.9 177.168 
C 588.26296 177.168 590.529457 175.923835 592.200321 173.709517 
C 593.871186 171.495199 594.81 168.491518 594.81 165.36 
C 594.81 162.228482 593.871186 159.224801 592.200321 157.010483 
C 590.529457 154.796165 588.26296 153.552 585.9 153.552 
C 583.53704 153.552 581.270543 154.796165 579.599679 157.010483 
C 577.928814 159.224801 576.99 162.228482 576.99 165.36 
C 576.99 168.491518 577.928814 171.495199 579.599679 173.709517 
C 581.270543 175.923835 583.53704 177.168 585.9 177.168 
z
" clip-path="url(#pabff8081c9)" style="fill: #ffcccc; opacity: 0.7; stroke-dasharray: 3.7,1.6; stroke-dashoffset: 0; stroke: #ff0000; stroke-linejoin: miter"/>
   </g>
   <g id="patch_179">
    <path d="M 585.9 137.808 
C 588.26296 137.808 590.529457 136.563835 592.200321 134.349517 
C 593.871186 132.135199 594.81 129.131518 594.81 126 
C 594.81 122.868482 593.871186 119.864801 592.200321 117.650483 
C 590.529457 115.436165 588.26296 114.192 585.9 114.192 
C 583.53704 114.192 581.270543 115.436165 579.599679 117.650483 
C 577.928814 119.864801 576.99 122.868482 576.99 126 
C 576.99 129.131518 577.928814 132.135199 579.599679 134.349517 
C 581.270543 136.563835 583.53704 137.808 585.9 137.808 
z
" clip-path="url(#pabff8081c9)" style="fill: #ffcccc; opacity: 0.7; stroke-dasharray: 3.7,1.6; stroke-dashoffset: 0; stroke: #ff0000; stroke-linejoin: miter"/>
   </g>
   <g id="patch_180">
    <path d="M 585.9 98.448 
C 588.26296 98.448 590.529457 97.203835 592.200321 94.989517 
C 593.871186 92.775199 594.81 89.771518 594.81 86.64 
C 594.81 83.508482 593.871186 80.504801 592.200321 78.290483 
C 590.529457 76.076165 588.26296 74.832 585.9 74.832 
C 583.53704 74.832 581.270543 76.076165 579.599679 78.290483 
C 577.928814 80.504801 576.99 83.508482 576.99 86.64 
C 576.99 89.771518 577.928814 92.775199 579.599679 94.989517 
C 581.270543 97.203835 583.53704 98.448 585.9 98.448 
z
" clip-path="url(#pabff8081c9)" style="fill: #ffcccc; opacity: 0.7; stroke-dasharray: 3.7,1.6; stroke-dashoffset: 0; stroke: #ff0000; stroke-linejoin: miter"/>
   </g>
   <g id="patch_181">
    <path d="M 585.9 59.088 
C 588.26296 59.088 590.529457 57.843835 592.200321 55.629517 
C 593.871186 53.415199 594.81 50.411518 594.81 47.28 
C 594.81 44.148482 593.871186 41.144801 592.200321 38.930483 
C 590.529457 36.716165 588.26296 35.472 585.9 35.472 
C 583.53704 35.472 581.270543 36.716165 579.599679 38.930483 
C 577.928814 41.144801 576.99 44.148482 576.99 47.28 
C 576.99 50.411518 577.928814 53.415199 579.599679 55.629517 
C 581.270543 57.843835 583.53704 59.088 585.9 59.088 
z
" clip-path="url(#pabff8081c9)" style="fill: #b3e0ff; stroke: #000000; stroke-linejoin: miter"/>
   </g>
   <g id="patch_182">
    <path d="M 704.7 334.608 
C 707.06296 334.608 709.329457 333.363835 711.000321 331.149517 
C 712.671186 328.935199 713.61 325.931518 713.61 322.8 
C 713.61 319.668482 712.671186 316.664801 711.000321 314.450483 
C 709.329457 312.236165 707.06296 310.992 704.7 310.992 
C 702.33704 310.992 700.070543 312.236165 698.399679 314.450483 
C 696.728814 316.664801 695.79 319.668482 695.79 322.8 
C 695.79 325.931518 696.728814 328.935199 698.399679 331.149517 
C 700.070543 333.363835 702.33704 334.608 704.7 334.608 
z
" clip-path="url(#pabff8081c9)" style="fill: #b3e0ff; stroke: #000000; stroke-linejoin: miter"/>
   </g>
   <g id="patch_183">
    <path d="M 704.7 295.248 
C 707.06296 295.248 709.329457 294.003835 711.000321 291.789517 
C 712.671186 289.575199 713.61 286.571518 713.61 283.44 
C 713.61 280.308482 712.671186 277.304801 711.000321 275.090483 
C 709.329457 272.876165 707.06296 271.632 704.7 271.632 
C 702.33704 271.632 700.070543 272.876165 698.399679 275.090483 
C 696.728814 277.304801 695.79 280.308482 695.79 283.44 
C 695.79 286.571518 696.728814 289.575199 698.399679 291.789517 
C 700.070543 294.003835 702.33704 295.248 704.7 295.248 
z
" clip-path="url(#pabff8081c9)" style="fill: #b3e0ff; stroke: #000000; stroke-linejoin: miter"/>
   </g>
   <g id="patch_184">
    <path d="M 704.7 255.888 
C 707.06296 255.888 709.329457 254.643835 711.000321 252.429517 
C 712.671186 250.215199 713.61 247.211518 713.61 244.08 
C 713.61 240.948482 712.671186 237.944801 711.000321 235.730483 
C 709.329457 233.516165 707.06296 232.272 704.7 232.272 
C 702.33704 232.272 700.070543 233.516165 698.399679 235.730483 
C 696.728814 237.944801 695.79 240.948482 695.79 244.08 
C 695.79 247.211518 696.728814 250.215199 698.399679 252.429517 
C 700.070543 254.643835 702.33704 255.888 704.7 255.888 
z
" clip-path="url(#pabff8081c9)" style="fill: #ffcccc; opacity: 0.7; stroke-dasharray: 3.7,1.6; stroke-dashoffset: 0; stroke: #ff0000; stroke-linejoin: miter"/>
   </g>
   <g id="patch_185">
    <path d="M 704.7 216.528 
C 707.06296 216.528 709.329457 215.283835 711.000321 213.069517 
C 712.671186 210.855199 713.61 207.851518 713.61 204.72 
C 713.61 201.588482 712.671186 198.584801 711.000321 196.370483 
C 709.329457 194.156165 707.06296 192.912 704.7 192.912 
C 702.33704 192.912 700.070543 194.156165 698.399679 196.370483 
C 696.728814 198.584801 695.79 201.588482 695.79 204.72 
C 695.79 207.851518 696.728814 210.855199 698.399679 213.069517 
C 700.070543 215.283835 702.33704 216.528 704.7 216.528 
z
" clip-path="url(#pabff8081c9)" style="fill: #b3e0ff; stroke: #000000; stroke-linejoin: miter"/>
   </g>
   <g id="patch_186">
    <path d="M 704.7 177.168 
C 707.06296 177.168 709.329457 175.923835 711.000321 173.709517 
C 712.671186 171.495199 713.61 168.491518 713.61 165.36 
C 713.61 162.228482 712.671186 159.224801 711.000321 157.010483 
C 709.329457 154.796165 707.06296 153.552 704.7 153.552 
C 702.33704 153.552 700.070543 154.796165 698.399679 157.010483 
C 696.728814 159.224801 695.79 162.228482 695.79 165.36 
C 695.79 168.491518 696.728814 171.495199 698.399679 173.709517 
C 700.070543 175.923835 702.33704 177.168 704.7 177.168 
z
" clip-path="url(#pabff8081c9)" style="fill: #b3e0ff; stroke: #000000; stroke-linejoin: miter"/>
   </g>
   <g id="patch_187">
    <path d="M 704.7 137.808 
C 707.06296 137.808 709.329457 136.563835 711.000321 134.349517 
C 712.671186 132.135199 713.61 129.131518 713.61 126 
C 713.61 122.868482 712.671186 119.864801 711.000321 117.650483 
C 709.329457 115.436165 707.06296 114.192 704.7 114.192 
C 702.33704 114.192 700.070543 115.436165 698.399679 117.650483 
C 696.728814 119.864801 695.79 122.868482 695.79 126 
C 695.79 129.131518 696.728814 132.135199 698.399679 134.349517 
C 700.070543 136.563835 702.33704 137.808 704.7 137.808 
z
" clip-path="url(#pabff8081c9)" style="fill: #ffcccc; opacity: 0.7; stroke-dasharray: 3.7,1.6; stroke-dashoffset: 0; stroke: #ff0000; stroke-linejoin: miter"/>
   </g>
   <g id="patch_188">
    <path d="M 704.7 98.448 
C 707.06296 98.448 709.329457 97.203835 711.000321 94.989517 
C 712.671186 92.775199 713.61 89.771518 713.61 86.64 
C 713.61 83.508482 712.671186 80.504801 711.000321 78.290483 
C 709.329457 76.076165 707.06296 74.832 704.7 74.832 
C 702.33704 74.832 700.070543 76.076165 698.399679 78.290483 
C 696.728814 80.504801 695.79 83.508482 695.79 86.64 
C 695.79 89.771518 696.728814 92.775199 698.399679 94.989517 
C 700.070543 97.203835 702.33704 98.448 704.7 98.448 
z
" clip-path="url(#pabff8081c9)" style="fill: #ffcccc; opacity: 0.7; stroke-dasharray: 3.7,1.6; stroke-dashoffset: 0; stroke: #ff0000; stroke-linejoin: miter"/>
   </g>
   <g id="patch_189">
    <path d="M 704.7 59.088 
C 707.06296 59.088 709.329457 57.843835 711.000321 55.629517 
C 712.671186 53.415199 713.61 50.411518 713.61 47.28 
C 713.61 44.148482 712.671186 41.144801 711.000321 38.930483 
C 709.329457 36.716165 707.06296 35.472 704.7 35.472 
C 702.33704 35.472 700.070543 36.716165 698.399679 38.930483 
C 696.728814 41.144801 695.79 44.148482 695.79 47.28 
C 695.79 50.411518 696.728814 53.415199 698.399679 55.629517 
C 700.070543 57.843835 702.33704 59.088 704.7 59.088 
z
" clip-path="url(#pabff8081c9)" style="fill: #ffcccc; opacity: 0.7; stroke-dasharray: 3.7,1.6; stroke-dashoffset: 0; stroke: #ff0000; stroke-linejoin: miter"/>
   </g>
   <g id="patch_190">
    <path d="M 823.5 216.528 
C 825.86296 216.528 828.129457 215.283835 829.800321 213.069517 
C 831.471186 210.855199 832.41 207.851518 832.41 204.72 
C 832.41 201.588482 831.471186 198.584801 829.800321 196.370483 
C 828.129457 194.156165 825.86296 192.912 823.5 192.912 
C 821.13704 192.912 818.870543 194.156165 817.199679 196.370483 
C 815.528814 198.584801 814.59 201.588482 814.59 204.72 
C 814.59 207.851518 815.528814 210.855199 817.199679 213.069517 
C 818.870543 215.283835 821.13704 216.528 823.5 216.528 
z
" clip-path="url(#pabff8081c9)" style="fill: #b3e0ff; stroke: #000000; stroke-linejoin: miter"/>
   </g>
   <g id="patch_191">
    <path d="M 823.5 177.168 
C 825.86296 177.168 828.129457 175.923835 829.800321 173.709517 
C 831.471186 171.495199 832.41 168.491518 832.41 165.36 
C 832.41 162.228482 831.471186 159.224801 829.800321 157.010483 
C 828.129457 154.796165 825.86296 153.552 823.5 153.552 
C 821.13704 153.552 818.870543 154.796165 817.199679 157.010483 
C 815.528814 159.224801 814.59 162.228482 814.59 165.36 
C 814.59 168.491518 815.528814 171.495199 817.199679 173.709517 
C 818.870543 175.923835 821.13704 177.168 823.5 177.168 
z
" clip-path="url(#pabff8081c9)" style="fill: #b3e0ff; stroke: #000000; stroke-linejoin: miter"/>
   </g>
   <g id="line2d_1">
    <path d="M 576.99 310.992 
L 594.81 334.608 
" clip-path="url(#pabff8081c9)" style="fill: none; stroke: #ff0000; stroke-width: 1.5; stroke-linecap: square"/>
   </g>
   <g id="line2d_2">
    <path d="M 576.99 153.552 
L 594.81 177.168 
" clip-path="url(#pabff8081c9)" style="fill: none; stroke: #ff0000; stroke-width: 1.5; stroke-linecap: square"/>
   </g>
   <g id="line2d_3">
    <path d="M 576.99 114.192 
L 594.81 137.808 
" clip-path="url(#pabff8081c9)" style="fill: none; stroke: #ff0000; stroke-width: 1.5; stroke-linecap: square"/>
   </g>
   <g id="line2d_4">
    <path d="M 576.99 74.832 
L 594.81 98.448 
" clip-path="url(#pabff8081c9)" style="fill: none; stroke: #ff0000; stroke-width: 1.5; stroke-linecap: square"/>
   </g>
   <g id="line2d_5">
    <path d="M 695.79 232.272 
L 713.61 255.888 
" clip-path="url(#pabff8081c9)" style="fill: none; stroke: #ff0000; stroke-width: 1.5; stroke-linecap: square"/>
   </g>
   <g id="line2d_6">
    <path d="M 695.79 114.192 
L 713.61 137.808 
" clip-path="url(#pabff8081c9)" style="fill: none; stroke: #ff0000; stroke-width: 1.5; stroke-linecap: square"/>
   </g>
   <g id="line2d_7">
    <path d="M 695.79 74.832 
L 713.61 98.448 
" clip-path="url(#pabff8081c9)" style="fill: none; stroke: #ff0000; stroke-width: 1.5; stroke-linecap: square"/>
   </g>
   <g id="line2d_8">
    <path d="M 695.79 35.472 
L 713.61 59.088 
" clip-path="url(#pabff8081c9)" style="fill: none; stroke: #ff0000; stroke-width: 1.5; stroke-linecap: square"/>
   </g>
  </g>
 </g>
 <defs>
  <clipPath id="pf24918f5cd">
   <rect x="10.8" y="27.6" width="415.8" height="393.6"/>
  </clipPath>
  <clipPath id="pabff8081c9">
   <rect x="437.4" y="27.6" width="415.8" height="393.6"/>
  </clipPath>
 </defs>
</svg>
