<?xml version="1.0" encoding="utf-8" standalone="no"?>
<!DOCTYPE svg PUBLIC "-//W3C//DTD SVG 1.1//EN"
  "http://www.w3.org/Graphics/SVG/1.1/DTD/svg11.dtd">
<svg xmlns:xlink="http://www.w3.org/1999/xlink" width="720pt" height="504pt" viewBox="0 0 720 504" xmlns="http://www.w3.org/2000/svg" version="1.1">
 <metadata>
  <rdf:RDF xmlns:dc="http://purl.org/dc/elements/1.1/" xmlns:cc="http://creativecommons.org/ns#" xmlns:rdf="http://www.w3.org/1999/02/22-rdf-syntax-ns#">
   <cc:Work>
    <dc:type rdf:resource="http://purl.org/dc/dcmitype/StillImage"/>
    <dc:date>2025-04-12T17:58:46.710672</dc:date>
    <dc:format>image/svg+xml</dc:format>
    <dc:creator>
     <cc:Agent>
      <dc:title>Matplotlib v3.9.2, https://matplotlib.org/</dc:title>
     </cc:Agent>
    </dc:creator>
   </cc:Work>
  </rdf:RDF>
 </metadata>
 <defs>
  <style type="text/css">*{stroke-linejoin: round; stroke-linecap: butt}</style>
 </defs>
 <g id="figure_1">
  <g id="patch_1">
   <path d="M 0 504 
L 720 504 
L 720 0 
L 0 0 
z
" style="fill: #ffffff"/>
  </g>
  <g id="axes_1">
   <g id="patch_2">
    <path d="M 103.45413 387.325914 
Q 216.107711 431.367382 336.154765 429.463714 
" clip-path="url(#pd60e70d063)" style="fill: none; opacity: 0.6; stroke: #808080; stroke-width: 0.8; stroke-linecap: round"/>
    <path d="M 335.751644 429.270081 
L 336.154765 429.463714 
L 335.757987 429.670031 
z
" clip-path="url(#pd60e70d063)" style="fill: #808080; opacity: 0.6; stroke: #808080; stroke-width: 0.8; stroke-linecap: round"/>
   </g>
   <g id="patch_3">
    <path d="M 103.592298 386.629407 
Q 224.53362 388.546995 336.354125 344.830936 
" clip-path="url(#pd60e70d063)" style="fill: none; opacity: 0.6; stroke: #808080; stroke-width: 0.8; stroke-linecap: round"/>
    <path d="M 335.90876 344.79031 
L 336.354125 344.830936 
L 336.054405 345.162852 
z
" clip-path="url(#pd60e70d063)" style="fill: #808080; opacity: 0.6; stroke: #808080; stroke-width: 0.8; stroke-linecap: round"/>
   </g>
   <g id="patch_4">
    <path d="M 103.505947 386.002713 
Q 232.983387 345.765866 336.8206 259.977962 
" clip-path="url(#pd60e70d063)" style="fill: none; opacity: 0.6; stroke: #808080; stroke-width: 0.8; stroke-linecap: round"/>
    <path d="M 336.384845 260.078545 
L 336.8206 259.977962 
L 336.639614 260.386916 
z
" clip-path="url(#pd60e70d063)" style="fill: #808080; opacity: 0.6; stroke: #808080; stroke-width: 0.8; stroke-linecap: round"/>
   </g>
   <g id="patch_5">
    <path d="M 103.313881 385.568232 
Q 241.469426 302.998924 337.315357 174.815004 
" clip-path="url(#pd60e70d063)" style="fill: none; opacity: 0.6; stroke: #808080; stroke-width: 0.8; stroke-linecap: round"/>
    <path d="M 336.91565 175.015587 
L 337.315357 174.815004 
L 337.236 175.25512 
z
" clip-path="url(#pd60e70d063)" style="fill: #808080; opacity: 0.6; stroke: #808080; stroke-width: 0.8; stroke-linecap: round"/>
   </g>
   <g id="patch_6">
    <path d="M 103.117466 385.298109 
Q 249.989534 260.225635 337.728289 89.426886 
" clip-path="url(#pd60e70d063)" style="fill: none; opacity: 0.6; stroke: #808080; stroke-width: 0.8; stroke-linecap: round"/>
    <path d="M 337.367616 89.691299 
L 337.728289 89.426886 
L 337.723416 89.874073 
z
" clip-path="url(#pd60e70d063)" style="fill: #808080; opacity: 0.6; stroke: #808080; stroke-width: 0.8; stroke-linecap: round"/>
   </g>
   <g id="patch_7">
    <path d="M 103.134672 302.232403 
Q 207.661999 388.588927 336.285876 428.559286 
" clip-path="url(#pd60e70d063)" style="fill: none; opacity: 0.6; stroke: #808080; stroke-width: 0.8; stroke-linecap: round"/>
    <path d="M 335.963246 428.249593 
L 336.285876 428.559286 
L 335.844544 428.631574 
z
" clip-path="url(#pd60e70d063)" style="fill: #808080; opacity: 0.6; stroke: #808080; stroke-width: 0.8; stroke-linecap: round"/>
   </g>
   <g id="patch_8">
    <path d="M 103.45413 301.68562 
Q 216.107711 345.727088 336.154765 343.82342 
" clip-path="url(#pd60e70d063)" style="fill: none; opacity: 0.6; stroke: #808080; stroke-width: 0.8; stroke-linecap: round"/>
    <path d="M 335.751644 343.629787 
L 336.154765 343.82342 
L 335.757987 344.029737 
z
" clip-path="url(#pd60e70d063)" style="fill: #808080; opacity: 0.6; stroke: #808080; stroke-width: 0.8; stroke-linecap: round"/>
   </g>
   <g id="patch_9">
    <path d="M 103.592298 300.989113 
Q 224.53362 302.906701 336.354125 259.190642 
" clip-path="url(#pd60e70d063)" style="fill: none; opacity: 0.6; stroke: #808080; stroke-width: 0.8; stroke-linecap: round"/>
    <path d="M 335.90876 259.150016 
L 336.354125 259.190642 
L 336.054405 259.522558 
z
" clip-path="url(#pd60e70d063)" style="fill: #808080; opacity: 0.6; stroke: #808080; stroke-width: 0.8; stroke-linecap: round"/>
   </g>
   <g id="patch_10">
    <path d="M 103.505947 300.362419 
Q 232.983387 260.125572 336.8206 174.337667 
" clip-path="url(#pd60e70d063)" style="fill: none; opacity: 0.6; stroke: #808080; stroke-width: 0.8; stroke-linecap: round"/>
    <path d="M 336.384845 174.438251 
L 336.8206 174.337667 
L 336.639614 174.746622 
z
" clip-path="url(#pd60e70d063)" style="fill: #808080; opacity: 0.6; stroke: #808080; stroke-width: 0.8; stroke-linecap: round"/>
   </g>
   <g id="patch_11">
    <path d="M 103.313881 299.927938 
Q 241.469426 217.35863 337.315357 89.17471 
" clip-path="url(#pd60e70d063)" style="fill: none; opacity: 0.6; stroke: #808080; stroke-width: 0.8; stroke-linecap: round"/>
    <path d="M 336.91565 89.375293 
L 337.315357 89.17471 
L 337.236 89.614826 
z
" clip-path="url(#pd60e70d063)" style="fill: #808080; opacity: 0.6; stroke: #808080; stroke-width: 0.8; stroke-linecap: round"/>
   </g>
   <g id="patch_12">
    <path d="M 102.790492 216.92078 
Q 199.172351 345.820673 336.560453 427.930779 
" clip-path="url(#pd60e70d063)" style="fill: none; opacity: 0.6; stroke: #808080; stroke-width: 0.8; stroke-linecap: round"/>
    <path d="M 336.319703 427.553897 
L 336.560453 427.930779 
L 336.114498 427.89725 
z
" clip-path="url(#pd60e70d063)" style="fill: #808080; opacity: 0.6; stroke: #808080; stroke-width: 0.8; stroke-linecap: round"/>
   </g>
   <g id="patch_13">
    <path d="M 103.134672 216.592109 
Q 207.661999 302.948633 336.285876 342.918992 
" clip-path="url(#pd60e70d063)" style="fill: none; opacity: 0.6; stroke: #808080; stroke-width: 0.8; stroke-linecap: round"/>
    <path d="M 335.963246 342.609299 
L 336.285876 342.918992 
L 335.844544 342.99128 
z
" clip-path="url(#pd60e70d063)" style="fill: #808080; opacity: 0.6; stroke: #808080; stroke-width: 0.8; stroke-linecap: round"/>
   </g>
   <g id="patch_14">
    <path d="M 103.45413 216.045326 
Q 216.107711 260.086794 336.154765 258.183126 
" clip-path="url(#pd60e70d063)" style="fill: none; opacity: 0.6; stroke: #808080; stroke-width: 0.8; stroke-linecap: round"/>
    <path d="M 335.751644 257.989493 
L 336.154765 258.183126 
L 335.757987 258.389443 
z
" clip-path="url(#pd60e70d063)" style="fill: #808080; opacity: 0.6; stroke: #808080; stroke-width: 0.8; stroke-linecap: round"/>
   </g>
   <g id="patch_15">
    <path d="M 103.592298 215.348819 
Q 224.53362 217.266406 336.354125 173.550348 
" clip-path="url(#pd60e70d063)" style="fill: none; opacity: 0.6; stroke: #808080; stroke-width: 0.8; stroke-linecap: round"/>
    <path d="M 335.90876 173.509722 
L 336.354125 173.550348 
L 336.054405 173.882264 
z
" clip-path="url(#pd60e70d063)" style="fill: #808080; opacity: 0.6; stroke: #808080; stroke-width: 0.8; stroke-linecap: round"/>
   </g>
   <g id="patch_16">
    <path d="M 103.505947 214.722125 
Q 232.983387 174.485278 336.8206 88.697373 
" clip-path="url(#pd60e70d063)" style="fill: none; opacity: 0.6; stroke: #808080; stroke-width: 0.8; stroke-linecap: round"/>
    <path d="M 336.384845 88.797957 
L 336.8206 88.697373 
L 336.639614 89.106328 
z
" clip-path="url(#pd60e70d063)" style="fill: #808080; opacity: 0.6; stroke: #808080; stroke-width: 0.8; stroke-linecap: round"/>
   </g>
   <g id="patch_17">
    <path d="M 102.505009 131.455317 
Q 190.653122 303.049135 336.844881 427.541189 
" clip-path="url(#pd60e70d063)" style="fill: none; opacity: 0.6; stroke: #808080; stroke-width: 0.8; stroke-linecap: round"/>
    <path d="M 336.670009 427.129583 
L 336.844881 427.541189 
L 336.410672 427.434123 
z
" clip-path="url(#pd60e70d063)" style="fill: #808080; opacity: 0.6; stroke: #808080; stroke-width: 0.8; stroke-linecap: round"/>
   </g>
   <g id="patch_18">
    <path d="M 102.790492 131.280486 
Q 199.172351 260.180379 336.560453 342.290484 
" clip-path="url(#pd60e70d063)" style="fill: none; opacity: 0.6; stroke: #808080; stroke-width: 0.8; stroke-linecap: round"/>
    <path d="M 336.319703 341.913603 
L 336.560453 342.290484 
L 336.114498 342.256956 
z
" clip-path="url(#pd60e70d063)" style="fill: #808080; opacity: 0.6; stroke: #808080; stroke-width: 0.8; stroke-linecap: round"/>
   </g>
   <g id="patch_19">
    <path d="M 103.134672 130.951814 
Q 207.661999 217.308338 336.285876 257.278698 
" clip-path="url(#pd60e70d063)" style="fill: none; opacity: 0.6; stroke: #808080; stroke-width: 0.8; stroke-linecap: round"/>
    <path d="M 335.963246 256.969005 
L 336.285876 257.278698 
L 335.844544 257.350986 
z
" clip-path="url(#pd60e70d063)" style="fill: #808080; opacity: 0.6; stroke: #808080; stroke-width: 0.8; stroke-linecap: round"/>
   </g>
   <g id="patch_20">
    <path d="M 103.45413 130.405031 
Q 216.107711 174.446499 336.154765 172.542832 
" clip-path="url(#pd60e70d063)" style="fill: none; opacity: 0.6; stroke: #808080; stroke-width: 0.8; stroke-linecap: round"/>
    <path d="M 335.751644 172.349199 
L 336.154765 172.542832 
L 335.757987 172.749149 
z
" clip-path="url(#pd60e70d063)" style="fill: #808080; opacity: 0.6; stroke: #808080; stroke-width: 0.8; stroke-linecap: round"/>
   </g>
   <g id="patch_21">
    <path d="M 103.592298 129.708525 
Q 224.53362 131.626112 336.354125 87.910054 
" clip-path="url(#pd60e70d063)" style="fill: none; opacity: 0.6; stroke: #808080; stroke-width: 0.8; stroke-linecap: round"/>
    <path d="M 335.90876 87.869428 
L 336.354125 87.910054 
L 336.054405 88.24197 
z
" clip-path="url(#pd60e70d063)" style="fill: #808080; opacity: 0.6; stroke: #808080; stroke-width: 0.8; stroke-linecap: round"/>
   </g>
   <g id="patch_22">
    <path d="M 382.928251 429.115548 
Q 508.112003 409.974177 615.92878 345.265849 
" clip-path="url(#pd60e70d063)" style="fill: none; opacity: 0.6; stroke: #808080; stroke-width: 0.8; stroke-linecap: round"/>
    <path d="M 615.482888 345.300204 
L 615.92878 345.265849 
L 615.688729 345.643175 
z
" clip-path="url(#pd60e70d063)" style="fill: #808080; opacity: 0.6; stroke: #808080; stroke-width: 0.8; stroke-linecap: round"/>
   </g>
   <g id="patch_23">
    <path d="M 382.770556 428.583358 
Q 516.577991 367.204998 616.431705 260.254664 
" clip-path="url(#pd60e70d063)" style="fill: none; opacity: 0.6; stroke: #808080; stroke-width: 0.8; stroke-linecap: round"/>
    <path d="M 616.01254 260.410552 
L 616.431705 260.254664 
L 616.304917 260.683528 
z
" clip-path="url(#pd60e70d063)" style="fill: #808080; opacity: 0.6; stroke: #808080; stroke-width: 0.8; stroke-linecap: round"/>
   </g>
   <g id="patch_24">
    <path d="M 382.570086 428.238814 
Q 525.08572 324.434931 616.895051 174.961162 
" clip-path="url(#pd60e70d063)" style="fill: none; opacity: 0.6; stroke: #808080; stroke-width: 0.8; stroke-linecap: round"/>
    <path d="M 616.51528 175.197328 
L 616.895051 174.961162 
L 616.856121 175.406678 
z
" clip-path="url(#pd60e70d063)" style="fill: #808080; opacity: 0.6; stroke: #808080; stroke-width: 0.8; stroke-linecap: round"/>
   </g>
   <g id="patch_25">
    <path d="M 382.9122 344.163216 
Q 499.680904 367.131386 615.571997 344.335487 
" clip-path="url(#pd60e70d063)" style="fill: none; opacity: 0.6; stroke: #808080; stroke-width: 0.8; stroke-linecap: round"/>
    <path d="M 615.140917 344.216448 
L 615.571997 344.335487 
L 615.218118 344.608928 
z
" clip-path="url(#pd60e70d063)" style="fill: #808080; opacity: 0.6; stroke: #808080; stroke-width: 0.8; stroke-linecap: round"/>
   </g>
   <g id="patch_26">
    <path d="M 382.928251 343.475254 
Q 508.112003 324.333883 615.92878 259.625555 
" clip-path="url(#pd60e70d063)" style="fill: none; opacity: 0.6; stroke: #808080; stroke-width: 0.8; stroke-linecap: round"/>
    <path d="M 615.482888 259.65991 
L 615.92878 259.625555 
L 615.688729 260.002881 
z
" clip-path="url(#pd60e70d063)" style="fill: #808080; opacity: 0.6; stroke: #808080; stroke-width: 0.8; stroke-linecap: round"/>
   </g>
   <g id="patch_27">
    <path d="M 382.770556 342.943064 
Q 516.577991 281.564704 616.431705 174.61437 
" clip-path="url(#pd60e70d063)" style="fill: none; opacity: 0.6; stroke: #808080; stroke-width: 0.8; stroke-linecap: round"/>
    <path d="M 616.01254 174.770258 
L 616.431705 174.61437 
L 616.304917 175.043234 
z
" clip-path="url(#pd60e70d063)" style="fill: #808080; opacity: 0.6; stroke: #808080; stroke-width: 0.8; stroke-linecap: round"/>
   </g>
   <g id="patch_28">
    <path d="M 382.664259 259.165248 
Q 491.24794 324.333863 615.547537 343.340052 
" clip-path="url(#pd60e70d063)" style="fill: none; opacity: 0.6; stroke: #808080; stroke-width: 0.8; stroke-linecap: round"/>
    <path d="M 615.182363 343.08189 
L 615.547537 343.340052 
L 615.121903 343.477294 
z
" clip-path="url(#pd60e70d063)" style="fill: #808080; opacity: 0.6; stroke: #808080; stroke-width: 0.8; stroke-linecap: round"/>
   </g>
   <g id="patch_29">
    <path d="M 382.9122 258.522921 
Q 499.680904 281.491092 615.571997 258.695193 
" clip-path="url(#pd60e70d063)" style="fill: none; opacity: 0.6; stroke: #808080; stroke-width: 0.8; stroke-linecap: round"/>
    <path d="M 615.140917 258.576154 
L 615.571997 258.695193 
L 615.218118 258.968633 
z
" clip-path="url(#pd60e70d063)" style="fill: #808080; opacity: 0.6; stroke: #808080; stroke-width: 0.8; stroke-linecap: round"/>
   </g>
   <g id="patch_30">
    <path d="M 382.928251 257.834959 
Q 508.112003 238.693589 615.92878 173.98526 
" clip-path="url(#pd60e70d063)" style="fill: none; opacity: 0.6; stroke: #808080; stroke-width: 0.8; stroke-linecap: round"/>
    <path d="M 615.482888 174.019616 
L 615.92878 173.98526 
L 615.688729 174.362587 
z
" clip-path="url(#pd60e70d063)" style="fill: #808080; opacity: 0.6; stroke: #808080; stroke-width: 0.8; stroke-linecap: round"/>
   </g>
   <g id="patch_31">
    <path d="M 382.314694 173.957159 
Q 482.778268 281.562005 615.772195 342.568181 
" clip-path="url(#pd60e70d063)" style="fill: none; opacity: 0.6; stroke: #808080; stroke-width: 0.8; stroke-linecap: round"/>
    <path d="M 615.49201 342.219618 
L 615.772195 342.568181 
L 615.325234 342.583191 
z
" clip-path="url(#pd60e70d063)" style="fill: #808080; opacity: 0.6; stroke: #808080; stroke-width: 0.8; stroke-linecap: round"/>
   </g>
   <g id="patch_32">
    <path d="M 382.664259 173.524954 
Q 491.24794 238.693568 615.547537 257.699758 
" clip-path="url(#pd60e70d063)" style="fill: none; opacity: 0.6; stroke: #808080; stroke-width: 0.8; stroke-linecap: round"/>
    <path d="M 615.182363 257.441596 
L 615.547537 257.699758 
L 615.121903 257.837 
z
" clip-path="url(#pd60e70d063)" style="fill: #808080; opacity: 0.6; stroke: #808080; stroke-width: 0.8; stroke-linecap: round"/>
   </g>
   <g id="patch_33">
    <path d="M 382.9122 172.882627 
Q 499.680904 195.850798 615.571997 173.054899 
" clip-path="url(#pd60e70d063)" style="fill: none; opacity: 0.6; stroke: #808080; stroke-width: 0.8; stroke-linecap: round"/>
    <path d="M 615.140917 172.93586 
L 615.571997 173.054899 
L 615.218118 173.328339 
z
" clip-path="url(#pd60e70d063)" style="fill: #808080; opacity: 0.6; stroke: #808080; stroke-width: 0.8; stroke-linecap: round"/>
   </g>
   <g id="patch_34">
    <path d="M 381.997033 88.559059 
Q 474.274541 238.794919 616.067252 342.072156 
" clip-path="url(#pd60e70d063)" style="fill: none; opacity: 0.6; stroke: #808080; stroke-width: 0.8; stroke-linecap: round"/>
    <path d="M 615.861676 341.674993 
L 616.067252 342.072156 
L 615.626176 341.998319 
z
" clip-path="url(#pd60e70d063)" style="fill: #808080; opacity: 0.6; stroke: #808080; stroke-width: 0.8; stroke-linecap: round"/>
   </g>
   <g id="patch_35">
    <path d="M 382.314694 88.316865 
Q 482.778268 195.921711 615.772195 256.927887 
" clip-path="url(#pd60e70d063)" style="fill: none; opacity: 0.6; stroke: #808080; stroke-width: 0.8; stroke-linecap: round"/>
    <path d="M 615.49201 256.579324 
L 615.772195 256.927887 
L 615.325234 256.942897 
z
" clip-path="url(#pd60e70d063)" style="fill: #808080; opacity: 0.6; stroke: #808080; stroke-width: 0.8; stroke-linecap: round"/>
   </g>
   <g id="patch_36">
    <path d="M 382.664259 87.88466 
Q 491.24794 153.053274 615.547537 172.059464 
" clip-path="url(#pd60e70d063)" style="fill: none; opacity: 0.6; stroke: #808080; stroke-width: 0.8; stroke-linecap: round"/>
    <path d="M 615.182363 171.801302 
L 615.547537 172.059464 
L 615.121903 172.196706 
z
" clip-path="url(#pd60e70d063)" style="fill: #808080; opacity: 0.6; stroke: #808080; stroke-width: 0.8; stroke-linecap: round"/>
   </g>
   <g id="text_1">
    <!-- $x_1$ -->
    <g transform="translate(53.832 389.905809) scale(0.12 -0.12)">
     <defs>
      <path id="DejaVuSans-Oblique-78" d="M 3841 3500 
L 2234 1784 
L 3219 0 
L 2559 0 
L 1819 1388 
L 531 0 
L -166 0 
L 1556 1844 
L 641 3500 
L 1300 3500 
L 1972 2234 
L 3144 3500 
L 3841 3500 
z
" transform="scale(0.015625)"/>
      <path id="DejaVuSans-31" d="M 794 531 
L 1825 531 
L 1825 4091 
L 703 3866 
L 703 4441 
L 1819 4666 
L 2450 4666 
L 2450 531 
L 3481 531 
L 3481 0 
L 794 0 
L 794 531 
z
" transform="scale(0.015625)"/>
     </defs>
     <use xlink:href="#DejaVuSans-Oblique-78" transform="translate(0 0.3125)"/>
     <use xlink:href="#DejaVuSans-31" transform="translate(59.179688 -16.09375) scale(0.7)"/>
    </g>
   </g>
   <g id="text_2">
    <!-- $x_2$ -->
    <g transform="translate(53.832 304.265515) scale(0.12 -0.12)">
     <defs>
      <path id="DejaVuSans-32" d="M 1228 531 
L 3431 531 
L 3431 0 
L 469 0 
L 469 531 
Q 828 903 1448 1529 
Q 2069 2156 2228 2338 
Q 2531 2678 2651 2914 
Q 2772 3150 2772 3378 
Q 2772 3750 2511 3984 
Q 2250 4219 1831 4219 
Q 1534 4219 1204 4116 
Q 875 4013 500 3803 
L 500 4441 
Q 881 4594 1212 4672 
Q 1544 4750 1819 4750 
Q 2544 4750 2975 4387 
Q 3406 4025 3406 3419 
Q 3406 3131 3298 2873 
Q 3191 2616 2906 2266 
Q 2828 2175 2409 1742 
Q 1991 1309 1228 531 
z
" transform="scale(0.015625)"/>
     </defs>
     <use xlink:href="#DejaVuSans-Oblique-78" transform="translate(0 0.3125)"/>
     <use xlink:href="#DejaVuSans-32" transform="translate(59.179688 -16.09375) scale(0.7)"/>
    </g>
   </g>
   <g id="text_3">
    <!-- $x_3$ -->
    <g transform="translate(53.832 218.625221) scale(0.12 -0.12)">
     <defs>
      <path id="DejaVuSans-33" d="M 2597 2516 
Q 3050 2419 3304 2112 
Q 3559 1806 3559 1356 
Q 3559 666 3084 287 
Q 2609 -91 1734 -91 
Q 1441 -91 1130 -33 
Q 819 25 488 141 
L 488 750 
Q 750 597 1062 519 
Q 1375 441 1716 441 
Q 2309 441 2620 675 
Q 2931 909 2931 1356 
Q 2931 1769 2642 2001 
Q 2353 2234 1838 2234 
L 1294 2234 
L 1294 2753 
L 1863 2753 
Q 2328 2753 2575 2939 
Q 2822 3125 2822 3475 
Q 2822 3834 2567 4026 
Q 2313 4219 1838 4219 
Q 1578 4219 1281 4162 
Q 984 4106 628 3988 
L 628 4550 
Q 988 4650 1302 4700 
Q 1616 4750 1894 4750 
Q 2613 4750 3031 4423 
Q 3450 4097 3450 3541 
Q 3450 3153 3228 2886 
Q 3006 2619 2597 2516 
z
" transform="scale(0.015625)"/>
     </defs>
     <use xlink:href="#DejaVuSans-Oblique-78" transform="translate(0 0.3125)"/>
     <use xlink:href="#DejaVuSans-33" transform="translate(59.179688 -16.09375) scale(0.7)"/>
    </g>
   </g>
   <g id="text_4">
    <!-- $x_4$ -->
    <g transform="translate(53.832 132.984926) scale(0.12 -0.12)">
     <defs>
      <path id="DejaVuSans-34" d="M 2419 4116 
L 825 1625 
L 2419 1625 
L 2419 4116 
z
M 2253 4666 
L 3047 4666 
L 3047 1625 
L 3713 1625 
L 3713 1100 
L 3047 1100 
L 3047 0 
L 2419 0 
L 2419 1100 
L 313 1100 
L 313 1709 
L 2253 4666 
z
" transform="scale(0.015625)"/>
     </defs>
     <use xlink:href="#DejaVuSans-Oblique-78" transform="translate(0 0.3125)"/>
     <use xlink:href="#DejaVuSans-34" transform="translate(59.179688 -16.09375) scale(0.7)"/>
    </g>
   </g>
   <g id="text_5">
    <g id="patch_37">
     <path d="M 61.122031 495.867005 
L 100.157969 495.867005 
Q 107.157969 495.867005 107.157969 488.867005 
L 107.157969 459.640692 
Q 107.157969 452.640692 100.157969 452.640692 
L 61.122031 452.640692 
Q 54.122031 452.640692 54.122031 459.640692 
L 54.122031 488.867005 
Q 54.122031 495.867005 61.122031 495.867005 
z
" style="fill: #ffffff; opacity: 0.7; stroke: #000000; stroke-linejoin: miter"/>
    </g>
    <!-- Input -->
    <g transform="translate(62.514375 470.278505) scale(0.14 -0.14)">
     <defs>
      <path id="DejaVuSans-49" d="M 628 4666 
L 1259 4666 
L 1259 0 
L 628 0 
L 628 4666 
z
" transform="scale(0.015625)"/>
      <path id="DejaVuSans-6e" d="M 3513 2113 
L 3513 0 
L 2938 0 
L 2938 2094 
Q 2938 2591 2744 2837 
Q 2550 3084 2163 3084 
Q 1697 3084 1428 2787 
Q 1159 2491 1159 1978 
L 1159 0 
L 581 0 
L 581 3500 
L 1159 3500 
L 1159 2956 
Q 1366 3272 1645 3428 
Q 1925 3584 2291 3584 
Q 2894 3584 3203 3211 
Q 3513 2838 3513 2113 
z
" transform="scale(0.015625)"/>
      <path id="DejaVuSans-70" d="M 1159 525 
L 1159 -1331 
L 581 -1331 
L 581 3500 
L 1159 3500 
L 1159 2969 
Q 1341 3281 1617 3432 
Q 1894 3584 2278 3584 
Q 2916 3584 3314 3078 
Q 3713 2572 3713 1747 
Q 3713 922 3314 415 
Q 2916 -91 2278 -91 
Q 1894 -91 1617 61 
Q 1341 213 1159 525 
z
M 3116 1747 
Q 3116 2381 2855 2742 
Q 2594 3103 2138 3103 
Q 1681 3103 1420 2742 
Q 1159 2381 1159 1747 
Q 1159 1113 1420 752 
Q 1681 391 2138 391 
Q 2594 391 2855 752 
Q 3116 1113 3116 1747 
z
" transform="scale(0.015625)"/>
      <path id="DejaVuSans-75" d="M 544 1381 
L 544 3500 
L 1119 3500 
L 1119 1403 
Q 1119 906 1312 657 
Q 1506 409 1894 409 
Q 2359 409 2629 706 
Q 2900 1003 2900 1516 
L 2900 3500 
L 3475 3500 
L 3475 0 
L 2900 0 
L 2900 538 
Q 2691 219 2414 64 
Q 2138 -91 1772 -91 
Q 1169 -91 856 284 
Q 544 659 544 1381 
z
M 1991 3584 
L 1991 3584 
z
" transform="scale(0.015625)"/>
      <path id="DejaVuSans-74" d="M 1172 4494 
L 1172 3500 
L 2356 3500 
L 2356 3053 
L 1172 3053 
L 1172 1153 
Q 1172 725 1289 603 
Q 1406 481 1766 481 
L 2356 481 
L 2356 0 
L 1766 0 
Q 1100 0 847 248 
Q 594 497 594 1153 
L 594 3053 
L 172 3053 
L 172 3500 
L 594 3500 
L 594 4494 
L 1172 4494 
z
" transform="scale(0.015625)"/>
     </defs>
     <use xlink:href="#DejaVuSans-49"/>
     <use xlink:href="#DejaVuSans-6e" x="29.492188"/>
     <use xlink:href="#DejaVuSans-70" x="92.871094"/>
     <use xlink:href="#DejaVuSans-75" x="156.347656"/>
     <use xlink:href="#DejaVuSans-74" x="219.726562"/>
    </g>
    <!-- Layer -->
    <g transform="translate(61.122031 485.955442) scale(0.14 -0.14)">
     <defs>
      <path id="DejaVuSans-4c" d="M 628 4666 
L 1259 4666 
L 1259 531 
L 3531 531 
L 3531 0 
L 628 0 
L 628 4666 
z
" transform="scale(0.015625)"/>
      <path id="DejaVuSans-61" d="M 2194 1759 
Q 1497 1759 1228 1600 
Q 959 1441 959 1056 
Q 959 750 1161 570 
Q 1363 391 1709 391 
Q 2188 391 2477 730 
Q 2766 1069 2766 1631 
L 2766 1759 
L 2194 1759 
z
M 3341 1997 
L 3341 0 
L 2766 0 
L 2766 531 
Q 2569 213 2275 61 
Q 1981 -91 1556 -91 
Q 1019 -91 701 211 
Q 384 513 384 1019 
Q 384 1609 779 1909 
Q 1175 2209 1959 2209 
L 2766 2209 
L 2766 2266 
Q 2766 2663 2505 2880 
Q 2244 3097 1772 3097 
Q 1472 3097 1187 3025 
Q 903 2953 641 2809 
L 641 3341 
Q 956 3463 1253 3523 
Q 1550 3584 1831 3584 
Q 2591 3584 2966 3190 
Q 3341 2797 3341 1997 
z
" transform="scale(0.015625)"/>
      <path id="DejaVuSans-79" d="M 2059 -325 
Q 1816 -950 1584 -1140 
Q 1353 -1331 966 -1331 
L 506 -1331 
L 506 -850 
L 844 -850 
Q 1081 -850 1212 -737 
Q 1344 -625 1503 -206 
L 1606 56 
L 191 3500 
L 800 3500 
L 1894 763 
L 2988 3500 
L 3597 3500 
L 2059 -325 
z
" transform="scale(0.015625)"/>
      <path id="DejaVuSans-65" d="M 3597 1894 
L 3597 1613 
L 953 1613 
Q 991 1019 1311 708 
Q 1631 397 2203 397 
Q 2534 397 2845 478 
Q 3156 559 3463 722 
L 3463 178 
Q 3153 47 2828 -22 
Q 2503 -91 2169 -91 
Q 1331 -91 842 396 
Q 353 884 353 1716 
Q 353 2575 817 3079 
Q 1281 3584 2069 3584 
Q 2775 3584 3186 3129 
Q 3597 2675 3597 1894 
z
M 3022 2063 
Q 3016 2534 2758 2815 
Q 2500 3097 2075 3097 
Q 1594 3097 1305 2825 
Q 1016 2553 972 2059 
L 3022 2063 
z
" transform="scale(0.015625)"/>
      <path id="DejaVuSans-72" d="M 2631 2963 
Q 2534 3019 2420 3045 
Q 2306 3072 2169 3072 
Q 1681 3072 1420 2755 
Q 1159 2438 1159 1844 
L 1159 0 
L 581 0 
L 581 3500 
L 1159 3500 
L 1159 2956 
Q 1341 3275 1631 3429 
Q 1922 3584 2338 3584 
Q 2397 3584 2469 3576 
Q 2541 3569 2628 3553 
L 2631 2963 
z
" transform="scale(0.015625)"/>
     </defs>
     <use xlink:href="#DejaVuSans-4c"/>
     <use xlink:href="#DejaVuSans-61" x="55.712891"/>
     <use xlink:href="#DejaVuSans-79" x="116.992188"/>
     <use xlink:href="#DejaVuSans-65" x="176.171875"/>
     <use xlink:href="#DejaVuSans-72" x="237.695312"/>
    </g>
   </g>
   <g id="text_6">
    <g id="patch_38">
     <path d="M 335.159844 495.867005 
L 384.840156 495.867005 
Q 391.840156 495.867005 391.840156 488.867005 
L 391.840156 459.640692 
Q 391.840156 452.640692 384.840156 452.640692 
L 335.159844 452.640692 
Q 328.159844 452.640692 328.159844 459.640692 
L 328.159844 488.867005 
Q 328.159844 495.867005 335.159844 495.867005 
z
" style="fill: #ffffff; opacity: 0.7; stroke: #000000; stroke-linejoin: miter"/>
    </g>
    <!-- Hidden -->
    <g transform="translate(335.159844 470.278505) scale(0.14 -0.14)">
     <defs>
      <path id="DejaVuSans-48" d="M 628 4666 
L 1259 4666 
L 1259 2753 
L 3553 2753 
L 3553 4666 
L 4184 4666 
L 4184 0 
L 3553 0 
L 3553 2222 
L 1259 2222 
L 1259 0 
L 628 0 
L 628 4666 
z
" transform="scale(0.015625)"/>
      <path id="DejaVuSans-69" d="M 603 3500 
L 1178 3500 
L 1178 0 
L 603 0 
L 603 3500 
z
M 603 4863 
L 1178 4863 
L 1178 4134 
L 603 4134 
L 603 4863 
z
" transform="scale(0.015625)"/>
      <path id="DejaVuSans-64" d="M 2906 2969 
L 2906 4863 
L 3481 4863 
L 3481 0 
L 2906 0 
L 2906 525 
Q 2725 213 2448 61 
Q 2172 -91 1784 -91 
Q 1150 -91 751 415 
Q 353 922 353 1747 
Q 353 2572 751 3078 
Q 1150 3584 1784 3584 
Q 2172 3584 2448 3432 
Q 2725 3281 2906 2969 
z
M 947 1747 
Q 947 1113 1208 752 
Q 1469 391 1925 391 
Q 2381 391 2643 752 
Q 2906 1113 2906 1747 
Q 2906 2381 2643 2742 
Q 2381 3103 1925 3103 
Q 1469 3103 1208 2742 
Q 947 2381 947 1747 
z
" transform="scale(0.015625)"/>
     </defs>
     <use xlink:href="#DejaVuSans-48"/>
     <use xlink:href="#DejaVuSans-69" x="75.195312"/>
     <use xlink:href="#DejaVuSans-64" x="102.978516"/>
     <use xlink:href="#DejaVuSans-64" x="166.455078"/>
     <use xlink:href="#DejaVuSans-65" x="229.931641"/>
     <use xlink:href="#DejaVuSans-6e" x="291.455078"/>
    </g>
    <!-- Layer -->
    <g transform="translate(340.482031 485.955442) scale(0.14 -0.14)">
     <use xlink:href="#DejaVuSans-4c"/>
     <use xlink:href="#DejaVuSans-61" x="55.712891"/>
     <use xlink:href="#DejaVuSans-79" x="116.992188"/>
     <use xlink:href="#DejaVuSans-65" x="176.171875"/>
     <use xlink:href="#DejaVuSans-72" x="237.695312"/>
    </g>
   </g>
   <g id="text_7">
    <!-- $y_1$ -->
    <g transform="translate(653.328 347.061287) scale(0.12 -0.12)">
     <defs>
      <path id="DejaVuSans-Oblique-79" d="M 1588 -325 
Q 1188 -997 936 -1164 
Q 684 -1331 294 -1331 
L -159 -1331 
L -63 -850 
L 269 -850 
Q 509 -850 678 -719 
Q 847 -588 1056 -206 
L 1234 128 
L 459 3500 
L 1069 3500 
L 1650 819 
L 3256 3500 
L 3859 3500 
L 1588 -325 
z
" transform="scale(0.015625)"/>
     </defs>
     <use xlink:href="#DejaVuSans-Oblique-79" transform="translate(0 0.3125)"/>
     <use xlink:href="#DejaVuSans-31" transform="translate(59.179688 -16.09375) scale(0.7)"/>
    </g>
   </g>
   <g id="text_8">
    <!-- $y_2$ -->
    <g transform="translate(653.328 261.420993) scale(0.12 -0.12)">
     <use xlink:href="#DejaVuSans-Oblique-79" transform="translate(0 0.3125)"/>
     <use xlink:href="#DejaVuSans-32" transform="translate(59.179688 -16.09375) scale(0.7)"/>
    </g>
   </g>
   <g id="text_9">
    <!-- $y_3$ -->
    <g transform="translate(653.328 175.780699) scale(0.12 -0.12)">
     <use xlink:href="#DejaVuSans-Oblique-79" transform="translate(0 0.3125)"/>
     <use xlink:href="#DejaVuSans-33" transform="translate(59.179688 -16.09375) scale(0.7)"/>
    </g>
   </g>
   <g id="text_10">
    <g id="patch_39">
     <path d="M 615.044844 495.867005 
L 663.675156 495.867005 
Q 670.675156 495.867005 670.675156 488.867005 
L 670.675156 459.640692 
Q 670.675156 452.640692 663.675156 452.640692 
L 615.044844 452.640692 
Q 608.044844 452.640692 608.044844 459.640692 
L 608.044844 488.867005 
Q 608.044844 495.867005 615.044844 495.867005 
z
" style="fill: #ffffff; opacity: 0.7; stroke: #000000; stroke-linejoin: miter"/>
    </g>
    <!-- Output -->
    <g transform="translate(615.044844 470.278505) scale(0.14 -0.14)">
     <defs>
      <path id="DejaVuSans-4f" d="M 2522 4238 
Q 1834 4238 1429 3725 
Q 1025 3213 1025 2328 
Q 1025 1447 1429 934 
Q 1834 422 2522 422 
Q 3209 422 3611 934 
Q 4013 1447 4013 2328 
Q 4013 3213 3611 3725 
Q 3209 4238 2522 4238 
z
M 2522 4750 
Q 3503 4750 4090 4092 
Q 4678 3434 4678 2328 
Q 4678 1225 4090 567 
Q 3503 -91 2522 -91 
Q 1538 -91 948 565 
Q 359 1222 359 2328 
Q 359 3434 948 4092 
Q 1538 4750 2522 4750 
z
" transform="scale(0.015625)"/>
     </defs>
     <use xlink:href="#DejaVuSans-4f"/>
     <use xlink:href="#DejaVuSans-75" x="78.710938"/>
     <use xlink:href="#DejaVuSans-74" x="142.089844"/>
     <use xlink:href="#DejaVuSans-70" x="181.298828"/>
     <use xlink:href="#DejaVuSans-75" x="244.775391"/>
     <use xlink:href="#DejaVuSans-74" x="308.154297"/>
    </g>
    <!-- Layer -->
    <g transform="translate(619.842031 485.955442) scale(0.14 -0.14)">
     <use xlink:href="#DejaVuSans-4c"/>
     <use xlink:href="#DejaVuSans-61" x="55.712891"/>
     <use xlink:href="#DejaVuSans-79" x="116.992188"/>
     <use xlink:href="#DejaVuSans-65" x="176.171875"/>
     <use xlink:href="#DejaVuSans-72" x="237.695312"/>
    </g>
   </g>
   <g id="text_11">
    <!-- Neural Network Architecture -->
    <g transform="translate(246.15375 23.76) scale(0.16 -0.16)">
     <defs>
      <path id="DejaVuSans-4e" d="M 628 4666 
L 1478 4666 
L 3547 763 
L 3547 4666 
L 4159 4666 
L 4159 0 
L 3309 0 
L 1241 3903 
L 1241 0 
L 628 0 
L 628 4666 
z
" transform="scale(0.015625)"/>
      <path id="DejaVuSans-6c" d="M 603 4863 
L 1178 4863 
L 1178 0 
L 603 0 
L 603 4863 
z
" transform="scale(0.015625)"/>
      <path id="DejaVuSans-20" transform="scale(0.015625)"/>
      <path id="DejaVuSans-77" d="M 269 3500 
L 844 3500 
L 1563 769 
L 2278 3500 
L 2956 3500 
L 3675 769 
L 4391 3500 
L 4966 3500 
L 4050 0 
L 3372 0 
L 2619 2869 
L 1863 0 
L 1184 0 
L 269 3500 
z
" transform="scale(0.015625)"/>
      <path id="DejaVuSans-6f" d="M 1959 3097 
Q 1497 3097 1228 2736 
Q 959 2375 959 1747 
Q 959 1119 1226 758 
Q 1494 397 1959 397 
Q 2419 397 2687 759 
Q 2956 1122 2956 1747 
Q 2956 2369 2687 2733 
Q 2419 3097 1959 3097 
z
M 1959 3584 
Q 2709 3584 3137 3096 
Q 3566 2609 3566 1747 
Q 3566 888 3137 398 
Q 2709 -91 1959 -91 
Q 1206 -91 779 398 
Q 353 888 353 1747 
Q 353 2609 779 3096 
Q 1206 3584 1959 3584 
z
" transform="scale(0.015625)"/>
      <path id="DejaVuSans-6b" d="M 581 4863 
L 1159 4863 
L 1159 1991 
L 2875 3500 
L 3609 3500 
L 1753 1863 
L 3688 0 
L 2938 0 
L 1159 1709 
L 1159 0 
L 581 0 
L 581 4863 
z
" transform="scale(0.015625)"/>
      <path id="DejaVuSans-41" d="M 2188 4044 
L 1331 1722 
L 3047 1722 
L 2188 4044 
z
M 1831 4666 
L 2547 4666 
L 4325 0 
L 3669 0 
L 3244 1197 
L 1141 1197 
L 716 0 
L 50 0 
L 1831 4666 
z
" transform="scale(0.015625)"/>
      <path id="DejaVuSans-63" d="M 3122 3366 
L 3122 2828 
Q 2878 2963 2633 3030 
Q 2388 3097 2138 3097 
Q 1578 3097 1268 2742 
Q 959 2388 959 1747 
Q 959 1106 1268 751 
Q 1578 397 2138 397 
Q 2388 397 2633 464 
Q 2878 531 3122 666 
L 3122 134 
Q 2881 22 2623 -34 
Q 2366 -91 2075 -91 
Q 1284 -91 818 406 
Q 353 903 353 1747 
Q 353 2603 823 3093 
Q 1294 3584 2113 3584 
Q 2378 3584 2631 3529 
Q 2884 3475 3122 3366 
z
" transform="scale(0.015625)"/>
      <path id="DejaVuSans-68" d="M 3513 2113 
L 3513 0 
L 2938 0 
L 2938 2094 
Q 2938 2591 2744 2837 
Q 2550 3084 2163 3084 
Q 1697 3084 1428 2787 
Q 1159 2491 1159 1978 
L 1159 0 
L 581 0 
L 581 4863 
L 1159 4863 
L 1159 2956 
Q 1366 3272 1645 3428 
Q 1925 3584 2291 3584 
Q 2894 3584 3203 3211 
Q 3513 2838 3513 2113 
z
" transform="scale(0.015625)"/>
     </defs>
     <use xlink:href="#DejaVuSans-4e"/>
     <use xlink:href="#DejaVuSans-65" x="74.804688"/>
     <use xlink:href="#DejaVuSans-75" x="136.328125"/>
     <use xlink:href="#DejaVuSans-72" x="199.707031"/>
     <use xlink:href="#DejaVuSans-61" x="240.820312"/>
     <use xlink:href="#DejaVuSans-6c" x="302.099609"/>
     <use xlink:href="#DejaVuSans-20" x="329.882812"/>
     <use xlink:href="#DejaVuSans-4e" x="361.669922"/>
     <use xlink:href="#DejaVuSans-65" x="436.474609"/>
     <use xlink:href="#DejaVuSans-74" x="497.998047"/>
     <use xlink:href="#DejaVuSans-77" x="537.207031"/>
     <use xlink:href="#DejaVuSans-6f" x="618.994141"/>
     <use xlink:href="#DejaVuSans-72" x="680.175781"/>
     <use xlink:href="#DejaVuSans-6b" x="721.289062"/>
     <use xlink:href="#DejaVuSans-20" x="779.199219"/>
     <use xlink:href="#DejaVuSans-41" x="810.986328"/>
     <use xlink:href="#DejaVuSans-72" x="879.394531"/>
     <use xlink:href="#DejaVuSans-63" x="918.257812"/>
     <use xlink:href="#DejaVuSans-68" x="973.238281"/>
     <use xlink:href="#DejaVuSans-69" x="1036.617188"/>
     <use xlink:href="#DejaVuSans-74" x="1064.400391"/>
     <use xlink:href="#DejaVuSans-65" x="1103.609375"/>
     <use xlink:href="#DejaVuSans-63" x="1165.132812"/>
     <use xlink:href="#DejaVuSans-74" x="1220.113281"/>
     <use xlink:href="#DejaVuSans-75" x="1259.322266"/>
     <use xlink:href="#DejaVuSans-72" x="1322.701172"/>
     <use xlink:href="#DejaVuSans-65" x="1361.564453"/>
    </g>
   </g>
   <g id="patch_40">
    <path d="M 80.64 404.94605 
C 86.196535 404.94605 91.526237 403.012421 95.455301 399.571023 
C 99.384365 396.129624 101.592 391.461431 101.592 386.594559 
C 101.592 381.727686 99.384365 377.059493 95.455301 373.618095 
C 91.526237 370.176696 86.196535 368.243067 80.64 368.243067 
C 75.083465 368.243067 69.753763 370.176696 65.824699 373.618095 
C 61.895635 377.059493 59.688 381.727686 59.688 386.594559 
C 59.688 391.461431 61.895635 396.129624 65.824699 399.571023 
C 69.753763 403.012421 75.083465 404.94605 80.64 404.94605 
z
" clip-path="url(#pd60e70d063)" style="fill: #b3e0ff; stroke: #000000; stroke-linejoin: miter"/>
   </g>
   <g id="patch_41">
    <path d="M 80.64 319.305756 
C 86.196535 319.305756 91.526237 317.372127 95.455301 313.930729 
C 99.384365 310.48933 101.592 305.821137 101.592 300.954265 
C 101.592 296.087392 99.384365 291.419199 95.455301 287.977801 
C 91.526237 284.536402 86.196535 282.602773 80.64 282.602773 
C 75.083465 282.602773 69.753763 284.536402 65.824699 287.977801 
C 61.895635 291.419199 59.688 296.087392 59.688 300.954265 
C 59.688 305.821137 61.895635 310.48933 65.824699 313.930729 
C 69.753763 317.372127 75.083465 319.305756 80.64 319.305756 
z
" clip-path="url(#pd60e70d063)" style="fill: #b3e0ff; stroke: #000000; stroke-linejoin: miter"/>
   </g>
   <g id="patch_42">
    <path d="M 80.64 233.665462 
C 86.196535 233.665462 91.526237 231.731833 95.455301 228.290435 
C 99.384365 224.849036 101.592 220.180843 101.592 215.313971 
C 101.592 210.447098 99.384365 205.778905 95.455301 202.337506 
C 91.526237 198.896108 86.196535 196.962479 80.64 196.962479 
C 75.083465 196.962479 69.753763 198.896108 65.824699 202.337506 
C 61.895635 205.778905 59.688 210.447098 59.688 215.313971 
C 59.688 220.180843 61.895635 224.849036 65.824699 228.290435 
C 69.753763 231.731833 75.083465 233.665462 80.64 233.665462 
z
" clip-path="url(#pd60e70d063)" style="fill: #b3e0ff; stroke: #000000; stroke-linejoin: miter"/>
   </g>
   <g id="patch_43">
    <path d="M 80.64 148.025168 
C 86.196535 148.025168 91.526237 146.091539 95.455301 142.650141 
C 99.384365 139.208742 101.592 134.540549 101.592 129.673676 
C 101.592 124.806804 99.384365 120.138611 95.455301 116.697212 
C 91.526237 113.255814 86.196535 111.322185 80.64 111.322185 
C 75.083465 111.322185 69.753763 113.255814 65.824699 116.697212 
C 61.895635 120.138611 59.688 124.806804 59.688 129.673676 
C 59.688 134.540549 61.895635 139.208742 65.824699 142.650141 
C 69.753763 146.091539 75.083465 148.025168 80.64 148.025168 
z
" clip-path="url(#pd60e70d063)" style="fill: #b3e0ff; stroke: #000000; stroke-linejoin: miter"/>
   </g>
   <g id="patch_44">
    <path d="M 360 447.766197 
C 365.556535 447.766197 370.886237 445.832569 374.815301 442.39117 
C 378.744365 438.949772 380.952 434.281578 380.952 429.414706 
C 380.952 424.547833 378.744365 419.87964 374.815301 416.438242 
C 370.886237 412.996843 365.556535 411.063214 360 411.063214 
C 354.443465 411.063214 349.113763 412.996843 345.184699 416.438242 
C 341.255635 419.87964 339.048 424.547833 339.048 429.414706 
C 339.048 434.281578 341.255635 438.949772 345.184699 442.39117 
C 349.113763 445.832569 354.443465 447.766197 360 447.766197 
z
" clip-path="url(#pd60e70d063)" style="fill: #d9d9d9; stroke: #000000; stroke-linejoin: miter"/>
   </g>
   <g id="patch_45">
    <path d="M 360 362.125903 
C 365.556535 362.125903 370.886237 360.192274 374.815301 356.750876 
C 378.744365 353.309477 380.952 348.641284 380.952 343.774412 
C 380.952 338.907539 378.744365 334.239346 374.815301 330.797948 
C 370.886237 327.356549 365.556535 325.42292 360 325.42292 
C 354.443465 325.42292 349.113763 327.356549 345.184699 330.797948 
C 341.255635 334.239346 339.048 338.907539 339.048 343.774412 
C 339.048 348.641284 341.255635 353.309477 345.184699 356.750876 
C 349.113763 360.192274 354.443465 362.125903 360 362.125903 
z
" clip-path="url(#pd60e70d063)" style="fill: #d9d9d9; stroke: #000000; stroke-linejoin: miter"/>
   </g>
   <g id="patch_46">
    <path d="M 360 276.485609 
C 365.556535 276.485609 370.886237 274.55198 374.815301 271.110582 
C 378.744365 267.669183 380.952 263.00099 380.952 258.134118 
C 380.952 253.267245 378.744365 248.599052 374.815301 245.157653 
C 370.886237 241.716255 365.556535 239.782626 360 239.782626 
C 354.443465 239.782626 349.113763 241.716255 345.184699 245.157653 
C 341.255635 248.599052 339.048 253.267245 339.048 258.134118 
C 339.048 263.00099 341.255635 267.669183 345.184699 271.110582 
C 349.113763 274.55198 354.443465 276.485609 360 276.485609 
z
" clip-path="url(#pd60e70d063)" style="fill: #d9d9d9; stroke: #000000; stroke-linejoin: miter"/>
   </g>
   <g id="patch_47">
    <path d="M 360 190.845315 
C 365.556535 190.845315 370.886237 188.911686 374.815301 185.470288 
C 378.744365 182.028889 380.952 177.360696 380.952 172.493824 
C 380.952 167.626951 378.744365 162.958758 374.815301 159.517359 
C 370.886237 156.075961 365.556535 154.142332 360 154.142332 
C 354.443465 154.142332 349.113763 156.075961 345.184699 159.517359 
C 341.255635 162.958758 339.048 167.626951 339.048 172.493824 
C 339.048 177.360696 341.255635 182.028889 345.184699 185.470288 
C 349.113763 188.911686 354.443465 190.845315 360 190.845315 
z
" clip-path="url(#pd60e70d063)" style="fill: #d9d9d9; stroke: #000000; stroke-linejoin: miter"/>
   </g>
   <g id="patch_48">
    <path d="M 360 105.205021 
C 365.556535 105.205021 370.886237 103.271392 374.815301 99.829994 
C 378.744365 96.388595 380.952 91.720402 380.952 86.853529 
C 380.952 81.986657 378.744365 77.318464 374.815301 73.877065 
C 370.886237 70.435667 365.556535 68.502038 360 68.502038 
C 354.443465 68.502038 349.113763 70.435667 345.184699 73.877065 
C 341.255635 77.318464 339.048 81.986657 339.048 86.853529 
C 339.048 91.720402 341.255635 96.388595 345.184699 99.829994 
C 349.113763 103.271392 354.443465 105.205021 360 105.205021 
z
" clip-path="url(#pd60e70d063)" style="fill: #d9d9d9; stroke: #000000; stroke-linejoin: miter"/>
   </g>
   <g id="patch_49">
    <path d="M 639.36 362.125903 
C 644.916535 362.125903 650.246237 360.192274 654.175301 356.750876 
C 658.104365 353.309477 660.312 348.641284 660.312 343.774412 
C 660.312 338.907539 658.104365 334.239346 654.175301 330.797948 
C 650.246237 327.356549 644.916535 325.42292 639.36 325.42292 
C 633.803465 325.42292 628.473763 327.356549 624.544699 330.797948 
C 620.615635 334.239346 618.408 338.907539 618.408 343.774412 
C 618.408 348.641284 620.615635 353.309477 624.544699 356.750876 
C 628.473763 360.192274 633.803465 362.125903 639.36 362.125903 
z
" clip-path="url(#pd60e70d063)" style="fill: #b3ffb3; stroke: #000000; stroke-linejoin: miter"/>
   </g>
   <g id="patch_50">
    <path d="M 639.36 276.485609 
C 644.916535 276.485609 650.246237 274.55198 654.175301 271.110582 
C 658.104365 267.669183 660.312 263.00099 660.312 258.134118 
C 660.312 253.267245 658.104365 248.599052 654.175301 245.157653 
C 650.246237 241.716255 644.916535 239.782626 639.36 239.782626 
C 633.803465 239.782626 628.473763 241.716255 624.544699 245.157653 
C 620.615635 248.599052 618.408 253.267245 618.408 258.134118 
C 618.408 263.00099 620.615635 267.669183 624.544699 271.110582 
C 628.473763 274.55198 633.803465 276.485609 639.36 276.485609 
z
" clip-path="url(#pd60e70d063)" style="fill: #b3ffb3; stroke: #000000; stroke-linejoin: miter"/>
   </g>
   <g id="patch_51">
    <path d="M 639.36 190.845315 
C 644.916535 190.845315 650.246237 188.911686 654.175301 185.470288 
C 658.104365 182.028889 660.312 177.360696 660.312 172.493824 
C 660.312 167.626951 658.104365 162.958758 654.175301 159.517359 
C 650.246237 156.075961 644.916535 154.142332 639.36 154.142332 
C 633.803465 154.142332 628.473763 156.075961 624.544699 159.517359 
C 620.615635 162.958758 618.408 167.626951 618.408 172.493824 
C 618.408 177.360696 620.615635 182.028889 624.544699 185.470288 
C 628.473763 188.911686 633.803465 190.845315 639.36 190.845315 
z
" clip-path="url(#pd60e70d063)" style="fill: #b3ffb3; stroke: #000000; stroke-linejoin: miter"/>
   </g>
  </g>
 </g>
 <defs>
  <clipPath id="pd60e70d063">
   <rect x="10.8" y="29.76" width="698.4" height="456.748235"/>
  </clipPath>
 </defs>
</svg>
